<svg width="54" height="53" viewBox="0 0 54 53" fill="none" xmlns="http://www.w3.org/2000/svg">
<path d="M15.9832 42.8314C13.4497 40.2888 10.8763 35.3808 9.57964 30.6185C8.87796 28.0413 8.58035 25.6104 8.71899 23.5885C8.87411 21.326 9.55475 19.5747 10.742 18.3832C12.2832 16.8365 15.5138 16.6254 19.2546 16.381C21.1038 16.2602 23.016 16.1353 24.9238 15.8375C26.9299 15.5241 29.0115 14.9818 31.0245 14.4574C35.3722 13.3247 39.4787 12.2548 41.2174 13.9998C42.3729 15.1594 43.1277 16.8914 43.4608 19.1477C43.7762 21.2835 43.6852 23.8304 43.1977 26.5131C42.1838 32.0925 39.5866 37.7081 36.2502 41.5349C34.6706 43.3466 32.9465 44.7334 31.126 45.6567C29.462 46.5005 27.7182 46.9585 25.9429 47.0178C22.3829 47.1367 18.7528 45.6109 15.9832 42.8314Z" fill="white"/>
<path d="M40.9498 14.2685C39.3642 12.6772 35.3595 13.7205 31.1196 14.8251C29.0976 15.3519 27.0068 15.8966 24.982 16.2129C23.0574 16.5133 21.1367 16.6388 19.2792 16.7601C17.4163 16.8818 15.6567 16.9968 14.1923 17.2791C12.6597 17.5746 11.6484 18.0108 11.0096 18.6519C9.88893 19.7766 9.24531 21.4463 9.09663 23.6146C8.96087 25.5945 9.25416 27.9818 9.94479 30.5183C11.2256 35.2225 13.7598 40.0628 16.2509 42.5628C18.9466 45.2682 22.4746 46.7536 25.9303 46.6381C27.6501 46.5807 29.3408 46.1364 30.9553 45.3176C32.7322 44.4165 34.4178 43.0596 35.9653 41.2847C39.2587 37.5073 41.8232 31.9598 42.8253 26.445C43.3055 23.8027 43.3957 21.2986 43.0864 19.2034C42.7699 17.0601 42.0311 15.3537 40.9498 14.2685ZM41.4851 13.7312C46.5112 18.7754 43.669 33.6027 36.5351 41.785C29.4011 49.9674 20.7417 48.1442 15.7156 43.1001C10.6895 38.0559 5.15255 23.4555 10.4743 18.1146C12.9064 15.6738 19.044 16.3708 24.8656 15.4622C31.3438 14.4501 38.7559 10.9922 41.4851 13.7312Z" fill="#707070"/>
<path d="M26.1238 22.0995V30.9135L25.5648 31.4075H25.0188V23.4255L23.4068 24.7775L22.8218 24.0495L25.1358 22.0995H26.1238ZM30.7449 22.0995V30.9135L30.1859 31.4075H29.6399V23.4255L28.0279 24.7775L27.4429 24.0495L29.7569 22.0995H30.7449Z" fill="black"/>
</svg>
