<svg width="54" height="53" viewBox="0 0 54 53" fill="none" xmlns="http://www.w3.org/2000/svg">
<path d="M16.1654 42.8315C13.6318 40.2888 11.0584 35.3808 9.76177 30.6185C9.06009 28.0414 8.76248 25.6105 8.90112 23.5886C9.05624 21.3261 9.73688 19.5748 10.9241 18.3833C12.4653 16.8366 15.696 16.6255 19.4368 16.3811C21.2859 16.2603 23.1981 16.1353 25.1059 15.8376C27.112 15.5242 29.1936 14.9819 31.2067 14.4574C35.5543 13.3247 39.6608 12.2549 41.3996 13.9999C42.555 15.1595 43.3098 16.8914 43.6429 19.1477C43.9583 21.2835 43.8673 23.8305 43.3798 26.5132C42.366 32.0925 39.7688 37.7081 36.4323 41.5349C34.8527 43.3467 33.1287 44.7335 31.3081 45.6567C29.6441 46.5006 27.9003 46.9585 26.125 47.0179C22.565 47.1368 18.9349 45.6109 16.1654 42.8315Z" fill="#ADD8E6"/>
<path d="M41.1319 14.2685C39.5463 12.6772 35.5416 13.7206 31.3018 14.8251C29.2797 15.3519 27.1889 15.8967 25.1641 16.213C23.2396 16.5133 21.3188 16.6388 19.4614 16.7602C17.5984 16.8819 15.8388 16.9969 14.3744 17.2792C12.8419 17.5747 11.8305 18.0109 11.1918 18.6519C10.0711 19.7767 9.42743 21.4464 9.27876 23.6147C9.143 25.5946 9.43629 27.9819 10.1269 30.5184C11.4077 35.2226 13.942 40.0629 16.433 42.5629C19.1287 45.2683 22.6567 46.7537 26.1124 46.6382C27.8323 46.5807 29.5229 46.1364 31.1374 45.3177C32.9143 44.4165 34.6 43.0597 36.1474 41.2848C39.4408 37.5074 42.0053 31.9598 43.0074 26.445C43.4876 23.8027 43.5779 21.2986 43.2685 19.2034C42.952 17.0602 42.2132 15.3537 41.1319 14.2685ZM41.6672 13.7313C46.6934 18.7754 43.8511 33.6027 36.7172 41.7851C29.5833 49.9675 20.9238 48.1443 15.8977 43.1001C10.8716 38.056 5.33468 23.4556 10.6564 18.1147C13.0885 15.6739 19.2261 16.3708 25.0478 15.4622C31.5259 14.4502 38.9381 10.9923 41.6672 13.7313Z" fill="#6D6060"/>
<path d="M26.3059 22.0996V30.9136L25.7469 31.4076H25.2009V23.4256L23.5889 24.7776L23.0039 24.0496L25.3179 22.0996H26.3059ZM30.927 22.0996V30.9136L30.368 31.4076H29.822V23.4256L28.21 24.7776L27.625 24.0496L29.939 22.0996H30.927Z" fill="black"/>
</svg>
