<svg width="30" height="35" viewBox="0 0 30 35" fill="none" xmlns="http://www.w3.org/2000/svg">
<path d="M19.1661 33.8454C15.6408 33.8454 10.9314 32.2851 7.16835 29.8703C5.17207 28.5893 3.51509 27.1108 2.37656 25.5945C1.11297 23.9117 0.47229 22.1945 0.47229 20.4906C0.47229 17.1492 3.36734 12.2777 8.02765 7.77703C10.19 5.6888 12.5068 3.90595 14.7277 2.62121C17.0578 1.27323 19.1464 0.56073 20.7676 0.56073C22.3132 0.56073 23.6983 1.29363 24.8845 2.73906C25.9475 4.03444 26.856 5.89618 27.5846 8.27254C29.2836 13.8137 29.4157 20.0318 29.4157 21.8056C29.4157 23.6616 29.1983 25.3508 28.7697 26.8264C28.3398 28.3063 27.695 29.5782 26.8532 30.6068C25.0943 32.7558 22.508 33.8454 19.1661 33.8454Z" fill="#E42A47"/>
<path d="M20.7678 0.940575C17.6606 0.940575 12.7629 3.73147 8.29035 8.05073C6.12296 10.1438 4.28311 12.3838 2.96971 14.5285C1.58368 16.7918 0.851063 18.8534 0.851063 20.4906C0.851063 22.1101 1.46611 23.7504 2.6791 25.3658C3.79082 26.8464 5.41377 28.2933 7.37251 29.5502C11.079 31.9287 15.7083 33.4655 19.1664 33.4655C22.3895 33.4655 24.8774 32.4225 26.5609 30.3656C27.3701 29.3769 27.9911 28.1504 28.4065 26.72C28.8251 25.279 29.0374 23.6256 29.0374 21.8056C29.0374 20.0452 28.9065 13.8747 27.223 8.38422C26.509 6.0555 25.624 4.23742 24.5925 2.98052C23.4661 1.60784 22.215 0.940575 20.7678 0.940575ZM20.7678 0.180786C27.8758 0.180786 29.7944 14.2524 29.7944 21.8056C29.7944 29.3587 26.2744 34.2253 19.1664 34.2253C12.0584 34.2253 0.0939941 28.0437 0.0939941 20.4906C0.0939941 12.9374 13.6598 0.180786 20.7678 0.180786Z" fill="#6D6060"/>
<path d="M13.9001 13.692V22.506L13.3411 23H12.7951V15.018L11.1831 16.37L10.5981 15.642L12.9121 13.692H13.9001ZM15.6612 14.368C16.4759 13.8393 17.2992 13.575 18.1312 13.575C18.9459 13.575 19.5569 13.8133 19.9642 14.29C20.3196 14.706 20.4972 15.2607 20.4972 15.954C20.4972 16.5 20.3586 17.033 20.0812 17.553C19.8299 17.995 19.3879 18.593 18.7552 19.347L16.9222 21.427L16.3892 22.077H20.6532V22.441L20.1982 23H15.2192V22.064L16.2072 20.881L18.2092 18.554C18.6079 18.0773 18.8896 17.6787 19.0542 17.358C19.2796 16.9247 19.3922 16.5043 19.3922 16.097C19.3922 15.6463 19.2579 15.2823 18.9892 15.005C18.7206 14.7277 18.3609 14.589 17.9102 14.589C17.3816 14.589 16.8312 14.7927 16.2592 15.2L15.6612 14.368Z" fill="black"/>
</svg>
