<svg width="31" height="35" viewBox="0 0 31 35" fill="none" xmlns="http://www.w3.org/2000/svg">
<path d="M19.984 33.8454C16.4587 33.8454 11.7493 32.285 7.98622 29.8703C5.98994 28.5893 4.33296 27.1107 3.19443 25.5945C1.93085 23.9117 1.29016 22.1945 1.29016 20.4906C1.29016 17.1492 4.18521 12.2776 8.84552 7.77697C11.0078 5.68874 13.3247 3.90589 15.5455 2.62115C17.8757 1.27317 19.9643 0.560669 21.5855 0.560669C23.1311 0.560669 24.5162 1.29357 25.7024 2.739C26.7654 4.03438 27.6738 5.89612 28.4025 8.27248C30.1015 13.8136 30.2335 20.0318 30.2335 21.8056C30.2335 23.6616 30.0162 25.3508 29.5876 26.8263C29.1577 28.3062 28.5129 29.5782 27.671 30.6067C25.9121 32.7557 23.3258 33.8454 19.984 33.8454Z" fill="white"/>
<path d="M21.5857 0.940575C18.4784 0.940575 13.5807 3.73147 9.10822 8.05073C6.94084 10.1438 5.10098 12.3838 3.78758 14.5285C2.40155 16.7918 1.66893 18.8534 1.66893 20.4906C1.66893 22.1101 2.28398 23.7504 3.49698 25.3658C4.60869 26.8464 6.23164 28.2933 8.19038 29.5502C11.8968 31.9287 16.5262 33.4655 19.9842 33.4655C23.2074 33.4655 25.6952 32.4225 27.3788 30.3656C28.1879 29.3769 28.8089 28.1504 29.2244 26.72C29.643 25.279 29.8552 23.6256 29.8552 21.8056C29.8552 20.0452 29.7244 13.8747 28.0409 8.38422C27.3269 6.0555 26.4419 4.23742 25.4104 2.98052C24.284 1.60784 23.0329 0.940575 21.5857 0.940575ZM21.5857 0.180786C28.6937 0.180786 30.6123 14.2524 30.6123 21.8056C30.6123 29.3587 27.0922 34.2253 19.9842 34.2253C12.8762 34.2253 0.911865 28.0437 0.911865 20.4906C0.911865 12.9374 14.4777 0.180786 21.5857 0.180786Z" fill="#707070"/>
<path d="M14.718 13.692V22.506L14.159 23H13.613V15.018L12.001 16.37L11.416 15.642L13.73 13.692H14.718ZM16.4791 14.368C17.2938 13.8393 18.1171 13.575 18.9491 13.575C19.7638 13.575 20.3748 13.8133 20.7821 14.29C21.1374 14.706 21.3151 15.2607 21.3151 15.954C21.3151 16.5 21.1764 17.033 20.8991 17.553C20.6478 17.995 20.2058 18.593 19.5731 19.347L17.7401 21.427L17.2071 22.077H21.4711V22.441L21.0161 23H16.0371V22.064L17.0251 20.881L19.0271 18.554C19.4258 18.0773 19.7074 17.6787 19.8721 17.358C20.0974 16.9247 20.2101 16.5043 20.2101 16.097C20.2101 15.6463 20.0758 15.2823 19.8071 15.005C19.5384 14.7277 19.1788 14.589 18.7281 14.589C18.1994 14.589 17.6491 14.7927 17.0771 15.2L16.4791 14.368Z" fill="black"/>
</svg>
