<svg width="32" height="37" viewBox="0 0 32 37" fill="none" xmlns="http://www.w3.org/2000/svg">
<path d="M19.531 35.9592C17.9215 35.9592 15.9674 35.5561 13.8799 34.7934C11.7559 34.0173 9.64342 32.9215 7.77078 31.6244C5.75549 30.2285 4.07934 28.6322 2.92352 27.0081C1.63156 25.1927 0.976494 23.3582 0.976494 21.5554C0.976494 21.1823 0.961073 20.9249 0.947468 20.6978C0.903762 19.9682 0.883813 19.6352 1.61583 16.5796C1.74029 16.0601 1.8619 15.5331 1.97952 15.0234C2.77858 11.5605 3.53333 8.28975 5.36618 6.15687C7.50568 3.66715 9.0547 2.54242 11.3345 1.22441C12.1654 0.743177 13.2758 0.519115 14.8293 0.519115C15.4753 0.519115 16.1076 0.555547 16.719 0.590786C17.2469 0.621201 17.7454 0.649928 18.1867 0.649928C19.7543 0.649928 24.0308 3.48505 25.9438 6.13182C26.5174 6.92507 27.1438 8.39347 27.7496 9.81353C28.4055 11.3511 28.9752 12.6866 29.5033 13.2839C29.6482 13.6926 29.7817 14.0604 29.911 14.4167C30.8411 16.9794 31.2655 18.149 31.2655 21.9032C31.2655 25.6697 30.0371 29.208 27.8067 31.8662C25.592 34.5057 22.6529 35.9592 19.531 35.9592Z" fill="#7FFFD4"/>
<path d="M14.8293 0.898949C13.345 0.898949 12.2947 1.10685 11.5235 1.55353C9.28063 2.85018 7.75686 3.9565 5.65287 6.40491C3.88105 8.46677 3.13655 11.6932 2.34832 15.109C2.23054 15.6195 2.10874 16.1473 1.98391 16.6684C1.26509 19.6689 1.28398 19.9841 1.32536 20.6749C1.33859 20.8959 1.35507 21.1708 1.35507 21.5553C1.35507 23.2773 1.98641 25.0376 3.23158 26.7872C4.36223 28.3759 6.00621 29.9405 7.98583 31.3117C9.83235 32.5907 11.9153 33.6712 14.0094 34.4363C16.0559 35.1841 17.9652 35.5793 19.531 35.5793C25.7927 35.5793 30.887 29.4442 30.887 21.9031C30.887 18.2159 30.4697 17.0661 29.5554 14.5467C29.4328 14.2089 29.3065 13.8609 29.1702 13.4772C28.6154 12.8084 28.0497 11.4822 27.4016 9.96298C26.8041 8.56217 26.1862 7.11368 25.6374 6.35482C24.7805 5.16928 23.3102 3.80112 21.7043 2.69497C20.0343 1.54466 18.7343 1.02976 18.1868 1.02976C17.7346 1.02976 17.2308 1.00073 16.6974 0.969996C16.0912 0.935068 15.4644 0.898949 14.8293 0.898949ZM14.8293 0.13916C16.0567 0.13916 17.2607 0.269972 18.1868 0.269972C19.9255 0.269972 24.2827 3.18656 26.2502 5.9087C27.4725 7.59895 28.8626 12.0824 29.834 13.083C31.0659 16.5673 31.6441 17.534 31.6441 21.9031C31.6441 29.8759 26.2209 36.3391 19.531 36.3391C12.8411 36.3391 0.597997 29.5281 0.597997 21.5553C0.597997 19.9265 0.289885 20.4894 1.24782 16.4908C2.20575 12.4922 2.90384 8.44058 5.07956 5.9087C7.25527 3.37683 8.84914 2.2228 11.1456 0.895163C12.1961 0.286727 13.5259 0.13916 14.8293 0.13916Z" fill="#6D6060"/>
<path d="M14.9001 12.692V21.506L14.3411 22H13.7951V14.018L12.1831 15.37L11.5981 14.642L13.9121 12.692H14.9001ZM16.9732 12.835C17.5366 12.6617 17.9959 12.575 18.3512 12.575C19.2179 12.575 19.9112 12.8003 20.4312 13.251C20.9252 13.6843 21.1722 14.265 21.1722 14.993C21.1722 16.215 20.6306 16.9473 19.5472 17.19C20.1712 17.294 20.6609 17.5583 21.0162 17.983C21.3802 18.4077 21.5622 18.932 21.5622 19.556C21.5622 20.4573 21.2112 21.142 20.5092 21.61C19.9719 21.9653 19.3002 22.143 18.4942 22.143C17.9742 22.143 17.4542 22.0693 16.9342 21.922L16.5182 21.402V20.999C17.1162 21.129 17.6406 21.194 18.0912 21.194C19.6599 21.194 20.4442 20.6653 20.4442 19.608C20.4442 19.036 20.2059 18.555 19.7292 18.165C19.4606 17.9483 19.1746 17.801 18.8712 17.723C18.5766 17.6363 18.1389 17.5887 17.5582 17.58V16.735H18.6632C19.0792 16.735 19.4172 16.6007 19.6772 16.332C19.9459 16.0547 20.0802 15.6993 20.0802 15.266C20.0802 14.7547 19.9112 14.3517 19.5732 14.057C19.2352 13.7537 18.7759 13.602 18.1952 13.602C17.9092 13.602 17.5019 13.6583 16.9732 13.771V12.835Z" fill="black"/>
</svg>
