<svg width="32" height="37" viewBox="0 0 32 37" fill="none" xmlns="http://www.w3.org/2000/svg">
<path d="M19.3488 35.9593C17.7394 35.9593 15.7853 35.5561 13.6978 34.7934C11.5738 34.0174 9.46129 32.9216 7.58865 31.6245C5.57336 30.2285 3.89721 28.6322 2.74139 27.0081C1.44943 25.1928 0.794365 23.3582 0.794365 21.5555C0.794365 21.1823 0.778944 20.9249 0.765339 20.6978C0.721633 19.9682 0.701685 19.6353 1.4337 16.5797C1.55816 16.0602 1.67977 15.5331 1.79739 15.0234C2.59645 11.5606 3.3512 8.28979 5.18405 6.15692C7.32355 3.6672 8.87258 2.54247 11.1524 1.22446C11.9832 0.743227 13.0936 0.519165 14.6471 0.519165C15.2931 0.519165 15.9254 0.555597 16.5369 0.590836C17.0647 0.62125 17.5633 0.649978 18.0046 0.649978C19.5722 0.649978 23.8486 3.4851 25.7616 6.13187C26.3353 6.92512 26.9617 8.39352 27.5674 9.81358C28.2233 11.3511 28.7931 12.6866 29.3212 13.2839C29.4661 13.6926 29.5996 14.0604 29.7289 14.4168C30.6589 16.9794 31.0834 18.149 31.0834 21.9032C31.0834 25.6698 29.855 29.2081 27.6245 31.8663C25.4098 34.5057 22.4708 35.9593 19.3488 35.9593Z" fill="white"/>
<path d="M14.6472 0.898949C13.1629 0.898949 12.1126 1.10685 11.3414 1.55353C9.0985 2.85018 7.57473 3.9565 5.47074 6.40491C3.69893 8.46677 2.95442 11.6932 2.1662 15.109C2.04841 15.6195 1.92661 16.1473 1.80178 16.6684C1.08296 19.6689 1.10185 19.9841 1.14323 20.6749C1.15646 20.8959 1.17294 21.1708 1.17294 21.5553C1.17294 23.2773 1.80429 25.0376 3.04945 26.7872C4.1801 28.3759 5.82409 29.9405 7.8037 31.3117C9.65022 32.5907 11.7331 33.6712 13.8273 34.4363C15.8737 35.1841 17.7831 35.5793 19.3489 35.5793C25.6106 35.5793 30.7049 29.4442 30.7049 21.9031C30.7049 18.2159 30.2876 17.0661 29.3733 14.5467C29.2507 14.2089 29.1244 13.8609 28.988 13.4772C28.4333 12.8084 27.8676 11.4822 27.2195 9.96298C26.6219 8.56217 26.004 7.11368 25.4553 6.35482C24.5984 5.16928 23.1281 3.80112 21.5222 2.69497C19.8521 1.54466 18.5521 1.02976 18.0046 1.02976C17.5525 1.02976 17.0486 1.00073 16.5152 0.969996C15.9091 0.935068 15.2823 0.898949 14.6472 0.898949ZM14.6472 0.13916C15.8746 0.13916 17.0786 0.269972 18.0046 0.269972C19.7433 0.269972 24.1006 3.18656 26.0681 5.9087C27.2904 7.59895 28.6805 12.0824 29.6519 13.083C30.8838 16.5673 31.462 17.534 31.462 21.9031C31.462 29.8759 26.0387 36.3391 19.3489 36.3391C12.659 36.3391 0.415868 29.5281 0.415868 21.5553C0.415868 19.9265 0.107756 20.4894 1.06569 16.4908C2.02362 12.4922 2.72171 8.44058 4.89743 5.9087C7.07314 3.37683 8.66702 2.2228 10.9635 0.895163C12.014 0.286727 13.3437 0.13916 14.6472 0.13916Z" fill="#707070"/>
<path d="M14.718 12.692V21.506L14.159 22H13.613V14.018L12.001 15.37L11.416 14.642L13.73 12.692H14.718ZM16.7911 12.835C17.3544 12.6617 17.8138 12.575 18.1691 12.575C19.0358 12.575 19.7291 12.8003 20.2491 13.251C20.7431 13.6843 20.9901 14.265 20.9901 14.993C20.9901 16.215 20.4484 16.9473 19.3651 17.19C19.9891 17.294 20.4788 17.5583 20.8341 17.983C21.1981 18.4077 21.3801 18.932 21.3801 19.556C21.3801 20.4573 21.0291 21.142 20.3271 21.61C19.7898 21.9653 19.1181 22.143 18.3121 22.143C17.7921 22.143 17.2721 22.0693 16.7521 21.922L16.3361 21.402V20.999C16.9341 21.129 17.4584 21.194 17.9091 21.194C19.4778 21.194 20.2621 20.6653 20.2621 19.608C20.2621 19.036 20.0238 18.555 19.5471 18.165C19.2784 17.9483 18.9924 17.801 18.6891 17.723C18.3944 17.6363 17.9568 17.5887 17.3761 17.58V16.735H18.4811C18.8971 16.735 19.2351 16.6007 19.4951 16.332C19.7638 16.0547 19.8981 15.6993 19.8981 15.266C19.8981 14.7547 19.7291 14.3517 19.3911 14.057C19.0531 13.7537 18.5938 13.602 18.0131 13.602C17.7271 13.602 17.3198 13.6583 16.7911 13.771V12.835Z" fill="black"/>
</svg>
