<svg width="46" height="42" viewBox="0 0 46 42" fill="none" xmlns="http://www.w3.org/2000/svg">
<path d="M12.319 32.6694C9.76821 31.7365 7.93011 30.845 6.64995 29.2857C3.60069 25.5786 3.75169 19.7345 5.25392 15.5871C6.1625 13.0786 7.98458 10.3542 10.128 8.29919C11.9702 6.53297 14.931 4.41603 18.5749 4.36116C19.3868 4.34847 20.5368 4.60546 21.9009 5.10435C25.0301 6.24886 28.9008 8.50745 31.7618 10.8584C34.2033 12.8646 36.3317 15.4354 38.0879 18.4992C39.1754 20.3942 40.0949 22.116 40.3346 24.0014C40.6116 26.1811 39.8962 28.2958 38.1478 30.4653C35.841 32.6741 34.4027 33.9159 32.9555 34.5686C31.5461 35.2042 30.0632 35.3362 27.3712 35.5757L27.1837 35.5924C22.4007 36.02 20.3705 35.587 15.3848 33.7635C14.8298 33.5605 14.2875 33.3694 13.763 33.1845C13.2601 33.0073 12.7852 32.8399 12.319 32.6694Z" fill="#F08080"/>
<path d="M21.7714 5.46102C20.4504 4.97787 19.3473 4.72882 18.5809 4.74079C15.0597 4.79382 12.1829 6.85449 10.3896 8.57384C8.28616 10.5905 6.49921 13.261 5.60952 15.7173C4.81407 17.9134 4.46691 20.3882 4.63197 22.6858C4.81483 25.2311 5.6134 27.4298 6.94178 29.0448C8.16719 30.5373 9.95709 31.4018 12.4479 32.3128C12.9119 32.4825 13.3859 32.6496 13.8877 32.8264C14.4132 33.0116 14.9566 33.2032 15.5136 33.4069C20.4369 35.2075 22.4397 35.6353 27.1493 35.2143L27.3367 35.1976C29.9878 34.9617 31.4482 34.8317 32.7994 34.2223C34.1931 33.5938 35.6027 32.3759 37.8681 30.2075C38.7556 29.1025 39.3737 27.9998 39.7058 26.9293C40.0012 25.9766 40.084 25.0344 39.9587 24.0488C39.728 22.2333 38.8263 20.547 37.7595 18.688C36.0263 15.6643 33.9276 13.1288 31.5218 11.1519C28.6911 8.82586 24.8639 6.59207 21.7714 5.46102ZM22.0298 4.74766C25.1232 5.87906 29.0341 8.12673 32.0012 10.5649C34.0442 12.2437 36.333 14.6767 38.4159 18.3104C40.4455 21.8472 42.5001 25.6857 38.4268 30.7234C33.4794 35.462 32.801 35.4732 27.2176 35.9707C22.3827 36.4029 20.2977 35.9645 15.2553 34.1202C11.4838 32.7409 8.32051 31.9179 6.35747 29.5268C3.28158 25.7873 3.30441 19.8557 4.89766 15.4569C6.57083 10.8376 11.9159 4.08168 18.5682 3.9815C19.463 3.96751 20.6672 4.24931 22.0298 4.74766Z" fill="#6D6060"/>
<path d="M21.9001 14.6919V23.5059L21.3411 23.9999H20.7951V16.0179L19.1831 17.3699L18.5981 16.6419L20.9121 14.6919H21.9001ZM28.0162 14.6919V20.7369H29.3942V21.7379H28.0162V23.5059L27.4572 23.9999H26.9112V21.7379H23.1022V20.7629L26.8202 14.6919H28.0162ZM26.9112 16.1479L24.1942 20.7369H26.9112V16.1479Z" fill="black"/>
</svg>
