<svg width="47" height="42" viewBox="0 0 47 42" fill="none" xmlns="http://www.w3.org/2000/svg">
<path d="M13.1369 32.6694C10.5861 31.7365 8.74798 30.845 7.46782 29.2857C4.41856 25.5786 4.56956 19.7345 6.07179 15.5871C6.98037 13.0787 8.80245 10.3542 10.9459 8.29919C12.7881 6.53297 15.7489 4.41604 19.3927 4.36116C20.2047 4.34847 21.3547 4.60547 22.7187 5.10435C25.848 6.24886 29.7186 8.50745 32.5796 10.8584C35.0212 12.8646 37.1496 15.4354 38.9058 18.4992C39.9932 20.3942 40.9128 22.116 41.1524 24.0014C41.4295 26.1812 40.7141 28.2958 38.9656 30.4653C36.6588 32.6741 35.2206 33.9159 33.7734 34.5686C32.364 35.2042 30.8811 35.3362 28.189 35.5757L28.0016 35.5924C23.2185 36.02 21.1884 35.587 16.2026 33.7635C15.6477 33.5605 15.1053 33.3694 14.5808 33.1845C14.078 33.0073 13.603 32.8399 13.1369 32.6694Z" fill="white"/>
<path d="M22.5892 5.46108C21.2682 4.97793 20.1651 4.72888 19.3988 4.74085C15.8776 4.79388 13.0008 6.85455 11.2075 8.5739C9.10403 10.5906 7.31708 13.261 6.42739 15.7174C5.63194 17.9135 5.28478 20.3883 5.44985 22.6859C5.6327 25.2312 6.43127 27.4298 7.75965 29.0448C8.98506 30.5374 10.775 31.4019 13.2657 32.3128C13.7298 32.4826 14.2038 32.6496 14.7055 32.8265C15.2311 33.0117 15.7745 33.2032 16.3315 33.4069C21.2548 35.2076 23.2576 35.6354 27.9671 35.2144L28.1546 35.1977C30.8057 34.9617 32.266 34.8318 33.6173 34.2224C35.011 33.5939 36.4206 32.3759 38.6859 30.2075C39.5734 29.1025 40.1916 27.9998 40.5236 26.9293C40.8191 25.9766 40.9018 25.0344 40.7766 24.0488C40.5458 22.2333 39.6441 20.5471 38.5773 18.688C36.8442 15.6644 34.7455 13.1289 32.3397 11.1519C29.509 8.82592 25.6817 6.59213 22.5892 5.46108ZM22.8476 4.74772C25.9411 5.87912 29.8519 8.12679 32.819 10.5649C34.8621 12.2437 37.1509 14.6768 39.2337 18.3105C41.2634 21.8473 43.318 25.6857 39.2447 30.7235C34.2973 35.462 33.6188 35.4733 28.0355 35.9708C23.2006 36.403 21.1156 35.9645 16.0731 34.1203C12.3017 32.7409 9.13838 31.9179 7.17534 29.5268C4.09945 25.7874 4.12228 19.8557 5.71553 15.457C7.3887 10.8377 12.7337 4.08174 19.3861 3.98156C20.2809 3.96757 21.485 4.24937 22.8476 4.74772Z" fill="#707070"/>
<path d="M22.718 14.692V23.506L22.159 24H21.613V16.018L20.001 17.37L19.416 16.642L21.73 14.692H22.718ZM28.8341 14.692V20.737H30.2121V21.738H28.8341V23.506L28.2751 24H27.7291V21.738H23.9201V20.763L27.6381 14.692H28.8341ZM27.7291 16.148L25.0121 20.737H27.7291V16.148Z" fill="black"/>
</svg>
