<svg width="46" height="42" viewBox="0 0 46 42" fill="none" xmlns="http://www.w3.org/2000/svg">
<path d="M12.3189 32.6694C9.76815 31.7365 7.93005 30.845 6.64989 29.2857C3.60063 25.5786 3.75163 19.7345 5.25386 15.5871C6.16244 13.0786 7.98452 10.3542 10.1279 8.29919C11.9701 6.53297 14.931 4.41603 18.5748 4.36116C19.3867 4.34847 20.5368 4.60546 21.9008 5.10435C25.0301 6.24886 28.9007 8.50745 31.7617 10.8584C34.2032 12.8646 36.3317 15.4354 38.0879 18.4992C39.1753 20.3942 40.0949 22.116 40.3345 24.0014C40.6116 26.1811 39.8962 28.2958 38.1477 30.4653C35.8409 32.6741 34.4027 33.9159 32.9554 34.5686C31.546 35.2042 30.0631 35.3362 27.3711 35.5757L27.1836 35.5924C22.4006 36.02 20.3704 35.587 15.3847 33.7635C14.8298 33.5605 14.2874 33.3694 13.7629 33.1845C13.2601 33.0073 12.7851 32.8399 12.3189 32.6694Z" fill="#FFFF00"/>
<path d="M21.7713 5.46102C20.4503 4.97787 19.3472 4.72882 18.5809 4.74079C15.0597 4.79382 12.1828 6.85449 10.3895 8.57384C8.2861 10.5905 6.49915 13.261 5.60945 15.7173C4.81401 17.9134 4.46685 20.3882 4.63191 22.6858C4.81477 25.2311 5.61334 27.4298 6.94172 29.0448C8.16713 30.5373 9.95703 31.4018 12.4478 32.3128C12.9119 32.4825 13.3858 32.6496 13.8876 32.8264C14.4131 33.0116 14.9566 33.2032 15.5136 33.4069C20.4369 35.2075 22.4396 35.6353 27.1492 35.2143L27.3367 35.1976C29.9878 34.9617 31.4481 34.8317 32.7993 34.2223C34.1931 33.5938 35.6027 32.3759 37.868 30.2075C38.7555 29.1025 39.3737 27.9998 39.7057 26.9293C40.0012 25.9766 40.0839 25.0344 39.9587 24.0488C39.7279 22.2333 38.8262 20.547 37.7594 18.688C36.0262 15.6643 33.9276 13.1288 31.5217 11.1519C28.6911 8.82586 24.8638 6.59207 21.7713 5.46102ZM22.0297 4.74766C25.1231 5.87906 29.034 8.12673 32.0011 10.5649C34.0441 12.2437 36.3329 14.6767 38.4158 18.3104C40.4454 21.8472 42.5 25.6857 38.4267 30.7234C33.4794 35.462 32.8009 35.4732 27.2175 35.9707C22.3827 36.4029 20.2977 35.9645 15.2552 34.1202C11.4838 32.7409 8.32045 31.9179 6.35741 29.5268C3.28152 25.7873 3.30435 19.8557 4.8976 15.4569C6.57077 10.8376 11.9158 4.08168 18.5682 3.9815C19.463 3.96751 20.6671 4.24931 22.0297 4.74766Z" fill="#6D6060"/>
<path d="M21.9001 14.6919V23.5059L21.3411 23.9999H20.7951V16.0179L19.1831 17.3699L18.5981 16.6419L20.9121 14.6919H21.9001ZM28.0162 14.6919V20.7369H29.3942V21.7379H28.0162V23.5059L27.4572 23.9999H26.9112V21.7379H23.1022V20.7629L26.8202 14.6919H28.0162ZM26.9112 16.1479L24.1942 20.7369H26.9112V16.1479Z" fill="black"/>
</svg>
