<svg width="49" height="43" viewBox="0 0 49 43" fill="none" xmlns="http://www.w3.org/2000/svg">
<path d="M14.1528 33.2037C11.5653 32.2574 9.88026 31.544 8.30044 29.6197C6.86296 27.8721 5.82726 25.4852 5.38388 22.8982C4.9446 20.3352 5.11751 17.7784 5.87076 15.6988C6.70719 13.3896 8.63967 10.879 11.0401 8.98296C12.3442 7.95294 13.732 7.13644 15.1649 6.55614C16.7246 5.92451 18.2964 5.59247 19.8368 5.56928C21.3438 5.54574 23.8646 6.11074 26.4158 7.04378C29.3479 8.11617 31.9891 9.55014 33.8527 11.0815C34.7499 11.8188 39.346 15.7067 41.7255 19.8578C43.6136 23.1479 43.8955 26.6805 42.5635 30.3579C41.9593 32.0261 40.9524 33.1743 39.3947 33.9714C37.9203 34.7259 35.8756 35.1983 32.9601 35.4581C28.2786 35.8765 21.0283 35.7128 16.0012 33.8742C15.6559 33.7479 15.3243 33.6281 15.0053 33.5129C14.7106 33.4065 14.4267 33.3039 14.1528 33.2037Z" fill="white"/>
<path d="M26.2867 7.40035C23.8142 6.49605 21.2852 5.92628 19.8433 5.94881C18.3497 5.97131 16.8236 6.29407 15.3073 6.90814C13.9076 7.47501 12.5509 8.27346 11.2749 9.2813C8.92732 11.1355 7.04018 13.5832 6.22675 15.8289C5.4956 17.8475 5.32881 20.3355 5.75712 22.8345C6.18949 25.3573 7.19636 27.6812 8.59268 29.3787C10.1112 31.2282 11.7551 31.9229 14.282 32.8471C14.5555 32.9471 14.839 33.0495 15.1332 33.1558C15.4526 33.2712 15.7847 33.3911 16.1305 33.5176C21.099 35.3347 28.2833 35.4949 32.926 35.0799C38.5939 34.5749 41.1095 33.2598 42.2078 30.2277C43.4999 26.6605 43.2274 23.2351 41.3976 20.0465C39.0511 15.953 34.5014 12.1048 33.6132 11.375C31.7817 9.87 29.1798 8.45845 26.2867 7.40035ZM26.5451 6.68704C29.1846 7.65239 31.9794 9.05154 34.0926 10.788C36.1355 12.4667 39.9711 16.0355 42.0539 19.669C44.0835 23.2057 44.2231 26.8893 42.9196 30.4881C41.6311 34.0455 38.5775 35.3388 32.9944 35.8363C28.1597 36.2684 20.9144 36.075 15.8721 34.2309C12.1008 32.8516 9.97136 32.2517 8.00839 29.8607C4.93263 26.1214 3.92174 19.9671 5.51493 15.5686C7.18803 10.9495 13.1785 5.28974 19.8306 5.18956C21.3099 5.16645 23.8463 5.69999 26.5451 6.68704Z" fill="#707070"/>
<path d="M22.718 14.692V23.506L22.159 24H21.613V16.018L20.001 17.37L19.416 16.642L21.73 14.692H22.718ZM28.6391 14.692V15.628H25.6101L25.4541 18.501C25.8528 18.4403 26.1691 18.41 26.4031 18.41C27.3651 18.41 28.1061 18.7047 28.6261 19.294C29.0768 19.8053 29.3021 20.4857 29.3021 21.335C29.3021 22.2883 28.9684 23.0077 28.3011 23.493C27.7724 23.883 27.0791 24.078 26.2211 24.078C25.7011 24.078 25.1811 24 24.6611 23.844L24.2451 23.337V22.934C24.8431 23.0553 25.3674 23.116 25.8181 23.116C26.6241 23.116 27.2134 22.986 27.5861 22.726C28.0021 22.44 28.2101 21.9677 28.2101 21.309C28.2101 19.9917 27.4344 19.333 25.8831 19.333C25.5191 19.333 24.9904 19.372 24.2971 19.45L24.5571 14.692H28.6391Z" fill="black"/>
</svg>
