<svg width="49" height="43" viewBox="0 0 49 43" fill="none" xmlns="http://www.w3.org/2000/svg">
<path d="M14.3348 33.2037C11.7474 32.2574 10.0623 31.544 8.48251 29.6197C7.04503 27.8721 6.00933 25.4852 5.56595 22.8982C5.12667 20.3352 5.29958 17.7784 6.05283 15.6988C6.88926 13.3896 8.82174 10.879 11.2222 8.98296C12.5263 7.95294 13.914 7.13644 15.347 6.55614C16.9067 5.92451 18.4785 5.59247 20.0189 5.56928C21.5258 5.54574 24.0467 6.11073 26.5978 7.04378C29.53 8.11617 32.1711 9.55014 34.0348 11.0815C34.932 11.8188 39.5281 15.7067 41.9076 19.8578C43.7956 23.1479 44.0775 26.6805 42.7456 30.3579C42.1413 32.0261 41.1344 33.1743 39.5768 33.9714C38.1023 34.7259 36.0577 35.1983 33.1421 35.4581C28.4607 35.8765 21.2103 35.7128 16.1832 33.8742C15.838 33.7479 15.5064 33.6281 15.1874 33.5129C14.8927 33.4065 14.6087 33.3039 14.3348 33.2037Z" fill="#FFFF00"/>
<path d="M26.4688 7.40035C23.9963 6.49605 21.4673 5.92628 20.0254 5.94881C18.5319 5.97131 17.0058 6.29407 15.4895 6.90814C14.0897 7.47501 12.733 8.27346 11.457 9.2813C9.10945 11.1355 7.22231 13.5832 6.40888 15.8289C5.67772 17.8475 5.51094 20.3355 5.93925 22.8345C6.37162 25.3573 7.37849 27.6812 8.77481 29.3787C10.2933 31.2282 11.9372 31.9229 14.4642 32.8471C14.7377 32.9471 15.0211 33.0495 15.3153 33.1558C15.6348 33.2712 15.9668 33.3911 16.3126 33.5176C21.2811 35.3347 28.4654 35.4949 33.1082 35.0799C38.776 34.5749 41.2917 33.2598 42.3899 30.2277C43.682 26.6605 43.4095 23.2351 41.5797 20.0465C39.2332 15.953 34.6836 12.1048 33.7954 11.375C31.9639 9.87 29.3619 8.45845 26.4688 7.40035ZM26.7272 6.68704C29.3667 7.65239 32.1615 9.05154 34.2747 10.788C36.3176 12.4667 40.1533 16.0355 42.2361 19.669C44.2656 23.2057 44.4053 26.8893 43.1017 30.4881C41.8132 34.0455 38.7597 35.3388 33.1765 35.8363C28.3419 36.2684 21.0965 36.075 16.0542 34.2309C12.283 32.8516 10.1535 32.2517 8.19052 29.8607C5.11476 26.1214 4.10387 19.9671 5.69706 15.5686C7.37016 10.9495 13.3606 5.28974 20.0127 5.18956C21.492 5.16645 24.0284 5.69999 26.7272 6.68704Z" fill="#6D6060"/>
<path d="M22.9001 14.692V23.506L22.3411 24H21.7951V16.018L20.1831 17.37L19.5981 16.642L21.9121 14.692H22.9001ZM28.8212 14.692V15.628H25.7922L25.6362 18.501C26.0349 18.4403 26.3512 18.41 26.5852 18.41C27.5472 18.41 28.2882 18.7047 28.8082 19.294C29.2589 19.8053 29.4842 20.4857 29.4842 21.335C29.4842 22.2883 29.1506 23.0077 28.4832 23.493C27.9546 23.883 27.2612 24.078 26.4032 24.078C25.8832 24.078 25.3632 24 24.8432 23.844L24.4272 23.337V22.934C25.0252 23.0553 25.5496 23.116 26.0002 23.116C26.8062 23.116 27.3956 22.986 27.7682 22.726C28.1842 22.44 28.3922 21.9677 28.3922 21.309C28.3922 19.9917 27.6166 19.333 26.0652 19.333C25.7012 19.333 25.1726 19.372 24.4792 19.45L24.7392 14.692H28.8212Z" fill="black"/>
</svg>
