<svg width="49" height="52" viewBox="0 0 49 52" fill="none" xmlns="http://www.w3.org/2000/svg">
<path d="M28.9013 51.1585C26.0211 51.1585 23.2536 49.5482 19.7498 47.5096C18.3604 46.7012 16.9237 45.8653 15.3006 45.0195L15.2873 45.0126L15.2736 45.0068C9.65331 42.6204 3.63192 39.5491 1.58577 34.8638C0.770159 32.9983 0.928114 30.0019 1.06747 27.3583C1.11924 26.3762 1.16818 25.4478 1.16959 24.6008C1.85951 21.0848 2.08003 18.8211 2.25734 17.0008C2.50887 14.4189 2.66068 12.8604 3.93652 9.99478C4.8863 7.85742 6.95458 5.33156 8.96632 3.8521C9.07207 3.77583 10.4501 3.00274 12.6632 2.23138C14.5571 1.57129 17.4629 0.784424 20.5511 0.784424C21.589 0.784424 22.596 0.873395 23.5442 1.04887C25.782 1.46286 27.8324 2.22272 30.1926 3.51266C32.3946 4.71614 34.6566 6.25976 37.5204 8.21405C38.4234 8.83027 39.357 9.46738 40.3641 10.1451C43.9725 13.1175 46.2937 15.867 47.4604 18.5508C48.4592 20.8485 48.4583 22.7461 48.4575 24.4203L48.4574 24.5636C48.4574 29.2943 47.664 34.7622 46.4361 38.4938C45.8412 40.3037 44.9634 42.0087 43.8272 43.5615C42.7052 45.0949 41.3576 46.4444 39.8219 47.5725C38.2681 48.7138 36.5585 49.6011 34.7404 50.2097C32.8594 50.8392 30.8948 51.1585 28.9013 51.1585Z" fill="white"/>
<path d="M20.5511 1.16433C17.5441 1.16433 14.7081 1.92633 12.8586 2.56556C10.6991 3.31191 9.33193 4.06576 9.18416 4.16288C7.22197 5.60781 5.20701 8.06841 4.28211 10.1498C3.03142 12.9589 2.88186 14.4942 2.63408 17.0378C2.45657 18.8599 2.23589 21.125 1.54803 24.6383C1.54529 25.4849 1.49676 26.4054 1.44547 27.3784C1.30834 29.9798 1.15291 32.9283 1.93246 34.7113C3.92532 39.2746 9.8694 42.2997 15.4211 44.6569L15.4486 44.6686L15.475 44.6823C17.106 45.5322 18.5465 46.3704 19.9396 47.181C23.3942 49.191 26.1229 50.7786 28.9013 50.7786C32.771 50.7786 36.47 49.5639 39.5983 47.2659C41.1028 46.1608 42.423 44.8388 43.5221 43.3366C44.6347 41.8161 45.4942 40.1467 46.0767 38.3747C47.293 34.6784 48.0789 29.2572 48.0789 24.5636L48.0789 24.4201C48.0805 21.1136 48.0829 16.9996 40.1381 10.4504C39.1357 9.77579 38.2065 9.14165 37.3075 8.52818C34.4524 6.57978 32.1972 5.04082 30.0116 3.84629C27.6881 2.5764 25.6723 1.82887 23.4755 1.42247C22.55 1.25118 21.566 1.16433 20.5511 1.16433ZM20.5511 0.404541C21.5628 0.404541 22.5902 0.486026 23.6128 0.675277C29.2308 1.71459 33.2086 4.87311 40.5901 9.83982C48.9557 16.7259 48.836 21.1358 48.836 24.5636C48.836 28.8059 48.1537 34.4856 46.7956 38.6129C44.3381 46.0886 37.2176 51.5384 28.9013 51.5384C24.7746 51.5384 20.9498 48.3913 15.1261 45.3566C9.30251 42.884 3.3209 39.7834 1.23907 35.0163C0.0805253 32.3664 0.79108 27.7611 0.79108 24.5636C2.47097 16.0215 1.37873 14.8085 3.5909 9.83982C4.59669 7.57643 6.75206 5.00953 8.74256 3.54568C9.09394 3.28706 14.5362 0.404541 20.5511 0.404541Z" fill="#707070"/>
<path d="M21.718 20.692V29.506L21.159 30H20.613V22.018L19.001 23.37L18.416 22.642L20.73 20.692H21.718ZM24.3371 25.346C24.8918 24.6267 25.5461 24.267 26.3001 24.267C27.1754 24.267 27.8428 24.5833 28.3021 25.216C28.6661 25.7273 28.8481 26.373 28.8481 27.153C28.8481 28.1063 28.5751 28.8603 28.0291 29.415C27.5264 29.909 26.8678 30.156 26.0531 30.156C24.2071 30.156 23.2841 28.9427 23.2841 26.516V26.022C23.2841 24.4447 23.5961 23.162 24.2201 22.174C24.8874 21.108 25.8494 20.575 27.1061 20.575C27.2621 20.575 27.4528 20.5837 27.6781 20.601L28.1201 21.147V21.55C27.7734 21.498 27.4874 21.472 27.2621 21.472C25.5894 21.472 24.6144 22.7633 24.3371 25.346ZM27.7301 27.101C27.7301 26.555 27.5828 26.1043 27.2881 25.749C27.0021 25.385 26.6338 25.203 26.1831 25.203C25.6978 25.203 25.2514 25.4067 24.8441 25.814C24.4888 26.1693 24.3111 26.555 24.3111 26.971C24.3111 27.6123 24.4758 28.141 24.8051 28.557C25.1258 28.9557 25.5504 29.155 26.0791 29.155C26.5644 29.155 26.9588 28.9687 27.2621 28.596C27.5741 28.2147 27.7301 27.7163 27.7301 27.101Z" fill="black"/>
</svg>
