<svg width="44" height="47" viewBox="0 0 44 47" fill="none" xmlns="http://www.w3.org/2000/svg">
<path d="M1.67432 32.4413C2.47529 35.6005 7.97692 38.5158 12.6337 40.7139C13.4293 41.09 24.0177 45.5894 24.0177 45.5894C24.0177 45.5894 28.2194 46.7352 29.7964 45.5894C30.2287 45.2756 33.4485 43.5707 33.8732 42.7281C34.6839 40.888 35.3358 38.9816 35.8219 37.0297C40.5271 33.2391 41.9383 31.949 42.6083 29.5777C43.961 25.1891 43.6499 20.4536 41.7346 16.2814C40.8004 14.407 38.9425 13.5195 35.8211 10.7197C33.9042 8.99956 31.0198 7.44427 28.4314 5.96724C25.6613 4.38612 23.8814 3.06332 21.2393 2.14094C18.3446 1.15282 15.2647 0.83465 12.2301 1.21022C7.57112 1.94873 4.94032 5.1763 2.88639 8.06046C1.92719 9.40757 2.79783 11.282 2.42233 17.0389C2.227 20.0385 1.39799 23.6582 0.964194 26.4831C0.63184 28.6477 1.42448 31.4566 1.67432 32.4413Z" fill="white" stroke="#707070"/>
<path d="M17.718 16.692V25.506L17.159 26H16.613V18.018L15.001 19.37L14.416 18.642L16.73 16.692H17.718ZM24.6661 16.692V17.511L21.5721 25.389L20.8181 26H20.1421L23.5221 17.628H19.0111V16.692H24.6661Z" fill="black"/>
</svg>
