<svg width="45" height="47" viewBox="0 0 45 47" fill="none" xmlns="http://www.w3.org/2000/svg">
<path d="M1.85644 32.4413C2.65742 35.6005 8.15905 38.5158 12.8158 40.7139C13.6115 41.09 24.1998 45.5894 24.1998 45.5894C24.1998 45.5894 28.4015 46.7352 29.9785 45.5894C30.4108 45.2756 33.6306 43.5707 34.0553 42.7281C34.866 40.888 35.518 38.9816 36.004 37.0297C40.7092 33.2391 42.1204 31.949 42.7904 29.5777C44.1432 25.1891 43.832 20.4536 41.9167 16.2814C40.9825 14.407 39.1247 13.5195 36.0033 10.7197C34.0864 8.99956 31.202 7.44427 28.6135 5.96724C25.8434 4.38612 24.0636 3.06332 21.4214 2.14094C18.5267 1.15282 15.4468 0.83465 12.4122 1.21022C7.75325 1.94873 5.12245 5.1763 3.06852 8.06046C2.10931 9.40757 2.97996 11.282 2.60446 17.0389C2.40913 20.0385 1.58012 23.6582 1.14632 26.4831C0.813969 28.6477 1.60661 31.4566 1.85644 32.4413Z" fill="#FFD700" stroke="#6D6060"/>
<path d="M17.9001 16.692V25.506L17.3411 26H16.7951V18.018L15.1831 19.37L14.5981 18.642L16.9121 16.692H17.9001ZM24.8482 16.692V17.511L21.7542 25.389L21.0002 26H20.3242L23.7042 17.628H19.1932V16.692H24.8482Z" fill="black"/>
</svg>
