<svg width="46" height="49" viewBox="0 0 46 49" fill="none" xmlns="http://www.w3.org/2000/svg">
<path d="M1.53672 33.5898C2.39069 36.9565 8.2527 40.0625 13.2153 42.4034C14.0632 42.8038 25.3465 47.5989 25.3465 47.5989C25.3465 47.5989 30.4598 47.9028 32.1405 46.681C33.8212 45.4593 32.952 44.1608 38.4998 38.5908C44.0476 33.0208 43.4435 32.6857 44.1574 30.1572C45.7669 24.4671 45.8563 22.0274 44.1574 18.6182C42.4586 15.2091 36.7101 9.17709 30.0464 5.37435C23.3827 1.57161 16.9809 0.785227 12.016 1.57541C7.05119 2.36559 5.32056 5.97611 3.13112 9.04945C0.941677 12.1228 0.494236 29.4786 1.53672 33.5898Z" fill="#23BF73" stroke="#6D6060"/>
<path d="M20.9001 17.692V26.506L20.3411 27H19.7951V19.018L18.1831 20.37L17.5981 19.642L19.9121 17.692H20.9001ZM24.4682 22.255C23.3502 21.5097 22.7912 20.6473 22.7912 19.668C22.7912 18.9227 23.0599 18.3637 23.5972 17.991C24.0219 17.6877 24.5679 17.536 25.2352 17.536C26.0239 17.536 26.6392 17.7397 27.0812 18.147C27.5059 18.5283 27.7182 19.0527 27.7182 19.72C27.7182 20.2313 27.6012 20.6603 27.3672 21.007C27.1419 21.3537 26.7086 21.7567 26.0672 22.216C27.4626 22.8747 28.1602 23.75 28.1602 24.842C28.1602 25.6393 27.8136 26.2503 27.1202 26.675C26.5916 27.0043 25.9632 27.169 25.2352 27.169C24.3686 27.169 23.6666 26.9567 23.1292 26.532C22.6006 26.116 22.3362 25.544 22.3362 24.816C22.3362 23.7327 23.0469 22.879 24.4682 22.255ZM25.2872 21.813C26.1712 21.2583 26.6132 20.5433 26.6132 19.668C26.6132 19.252 26.4919 18.9227 26.2492 18.68C26.0066 18.4287 25.6772 18.303 25.2612 18.303C24.8019 18.303 24.4552 18.4417 24.2212 18.719C24.0046 18.9617 23.8962 19.2823 23.8962 19.681C23.8962 20.0883 24.0002 20.461 24.2082 20.799C24.4336 21.1803 24.7932 21.5183 25.2872 21.813ZM25.2742 22.58C24.6242 22.892 24.1649 23.2083 23.8962 23.529C23.6362 23.841 23.5062 24.2353 23.5062 24.712C23.5062 25.1973 23.6622 25.5787 23.9742 25.856C24.2862 26.1247 24.7152 26.259 25.2612 26.259C25.8072 26.259 26.2362 26.1203 26.5482 25.843C26.8689 25.5657 27.0292 25.193 27.0292 24.725C27.0292 24.2743 26.8949 23.8843 26.6262 23.555C26.3576 23.2257 25.9069 22.9007 25.2742 22.58Z" fill="black"/>
</svg>
