<svg width="46" height="49" viewBox="0 0 46 49" fill="none" xmlns="http://www.w3.org/2000/svg">
<path d="M1.35459 33.5898C2.20856 36.9565 8.07057 40.0625 13.0332 42.4034C13.8811 42.8038 25.1644 47.5989 25.1644 47.5989C25.1644 47.5989 30.2777 47.9028 31.9583 46.681C33.639 45.4593 32.7699 44.1608 38.3177 38.5908C43.8655 33.0208 43.2614 32.6857 43.9753 30.1572C45.5848 24.4671 45.6741 22.0274 43.9753 18.6182C42.2764 15.2091 36.528 9.17709 29.8643 5.37435C23.2006 1.57161 16.7988 0.785227 11.8339 1.57541C6.86906 2.36559 5.13843 5.97611 2.94899 9.04945C0.759549 12.1228 0.312107 29.4786 1.35459 33.5898Z" fill="white" stroke="#707070"/>
<path d="M20.718 17.692V26.506L20.159 27H19.613V19.018L18.001 20.37L17.416 19.642L19.73 17.692H20.718ZM24.2861 22.255C23.1681 21.5097 22.6091 20.6473 22.6091 19.668C22.6091 18.9227 22.8778 18.3637 23.4151 17.991C23.8398 17.6877 24.3858 17.536 25.0531 17.536C25.8418 17.536 26.4571 17.7397 26.8991 18.147C27.3238 18.5283 27.5361 19.0527 27.5361 19.72C27.5361 20.2313 27.4191 20.6603 27.1851 21.007C26.9598 21.3537 26.5264 21.7567 25.8851 22.216C27.2804 22.8747 27.9781 23.75 27.9781 24.842C27.9781 25.6393 27.6314 26.2503 26.9381 26.675C26.4094 27.0043 25.7811 27.169 25.0531 27.169C24.1864 27.169 23.4844 26.9567 22.9471 26.532C22.4184 26.116 22.1541 25.544 22.1541 24.816C22.1541 23.7327 22.8648 22.879 24.2861 22.255ZM25.1051 21.813C25.9891 21.2583 26.4311 20.5433 26.4311 19.668C26.4311 19.252 26.3098 18.9227 26.0671 18.68C25.8244 18.4287 25.4951 18.303 25.0791 18.303C24.6198 18.303 24.2731 18.4417 24.0391 18.719C23.8224 18.9617 23.7141 19.2823 23.7141 19.681C23.7141 20.0883 23.8181 20.461 24.0261 20.799C24.2514 21.1803 24.6111 21.5183 25.1051 21.813ZM25.0921 22.58C24.4421 22.892 23.9828 23.2083 23.7141 23.529C23.4541 23.841 23.3241 24.2353 23.3241 24.712C23.3241 25.1973 23.4801 25.5787 23.7921 25.856C24.1041 26.1247 24.5331 26.259 25.0791 26.259C25.6251 26.259 26.0541 26.1203 26.3661 25.843C26.6868 25.5657 26.8471 25.193 26.8471 24.725C26.8471 24.2743 26.7128 23.8843 26.4441 23.555C26.1754 23.2257 25.7248 22.9007 25.0921 22.58Z" fill="black"/>
</svg>
