<svg width="54" height="53" viewBox="0 0 54 53" fill="none" xmlns="http://www.w3.org/2000/svg">
<path d="M12.4584 13.638C14.1553 11.935 17.0723 12.7429 20.7654 13.7657C22.5328 14.2552 24.5361 14.81 26.638 15.1384C28.4532 15.4217 30.5221 15.5842 32.5229 15.7413C36.8641 16.0823 41.353 16.4348 42.9339 18.0214C44.1211 19.2129 44.8017 20.9642 44.9569 23.2267C45.0955 25.2486 44.7979 27.6795 44.0962 30.2566C42.7996 35.0189 40.2262 39.9269 37.6926 42.4696C36.3552 43.8118 34.7307 44.9135 32.9947 45.6554C31.1272 46.4535 29.199 46.8253 27.2636 46.7607C25.4476 46.7 23.6776 46.2493 22.0029 45.4211C20.1672 44.5133 18.451 43.1521 16.9018 41.3753C15.2014 39.425 13.7393 37.05 12.5561 34.3165C11.4488 31.7582 10.6402 28.973 10.2178 26.2619C9.34244 20.6438 10.1801 15.9245 12.4584 13.638Z" fill="#F08080"/>
<path d="M12.726 13.9066C10.5329 16.1077 9.73499 20.7046 10.5917 26.2032C11.0093 28.8829 11.8086 31.6361 12.9032 34.1651C14.0708 36.8627 15.512 39.2044 17.1866 41.1251C18.7028 42.8641 20.3795 44.1948 22.1701 45.0803C23.7963 45.8845 25.5143 46.3221 27.2762 46.381C29.156 46.4438 31.03 46.0821 32.8464 45.3059C34.5382 44.5828 36.1214 43.5092 37.4249 42.201C39.916 39.701 42.4502 34.8607 43.731 30.1565C44.4217 27.62 44.7149 25.2327 44.5792 23.2528C44.4305 21.0845 43.7869 19.4148 42.6662 18.29C42.025 17.6466 40.762 17.1612 38.8051 16.8062C36.9546 16.4705 34.6866 16.2923 32.4933 16.1201C30.4855 15.9624 28.4093 15.7993 26.5797 15.5138C24.4563 15.1821 22.4419 14.6242 20.6647 14.1319C18.772 13.6078 17.1375 13.1551 15.7475 13.0517C14.3506 12.9478 13.4187 13.2115 12.726 13.9066ZM12.1907 13.3694C14.9199 10.6304 20.218 13.751 26.6962 14.763C32.5178 15.6716 40.7694 15.312 43.2015 17.7528C48.5233 23.0937 42.9863 37.6941 37.9602 42.7382C32.9341 47.7824 23.7508 49.8078 16.6168 41.6255C9.48293 33.4431 7.16461 18.4136 12.1907 13.3694Z" fill="#6D6060"/>
<path d="M23.2709 22.7755C24.0856 22.2468 24.9089 21.9825 25.7409 21.9825C26.5556 21.9825 27.1666 22.2208 27.5739 22.6975C27.9292 23.1135 28.1069 23.6682 28.1069 24.3615C28.1069 24.9075 27.9682 25.4405 27.6909 25.9605C27.4396 26.4025 26.9976 27.0005 26.3649 27.7545L24.5319 29.8345L23.9989 30.4845H28.2629V30.8485L27.8079 31.4075H22.8289V30.4715L23.8169 29.2885L25.8189 26.9615C26.2176 26.4848 26.4992 26.0862 26.6639 25.7655C26.8892 25.3322 27.0019 24.9118 27.0019 24.5045C27.0019 24.0538 26.8676 23.6898 26.5989 23.4125C26.3302 23.1352 25.9706 22.9965 25.5199 22.9965C24.9912 22.9965 24.4409 23.2002 23.8689 23.6075L23.2709 22.7755ZM32.4024 22.0995V30.9135L31.8434 31.4075H31.2974V23.4255L29.6854 24.7775L29.1004 24.0495L31.4144 22.0995H32.4024Z" fill="black"/>
</svg>
