<svg width="54" height="53" viewBox="0 0 54 53" fill="none" xmlns="http://www.w3.org/2000/svg">
<path d="M12.4584 13.638C14.1552 11.9351 17.0723 12.7429 20.7653 13.7657C22.5328 14.2552 24.536 14.81 26.6379 15.1384C28.4532 15.4217 30.5221 15.5842 32.5229 15.7413C36.864 16.0823 41.3529 16.4349 42.9338 18.0214C44.121 19.2129 44.8017 20.9642 44.9568 23.2267C45.0954 25.2486 44.7978 27.6795 44.0962 30.2566C42.7995 35.019 40.2261 39.927 37.6926 42.4696C36.3551 43.8119 34.7306 44.9135 32.9947 45.6554C31.1272 46.4535 29.1989 46.8254 27.2636 46.7607C25.4476 46.7 23.6776 46.2493 22.0028 45.4211C20.1672 44.5134 18.4509 43.1521 16.9017 41.3753C15.2013 39.425 13.7392 37.0501 12.556 34.3165C11.4487 31.7582 10.6402 28.973 10.2178 26.2619C9.34237 20.6438 10.18 15.9246 12.4584 13.638Z" fill="#E42A47"/>
<path d="M12.726 13.9066C10.5328 16.1077 9.73493 20.7046 10.5917 26.2032C11.0092 28.8829 11.8085 31.6361 12.9032 34.1651C14.0708 36.8627 15.5119 39.2044 17.1865 41.1251C18.7027 42.8641 20.3794 44.1948 22.1701 45.0803C23.7963 45.8845 25.5142 46.3221 27.2761 46.381C29.1559 46.4438 31.03 46.0821 32.8463 45.3059C34.5381 44.5828 36.1213 43.5092 37.4249 42.201C39.9159 39.701 42.4501 34.8607 43.731 30.1565C44.4216 27.62 44.7149 25.2327 44.5791 23.2528C44.4304 21.0845 43.7868 19.4148 42.6661 18.29C42.0249 17.6466 40.762 17.1612 38.805 16.8062C36.9545 16.4705 34.6866 16.2923 32.4933 16.1201C30.4854 15.9624 28.4092 15.7993 26.5797 15.5138C24.4563 15.1821 22.4419 14.6242 20.6646 14.1319C18.772 13.6078 17.1374 13.1551 15.7474 13.0517C14.3505 12.9478 13.4187 13.2115 12.726 13.9066ZM12.1907 13.3694C14.9198 10.6304 20.218 13.751 26.6961 14.763C32.5178 15.6716 40.7694 15.312 43.2014 17.7528C48.5232 23.0937 42.9863 37.6941 37.9602 42.7382C32.9341 47.7824 23.7507 49.8078 16.6168 41.6255C9.48287 33.4431 7.16455 18.4136 12.1907 13.3694Z" fill="#6D6060"/>
<path d="M23.271 22.7755C24.0856 22.2468 24.909 21.9825 25.741 21.9825C26.5556 21.9825 27.1666 22.2208 27.574 22.6975C27.9293 23.1135 28.107 23.6681 28.107 24.3615C28.107 24.9075 27.9683 25.4405 27.691 25.9605C27.4396 26.4025 26.9976 27.0005 26.365 27.7545L24.532 29.8345L23.999 30.4845H28.263V30.8485L27.808 31.4075H22.829V30.4715L23.817 29.2885L25.819 26.9615C26.2176 26.4848 26.4993 26.0861 26.664 25.7655C26.8893 25.3321 27.002 24.9118 27.002 24.5045C27.002 24.0538 26.8676 23.6898 26.599 23.4125C26.3303 23.1351 25.9706 22.9965 25.52 22.9965C24.9913 22.9965 24.441 23.2001 23.869 23.6075L23.271 22.7755ZM32.4024 22.0995V30.9135L31.8434 31.4075H31.2974V23.4255L29.6854 24.7775L29.1004 24.0495L31.4144 22.0995H32.4024Z" fill="black"/>
</svg>
