<svg width="53" height="53" viewBox="0 0 53 53" fill="none" xmlns="http://www.w3.org/2000/svg">
<path d="M12.2763 13.638C13.9732 11.9351 16.8902 12.7429 20.5833 13.7657C22.3507 14.2552 24.354 14.81 26.4559 15.1384C28.2711 15.4217 30.34 15.5842 32.3408 15.7413C36.6819 16.0823 41.1709 16.4349 42.7518 18.0214C43.939 19.2129 44.6196 20.9642 44.7747 23.2267C44.9134 25.2486 44.6158 27.6795 43.9141 30.2566C42.6174 35.019 40.044 39.927 37.5105 42.4696C36.1731 43.8119 34.5485 44.9135 32.8126 45.6554C30.9451 46.4535 29.0169 46.8254 27.0815 46.7607C25.2655 46.7 23.4955 46.2493 21.8207 45.4211C19.9851 44.5134 18.2688 43.1521 16.7196 41.3753C15.0192 39.425 13.5571 37.0501 12.374 34.3165C11.2667 31.7582 10.4581 28.973 10.0357 26.2619C9.16031 20.6438 9.99793 15.9246 12.2763 13.638Z" fill="white"/>
<path d="M12.5439 13.9066C10.3507 16.1077 9.55286 20.7046 10.4096 26.2032C10.8272 28.8829 11.6264 31.6361 12.7211 34.1651C13.8887 36.8627 15.3298 39.2044 17.0045 41.1251C18.5206 42.8641 20.1973 44.1948 21.988 45.0803C23.6142 45.8845 25.3321 46.3221 27.0941 46.381C28.9738 46.4438 30.8479 46.0821 32.6642 45.3059C34.356 44.5828 35.9393 43.5092 37.2428 42.201C39.7338 39.701 42.2681 34.8607 43.5489 30.1565C44.2395 27.62 44.5328 25.2327 44.3971 23.2528C44.2484 21.0845 43.6047 19.4148 42.484 18.29C41.8428 17.6466 40.5799 17.1612 38.623 16.8062C36.7724 16.4705 34.5045 16.2923 32.3112 16.1201C30.3034 15.9624 28.2271 15.7993 26.3976 15.5138C24.2742 15.1821 22.2598 14.6242 20.4825 14.1319C18.5899 13.6078 16.9554 13.1551 15.5653 13.0517C14.1684 12.9478 13.2366 13.2115 12.5439 13.9066ZM12.0086 13.3694C14.7378 10.6304 20.0359 13.751 26.514 14.763C32.3357 15.6716 40.5873 15.312 43.0194 17.7528C48.3411 23.0937 42.8042 37.6941 37.7781 42.7382C32.752 47.7824 23.5686 49.8078 16.4347 41.6255C9.3008 33.4431 6.98248 18.4136 12.0086 13.3694Z" fill="#707070"/>
<path d="M23.0888 22.7755C23.9034 22.2468 24.7268 21.9825 25.5588 21.9825C26.3734 21.9825 26.9844 22.2208 27.3918 22.6975C27.7471 23.1135 27.9248 23.6681 27.9248 24.3615C27.9248 24.9075 27.7861 25.4405 27.5088 25.9605C27.2574 26.4025 26.8154 27.0005 26.1828 27.7545L24.3498 29.8345L23.8168 30.4845H28.0808V30.8485L27.6258 31.4075H22.6468V30.4715L23.6348 29.2885L25.6368 26.9615C26.0354 26.4848 26.3171 26.0861 26.4818 25.7655C26.7071 25.3321 26.8198 24.9118 26.8198 24.5045C26.8198 24.0538 26.6854 23.6898 26.4168 23.4125C26.1481 23.1351 25.7884 22.9965 25.3378 22.9965C24.8091 22.9965 24.2588 23.2001 23.6868 23.6075L23.0888 22.7755ZM32.2203 22.0995V30.9135L31.6613 31.4075H31.1153V23.4255L29.5033 24.7775L28.9183 24.0495L31.2323 22.0995H32.2203Z" fill="black"/>
</svg>
