<svg width="54" height="53" viewBox="0 0 54 53" fill="none" xmlns="http://www.w3.org/2000/svg">
<path d="M12.4585 13.638C14.1553 11.935 17.0724 12.7429 20.7655 13.7657C22.5329 14.2552 24.5362 14.81 26.638 15.1384C28.4533 15.4217 30.5222 15.5842 32.523 15.7413C36.8641 16.0823 41.3531 16.4348 42.9339 18.0214C44.1212 19.2129 44.8018 20.9642 44.9569 23.2267C45.0956 25.2486 44.798 27.6795 44.0963 30.2566C42.7996 35.0189 40.2262 39.9269 37.6927 42.4696C36.3552 43.8118 34.7307 44.9135 32.9948 45.6554C31.1273 46.4535 29.1991 46.8253 27.2637 46.7607C25.4477 46.7 23.6777 46.2493 22.0029 45.4211C20.1673 44.5133 18.451 43.1521 16.9018 41.3753C15.2014 39.425 13.7393 37.05 12.5562 34.3165C11.4489 31.7582 10.6403 28.973 10.2179 26.2619C9.3425 20.6438 10.1801 15.9245 12.4585 13.638Z" fill="#FFFF00"/>
<path d="M12.726 13.9066C10.5328 16.1077 9.73493 20.7046 10.5917 26.2032C11.0092 28.8829 11.8085 31.6361 12.9032 34.1651C14.0708 36.8627 15.5119 39.2044 17.1865 41.1251C18.7027 42.8641 20.3794 44.1948 22.1701 45.0803C23.7963 45.8845 25.5142 46.3221 27.2761 46.381C29.1559 46.4438 31.03 46.0821 32.8463 45.3059C34.5381 44.5828 36.1213 43.5092 37.4249 42.201C39.9159 39.701 42.4501 34.8607 43.731 30.1565C44.4216 27.62 44.7149 25.2327 44.5791 23.2528C44.4304 21.0845 43.7868 19.4148 42.6661 18.29C42.0249 17.6466 40.762 17.1612 38.805 16.8062C36.9545 16.4705 34.6866 16.2923 32.4933 16.1201C30.4854 15.9624 28.4092 15.7993 26.5797 15.5138C24.4563 15.1821 22.4419 14.6242 20.6646 14.1319C18.772 13.6078 17.1374 13.1551 15.7474 13.0517C14.3505 12.9478 13.4187 13.2115 12.726 13.9066ZM12.1907 13.3694C14.9198 10.6304 20.218 13.751 26.6961 14.763C32.5178 15.6716 40.7694 15.312 43.2014 17.7528C48.5232 23.0937 42.9863 37.6941 37.9602 42.7382C32.9341 47.7824 23.7507 49.8078 16.6168 41.6255C9.48287 33.4431 7.16455 18.4136 12.1907 13.3694Z" fill="#6D6060"/>
<path d="M23.2708 22.7755C24.0855 22.2468 24.9088 21.9825 25.7408 21.9825C26.5555 21.9825 27.1665 22.2208 27.5738 22.6975C27.9292 23.1135 28.1068 23.6682 28.1068 24.3615C28.1068 24.9075 27.9682 25.4405 27.6908 25.9605C27.4395 26.4025 26.9975 27.0005 26.3648 27.7545L24.5318 29.8345L23.9988 30.4845H28.2628V30.8485L27.8078 31.4075H22.8288V30.4715L23.8168 29.2885L25.8188 26.9615C26.2175 26.4848 26.4992 26.0862 26.6638 25.7655C26.8892 25.3322 27.0018 24.9118 27.0018 24.5045C27.0018 24.0538 26.8675 23.6898 26.5988 23.4125C26.3302 23.1352 25.9705 22.9965 25.5198 22.9965C24.9912 22.9965 24.4408 23.2002 23.8688 23.6075L23.2708 22.7755ZM32.4023 22.0995V30.9135L31.8433 31.4075H31.2973V23.4255L29.6853 24.7775L29.1003 24.0495L31.4143 22.0995H32.4023Z" fill="black"/>
</svg>
