<svg width="31" height="35" viewBox="0 0 31 35" fill="none" xmlns="http://www.w3.org/2000/svg">
<path d="M13.4642 34.033C9.6799 34.033 7.01307 33.2533 5.0715 31.579C2.89632 29.7034 1.60035 26.6241 1.10952 22.1651C0.730448 18.7214 0.943518 14.8889 1.70947 11.3735C2.10133 9.57505 2.62309 7.92856 3.26025 6.47978C3.92876 4.95973 4.70915 3.69435 5.57975 2.71879C6.95289 1.18009 8.51287 0.399902 10.2163 0.399902C13.7631 0.399902 16.7153 3.41154 20.8013 7.57982L21.0338 7.81694C21.7701 8.56755 22.5372 9.31689 23.2789 10.0415C26.6184 13.3039 29.7726 16.3853 29.7726 19.1272C29.7726 20.8706 29.2482 22.6832 28.214 24.5148C27.2597 26.2048 25.88 27.8652 24.2242 29.3163C22.6113 30.7298 20.7761 31.9135 18.917 32.7393C17.0117 33.5857 15.1262 34.033 13.4642 34.033Z" fill="white"/>
<path d="M10.2163 0.779808C8.62511 0.779808 7.16002 1.51745 5.86175 2.97225C4.21151 4.82145 2.8682 7.83391 2.07929 11.4547C1.3219 14.9308 1.11112 18.7197 1.48579 22.1234C1.9656 26.4822 3.21919 29.4809 5.31821 31.2909C7.18719 32.9025 9.77564 33.6532 13.4642 33.6532C15.0738 33.6532 16.9064 33.217 18.7638 32.3919C20.5885 31.5813 22.3906 30.4189 23.9752 29.0302C25.5993 27.6069 26.9512 25.9807 27.8847 24.3275C28.8862 22.5538 29.3941 20.8041 29.3941 19.1272C29.3941 17.9997 28.7828 16.6737 27.5252 15.0737C26.3282 13.5506 24.7188 11.9783 23.0149 10.3138C22.2717 9.58772 21.5032 8.83697 20.764 8.08342L20.5315 7.84626C16.5101 3.74386 13.6045 0.779808 10.2163 0.779808ZM10.2163 0.0200195C13.9907 0.0200195 17.0417 3.20409 21.3036 7.55049C25.362 11.6876 30.1511 15.5848 30.1511 19.1272C30.1511 26.6803 20.5722 34.4129 13.4642 34.4129C6.3562 34.4129 1.77751 31.693 0.733301 22.2068C-0.3109 12.7207 3.10835 0.0200195 10.2163 0.0200195Z" fill="#707070"/>
<path d="M7.85739 11.6919C8.67206 11.1632 9.49539 10.8989 10.3274 10.8989C11.1421 10.8989 11.7531 11.1372 12.1604 11.6139C12.5157 12.0299 12.6934 12.5845 12.6934 13.2779C12.6934 13.8239 12.5547 14.3569 12.2774 14.8769C12.0261 15.3189 11.5841 15.9169 10.9514 16.6709L9.11839 18.7509L8.58539 19.4009H12.8494V19.7649L12.3944 20.3239H7.41539V19.3879L8.40339 18.2049L10.4054 15.8779C10.8041 15.4012 11.0857 15.0025 11.2504 14.6819C11.4757 14.2485 11.5884 13.8282 11.5884 13.4209C11.5884 12.9702 11.4541 12.6062 11.1854 12.3289C10.9167 12.0515 10.5571 11.9129 10.1064 11.9129C9.57772 11.9129 9.02739 12.1165 8.45539 12.5239L7.85739 11.6919ZM14.1289 11.6919C14.9435 11.1632 15.7669 10.8989 16.5989 10.8989C17.4135 10.8989 18.0245 11.1372 18.4319 11.6139C18.7872 12.0299 18.9649 12.5845 18.9649 13.2779C18.9649 13.8239 18.8262 14.3569 18.5489 14.8769C18.2975 15.3189 17.8555 15.9169 17.2229 16.6709L15.3899 18.7509L14.8569 19.4009H19.1209V19.7649L18.6659 20.3239H13.6869V19.3879L14.6749 18.2049L16.6769 15.8779C17.0755 15.4012 17.3572 15.0025 17.5219 14.6819C17.7472 14.2485 17.8599 13.8282 17.8599 13.4209C17.8599 12.9702 17.7255 12.6062 17.4569 12.3289C17.1882 12.0515 16.8285 11.9129 16.3779 11.9129C15.8492 11.9129 15.2989 12.1165 14.7269 12.5239L14.1289 11.6919Z" fill="black"/>
</svg>
