<svg width="31" height="35" viewBox="0 0 31 35" fill="none" xmlns="http://www.w3.org/2000/svg">
<path d="M13.6464 34.0331C9.86209 34.0331 7.19526 33.2533 5.25368 31.5791C3.07851 29.7034 1.78254 26.6241 1.29171 22.1652C0.912638 18.7215 1.12571 14.8889 1.89166 11.3736C2.28352 9.5751 2.80528 7.92861 3.44244 6.47984C4.11095 4.95978 4.89134 3.69441 5.76194 2.71885C7.13508 1.18014 8.69506 0.399956 10.3985 0.399956C13.9453 0.399956 16.8975 3.4116 20.9835 7.57987L21.216 7.817C21.9523 8.56761 22.7194 9.31694 23.4611 10.0416C26.8005 13.3039 29.9548 16.3854 29.9548 19.1272C29.9548 20.8706 29.4304 22.6833 28.3962 24.5148C27.4419 26.2049 26.0622 27.8652 24.4063 29.3164C22.7934 30.7299 20.9583 31.9135 19.0992 32.7394C17.1939 33.5857 15.3083 34.0331 13.6464 34.0331Z" fill="#FFFF00"/>
<path d="M10.3985 0.779808C8.80724 0.779808 7.34215 1.51745 6.04388 2.97225C4.39364 4.82145 3.05033 7.83391 2.26141 11.4547C1.50403 14.9308 1.29325 18.7197 1.66792 22.1234C2.14773 26.4822 3.40132 29.4809 5.50034 31.2909C7.36932 32.9025 9.95777 33.6532 13.6463 33.6532C15.256 33.6532 17.0885 33.217 18.9459 32.3919C20.7707 31.5813 22.5727 30.4189 24.1573 29.0302C25.7814 27.6069 27.1333 25.9807 28.0668 24.3275C29.0684 22.5538 29.5762 20.8041 29.5762 19.1272C29.5762 17.9997 28.9649 16.6737 27.7074 15.0737C26.5103 13.5506 24.9009 11.9783 23.197 10.3138C22.4539 9.58772 21.6854 8.83697 20.9462 8.08342L20.7136 7.84626C16.6922 3.74386 13.7866 0.779808 10.3985 0.779808ZM10.3985 0.0200195C14.1728 0.0200195 17.2238 3.20409 21.4858 7.55049C25.5441 11.6876 30.3333 15.5848 30.3333 19.1272C30.3333 26.6803 20.7543 34.4129 13.6463 34.4129C6.53833 34.4129 1.95964 31.693 0.91543 22.2068C-0.128771 12.7207 3.29048 0.0200195 10.3985 0.0200195Z" fill="#6D6060"/>
<path d="M8.03964 11.6919C8.85431 11.1632 9.67764 10.8989 10.5096 10.8989C11.3243 10.8989 11.9353 11.1372 12.3426 11.6139C12.698 12.0299 12.8756 12.5845 12.8756 13.2779C12.8756 13.8239 12.737 14.3569 12.4596 14.8769C12.2083 15.3189 11.7663 15.9169 11.1336 16.6709L9.30064 18.7509L8.76764 19.4009H13.0316V19.7649L12.5766 20.3239H7.59764V19.3879L8.58564 18.2049L10.5876 15.8779C10.9863 15.4012 11.268 15.0025 11.4326 14.6819C11.658 14.2485 11.7706 13.8282 11.7706 13.4209C11.7706 12.9702 11.6363 12.6062 11.3676 12.3289C11.099 12.0515 10.7393 11.9129 10.2886 11.9129C9.75997 11.9129 9.20964 12.1165 8.63764 12.5239L8.03964 11.6919ZM14.3111 11.6919C15.1258 11.1632 15.9491 10.8989 16.7811 10.8989C17.5958 10.8989 18.2068 11.1372 18.6141 11.6139C18.9695 12.0299 19.1471 12.5845 19.1471 13.2779C19.1471 13.8239 19.0085 14.3569 18.7311 14.8769C18.4798 15.3189 18.0378 15.9169 17.4051 16.6709L15.5721 18.7509L15.0391 19.4009H19.3031V19.7649L18.8481 20.3239H13.8691V19.3879L14.8571 18.2049L16.8591 15.8779C17.2578 15.4012 17.5395 15.0025 17.7041 14.6819C17.9295 14.2485 18.0421 13.8282 18.0421 13.4209C18.0421 12.9702 17.9078 12.6062 17.6391 12.3289C17.3705 12.0515 17.0108 11.9129 16.5601 11.9129C16.0315 11.9129 15.4811 12.1165 14.9091 12.5239L14.3111 11.6919Z" fill="black"/>
</svg>
