<svg width="32" height="37" viewBox="0 0 32 37" fill="none" xmlns="http://www.w3.org/2000/svg">
<path d="M12.8752 36.4788C9.68049 36.4788 6.73778 35.2192 4.58914 32.9322C3.50651 31.7798 2.66042 30.4084 2.07436 28.8561C1.4598 27.2283 1.14819 25.4422 1.14819 23.5473C1.14819 19.2689 1.71018 17.1837 2.90277 13.8037C3.453 13.1868 4.21229 11.6803 5.01454 10.0886C5.72206 8.68483 6.45369 7.23326 7.01169 6.46162C7.94792 5.16629 9.37694 3.69903 10.8344 2.53663C12.3066 1.36244 13.61 0.661437 14.3208 0.661437L14.5375 0.6613L14.7706 0.661163C16.9147 0.661163 19.3467 0.744824 21.0714 1.74376C24.0474 3.46429 26.3612 5.30975 28.1452 7.38576C29.1929 8.60496 29.9202 10.264 30.4341 12.607C30.9296 14.8663 31.246 17.8776 31.4297 22.0831C31.4277 23.8832 30.7726 25.715 29.4826 27.5276C28.3268 29.1517 26.6507 30.748 24.6354 32.1439C22.7627 33.441 20.6502 34.5369 18.5263 35.3129C16.4388 36.0756 14.4847 36.4788 12.8752 36.4788Z" fill="#7FFFD4"/>
<path d="M14.7705 1.0411L14.3207 1.04137C13.8579 1.04137 12.7288 1.51088 11.0698 2.83408C9.63769 3.97625 8.23517 5.41571 7.31792 6.68481C6.77768 7.43186 6.05301 8.86966 5.3522 10.2601C4.52933 11.8927 3.81115 13.3176 3.23552 13.9985C2.04792 17.3701 1.5266 19.3363 1.5266 23.5474C1.5266 25.3961 1.82994 27.1369 2.42821 28.7216C2.99651 30.2268 3.81617 31.5558 4.86443 32.6716C6.94081 34.8817 9.7857 36.0989 12.8751 36.0989C14.4409 36.0989 16.3502 35.7037 18.3966 34.956C20.4908 34.1908 22.5737 33.1103 24.4202 31.8313C26.3999 30.4601 28.0438 28.8956 29.1745 27.3068C30.4158 25.5626 31.0471 23.808 31.051 22.0911C30.8682 17.9125 30.5546 14.9246 30.0642 12.6887C29.5644 10.4097 28.8635 8.80351 27.8584 7.63391C26.1027 5.59077 23.8209 3.77182 20.882 2.07284C19.1007 1.04111 16.39 1.04111 14.7705 1.0411ZM14.7705 0.281311C16.6759 0.281317 19.3748 0.322581 21.2604 1.41478C23.5569 2.7424 26.256 4.60583 28.4317 7.1377C30.6075 9.66957 31.4556 13.9938 31.8081 22.075C31.8081 30.0477 19.5649 36.8587 12.8751 36.8587C6.18518 36.8587 0.769531 31.5201 0.769531 23.5474C0.769531 19.1783 1.34016 17.0869 2.57207 13.6026C3.54342 12.602 5.4829 7.92878 6.70521 6.23853C8.67268 3.51639 12.582 0.281583 14.3207 0.281583C14.4649 0.281583 14.6149 0.281311 14.7705 0.281311Z" fill="#6D6060"/>
<path d="M11.7516 12.0051C12.5663 11.4765 13.3896 11.2121 14.2216 11.2121C15.0363 11.2121 15.6473 11.4505 16.0546 11.9271C16.4099 12.3431 16.5876 12.8978 16.5876 13.5911C16.5876 14.1371 16.4489 14.6701 16.1716 15.1901C15.9203 15.6321 15.4783 16.2301 14.8456 16.9841L13.0126 19.0641L12.4796 19.7141H16.7436V20.0781L16.2886 20.6371H11.3096V19.7011L12.2976 18.5181L14.2996 16.1911C14.6983 15.7145 14.9799 15.3158 15.1446 14.9951C15.3699 14.5618 15.4826 14.1415 15.4826 13.7341C15.4826 13.2835 15.3483 12.9195 15.0796 12.6421C14.8109 12.3648 14.4513 12.2261 14.0006 12.2261C13.4719 12.2261 12.9216 12.4298 12.3496 12.8371L11.7516 12.0051ZM18.3351 11.4721C18.8984 11.2988 19.3578 11.2121 19.7131 11.2121C20.5798 11.2121 21.2731 11.4375 21.7931 11.8881C22.2871 12.3215 22.5341 12.9021 22.5341 13.6301C22.5341 14.8521 21.9924 15.5845 20.9091 15.8271C21.5331 15.9311 22.0228 16.1955 22.3781 16.6201C22.7421 17.0448 22.9241 17.5691 22.9241 18.1931C22.9241 19.0945 22.5731 19.7791 21.8711 20.2471C21.3338 20.6025 20.6621 20.7801 19.8561 20.7801C19.3361 20.7801 18.8161 20.7065 18.2961 20.5591L17.8801 20.0391V19.6361C18.4781 19.7661 19.0024 19.8311 19.4531 19.8311C21.0218 19.8311 21.8061 19.3025 21.8061 18.2451C21.8061 17.6731 21.5678 17.1921 21.0911 16.8021C20.8224 16.5855 20.5364 16.4381 20.2331 16.3601C19.9384 16.2735 19.5008 16.2258 18.9201 16.2171V15.3721H20.0251C20.4411 15.3721 20.7791 15.2378 21.0391 14.9691C21.3078 14.6918 21.4421 14.3365 21.4421 13.9031C21.4421 13.3918 21.2731 12.9888 20.9351 12.6941C20.5971 12.3908 20.1378 12.2391 19.5571 12.2391C19.2711 12.2391 18.8638 12.2955 18.3351 12.4081V11.4721Z" fill="black"/>
</svg>
