<svg width="32" height="37" viewBox="0 0 32 37" fill="none" xmlns="http://www.w3.org/2000/svg">
<path d="M12.6931 36.4787C9.49836 36.4787 6.55565 35.2192 4.40701 32.9321C3.32438 31.7798 2.47829 30.4084 1.89223 28.8561C1.27767 27.2283 0.966064 25.4422 0.966064 23.5473C0.966064 19.2688 1.52805 17.1836 2.72065 13.8037C3.27087 13.1868 4.03016 11.6803 4.83241 10.0886C5.53993 8.6848 6.27156 7.23323 6.82956 6.46159C7.76579 5.16626 9.19481 3.699 10.6523 2.5366C12.1245 1.36241 13.4278 0.661407 14.1387 0.661407L14.3553 0.66127L14.5885 0.661133C16.7326 0.661133 19.1645 0.744793 20.8892 1.74373C23.8653 3.46426 26.1791 5.30972 27.9631 7.38573C29.0108 8.60493 29.7381 10.264 30.2519 12.6069C30.7475 14.8663 31.0638 17.8776 31.2475 22.0831C31.2455 23.8832 30.5905 25.715 29.3005 27.5276C28.1447 29.1517 26.4685 30.748 24.4533 32.1439C22.5806 33.441 20.4681 34.5368 18.3441 35.3129C16.2566 36.0756 14.3025 36.4787 12.6931 36.4787Z" fill="white"/>
<path d="M14.5883 1.04104L14.1386 1.04131C13.6758 1.04131 12.5467 1.51082 10.8876 2.83402C9.45556 3.97618 8.05305 5.41565 7.13579 6.68475C6.59555 7.43179 5.87088 8.8696 5.17007 10.2601C4.3472 11.8927 3.62902 13.3176 3.05339 13.9984C1.86579 17.3701 1.34447 19.3363 1.34447 23.5473C1.34447 25.396 1.64781 27.1369 2.24608 28.7215C2.81438 30.2268 3.63404 31.5558 4.6823 32.6715C6.75868 34.8817 9.60358 36.0989 12.6929 36.0989C14.2587 36.0989 16.1681 35.7036 18.2145 34.9559C20.3087 34.1908 22.3916 33.1103 24.2381 31.8312C26.2177 30.46 27.8617 28.8955 28.9924 27.3068C30.2337 25.5626 30.8649 23.8079 30.8689 22.0911C30.6861 17.9124 30.3725 14.9246 29.8821 12.6886C29.3823 10.4096 28.6814 8.80345 27.6763 7.63385C25.9206 5.5907 23.6387 3.77176 20.6999 2.07278C18.9186 1.04105 16.2079 1.04105 14.5883 1.04104ZM14.5883 0.28125C16.4938 0.281256 19.1926 0.32252 21.0783 1.41472C23.3748 2.74234 26.0739 4.60577 28.2496 7.13764C30.4253 9.66951 31.2735 13.9937 31.6259 22.0749C31.6259 30.0477 19.3828 36.8586 12.6929 36.8586C6.00306 36.8586 0.587402 31.5201 0.587402 23.5473C0.587402 19.1782 1.15804 17.0868 2.38994 13.6026C3.36129 12.602 5.30077 7.92872 6.52308 6.23847C8.49055 3.51632 12.3999 0.281522 14.1386 0.281522C14.2827 0.281522 14.4327 0.28125 14.5883 0.28125Z" fill="#707070"/>
<path d="M11.5695 12.0051C12.3842 11.4764 13.2075 11.2121 14.0395 11.2121C14.8542 11.2121 15.4652 11.4504 15.8725 11.9271C16.2278 12.3431 16.4055 12.8978 16.4055 13.5911C16.4055 14.1371 16.2668 14.6701 15.9895 15.1901C15.7382 15.6321 15.2962 16.2301 14.6635 16.9841L12.8305 19.0641L12.2975 19.7141H16.5615V20.0781L16.1065 20.6371H11.1275V19.7011L12.1155 18.5181L14.1175 16.1911C14.5162 15.7144 14.7978 15.3158 14.9625 14.9951C15.1878 14.5618 15.3005 14.1414 15.3005 13.7341C15.3005 13.2834 15.1662 12.9194 14.8975 12.6421C14.6288 12.3648 14.2692 12.2261 13.8185 12.2261C13.2898 12.2261 12.7395 12.4298 12.1675 12.8371L11.5695 12.0051ZM18.153 11.4721C18.7163 11.2988 19.1756 11.2121 19.531 11.2121C20.3976 11.2121 21.091 11.4374 21.611 11.8881C22.105 12.3214 22.352 12.9021 22.352 13.6301C22.352 14.8521 21.8103 15.5844 20.727 15.8271C21.351 15.9311 21.8406 16.1954 22.196 16.6201C22.56 17.0448 22.742 17.5691 22.742 18.1931C22.742 19.0944 22.391 19.7791 21.689 20.2471C21.1516 20.6024 20.48 20.7801 19.674 20.7801C19.154 20.7801 18.634 20.7064 18.114 20.5591L17.698 20.0391V19.6361C18.296 19.7661 18.8203 19.8311 19.271 19.8311C20.8396 19.8311 21.624 19.3024 21.624 18.2451C21.624 17.6731 21.3856 17.1921 20.909 16.8021C20.6403 16.5854 20.3543 16.4381 20.051 16.3601C19.7563 16.2734 19.3186 16.2258 18.738 16.2171V15.3721H19.843C20.259 15.3721 20.597 15.2378 20.857 14.9691C21.1256 14.6918 21.26 14.3364 21.26 13.9031C21.26 13.3918 21.091 12.9888 20.753 12.6941C20.415 12.3908 19.9556 12.2391 19.375 12.2391C19.089 12.2391 18.6816 12.2954 18.153 12.4081V11.4721Z" fill="black"/>
</svg>
