<svg width="46" height="42" viewBox="0 0 46 42" fill="none" xmlns="http://www.w3.org/2000/svg">
<path d="M23.9427 5.10451C23.9429 5.10444 23.9425 5.10458 23.9427 5.10451C25.3068 4.60562 26.457 4.34857 27.2686 4.36126C30.9127 4.41613 33.8735 6.53307 35.7157 8.29929C37.8592 10.3543 39.6812 13.0788 40.5898 15.5872C42.0921 19.7346 42.2431 25.5787 39.194 29.2856C37.9136 30.8451 36.0756 31.7366 33.5248 32.6695C33.0586 32.84 32.5836 33.0074 32.0808 33.1846C31.5563 33.3695 31.0139 33.5606 30.459 33.7636C25.4732 35.5871 23.4431 36.0201 18.6601 35.5926L18.4726 35.5759C15.7805 35.3363 14.2976 35.2043 12.8882 34.5687C11.441 33.916 10.0027 32.6742 7.69592 30.4654C5.94746 28.2959 5.23207 26.1813 5.50912 24.0015C5.74874 22.1161 6.66832 20.3943 7.75569 18.4994C9.51197 15.4355 11.6404 12.8647 14.0819 10.8585C16.9428 8.50765 20.8136 6.24897 23.9427 5.10451Z" fill="#DCDCDC"/>
<path d="M24.072 5.46124C20.9795 6.59227 17.1523 8.82605 14.3217 11.1521C11.9158 13.129 9.81718 15.6645 8.08382 18.6885C7.01718 20.5472 6.11549 22.2335 5.88474 24.0489C5.75947 25.0345 5.84221 25.9768 6.13769 26.9294C6.46972 27.9999 7.0879 29.1026 7.97539 30.2076C10.2407 32.3761 11.6503 33.594 13.0441 34.2225C14.3953 34.8319 15.8557 34.9619 18.5068 35.1978L18.6944 35.2145C23.4038 35.6355 25.4066 35.2077 30.3298 33.4071C30.8869 33.2033 31.4303 33.0118 31.9559 32.8266C32.4576 32.6497 32.9316 32.4827 33.3957 32.3129C35.8864 31.402 37.6763 30.5375 38.9022 29.0444C40.2301 27.43 41.0287 25.2313 41.2115 22.686C41.3766 20.3884 41.0294 17.9136 40.234 15.7175C39.3443 13.2612 37.5574 10.5907 35.4539 8.57401C33.6606 6.85467 30.7838 4.79399 27.2621 4.74095C26.4963 4.72898 25.393 4.97809 24.072 5.46124ZM23.8137 4.74784C25.1763 4.24949 26.3805 3.96768 27.2753 3.98166C33.9276 4.08185 39.2727 10.8378 40.9459 15.4571C42.5391 19.8558 42.5619 25.7875 39.4861 29.527C37.523 31.918 34.3597 32.741 30.5882 34.1204C25.5457 35.9647 23.4607 36.4031 18.6259 35.9709C13.0425 35.4734 12.364 35.4622 7.41667 30.7236C3.34334 25.6858 5.39797 21.8474 7.4276 18.3106C9.51046 14.6769 11.7993 12.2438 13.8423 10.565C16.8094 8.1269 20.7203 5.87922 23.8137 4.74784Z" fill="#6D6060"/>
<path d="M18.1358 14.5977C18.9505 14.0691 19.7738 13.8047 20.6058 13.8047C21.4205 13.8047 22.0315 14.0431 22.4388 14.5197C22.7942 14.9357 22.9718 15.4904 22.9718 16.1837C22.9718 16.7297 22.8332 17.2627 22.5558 17.7827C22.3045 18.2247 21.8625 18.8227 21.2298 19.5767L19.3968 21.6567L18.8638 22.3067H23.1278V22.6707L22.6728 23.2297H17.6938V22.2937L18.6818 21.1107L20.6838 18.7837C21.0825 18.3071 21.3642 17.9084 21.5288 17.5877C21.7542 17.1544 21.8668 16.7341 21.8668 16.3267C21.8668 15.8761 21.7325 15.5121 21.4638 15.2347C21.1952 14.9574 20.8355 14.8187 20.3848 14.8187C19.8562 14.8187 19.3058 15.0224 18.7338 15.4297L18.1358 14.5977ZM28.7623 13.9217V19.9667H30.1403V20.9677H28.7623V22.7357L28.2033 23.2297H27.6573V20.9677H23.8483V19.9927L27.5663 13.9217H28.7623ZM27.6573 15.3777L24.9403 19.9667H27.6573V15.3777Z" fill="black"/>
</svg>
