<svg width="46" height="42" viewBox="0 0 46 42" fill="none" xmlns="http://www.w3.org/2000/svg">
<path d="M23.9426 5.10451C23.9428 5.10444 23.9424 5.10458 23.9426 5.10451C25.3067 4.60562 26.4568 4.34857 27.2685 4.36126C30.9126 4.41613 33.8734 6.53307 35.7156 8.29929C37.859 10.3543 39.6811 13.0788 40.5897 15.5872C42.0919 19.7346 42.2429 25.5787 39.1939 29.2856C37.9135 30.8451 36.0754 31.7366 33.5247 32.6695C33.0585 32.84 32.5835 33.0074 32.0807 33.1846C31.5561 33.3695 31.0138 33.5606 30.4588 33.7636C25.4731 35.5871 23.4429 36.0201 18.66 35.5926L18.4724 35.5759C15.7804 35.3363 14.2975 35.2043 12.8881 34.5687C11.4408 33.916 10.0026 32.6742 7.6958 30.4654C5.94734 28.2959 5.23194 26.1813 5.509 24.0015C5.74862 22.1161 6.6682 20.3943 7.75556 18.4994C9.51185 15.4355 11.6403 12.8647 14.0818 10.8585C16.9427 8.50765 20.8134 6.24897 23.9426 5.10451Z" fill="#23BF73"/>
<path d="M24.0718 5.46124C20.9794 6.59227 17.1522 8.82605 14.3215 11.1521C11.9157 13.129 9.81706 15.6645 8.08369 18.6885C7.01706 20.5472 6.11537 22.2335 5.88462 24.0489C5.75935 25.0345 5.84209 25.9768 6.13757 26.9294C6.46959 27.9999 7.08777 29.1026 7.97526 30.2076C10.2406 32.3761 11.6502 33.594 13.0439 34.2225C14.3952 34.8319 15.8555 34.9619 18.5066 35.1978L18.6943 35.2145C23.4037 35.6355 25.4064 35.2077 30.3297 33.4071C30.8868 33.2033 31.4302 33.0118 31.9557 32.8266C32.4575 32.6497 32.9315 32.4827 33.3956 32.3129C35.8863 31.402 37.6762 30.5375 38.9021 29.0444C40.23 27.43 41.0286 25.2313 41.2114 22.686C41.3765 20.3884 41.0293 17.9136 40.2339 15.7175C39.3442 13.2612 37.5572 10.5907 35.4538 8.57401C33.6605 6.85467 30.7836 4.79399 27.262 4.74095C26.4961 4.72898 25.3929 4.97809 24.0718 5.46124ZM23.8136 4.74784C25.1762 4.24949 26.3803 3.96768 27.2752 3.98166C33.9275 4.08185 39.2726 10.8378 40.9457 15.4571C42.539 19.8558 42.5618 25.7875 39.4859 29.527C37.5229 31.918 34.3596 32.741 30.5881 34.1204C25.5456 35.9647 23.4606 36.4031 18.6258 35.9709C13.0424 35.4734 12.3639 35.4622 7.41655 30.7236C3.34322 25.6858 5.39784 21.8474 7.42748 18.3106C9.51034 14.6769 11.7992 12.2438 13.8422 10.565C16.8093 8.1269 20.7201 5.87922 23.8136 4.74784Z" fill="#6D6060"/>
<path d="M18.0838 14.6237C18.9072 14.0864 19.7392 13.8177 20.5798 13.8177C21.4205 13.8177 22.0618 14.0647 22.5038 14.5587C22.8938 14.9834 23.0888 15.5511 23.0888 16.2617C23.0888 16.7904 22.9632 17.3104 22.7118 17.8217C22.4605 18.3331 22.0228 18.9701 21.3988 19.7327C20.6968 20.5821 20.3068 21.0457 20.2288 21.1237L19.4618 21.9037H23.2708V22.4237L22.6208 23.2297H17.6938V21.9037L18.6558 20.9157L19.5918 19.8497C20.3112 19.0524 20.7748 18.5021 20.9828 18.1987C21.4248 17.5661 21.6458 17.0071 21.6458 16.5217C21.6458 16.1404 21.5202 15.8327 21.2688 15.5987C21.0262 15.3561 20.7055 15.2347 20.3068 15.2347C19.8388 15.2347 19.3622 15.4037 18.8768 15.7417L18.0838 14.6237ZM29.188 13.9217V19.6937H30.358V21.0457H29.188V22.5147L28.395 23.2297H27.641V21.0457H23.988V19.9017L27.667 13.9217H29.188ZM27.641 16.0017L25.457 19.6937H27.641V16.0017Z" fill="black"/>
</svg>
