<svg width="46" height="42" viewBox="0 0 46 42" fill="none" xmlns="http://www.w3.org/2000/svg">
<path d="M23.9426 5.1045C23.9428 5.10443 23.9424 5.10457 23.9426 5.1045C25.3067 4.60561 26.4568 4.34856 27.2685 4.36124C30.9126 4.41612 33.8734 6.53305 35.7156 8.29928C37.859 10.3543 39.6811 13.0787 40.5897 15.5872C42.0919 19.7346 42.2429 25.5787 39.1939 29.2855C37.9135 30.8451 36.0754 31.7365 33.5247 32.6695C33.0585 32.84 32.5835 33.0074 32.0807 33.1846C31.5561 33.3695 31.0138 33.5606 30.4588 33.7636C25.4731 35.5871 23.4429 36.0201 18.66 35.5926L18.4724 35.5759C15.7804 35.3363 14.2975 35.2043 12.8881 34.5687C11.4408 33.916 10.0026 32.6742 7.6958 30.4654C5.94734 28.2959 5.23194 26.1813 5.509 24.0015C5.74862 22.1161 6.6682 20.3943 7.75556 18.4994C9.51185 15.4355 11.6403 12.8647 14.0818 10.8585C16.9427 8.50763 20.8134 6.24896 23.9426 5.1045Z" fill="#7FFFD4"/>
<path d="M24.0718 5.46122C20.9794 6.59225 17.1522 8.82603 14.3215 11.152C11.9157 13.129 9.81706 15.6645 8.08369 18.6884C7.01706 20.5471 6.11537 22.2334 5.88462 24.0489C5.75935 25.0345 5.84209 25.9767 6.13757 26.9294C6.46959 27.9999 7.08777 29.1026 7.97526 30.2076C10.2406 32.376 11.6502 33.594 13.0439 34.2225C14.3952 34.8319 15.8555 34.9618 18.5066 35.1978L18.6943 35.2145C23.4037 35.6355 25.4064 35.2077 30.3297 33.407C30.8868 33.2033 31.4302 33.0118 31.9557 32.8265C32.4575 32.6497 32.9315 32.4827 33.3956 32.3129C35.8863 31.4019 37.6762 30.5375 38.9021 29.0444C40.23 27.4299 41.0286 25.2312 41.2114 22.686C41.3765 20.3884 41.0293 17.9135 40.2339 15.7174C39.3442 13.2611 37.5572 10.5907 35.4538 8.57399C33.6605 6.85465 30.7836 4.79397 27.262 4.74093C26.4961 4.72896 25.3929 4.97807 24.0718 5.46122ZM23.8136 4.74782C25.1762 4.24947 26.3803 3.96766 27.2752 3.98164C33.9275 4.08183 39.2726 10.8377 40.9457 15.4571C42.539 19.8558 42.5618 25.7875 39.4859 29.5269C37.5229 31.918 34.3596 32.741 30.5881 34.1204C25.5456 35.9646 23.4606 36.4031 18.6258 35.9709C13.0424 35.4734 12.3639 35.4621 7.41655 30.7236C3.34322 25.6858 5.39784 21.8474 7.42748 18.3106C9.51034 14.6769 11.7992 12.2438 13.8422 10.565C16.8093 8.12688 20.7201 5.8792 23.8136 4.74782Z" fill="#6D6060"/>
<path d="M18.1358 14.5977C18.9505 14.0691 19.7738 13.8047 20.6058 13.8047C21.4205 13.8047 22.0315 14.0431 22.4388 14.5197C22.7942 14.9357 22.9718 15.4904 22.9718 16.1837C22.9718 16.7297 22.8332 17.2627 22.5558 17.7827C22.3045 18.2247 21.8625 18.8227 21.2298 19.5767L19.3968 21.6567L18.8638 22.3067H23.1278V22.6707L22.6728 23.2297H17.6938V22.2937L18.6818 21.1107L20.6838 18.7837C21.0825 18.3071 21.3642 17.9084 21.5288 17.5877C21.7542 17.1544 21.8668 16.7341 21.8668 16.3267C21.8668 15.8761 21.7325 15.5121 21.4638 15.2347C21.1952 14.9574 20.8355 14.8187 20.3848 14.8187C19.8562 14.8187 19.3058 15.0224 18.7338 15.4297L18.1358 14.5977ZM28.7623 13.9217V19.9667H30.1403V20.9677H28.7623V22.7357L28.2033 23.2297H27.6573V20.9677H23.8483V19.9927L27.5663 13.9217H28.7623ZM27.6573 15.3777L24.9403 19.9667H27.6573V15.3777Z" fill="black"/>
</svg>
