<svg width="46" height="42" viewBox="0 0 46 42" fill="none" xmlns="http://www.w3.org/2000/svg">
<path d="M23.7606 5.10451C23.7608 5.10444 23.7604 5.10458 23.7606 5.10451C25.1247 4.60562 26.2748 4.34857 27.0865 4.36126C30.7306 4.41613 33.6914 6.53307 35.5336 8.29929C37.677 10.3543 39.4991 13.0788 40.4077 15.5872C41.9099 19.7346 42.0609 25.5787 39.0119 29.2856C37.7315 30.8451 35.8934 31.7366 33.3427 32.6695C32.8765 32.84 32.4015 33.0074 31.8986 33.1846C31.3741 33.3695 30.8318 33.5606 30.2768 33.7636C25.2911 35.5871 23.2609 36.0201 18.478 35.5926L18.2904 35.5759C15.5984 35.3363 14.1155 35.2043 12.7061 34.5687C11.2588 33.916 9.82061 32.6742 7.51379 30.4654C5.76534 28.2959 5.04994 26.1813 5.32699 24.0015C5.56661 22.1161 6.48619 20.3943 7.57356 18.4994C9.32984 15.4355 11.4583 12.8647 13.8998 10.8585C16.7607 8.50765 20.6314 6.24897 23.7606 5.10451Z" fill="white"/>
<path d="M23.8898 5.46118C20.7974 6.59221 16.9702 8.82598 14.1395 11.152C11.7337 13.1289 9.63506 15.6644 7.90169 18.6884C6.83505 20.5471 5.93336 22.2334 5.70261 24.0489C5.57734 25.0345 5.66009 25.9767 5.95556 26.9294C6.28759 27.9999 6.90577 29.1026 7.79326 30.2076C10.0586 32.376 11.4682 33.5939 12.8619 34.2225C14.2132 34.8318 15.6735 34.9618 18.3246 35.1978L18.5123 35.2145C23.2217 35.6354 25.2244 35.2076 30.1477 33.407C30.7047 33.2033 31.2482 33.0117 31.7737 32.8265C32.2755 32.6497 32.7495 32.4826 33.2136 32.3129C35.7043 31.4019 37.4942 30.5375 38.7201 29.0443C40.048 27.4299 40.8466 25.2312 41.0294 22.686C41.1945 20.3883 40.8473 17.9135 40.0519 15.7174C39.1622 13.2611 37.3752 10.5906 35.2718 8.57395C33.4785 6.8546 30.6016 4.79393 27.08 4.74089C26.3141 4.72892 25.2109 4.97803 23.8898 5.46118ZM23.6316 4.74778C24.9942 4.24943 26.1983 3.96762 27.0931 3.9816C33.7455 4.08179 39.0906 10.8377 40.7637 15.457C42.357 19.8558 42.3798 25.7874 39.3039 29.5269C37.3409 31.918 34.1776 32.741 30.4061 34.1204C25.3636 35.9646 23.2786 36.403 18.4438 35.9708C12.8604 35.4734 12.1819 35.4621 7.23455 30.7235C3.16121 25.6858 5.21584 21.8474 7.24547 18.3105C9.32834 14.6768 11.6172 12.2438 13.6602 10.565C16.6273 8.12684 20.5381 5.87916 23.6316 4.74778Z" fill="#707070"/>
<path d="M17.9017 14.6237C18.725 14.0864 19.557 13.8177 20.3977 13.8177C21.2384 13.8177 21.8797 14.0647 22.3217 14.5587C22.7117 14.9834 22.9067 15.5511 22.9067 16.2617C22.9067 16.7904 22.781 17.3104 22.5297 17.8217C22.2784 18.3331 21.8407 18.9701 21.2167 19.7327C20.5147 20.5821 20.1247 21.0457 20.0467 21.1237L19.2797 21.9037H23.0887V22.4237L22.4387 23.2297H17.5117V21.9037L18.4737 20.9157L19.4097 19.8497C20.129 19.0524 20.5927 18.5021 20.8007 18.1987C21.2427 17.5661 21.4637 17.0071 21.4637 16.5217C21.4637 16.1404 21.338 15.8327 21.0867 15.5987C20.844 15.3561 20.5234 15.2347 20.1247 15.2347C19.6567 15.2347 19.18 15.4037 18.6947 15.7417L17.9017 14.6237ZM29.0058 13.9217V19.6937H30.1758V21.0457H29.0058V22.5147L28.2128 23.2297H27.4588V21.0457H23.8058V19.9017L27.4848 13.9217H29.0058ZM27.4588 16.0017L25.2748 19.6937H27.4588V16.0017Z" fill="black"/>
</svg>
