<svg width="49" height="43" viewBox="0 0 49 43" fill="none" xmlns="http://www.w3.org/2000/svg">
<path d="M21.5569 7.06924L21.5579 7.06889C25.1911 5.74019 29.3027 4.97652 31.1786 5.00583C32.6968 5.02869 34.1733 5.38262 35.5675 6.05777C36.8173 6.66305 38.0088 7.52867 39.1088 8.63058C40.9428 10.4677 42.5353 13.014 43.478 15.6166C44.2313 17.6962 44.4042 20.253 43.9649 22.8161C43.5215 25.403 42.4858 27.79 41.0486 29.5373C39.4685 31.4619 37.7835 32.1753 35.1961 33.1216C34.9221 33.2218 34.6382 33.3244 34.3435 33.4308C34.0245 33.5461 33.6928 33.6659 33.3475 33.7921C28.3204 35.6307 21.07 35.7945 16.3887 35.376C10.8181 34.8797 7.52273 33.0164 6.31416 29.6798C5.72151 28.0436 5.58772 26.0815 5.92727 24.0058C6.24437 22.0671 6.95313 20.0994 7.97689 18.3154C9.9537 14.8668 13.3691 12.0644 15.4097 10.3901L15.6252 10.2132C17.0233 9.06435 19.0746 7.9771 21.5569 7.06924Z" fill="#00FFFF"/>
<path d="M21.6863 7.42613C19.2436 8.31955 17.2306 9.38486 15.8652 10.5069L15.6495 10.684C13.629 12.3418 10.2474 15.1165 8.30524 18.5046C7.30397 20.2494 6.61096 22.1728 6.30114 24.0669C5.97207 26.0786 6.09973 27.9746 6.67033 29.5499C7.82365 32.7341 11.0138 34.5162 16.4233 34.9982C21.0658 35.4132 28.2502 35.253 33.2187 33.4358C33.5645 33.3094 33.8966 33.1894 34.216 33.074C34.5103 32.9677 34.7937 32.8653 35.0672 32.7653C37.5942 31.8411 39.2381 31.1465 40.757 29.2964C42.1529 27.5994 43.1597 25.2755 43.5921 22.7527C44.0204 20.2537 43.8536 17.7657 43.1225 15.7471C42.198 13.1947 40.6376 10.6989 38.8414 8.89966C37.7713 7.82776 36.6143 6.98673 35.4026 6.39993C34.0584 5.74895 32.6353 5.4077 31.1724 5.38567C29.3308 5.35691 25.279 6.11228 21.6863 7.42613ZM21.429 6.71244C25.267 5.30886 29.3468 4.5977 31.1855 4.62642C37.8376 4.7266 42.1612 10.8676 43.8343 15.4867C45.4275 19.8852 44.4166 26.0396 41.3408 29.7789C39.3779 32.1699 37.2484 32.7698 33.4771 34.1491C28.4348 35.9933 21.1894 36.1867 16.3547 35.7545C10.7716 35.2571 7.24704 33.3677 5.9585 29.8103C4.65498 26.2115 5.6195 21.6634 7.64905 18.1268C9.73184 14.4933 13.3429 11.5986 15.3858 9.9199C16.9742 8.61472 19.159 7.54259 21.429 6.71244Z" fill="#6D6060"/>
<path d="M20.0063 14.7098C20.821 14.1811 21.6443 13.9168 22.4763 13.9168C23.291 13.9168 23.902 14.1551 24.3093 14.6318C24.6646 15.0478 24.8423 15.6025 24.8423 16.2958C24.8423 16.8418 24.7036 17.3748 24.4263 17.8948C24.175 18.3368 23.733 18.9348 23.1003 19.6888L21.2673 21.7688L20.7343 22.4188H24.9983V22.7828L24.5433 23.3418H19.5643V22.4058L20.5523 21.2228L22.5543 18.8958C22.953 18.4191 23.2346 18.0205 23.3993 17.6998C23.6246 17.2665 23.7373 16.8461 23.7373 16.4388C23.7373 15.9881 23.603 15.6241 23.3343 15.3468C23.0656 15.0695 22.706 14.9308 22.2553 14.9308C21.7266 14.9308 21.1763 15.1345 20.6043 15.5418L20.0063 14.7098ZM30.4378 14.0338V14.9698H27.4088L27.2528 17.8428C27.6515 17.7821 27.9678 17.7518 28.2018 17.7518C29.1638 17.7518 29.9048 18.0465 30.4248 18.6358C30.8755 19.1471 31.1008 19.8275 31.1008 20.6768C31.1008 21.6301 30.7671 22.3495 30.0998 22.8348C29.5711 23.2248 28.8778 23.4198 28.0198 23.4198C27.4998 23.4198 26.9798 23.3418 26.4598 23.1858L26.0438 22.6788V22.2758C26.6418 22.3971 27.1661 22.4578 27.6168 22.4578C28.4228 22.4578 29.0121 22.3278 29.3848 22.0678C29.8008 21.7818 30.0088 21.3095 30.0088 20.6508C30.0088 19.3335 29.2331 18.6748 27.6818 18.6748C27.3178 18.6748 26.7891 18.7138 26.0958 18.7918L26.3558 14.0338H30.4378Z" fill="black"/>
</svg>
