<svg width="49" height="43" viewBox="0 0 49 43" fill="none" xmlns="http://www.w3.org/2000/svg">
<path d="M21.3748 7.06931L21.3757 7.06895C25.009 5.74025 29.1205 4.97658 30.9965 5.00589C32.5147 5.02875 33.9912 5.38268 35.3853 6.05783C36.6352 6.66311 37.8267 7.52873 38.9267 8.63065C40.7607 10.4677 42.3532 13.014 43.2959 15.6167C44.0491 17.6963 44.2221 20.2531 43.7828 22.8161C43.3394 25.4031 42.3037 27.7901 40.8664 29.5374C39.2864 31.4619 37.6013 32.1754 35.0139 33.1217C34.74 33.2219 34.4561 33.3244 34.1614 33.4309C33.8423 33.5461 33.5107 33.6659 33.1654 33.7922C28.1383 35.6308 20.8879 35.7945 16.2066 35.3761C10.636 34.8797 7.34061 33.0165 6.13204 29.6799C5.53938 28.0436 5.40559 26.0816 5.74514 24.0058C6.06224 22.0672 6.771 20.0995 7.79476 18.3155C9.77157 14.8669 13.187 12.0645 15.2276 10.3901L15.4431 10.2132C16.8411 9.06441 18.8925 7.97716 21.3748 7.06931Z" fill="white"/>
<path d="M21.5042 7.42619C19.0614 8.31961 17.0485 9.38492 15.683 10.507L15.4673 10.684C13.4469 12.3418 10.0653 15.1165 8.12312 18.5047C7.12184 20.2495 6.42883 22.1729 6.11902 24.0669C5.78994 26.0787 5.9176 27.9747 6.4882 29.55C7.64153 32.7341 10.8317 34.5163 16.2411 34.9982C20.8837 35.4132 28.068 35.2531 33.0366 33.4359C33.3823 33.3094 33.7144 33.1894 34.0339 33.074C34.3281 32.9678 34.6116 32.8654 34.8851 32.7654C37.412 31.8412 39.0559 31.1465 40.5749 29.2964C41.9707 27.5994 42.9776 25.2755 43.41 22.7528C43.8383 20.2537 43.6715 17.7657 42.9403 15.7471C42.0158 13.1948 40.4554 10.699 38.6592 8.89973C37.5892 7.82782 36.4322 6.98679 35.2205 6.39999C33.8763 5.74901 32.4532 5.40777 30.9902 5.38574C29.1487 5.35697 25.0969 6.11234 21.5042 7.42619ZM21.2469 6.71251C25.0849 5.30892 29.1647 4.59776 31.0034 4.62648C37.6555 4.72667 41.9791 10.8677 43.6522 15.4868C45.2454 19.8853 44.2345 26.0397 41.1587 29.779C39.1957 32.17 37.0663 32.7699 33.2949 34.1492C28.2526 35.9934 21.0073 36.1868 16.1726 35.7546C10.5894 35.2571 7.06491 33.3678 5.77637 29.8103C4.47285 26.2116 5.43737 21.6635 7.46692 18.1268C9.54971 14.4933 13.1607 11.5987 15.2037 9.91996C16.792 8.61478 18.9768 7.54266 21.2469 6.71251Z" fill="#707070"/>
<path d="M19.8242 14.7098C20.6389 14.1811 21.4622 13.9168 22.2942 13.9168C23.1089 13.9168 23.7199 14.1551 24.1272 14.6318C24.4826 15.0478 24.6602 15.6025 24.6602 16.2958C24.6602 16.8418 24.5216 17.3748 24.2442 17.8948C23.9929 18.3368 23.5509 18.9348 22.9182 19.6888L21.0852 21.7688L20.5522 22.4188H24.8162V22.7828L24.3612 23.3418H19.3822V22.4058L20.3702 21.2228L22.3722 18.8958C22.7709 18.4191 23.0526 18.0205 23.2172 17.6998C23.4426 17.2665 23.5552 16.8461 23.5552 16.4388C23.5552 15.9881 23.4209 15.6241 23.1522 15.3468C22.8836 15.0695 22.5239 14.9308 22.0732 14.9308C21.5446 14.9308 20.9942 15.1345 20.4222 15.5418L19.8242 14.7098ZM30.2557 14.0338V14.9698H27.2267L27.0707 17.8428C27.4694 17.7821 27.7857 17.7518 28.0197 17.7518C28.9817 17.7518 29.7227 18.0465 30.2427 18.6358C30.6934 19.1471 30.9187 19.8275 30.9187 20.6768C30.9187 21.6301 30.5851 22.3495 29.9177 22.8348C29.3891 23.2248 28.6957 23.4198 27.8377 23.4198C27.3177 23.4198 26.7977 23.3418 26.2777 23.1858L25.8617 22.6788V22.2758C26.4597 22.3971 26.9841 22.4578 27.4347 22.4578C28.2407 22.4578 28.8301 22.3278 29.2027 22.0678C29.6187 21.7818 29.8267 21.3095 29.8267 20.6508C29.8267 19.3335 29.0511 18.6748 27.4997 18.6748C27.1357 18.6748 26.6071 18.7138 25.9137 18.7918L26.1737 14.0338H30.2557Z" fill="black"/>
</svg>
