<svg width="49" height="43" viewBox="0 0 49 43" fill="none" xmlns="http://www.w3.org/2000/svg">
<path d="M21.5568 7.06924L21.5578 7.06889C25.1911 5.74019 29.3026 4.97652 31.1786 5.00583C32.6967 5.02869 34.1733 5.38262 35.5674 6.05777C36.8172 6.66305 38.0087 7.52867 39.1088 8.63058C40.9427 10.4677 42.5352 13.014 43.478 15.6166C44.2312 17.6962 44.4041 20.253 43.9648 22.8161C43.5215 25.403 42.4857 27.79 41.0485 29.5373C39.4685 31.4619 37.7834 32.1753 35.196 33.1216C34.9221 33.2218 34.6381 33.3244 34.3434 33.4308C34.0244 33.5461 33.6928 33.6659 33.3475 33.7921C28.3204 35.6307 21.07 35.7945 16.3887 35.376C10.8181 34.8797 7.52267 33.0164 6.3141 29.6798C5.72144 28.0436 5.58766 26.0815 5.92721 24.0058C6.24431 22.0671 6.95307 20.0994 7.97683 18.3154C9.95364 14.8668 13.369 12.0644 15.4096 10.3901L15.6251 10.2132C17.0232 9.06435 19.0746 7.9771 21.5568 7.06924Z" fill="#D2B48C"/>
<path d="M21.6863 7.42613C19.2435 8.31955 17.2306 9.38486 15.8651 10.5069L15.6494 10.684C13.6289 12.3418 10.2473 15.1165 8.30518 18.5046C7.3039 20.2494 6.6109 22.1728 6.30108 24.0669C5.97201 26.0786 6.09967 27.9746 6.67026 29.5499C7.82359 32.7341 11.0137 34.5162 16.4232 34.9982C21.0658 35.4132 28.2501 35.253 33.2186 33.4358C33.5644 33.3094 33.8965 33.1894 34.216 33.074C34.5102 32.9677 34.7937 32.8653 35.0671 32.7653C37.5941 31.8411 39.238 31.1465 40.7569 29.2964C42.1528 27.5994 43.1597 25.2755 43.592 22.7527C44.0204 20.2537 43.8536 17.7657 43.1224 15.7471C42.1979 13.1947 40.6375 10.6989 38.8413 8.89966C37.7712 7.82776 36.6143 6.98673 35.4026 6.39993C34.0584 5.74895 32.6352 5.4077 31.1723 5.38567C29.3307 5.35691 25.279 6.11228 21.6863 7.42613ZM21.4289 6.71244C25.267 5.30886 29.3467 4.5977 31.1854 4.62642C37.8375 4.7266 42.1611 10.8676 43.8342 15.4867C45.4274 19.8852 44.4165 26.0396 41.3408 29.7789C39.3778 32.1699 37.2483 32.7698 33.477 34.1491C28.4347 35.9933 21.1893 36.1867 16.3547 35.7545C10.7715 35.2571 7.24698 33.3677 5.95844 29.8103C4.65492 26.2115 5.61944 21.6634 7.64899 18.1268C9.73178 14.4933 13.3428 11.5986 15.3857 9.9199C16.9741 8.61472 19.1589 7.54259 21.4289 6.71244Z" fill="#D2B48C"/>
<path d="M20.0064 14.7098C20.821 14.1811 21.6444 13.9168 22.4764 13.9168C23.291 13.9168 23.902 14.1551 24.3094 14.6318C24.6647 15.0478 24.8424 15.6025 24.8424 16.2958C24.8424 16.8418 24.7037 17.3748 24.4264 17.8948C24.175 18.3368 23.733 18.9348 23.1004 19.6888L21.2674 21.7688L20.7344 22.4188H24.9984V22.7828L24.5434 23.3418H19.5644V22.4058L20.5524 21.2228L22.5544 18.8958C22.953 18.4191 23.2347 18.0205 23.3994 17.6998C23.6247 17.2665 23.7374 16.8461 23.7374 16.4388C23.7374 15.9881 23.603 15.6241 23.3344 15.3468C23.0657 15.0695 22.706 14.9308 22.2554 14.9308C21.7267 14.9308 21.1764 15.1345 20.6044 15.5418L20.0064 14.7098ZM30.4379 14.0338V14.9698H27.4089L27.2529 17.8428C27.6515 17.7821 27.9679 17.7518 28.2019 17.7518C29.1639 17.7518 29.9049 18.0465 30.4249 18.6358C30.8755 19.1471 31.1009 19.8275 31.1009 20.6768C31.1009 21.6301 30.7672 22.3495 30.0999 22.8348C29.5712 23.2248 28.8779 23.4198 28.0199 23.4198C27.4999 23.4198 26.9799 23.3418 26.4599 23.1858L26.0439 22.6788V22.2758C26.6419 22.3971 27.1662 22.4578 27.6169 22.4578C28.4229 22.4578 29.0122 22.3278 29.3849 22.0678C29.8009 21.7818 30.0089 21.3095 30.0089 20.6508C30.0089 19.3335 29.2332 18.6748 27.6819 18.6748C27.3179 18.6748 26.7892 18.7138 26.0959 18.7918L26.3559 14.0338H30.4379Z" fill="black"/>
</svg>
