<svg width="50" height="52" viewBox="0 0 50 52" fill="none" xmlns="http://www.w3.org/2000/svg">
<path d="M20.2792 51.1584C16.2008 51.1584 12.4406 50.1276 9.4052 48.1772C6.29352 46.1779 4.03596 43.257 2.8766 39.7302C1.63112 35.9452 0.857431 30.784 0.857431 26.2607C0.857431 26.1276 0.856894 25.9919 0.856349 25.8536C0.849717 24.1809 0.841465 22.0991 1.81286 19.6525C2.96041 16.7623 5.21733 13.9573 8.71229 11.078C12.8949 8.26416 16.4049 6.11965 19.4419 4.52237C23.1413 2.57677 26.1998 1.39786 28.7921 0.918285C29.6796 0.754049 30.5872 0.670776 31.4898 0.670776C33.7596 0.670776 36.0351 1.18171 38.2531 2.18938C39.0416 2.54758 40.2223 3.15441 41.3694 4.0111L41.412 4.04283C43.4239 5.52238 45.4922 8.04825 46.4418 10.1854C47.7178 13.0512 47.8696 14.6097 48.1211 17.1916C48.2984 19.0119 48.5189 21.2757 49.2089 24.7916C49.2103 25.6386 49.2592 26.5671 49.311 27.5492C49.4503 30.1928 49.6083 33.1891 48.7927 35.0545C46.7465 39.74 40.7251 42.8112 35.1048 45.1976L35.0911 45.2034L35.0779 45.2103C34.367 45.5807 33.663 45.9527 32.9821 46.3124C28.0601 48.9127 23.8093 51.1584 20.2792 51.1584Z" fill="#ED6503"/>
<path d="M20.2791 50.7785C23.7156 50.7785 27.9281 48.553 32.8057 45.9762C33.487 45.6162 34.1915 45.244 34.9033 44.8731L34.9298 44.8593L34.9572 44.8477C40.5089 42.4904 46.453 39.4654 48.446 34.9018C49.2254 33.119 49.07 30.1706 48.9329 27.5692C48.8816 26.5962 48.8331 25.6756 48.8303 24.829C48.1424 21.3157 47.9218 19.0507 47.7443 17.2285C47.4965 14.685 47.3469 13.1497 46.096 10.34C45.1704 8.25715 43.1523 5.79367 41.188 4.34912C41.1766 4.3407 41.1617 4.32955 41.1433 4.31582C40.0232 3.47931 38.8684 2.88591 38.0969 2.5354C35.9283 1.55017 33.7053 1.05062 31.4897 1.05062C30.61 1.05062 29.7255 1.13177 28.8606 1.29183C26.3062 1.76439 23.2827 2.93116 19.6175 4.85881C16.5964 6.44773 13.1027 8.58213 8.93824 11.3832C5.50222 14.2166 3.28609 16.968 2.1644 19.7931C1.22019 22.1712 1.22827 24.2122 1.23477 25.8521C1.23532 25.9909 1.23586 26.1271 1.23586 26.2606C1.23586 30.7462 2.00223 35.8618 3.23597 39.6111C4.36777 43.0541 6.5716 45.9055 9.60919 47.8572C12.5836 49.7683 16.2732 50.7785 20.2791 50.7785ZM20.2791 51.5383C11.9628 51.5383 4.97451 47.3248 2.51702 39.8492C1.1589 35.7219 0.478791 30.503 0.478791 26.2606C0.478791 22.8329 0.12063 17.6586 8.48623 10.7726C15.8677 5.80588 23.1054 1.58394 28.7234 0.54463C35.8259 -0.769797 41.2253 3.43432 41.6358 3.73644C43.6263 5.20029 45.7817 7.76719 46.7874 10.0306C48.9996 14.9993 47.9074 16.2123 49.5873 24.7543C49.5873 27.9518 50.2978 32.5571 49.1393 35.2071C47.0574 39.9741 41.0758 43.0747 35.2522 45.5474C29.4286 48.5821 24.4058 51.5383 20.2791 51.5383Z" fill="#6D6060"/>
<path d="M19.3726 21.1857C20.1873 20.6571 21.0106 20.3927 21.8426 20.3927C22.6573 20.3927 23.2683 20.6311 23.6756 21.1077C24.031 21.5237 24.2086 22.0784 24.2086 22.7717C24.2086 23.3177 24.07 23.8507 23.7926 24.3707C23.5413 24.8127 23.0993 25.4107 22.4666 26.1647L20.6336 28.2447L20.1006 28.8947H24.3646V29.2587L23.9096 29.8177H18.9306V28.8817L19.9186 27.6987L21.9206 25.3717C22.3193 24.8951 22.601 24.4964 22.7656 24.1757C22.991 23.7424 23.1036 23.3221 23.1036 22.9147C23.1036 22.4641 22.9693 22.1001 22.7006 21.8227C22.432 21.5454 22.0723 21.4067 21.6216 21.4067C21.093 21.4067 20.5426 21.6104 19.9706 22.0177L19.3726 21.1857ZM26.5021 25.1637C27.0568 24.4444 27.7111 24.0847 28.4651 24.0847C29.3405 24.0847 30.0078 24.4011 30.4671 25.0337C30.8311 25.5451 31.0131 26.1907 31.0131 26.9707C31.0131 27.9241 30.7401 28.6781 30.1941 29.2327C29.6915 29.7267 29.0328 29.9737 28.2181 29.9737C26.3721 29.9737 25.4491 28.7604 25.4491 26.3337V25.8397C25.4491 24.2624 25.7611 22.9797 26.3851 21.9917C27.0525 20.9257 28.0145 20.3927 29.2711 20.3927C29.4271 20.3927 29.6178 20.4014 29.8431 20.4187L30.2851 20.9647V21.3677C29.9385 21.3157 29.6525 21.2897 29.4271 21.2897C27.7545 21.2897 26.7795 22.5811 26.5021 25.1637ZM29.8951 26.9187C29.8951 26.3727 29.7478 25.9221 29.4531 25.5667C29.1671 25.2027 28.7988 25.0207 28.3481 25.0207C27.8628 25.0207 27.4165 25.2244 27.0091 25.6317C26.6538 25.9871 26.4761 26.3727 26.4761 26.7887C26.4761 27.4301 26.6408 27.9587 26.9701 28.3747C27.2908 28.7734 27.7155 28.9727 28.2441 28.9727C28.7295 28.9727 29.1238 28.7864 29.4271 28.4137C29.7391 28.0324 29.8951 27.5341 29.8951 26.9187Z" fill="black"/>
</svg>
