<svg width="50" height="52" viewBox="0 0 50 52" fill="none" xmlns="http://www.w3.org/2000/svg">
<path d="M20.0971 51.1583C16.0187 51.1583 12.2585 50.1274 9.22307 48.1771C6.11139 46.1778 3.85383 43.2569 2.69447 39.7301C1.44899 35.9451 0.675302 30.7839 0.675302 26.2605C0.675302 26.1275 0.674765 25.9918 0.67422 25.8535C0.667588 24.1808 0.659336 22.099 1.63073 19.6524C2.77828 16.7621 5.0352 13.9572 8.53017 11.0778C12.7128 8.26404 16.2228 6.11952 19.2598 4.52225C22.9592 2.57664 26.0176 1.39774 28.61 0.918163C29.4974 0.753927 30.405 0.670654 31.3077 0.670654C33.5775 0.670654 35.853 1.18159 38.071 2.18926C38.8595 2.54746 40.0402 3.15429 41.1872 4.01098L41.2299 4.04271C43.2417 5.52226 45.31 8.04812 46.2597 10.1852C47.5356 13.0511 47.6875 14.6096 47.939 17.1915C48.1163 19.0118 48.3368 21.2755 49.0267 24.7915C49.0281 25.6385 49.0771 26.5669 49.1289 27.549C49.2682 30.1926 49.4262 33.189 48.6106 35.0544C46.5644 39.7398 40.543 42.8111 34.9227 45.1975L34.909 45.2033L34.8957 45.2102C34.1849 45.5806 33.4809 45.9525 32.8 46.3122C27.878 48.9126 23.6271 51.1583 20.0971 51.1583Z" fill="white"/>
<path d="M20.097 50.7784C23.5335 50.7784 27.746 48.553 32.6236 45.9761C33.3049 45.6162 34.0094 45.2439 34.7212 44.873L34.7477 44.8593L34.7751 44.8476C40.3268 42.4904 46.2709 39.4653 48.2639 34.9017C49.0433 33.1189 48.8879 30.1705 48.7507 27.5691C48.6995 26.5961 48.6509 25.6756 48.6482 24.829C47.9603 21.3157 47.7396 19.0507 47.5621 17.2285C47.3144 14.6849 47.1648 13.1496 45.9139 10.34C44.9883 8.25709 42.9702 5.79361 41.0059 4.34906C40.9945 4.34064 40.9795 4.32949 40.9611 4.31576C39.8411 3.47925 38.6863 2.88585 37.9148 2.53534C35.7461 1.55011 33.5231 1.05056 31.3076 1.05056C30.4279 1.05056 29.5434 1.13171 28.6785 1.29177C26.1241 1.76433 23.1006 2.9311 19.4354 4.85875C16.4142 6.44767 12.9206 8.58207 8.75611 11.3831C5.32009 14.2165 3.10396 16.9679 1.98227 19.793C1.03806 22.1712 1.04614 24.2121 1.05264 25.852C1.05319 25.9908 1.05373 26.127 1.05373 26.2606C1.05373 30.7462 1.8201 35.8617 3.05384 39.6111C4.18564 43.054 6.38947 45.9055 9.42706 47.8572C12.4015 49.7683 16.0911 50.7784 20.097 50.7784ZM20.097 51.5382C11.7806 51.5382 4.79239 47.3248 2.33489 39.8491C0.976774 35.7218 0.296662 30.5029 0.296662 26.2606C0.296662 22.8328 -0.0614994 17.6586 8.3041 10.7725C15.6856 5.80581 22.9233 1.58388 28.5413 0.544569C35.6438 -0.769858 41.0432 3.43426 41.4537 3.73638C43.4442 5.20023 45.5995 7.76713 46.6053 10.0305C48.8175 14.9992 47.7253 16.2122 49.4051 24.7543C49.4051 27.9518 50.1157 32.5571 48.9571 35.207C46.8753 39.9741 40.8937 43.0746 35.0701 45.5473C29.2464 48.582 24.2236 51.5382 20.097 51.5382Z" fill="#707070"/>
<path d="M19.1905 21.1857C20.0052 20.6571 20.8285 20.3927 21.6605 20.3927C22.4752 20.3927 23.0862 20.6311 23.4935 21.1077C23.8489 21.5237 24.0265 22.0784 24.0265 22.7717C24.0265 23.3177 23.8879 23.8507 23.6105 24.3707C23.3592 24.8127 22.9172 25.4107 22.2845 26.1647L20.4515 28.2447L19.9185 28.8947H24.1825V29.2587L23.7275 29.8177H18.7485V28.8817L19.7365 27.6987L21.7385 25.3717C22.1372 24.8951 22.4189 24.4964 22.5835 24.1757C22.8089 23.7424 22.9215 23.3221 22.9215 22.9147C22.9215 22.4641 22.7872 22.1001 22.5185 21.8227C22.2499 21.5454 21.8902 21.4067 21.4395 21.4067C20.9109 21.4067 20.3605 21.6104 19.7885 22.0177L19.1905 21.1857ZM26.32 25.1637C26.8747 24.4444 27.529 24.0847 28.283 24.0847C29.1583 24.0847 29.8257 24.4011 30.285 25.0337C30.649 25.5451 30.831 26.1907 30.831 26.9707C30.831 27.9241 30.558 28.6781 30.012 29.2327C29.5093 29.7267 28.8507 29.9737 28.036 29.9737C26.19 29.9737 25.267 28.7604 25.267 26.3337V25.8397C25.267 24.2624 25.579 22.9797 26.203 21.9917C26.8703 20.9257 27.8323 20.3927 29.089 20.3927C29.245 20.3927 29.4357 20.4014 29.661 20.4187L30.103 20.9647V21.3677C29.7563 21.3157 29.4703 21.2897 29.245 21.2897C27.5723 21.2897 26.5973 22.5811 26.32 25.1637ZM29.713 26.9187C29.713 26.3727 29.5657 25.9221 29.271 25.5667C28.985 25.2027 28.6167 25.0207 28.166 25.0207C27.6807 25.0207 27.2343 25.2244 26.827 25.6317C26.4717 25.9871 26.294 26.3727 26.294 26.7887C26.294 27.4301 26.4587 27.9587 26.788 28.3747C27.1087 28.7734 27.5333 28.9727 28.062 28.9727C28.5473 28.9727 28.9417 28.7864 29.245 28.4137C29.557 28.0324 29.713 27.5341 29.713 26.9187Z" fill="black"/>
</svg>
