<svg width="45" height="47" viewBox="0 0 45 47" fill="none" xmlns="http://www.w3.org/2000/svg">
<path d="M42.7687 32.4413C41.9677 35.6005 36.4661 38.5158 31.8094 40.7139C31.0137 41.09 20.4253 45.5894 20.4253 45.5894C20.4253 45.5894 16.2236 46.7352 14.6466 45.5894C14.2143 45.2756 10.9946 43.5707 10.5698 42.7281C9.75915 40.888 9.10717 38.9816 8.62113 37.0297C3.91594 33.2391 2.50478 31.949 1.83477 29.5777C0.482006 25.1891 0.793153 20.4536 2.70842 16.2814C3.64265 14.407 5.50052 13.5195 8.62191 10.7197C10.5388 8.99956 13.4232 7.44427 16.0116 5.96724C18.7818 4.38612 20.5616 3.06332 23.2038 2.14094C26.0985 1.15282 29.1783 0.83465 32.2129 1.21022C36.8719 1.94873 39.1689 5.32217 41.222 8.20633C41.7929 9.38172 41.6445 11.282 42.02 17.0389C42.2153 20.0385 43.0443 23.6582 43.4781 26.4831C43.8112 28.6477 43.0185 31.4566 42.7687 32.4413Z" fill="white" stroke="#707070"/>
<path d="M16.2801 16.968C17.0948 16.4393 17.9181 16.175 18.7501 16.175C19.5648 16.175 20.1758 16.4133 20.5831 16.89C20.9385 17.306 21.1161 17.8606 21.1161 18.554C21.1161 19.1 20.9775 19.633 20.7001 20.153C20.4488 20.595 20.0068 21.193 19.3741 21.947L17.5411 24.027L17.0081 24.677H21.2721V25.041L20.8171 25.6H15.8381V24.664L16.8261 23.481L18.8281 21.154C19.2268 20.6773 19.5085 20.2786 19.6731 19.958C19.8985 19.5246 20.0111 19.1043 20.0111 18.697C20.0111 18.2463 19.8768 17.8823 19.6081 17.605C19.3395 17.3276 18.9798 17.189 18.5291 17.189C18.0005 17.189 17.4501 17.3926 16.8781 17.8L16.2801 16.968ZM27.7386 16.292V17.111L24.6446 24.989L23.8906 25.6H23.2146L26.5946 17.228H22.0836V16.292H27.7386Z" fill="black"/>
</svg>
