<svg width="45" height="47" viewBox="0 0 45 47" fill="none" xmlns="http://www.w3.org/2000/svg">
<path d="M42.9508 32.4413C42.1498 35.6005 36.6483 38.5158 31.9915 40.7139C31.1959 41.09 20.6075 45.5894 20.6075 45.5894C20.6075 45.5894 16.4057 46.7352 14.8288 45.5894C14.3965 45.2756 11.1767 43.5707 10.752 42.7281C9.94128 40.888 9.2893 38.9816 8.80326 37.0297C4.09807 33.2391 2.68691 31.949 2.0169 29.5777C0.664135 25.1891 0.975282 20.4536 2.89055 16.2814C3.82477 14.407 5.68265 13.5195 8.80404 10.7197C10.7209 8.99956 13.6054 7.44427 16.1938 5.96724C18.9639 4.38612 20.7438 3.06332 23.3859 2.14094C26.2806 1.15282 29.3605 0.83465 32.395 1.21022C37.054 1.94873 39.351 5.32217 41.4042 8.20633C41.975 9.38172 41.8266 11.282 42.2021 17.0389C42.3974 20.0385 43.2264 23.6582 43.6602 26.4831C43.9933 28.6477 43.2007 31.4566 42.9508 32.4413Z" fill="#FFD700" stroke="#6D6060"/>
<path d="M16.4622 16.968C17.2769 16.4394 18.1002 16.175 18.9322 16.175C19.7469 16.175 20.3579 16.4134 20.7652 16.89C21.1206 17.306 21.2982 17.8607 21.2982 18.554C21.2982 19.1 21.1596 19.633 20.8822 20.153C20.6309 20.595 20.1889 21.193 19.5562 21.947L17.7232 24.027L17.1902 24.677H21.4542V25.041L20.9992 25.6H16.0202V24.664L17.0082 23.481L19.0102 21.154C19.4089 20.6774 19.6906 20.2787 19.8552 19.958C20.0806 19.5247 20.1932 19.1044 20.1932 18.697C20.1932 18.2464 20.0589 17.8824 19.7902 17.605C19.5216 17.3277 19.1619 17.189 18.7112 17.189C18.1826 17.189 17.6322 17.3927 17.0602 17.8L16.4622 16.968ZM27.9207 16.292V17.111L24.8267 24.989L24.0727 25.6H23.3967L26.7767 17.228H22.2657V16.292H27.9207Z" fill="black"/>
</svg>
