<svg width="47" height="48" viewBox="0 0 47 48" fill="none" xmlns="http://www.w3.org/2000/svg">
<path d="M45.0635 32.8301C44.2095 36.1967 38.3475 39.3027 33.3849 41.6437C32.537 42.0441 21.2537 46.8391 21.2537 46.8391C21.2537 46.8391 16.1404 47.143 14.4597 45.9213C12.779 44.6995 13.6481 43.401 8.10032 37.831C2.55252 32.261 3.15669 31.926 2.44278 29.3974C0.833249 23.7073 0.743915 21.2677 2.44278 17.8585C4.14164 14.4493 9.89004 8.41732 16.5538 4.61458C23.2175 0.811842 29.6193 0.0254613 34.5841 0.815641C39.549 1.60582 41.2796 5.21634 43.4691 8.28968C45.6585 11.363 46.106 28.7189 45.0635 32.8301Z" fill="#DCDCDC" stroke="#6D6060"/>
<path d="M18.641 18.1056C19.4556 17.5769 20.279 17.3126 21.111 17.3126C21.9256 17.3126 22.5366 17.5509 22.944 18.0276C23.2993 18.4436 23.477 18.9983 23.477 19.6916C23.477 20.2376 23.3383 20.7706 23.061 21.2906C22.8096 21.7326 22.3676 22.3306 21.735 23.0846L19.902 25.1646L19.369 25.8146H23.633V26.1786L23.178 26.7376H18.199V25.8016L19.187 24.6186L21.189 22.2916C21.5876 21.8149 21.8693 21.4163 22.034 21.0956C22.2593 20.6623 22.372 20.2419 22.372 19.8346C22.372 19.3839 22.2376 19.0199 21.969 18.7426C21.7003 18.4653 21.3406 18.3266 20.89 18.3266C20.3613 18.3266 19.811 18.5303 19.239 18.9376L18.641 18.1056ZM26.7194 21.9926C25.6014 21.2473 25.0424 20.3849 25.0424 19.4056C25.0424 18.6603 25.3111 18.1013 25.8484 17.7286C26.2731 17.4253 26.8191 17.2736 27.4864 17.2736C28.2751 17.2736 28.8904 17.4773 29.3324 17.8846C29.7571 18.2659 29.9694 18.7903 29.9694 19.4576C29.9694 19.9689 29.8524 20.3979 29.6184 20.7446C29.3931 21.0913 28.9598 21.4943 28.3184 21.9536C29.7138 22.6123 30.4114 23.4876 30.4114 24.5796C30.4114 25.3769 30.0648 25.9879 29.3714 26.4126C28.8428 26.7419 28.2144 26.9066 27.4864 26.9066C26.6198 26.9066 25.9178 26.6943 25.3804 26.2696C24.8518 25.8536 24.5874 25.2816 24.5874 24.5536C24.5874 23.4703 25.2981 22.6166 26.7194 21.9926ZM27.5384 21.5506C28.4224 20.9959 28.8644 20.2809 28.8644 19.4056C28.8644 18.9896 28.7431 18.6603 28.5004 18.4176C28.2578 18.1663 27.9284 18.0406 27.5124 18.0406C27.0531 18.0406 26.7064 18.1793 26.4724 18.4566C26.2558 18.6993 26.1474 19.0199 26.1474 19.4186C26.1474 19.8259 26.2514 20.1986 26.4594 20.5366C26.6848 20.9179 27.0444 21.2559 27.5384 21.5506ZM27.5254 22.3176C26.8754 22.6296 26.4161 22.9459 26.1474 23.2666C25.8874 23.5786 25.7574 23.9729 25.7574 24.4496C25.7574 24.9349 25.9134 25.3163 26.2254 25.5936C26.5374 25.8623 26.9664 25.9966 27.5124 25.9966C28.0584 25.9966 28.4874 25.8579 28.7994 25.5806C29.1201 25.3033 29.2804 24.9306 29.2804 24.4626C29.2804 24.0119 29.1461 23.6219 28.8774 23.2926C28.6088 22.9633 28.1581 22.6383 27.5254 22.3176Z" fill="black"/>
</svg>
