<svg width="46" height="48" viewBox="0 0 46 48" fill="none" xmlns="http://www.w3.org/2000/svg">
<path d="M44.8813 32.8301C44.0274 36.1967 38.1654 39.3027 33.2028 41.6437C32.3549 42.0441 21.0715 46.8391 21.0715 46.8391C21.0715 46.8391 15.9583 47.143 14.2776 45.9213C12.5969 44.6995 13.466 43.401 7.91819 37.831C2.37039 32.261 2.97456 31.926 2.26065 29.3974C0.65112 23.7073 0.561786 21.2677 2.26065 17.8585C3.95951 14.4493 9.70791 8.41732 16.3716 4.61458C23.0354 0.811842 29.4372 0.0254613 34.402 0.815641C39.3669 1.60582 41.0975 5.21634 43.2869 8.28968C45.4764 11.363 45.9238 28.7189 44.8813 32.8301Z" fill="white" stroke="#707070"/>
<path d="M18.4588 18.1057C19.2735 17.577 20.0968 17.3127 20.9288 17.3127C21.7435 17.3127 22.3545 17.551 22.7618 18.0277C23.1172 18.4437 23.2948 18.9983 23.2948 19.6917C23.2948 20.2377 23.1562 20.7707 22.8788 21.2907C22.6275 21.7327 22.1855 22.3307 21.5528 23.0847L19.7198 25.1647L19.1868 25.8147H23.4508V26.1787L22.9958 26.7377H18.0168V25.8017L19.0048 24.6187L21.0068 22.2917C21.4055 21.815 21.6872 21.4163 21.8518 21.0957C22.0772 20.6623 22.1898 20.242 22.1898 19.8347C22.1898 19.384 22.0555 19.02 21.7868 18.7427C21.5182 18.4653 21.1585 18.3267 20.7078 18.3267C20.1792 18.3267 19.6288 18.5303 19.0568 18.9377L18.4588 18.1057ZM26.5373 21.9927C25.4193 21.2473 24.8603 20.385 24.8603 19.4057C24.8603 18.6603 25.129 18.1013 25.6663 17.7287C26.091 17.4253 26.637 17.2737 27.3043 17.2737C28.093 17.2737 28.7083 17.4773 29.1503 17.8847C29.575 18.266 29.7873 18.7903 29.7873 19.4577C29.7873 19.969 29.6703 20.398 29.4363 20.7447C29.211 21.0913 28.7776 21.4943 28.1363 21.9537C29.5316 22.6123 30.2293 23.4877 30.2293 24.5797C30.2293 25.377 29.8826 25.988 29.1893 26.4127C28.6606 26.742 28.0323 26.9067 27.3043 26.9067C26.4376 26.9067 25.7356 26.6943 25.1983 26.2697C24.6696 25.8537 24.4053 25.2817 24.4053 24.5537C24.4053 23.4703 25.116 22.6167 26.5373 21.9927ZM27.3563 21.5507C28.2403 20.996 28.6823 20.281 28.6823 19.4057C28.6823 18.9897 28.561 18.6603 28.3183 18.4177C28.0756 18.1663 27.7463 18.0407 27.3303 18.0407C26.871 18.0407 26.5243 18.1793 26.2903 18.4567C26.0736 18.6993 25.9653 19.02 25.9653 19.4187C25.9653 19.826 26.0693 20.1987 26.2773 20.5367C26.5026 20.918 26.8623 21.256 27.3563 21.5507ZM27.3433 22.3177C26.6933 22.6297 26.234 22.946 25.9653 23.2667C25.7053 23.5787 25.5753 23.973 25.5753 24.4497C25.5753 24.935 25.7313 25.3163 26.0433 25.5937C26.3553 25.8623 26.7843 25.9967 27.3303 25.9967C27.8763 25.9967 28.3053 25.858 28.6173 25.5807C28.938 25.3033 29.0983 24.9307 29.0983 24.4627C29.0983 24.012 28.964 23.622 28.6953 23.2927C28.4266 22.9633 27.976 22.6383 27.3433 22.3177Z" fill="black"/>
</svg>
