<svg width="27" height="35" viewBox="0 0 27 35" fill="none" xmlns="http://www.w3.org/2000/svg">
<path d="M8.76917 33.9305H8.76713C4.21984 33.9303 1.76074 33.1935 1.34087 32.4635C0.718626 31.3838 0.640627 29.2018 1.11514 26.1528C1.51074 23.6109 2.17097 21.1598 2.48826 19.9819C2.54266 19.7799 2.58564 19.6204 2.61438 19.5078C2.63437 19.4294 2.65222 19.3595 2.65979 19.294C2.98536 18.0584 3.28272 16.8999 3.5704 15.7791C4.87213 10.7075 5.81266 7.04318 7.22645 4.59092C8.6538 2.11515 10.5255 1.01835 13.4848 0.923496C13.519 0.922402 13.552 0.921875 13.5862 0.921875C14.7734 0.921875 16.0083 1.59609 17.2566 2.9258C18.4573 4.20478 19.6447 6.05754 20.786 8.43264C21.7948 10.5322 22.7584 13.0403 23.5725 15.6861C25.0759 20.5716 25.9646 25.5825 25.7839 28.155C25.7229 29.0247 25.1663 29.8428 24.1296 30.5867C23.1428 31.2947 21.75 31.9194 19.99 32.4434C16.8624 33.3746 12.6678 33.9305 8.76917 33.9305Z" fill="#E42A47"/>
<path d="M13.5843 0.534305V1.30977C13.5549 1.30977 13.5264 1.31024 13.4969 1.31119C12.0387 1.35792 10.8673 1.65924 9.91581 2.23234C9.00849 2.77881 8.23942 3.6134 7.56466 4.78378C6.17726 7.19026 5.24224 10.8331 3.94812 15.8751C3.6616 16.9914 3.36546 18.1451 3.04131 19.3756C3.02938 19.4576 3.00981 19.5343 2.99223 19.6032C2.96286 19.7183 2.91959 19.8789 2.86481 20.0823C2.54929 21.2537 1.89275 23.691 1.50038 26.2123C0.918145 29.9533 1.27611 31.5718 1.67928 32.2713C1.7083 32.3217 2.01442 32.7746 3.80456 33.1383C5.10777 33.403 6.82365 33.5429 8.76667 33.5429C12.6303 33.5429 16.7839 32.9931 19.8775 32.072C23.3285 31.0446 25.2877 29.644 25.3942 28.1282C25.5718 25.5988 24.6897 20.645 23.1991 15.8012C22.3907 13.1739 21.4345 10.6845 20.4339 8.60209C19.3099 6.26279 18.145 4.44266 16.9716 3.19225C15.7997 1.9435 14.6605 1.31015 13.5854 1.30977L13.5843 0.534305ZM13.5858 0.534302C20.6935 0.536793 26.6207 21.8041 26.1728 28.1822C25.8798 32.3544 16.0779 34.3184 8.76667 34.3184C4.84082 34.3184 1.63164 33.7515 1.00158 32.656C-0.872942 29.4036 2.36046 19.2345 2.27166 19.2345C5.57398 6.70775 6.31297 0.765588 13.4718 0.536127C13.5102 0.534897 13.5474 0.53429 13.5858 0.534302Z" fill="#707070"/>
<path d="M8.118 12.9C8.77667 12.692 9.31833 12.588 9.743 12.588C10.653 12.588 11.3767 12.8263 11.914 13.303C12.434 13.7623 12.694 14.3733 12.694 15.136C12.694 16.254 12.1567 16.9603 11.082 17.255C11.7147 17.385 12.2 17.6537 12.538 18.061C12.8933 18.4943 13.071 18.9797 13.071 19.517C13.071 20.4097 12.6983 21.0987 11.953 21.584C11.381 21.9567 10.692 22.143 9.886 22.143C9.32267 22.143 8.768 22.0737 8.222 21.935L7.715 21.311V20.713C8.32167 20.8257 8.84167 20.882 9.275 20.882C10.7483 20.882 11.485 20.4313 11.485 19.53C11.485 19.062 11.2813 18.6677 10.874 18.347C10.614 18.1477 10.3367 18.0133 10.042 17.944C9.756 17.8747 9.30967 17.8313 8.703 17.814V16.605H10.016C10.3453 16.605 10.6183 16.4923 10.835 16.267C11.0517 16.033 11.16 15.7427 11.16 15.396C11.16 14.954 11.0083 14.6117 10.705 14.369C10.4103 14.1177 10.003 13.992 9.483 13.992C9.15367 13.992 8.69867 14.0657 8.118 14.213V12.9ZM17.7513 12.692V21.298L16.9453 22H16.1653V14.499L14.6573 15.773L13.9033 14.824L16.4253 12.692H17.7513Z" fill="black"/>
</svg>
