<svg width="27" height="35" viewBox="0 0 27 35" fill="none" xmlns="http://www.w3.org/2000/svg">
<path d="M8.76911 33.9308H8.76707C4.21978 33.9305 1.76068 33.1938 1.34081 32.4637C0.718565 31.3841 0.640566 29.202 1.11508 26.1531C1.51068 23.6111 2.17091 21.1601 2.4882 19.9822C2.5426 19.7802 2.58558 19.6206 2.61432 19.508C2.6343 19.4297 2.65216 19.3597 2.65973 19.2943C2.9853 18.0587 3.28266 16.9002 3.57034 15.7793C4.87207 10.7077 5.8126 7.04342 7.22639 4.59116C8.65374 2.11539 10.5254 1.01859 13.4847 0.92374C13.5189 0.922646 13.552 0.922119 13.5861 0.922119C14.7734 0.922119 16.0083 1.59634 17.2566 2.92605C18.4572 4.20502 19.6447 6.05779 20.7859 8.43288C21.7948 10.5324 22.7583 13.0406 23.5725 15.6863C25.0758 20.5718 25.9645 25.5827 25.7839 28.1553C25.7228 29.025 25.1662 29.8431 24.1295 30.5869C23.1427 31.295 21.75 31.9197 19.9899 32.4437C16.8623 33.3749 12.6677 33.9308 8.76911 33.9308Z" fill="white"/>
<path d="M13.5843 0.534427V1.30989C13.5549 1.30989 13.5264 1.31036 13.4969 1.31131C12.0387 1.35805 10.8673 1.65936 9.91581 2.23246C9.00849 2.77894 8.23942 3.61352 7.56466 4.7839C6.17726 7.19039 5.24224 10.8333 3.94812 15.8752C3.6616 16.9915 3.36546 18.1453 3.04131 19.3757C3.02938 19.4578 3.00981 19.5344 2.99223 19.6033C2.96286 19.7184 2.91959 19.8791 2.86481 20.0824C2.54929 21.2538 1.89275 23.6912 1.50038 26.2124C0.918145 29.9535 1.27611 31.5719 1.67928 32.2714C1.7083 32.3218 2.01442 32.7748 3.80456 33.1384C5.10777 33.4031 6.82365 33.5431 8.76667 33.5431C12.6303 33.5431 16.7839 32.9932 19.8775 32.0722C23.3285 31.0447 25.2877 29.6441 25.3942 28.1283C25.5718 25.5989 24.6897 20.6451 23.1991 15.8013C22.3907 13.1741 21.4345 10.6846 20.4339 8.60222C19.3099 6.26291 18.145 4.44278 16.9716 3.19237C15.7997 1.94362 14.6605 1.31027 13.5854 1.30989L13.5843 0.534427ZM13.5858 0.534424C20.6935 0.536915 26.6207 21.8042 26.1728 28.1823C25.8798 32.3545 16.0779 34.3185 8.76667 34.3185C4.84082 34.3185 1.63164 33.7517 1.00158 32.6561C-0.872942 29.4037 2.36046 19.2346 2.27166 19.2346C5.57398 6.70787 6.31297 0.765711 13.4718 0.536249C13.5102 0.535019 13.5474 0.534412 13.5858 0.534424Z" fill="#707070"/>
<path d="M8.118 12.9C8.77667 12.692 9.31833 12.588 9.743 12.588C10.653 12.588 11.3767 12.8263 11.914 13.303C12.434 13.7623 12.694 14.3733 12.694 15.136C12.694 16.254 12.1567 16.9603 11.082 17.255C11.7147 17.385 12.2 17.6537 12.538 18.061C12.8933 18.4943 13.071 18.9797 13.071 19.517C13.071 20.4097 12.6983 21.0987 11.953 21.584C11.381 21.9567 10.692 22.143 9.886 22.143C9.32267 22.143 8.768 22.0737 8.222 21.935L7.715 21.311V20.713C8.32167 20.8257 8.84167 20.882 9.275 20.882C10.7483 20.882 11.485 20.4313 11.485 19.53C11.485 19.062 11.2813 18.6677 10.874 18.347C10.614 18.1477 10.3367 18.0133 10.042 17.944C9.756 17.8747 9.30967 17.8313 8.703 17.814V16.605H10.016C10.3453 16.605 10.6183 16.4923 10.835 16.267C11.0517 16.033 11.16 15.7427 11.16 15.396C11.16 14.954 11.0083 14.6117 10.705 14.369C10.4103 14.1177 10.003 13.992 9.483 13.992C9.15367 13.992 8.69867 14.0657 8.118 14.213V12.9ZM17.7513 12.692V21.298L16.9453 22H16.1653V14.499L14.6573 15.773L13.9033 14.824L16.4253 12.692H17.7513Z" fill="black"/>
</svg>
