<svg width="27" height="37" viewBox="0 0 27 37" fill="none" xmlns="http://www.w3.org/2000/svg">
<path d="M4.98033 36.0044C4.98053 36.0044 4.98013 36.0044 4.98033 36.0044C3.51287 36.0044 2.56459 35.6501 2.16276 34.9514C0.681899 32.382 0.895642 28.225 1.21919 21.9326C1.29368 20.4841 1.37069 18.9862 1.43809 17.3324C1.61911 12.8906 2.72697 8.83024 4.55761 5.89927C5.46168 4.45179 6.50933 3.32499 7.67147 2.55016C8.86242 1.75613 10.1464 1.35352 11.4876 1.35352C12.3065 1.35352 13.2445 1.68244 14.2756 2.33114C15.2635 2.95262 16.3126 3.85172 17.3938 5.00345C19.5676 7.31902 21.7284 10.5178 23.3222 13.7797C24.9456 17.1018 25.797 20.1399 25.6584 22.115C25.4364 25.276 22.0258 28.3736 19.2038 30.4154C16.1973 32.5908 13.1999 34.0585 12.9818 34.1643C12.7075 34.2711 8.20096 36.0044 4.98033 36.0044Z" fill="#E42A47"/>
<path d="M11.4877 1.74116C10.2253 1.74116 9.01456 2.12164 7.88907 2.87203C6.77327 3.61597 5.76401 4.70324 4.88936 6.10362C3.09366 8.97865 2.00651 12.972 1.82817 17.348C1.76069 19.0039 1.68361 20.5028 1.60908 21.9523C1.28906 28.1762 1.07764 32.288 2.50175 34.7589C2.90944 35.4678 4.07445 35.6166 4.97999 35.6166C8.08472 35.6166 12.451 33.9536 12.825 33.8089C13.1235 33.6635 16.0344 32.2276 18.9652 30.1084C22.9217 27.2475 25.1016 24.474 25.2692 22.0879C25.4033 20.1784 24.5657 17.2119 22.9713 13.9489C21.3938 10.7204 19.2569 7.55629 17.1085 5.26782C14.9736 2.99362 12.9774 1.74116 11.4877 1.74116ZM11.4877 0.965698C17.3073 0.965698 26.4981 15.7293 26.0478 22.1418C25.5975 28.5544 13.139 34.5195 13.139 34.5195C13.139 34.5195 3.62749 38.2794 1.82404 35.1436C-0.0504669 31.8912 0.67373 26.5071 1.04827 17.3166C1.42282 8.12619 5.6682 0.965698 11.4877 0.965698Z" fill="#707070"/>
<path d="M6.11812 14.9C6.77679 14.692 7.31846 14.588 7.74312 14.588C8.65312 14.588 9.37679 14.8263 9.91412 15.303C10.4341 15.7623 10.6941 16.3733 10.6941 17.136C10.6941 18.254 10.1568 18.9603 9.08212 19.255C9.71479 19.385 10.2001 19.6537 10.5381 20.061C10.8935 20.4943 11.0711 20.9797 11.0711 21.517C11.0711 22.4097 10.6985 23.0987 9.95312 23.584C9.38112 23.9567 8.69212 24.143 7.88612 24.143C7.32279 24.143 6.76812 24.0737 6.22212 23.935L5.71512 23.311V22.713C6.32179 22.8257 6.84179 22.882 7.27512 22.882C8.74846 22.882 9.48512 22.4313 9.48512 21.53C9.48512 21.062 9.28146 20.6677 8.87412 20.347C8.61412 20.1477 8.33679 20.0133 8.04212 19.944C7.75612 19.8747 7.30979 19.8313 6.70312 19.814V18.605H8.01612C8.34546 18.605 8.61846 18.4923 8.83512 18.267C9.05179 18.033 9.16012 17.7427 9.16012 17.396C9.16012 16.954 9.00846 16.6117 8.70512 16.369C8.41046 16.1177 8.00312 15.992 7.48312 15.992C7.15379 15.992 6.69879 16.0657 6.11812 16.213V14.9ZM12.2934 15.394C13.1168 14.8567 13.9488 14.588 14.7894 14.588C15.6301 14.588 16.2714 14.835 16.7134 15.329C17.1034 15.7537 17.2984 16.3213 17.2984 17.032C17.2984 17.5607 17.1728 18.0807 16.9214 18.592C16.6701 19.1033 16.2324 19.7403 15.6084 20.503C14.9064 21.3523 14.5164 21.816 14.4384 21.894L13.6714 22.674H17.4804V23.194L16.8304 24H11.9034V22.674L12.8654 21.686L13.8014 20.62C14.5208 19.8227 14.9844 19.2723 15.1924 18.969C15.6344 18.3363 15.8554 17.7773 15.8554 17.292C15.8554 16.9107 15.7298 16.603 15.4784 16.369C15.2358 16.1263 14.9151 16.005 14.5164 16.005C14.0484 16.005 13.5718 16.174 13.0864 16.512L12.2934 15.394Z" fill="black"/>
</svg>
