<svg width="27" height="37" viewBox="0 0 27 37" fill="none" xmlns="http://www.w3.org/2000/svg">
<path d="M4.98021 36.0044C4.98001 36.0044 4.98041 36.0044 4.98021 36.0044C3.51274 36.0043 2.56447 35.65 2.16264 34.9513C0.681777 32.3819 0.895519 28.225 1.21907 21.9326C1.29355 20.484 1.37057 18.9862 1.43797 17.3324C1.61899 12.8906 2.72685 8.83021 4.55749 5.89924C5.46156 4.45176 6.50921 3.32496 7.67134 2.55013C8.86229 1.7561 10.1462 1.35349 11.4875 1.35349C12.3063 1.35349 13.2444 1.68241 14.2755 2.33111C15.2634 2.95259 16.3125 3.85169 17.3937 5.00342C19.5674 7.31899 21.7283 10.5178 23.3221 13.7796C24.9454 17.1018 25.7969 20.1399 25.6582 22.1149C25.4363 25.276 22.0257 28.3735 19.2036 30.4154C16.1971 32.5907 13.1998 34.0585 12.9817 34.1643C12.7074 34.271 8.20084 36.0044 4.98021 36.0044Z" fill="#FFFF00"/>
<path d="M11.4876 1.74116C10.2252 1.74116 9.01444 2.12164 7.88895 2.87203C6.77314 3.61597 5.76389 4.70324 4.88924 6.10362C3.09353 8.97865 2.00639 12.972 1.82804 17.348C1.76057 19.0039 1.68349 20.5028 1.60895 21.9523C1.28894 28.1762 1.07752 32.288 2.50163 34.7589C2.90932 35.4678 4.07433 35.6166 4.97986 35.6166C8.0846 35.6166 12.4508 33.9536 12.8249 33.8088C13.1234 33.6635 16.0342 32.2276 18.9651 30.1084C22.9216 27.2475 25.1015 24.474 25.269 22.0879C25.4031 20.1784 24.5656 17.2119 22.9712 13.9489C21.3936 10.7204 19.2567 7.55629 17.1084 5.26782C14.9734 2.99362 12.9773 1.74116 11.4876 1.74116ZM11.4876 0.965698C17.3072 0.965698 26.498 15.7293 26.0477 22.1418C25.5974 28.5544 13.1388 34.5195 13.1388 34.5195C13.1388 34.5195 3.62737 38.2794 1.82392 35.1436C-0.050589 31.8912 0.673608 26.5071 1.04815 17.3166C1.4227 8.12619 5.66808 0.965698 11.4876 0.965698Z" fill="#707070"/>
<path d="M6.118 14.9C6.77667 14.692 7.31833 14.588 7.743 14.588C8.653 14.588 9.37667 14.8263 9.914 15.303C10.434 15.7623 10.694 16.3733 10.694 17.136C10.694 18.254 10.1567 18.9603 9.082 19.255C9.71467 19.385 10.2 19.6537 10.538 20.061C10.8933 20.4943 11.071 20.9797 11.071 21.517C11.071 22.4097 10.6983 23.0987 9.953 23.584C9.381 23.9567 8.692 24.143 7.886 24.143C7.32267 24.143 6.768 24.0737 6.222 23.935L5.715 23.311V22.713C6.32167 22.8257 6.84167 22.882 7.275 22.882C8.74833 22.882 9.485 22.4313 9.485 21.53C9.485 21.062 9.28133 20.6677 8.874 20.347C8.614 20.1477 8.33667 20.0133 8.042 19.944C7.756 19.8747 7.30967 19.8313 6.703 19.814V18.605H8.016C8.34533 18.605 8.61833 18.4923 8.835 18.267C9.05167 18.033 9.16 17.7427 9.16 17.396C9.16 16.954 9.00833 16.6117 8.705 16.369C8.41033 16.1177 8.003 15.992 7.483 15.992C7.15367 15.992 6.69867 16.0657 6.118 16.213V14.9ZM12.2933 15.394C13.1166 14.8567 13.9486 14.588 14.7893 14.588C15.63 14.588 16.2713 14.835 16.7133 15.329C17.1033 15.7537 17.2983 16.3213 17.2983 17.032C17.2983 17.5607 17.1726 18.0807 16.9213 18.592C16.67 19.1033 16.2323 19.7403 15.6083 20.503C14.9063 21.3523 14.5163 21.816 14.4383 21.894L13.6713 22.674H17.4803V23.194L16.8303 24H11.9033V22.674L12.8653 21.686L13.8013 20.62C14.5206 19.8227 14.9843 19.2723 15.1923 18.969C15.6343 18.3363 15.8553 17.7773 15.8553 17.292C15.8553 16.9107 15.7296 16.603 15.4783 16.369C15.2356 16.1263 14.915 16.005 14.5163 16.005C14.0483 16.005 13.5716 16.174 13.0863 16.512L12.2933 15.394Z" fill="black"/>
</svg>
