<svg width="42" height="45" viewBox="0 0 42 45" fill="none" xmlns="http://www.w3.org/2000/svg">
<path d="M13.0967 7.91082C16.5769 6.1495 20.2855 7.48402 24.7832 10.0297C26.6567 11.0887 28.6364 12.2508 30.4217 13.5719C32.5235 15.1273 33.9538 16.6268 34.673 18.0287C35.6522 19.9373 36.1787 21.9606 36.238 24.0423C36.2924 25.9537 35.9555 27.8628 35.2367 29.7166C33.8975 33.1703 31.2884 36.1481 28.2572 37.6821C26.9344 38.3516 24.2936 39.5657 21.4698 40.1749C18.5865 40.7968 16.3583 40.6125 14.8471 39.6272C13.868 38.9901 12.9092 37.7084 11.9968 35.8177C11.2478 34.2654 10.748 32.7525 10.5078 32.0254C10.4455 31.8369 10.4037 31.7102 10.3662 31.6216C9.67586 26.9725 9.26946 24.6373 9.05055 23.3793C8.76369 21.7309 8.76369 21.7309 8.79828 20.4741C8.80458 20.2452 8.81199 19.9759 8.8191 19.65C8.89279 16.1925 9.16333 13.9638 9.72372 12.1977C10.389 10.1009 11.4608 8.73875 13.0967 7.91082Z" fill="#00FFFF"/>
<path d="M13.2733 8.25628C11.7369 9.0339 10.727 10.3234 10.0953 12.3144C9.54664 14.0435 9.28147 16.2397 9.2086 19.6585C9.20148 19.9854 9.19405 20.2553 9.18773 20.4849C9.15421 21.7031 9.15421 21.7031 9.43443 23.3134C9.65301 24.5695 10.0583 26.8984 10.7458 31.526C10.7874 31.6307 10.8285 31.7551 10.8779 31.9046C11.1155 32.6239 11.61 34.1206 12.348 35.6502C13.2167 37.4504 14.1544 38.7134 15.0604 39.3029C18.0033 41.2217 23.7152 39.5453 28.0794 37.3365C31.0271 35.8447 33.5664 32.9439 34.872 29.5769C35.5721 27.7713 35.9003 25.9128 35.8473 24.053C35.7897 22.0292 35.2774 20.0615 34.3248 18.2045C33.6331 16.8563 32.2413 15.4022 30.1881 13.8828C28.4198 12.5742 26.4525 11.4195 24.5896 10.3665C22.0157 8.90968 20.1152 8.09384 18.4275 7.72122C16.4814 7.29155 14.8436 7.46157 13.2733 8.25628ZM12.9188 7.56519C16.5657 5.7195 20.3929 7.09898 24.9756 9.69267C28.4262 11.6432 33.3193 14.5374 35.02 17.8527C39.2298 26.0589 34.5528 34.9308 28.4339 38.0276C24.8604 39.8362 18.2565 42.3142 14.6325 39.9513C11.6936 38.0388 9.99753 31.4849 9.99077 31.7537C8.23443 19.9144 8.34998 23.2367 8.42835 19.6412C8.55428 13.7327 9.26582 9.41398 12.9188 7.56519Z" fill="#707070"/>
<path d="M15.1181 16.9C15.7768 16.692 16.3185 16.588 16.7431 16.588C17.6531 16.588 18.3768 16.8263 18.9141 17.303C19.4341 17.7623 19.6941 18.3733 19.6941 19.136C19.6941 20.254 19.1568 20.9603 18.0821 21.255C18.7148 21.385 19.2001 21.6537 19.5381 22.061C19.8935 22.4943 20.0711 22.9797 20.0711 23.517C20.0711 24.4097 19.6985 25.0987 18.9531 25.584C18.3811 25.9567 17.6921 26.143 16.8861 26.143C16.3228 26.143 15.7681 26.0737 15.2221 25.935L14.7151 25.311V24.713C15.3218 24.8257 15.8418 24.882 16.2751 24.882C17.7485 24.882 18.4851 24.4313 18.4851 23.53C18.4851 23.062 18.2815 22.6677 17.8741 22.347C17.6141 22.1477 17.3368 22.0133 17.0421 21.944C16.7561 21.8747 16.3098 21.8313 15.7031 21.814V20.605H17.0161C17.3455 20.605 17.6185 20.4923 17.8351 20.267C18.0518 20.033 18.1601 19.7427 18.1601 19.396C18.1601 18.954 18.0085 18.6117 17.7051 18.369C17.4105 18.1177 17.0031 17.992 16.4831 17.992C16.1538 17.992 15.6988 18.0657 15.1181 18.213V16.9ZM21.6054 16.9C22.2641 16.692 22.8058 16.588 23.2304 16.588C24.1404 16.588 24.8641 16.8263 25.4014 17.303C25.9214 17.7623 26.1814 18.3733 26.1814 19.136C26.1814 20.254 25.6441 20.9603 24.5694 21.255C25.2021 21.385 25.6874 21.6537 26.0254 22.061C26.3808 22.4943 26.5584 22.9797 26.5584 23.517C26.5584 24.4097 26.1858 25.0987 25.4404 25.584C24.8684 25.9567 24.1794 26.143 23.3734 26.143C22.8101 26.143 22.2554 26.0737 21.7094 25.935L21.2024 25.311V24.713C21.8091 24.8257 22.3291 24.882 22.7624 24.882C24.2358 24.882 24.9724 24.4313 24.9724 23.53C24.9724 23.062 24.7688 22.6677 24.3614 22.347C24.1014 22.1477 23.8241 22.0133 23.5294 21.944C23.2434 21.8747 22.7971 21.8313 22.1904 21.814V20.605H23.5034C23.8328 20.605 24.1058 20.4923 24.3224 20.267C24.5391 20.033 24.6474 19.7427 24.6474 19.396C24.6474 18.954 24.4958 18.6117 24.1924 18.369C23.8978 18.1177 23.4904 17.992 22.9704 17.992C22.6411 17.992 22.1861 18.0657 21.6054 18.213V16.9Z" fill="black"/>
</svg>
