<svg width="42" height="45" viewBox="0 0 42 45" fill="none" xmlns="http://www.w3.org/2000/svg">
<path d="M13.0968 7.91076C16.5769 6.14944 20.2855 7.48396 24.7833 10.0296C26.6568 11.0887 28.6365 12.2507 30.4217 13.5718C32.5235 15.1272 33.9539 16.6267 34.6731 18.0286C35.6522 19.9373 36.1788 21.9606 36.238 24.0422C36.2925 25.9536 35.9556 27.8628 35.2368 29.7166C33.8976 33.1703 31.2884 36.148 28.2573 37.6821C26.9345 38.3516 24.2936 39.5657 21.4698 40.1748C18.5866 40.7967 16.3584 40.6125 14.8472 39.6271C13.8681 38.99 12.9092 37.7084 11.9969 35.8176C11.2478 34.2653 10.7481 32.7524 10.5079 32.0254C10.4456 31.8368 10.4037 31.7101 10.3662 31.6215C9.67592 26.9725 9.26952 24.6372 9.05061 23.3793C8.76375 21.7309 8.76375 21.7309 8.79834 20.474C8.80464 20.2451 8.81205 19.9759 8.81916 19.6499C8.89285 16.1924 9.16339 13.9638 9.72378 12.1976C10.3891 10.1009 11.4609 8.73869 13.0968 7.91076Z" fill="#F08080"/>
<path d="M13.2734 8.25622C11.7369 9.03384 10.7271 10.3233 10.0953 12.3144C9.5467 14.0434 9.28153 16.2397 9.20866 19.6585C9.20154 19.9853 9.19411 20.2553 9.18779 20.4848C9.15427 21.703 9.15427 21.703 9.43449 23.3134C9.65307 24.5694 10.0584 26.8984 10.7458 31.526C10.7875 31.6306 10.8286 31.755 10.878 31.9046C11.1156 32.6239 11.61 34.1205 12.3481 35.6501C13.2168 37.4504 14.1545 38.7133 15.0605 39.3029C18.0033 41.2217 23.7152 39.5452 28.0794 37.3365C31.0272 35.8446 33.5665 32.9438 34.872 29.5769C35.5722 27.7712 35.9003 25.9127 35.8474 24.0529C35.7897 22.0292 35.2775 20.0615 34.3248 18.2045C33.6332 16.8562 32.2414 15.4021 30.1882 13.8827C28.4198 12.5741 26.4526 11.4195 24.5897 10.3664C22.0157 8.90962 20.1153 8.09378 18.4275 7.72116C16.4814 7.29149 14.8437 7.4615 13.2734 8.25622ZM12.9189 7.56513C16.5658 5.71944 20.393 7.09892 24.9756 9.69261C28.4263 11.6432 33.3194 14.5373 35.0201 17.8526C39.2299 26.0588 34.5529 34.9308 28.434 38.0276C24.8605 39.8361 18.2566 42.3141 14.6326 39.9512C11.6936 38.0388 9.99759 31.4849 9.99083 31.7537C8.23449 19.9143 8.35004 23.2366 8.42841 19.6412C8.55434 13.7326 9.26589 9.41391 12.9189 7.56513Z" fill="#707070"/>
<path d="M15.1181 16.8999C15.7768 16.6919 16.3185 16.5879 16.7431 16.5879C17.6531 16.5879 18.3768 16.8263 18.9141 17.3029C19.4341 17.7623 19.6941 18.3733 19.6941 19.1359C19.6941 20.2539 19.1568 20.9603 18.0821 21.2549C18.7148 21.3849 19.2001 21.6536 19.5381 22.0609C19.8935 22.4943 20.0711 22.9796 20.0711 23.5169C20.0711 24.4096 19.6985 25.0986 18.9531 25.5839C18.3811 25.9566 17.6921 26.1429 16.8861 26.1429C16.3228 26.1429 15.7681 26.0736 15.2221 25.9349L14.7151 25.3109V24.7129C15.3218 24.8256 15.8418 24.8819 16.2751 24.8819C17.7485 24.8819 18.4851 24.4313 18.4851 23.5299C18.4851 23.0619 18.2815 22.6676 17.8741 22.3469C17.6141 22.1476 17.3368 22.0133 17.0421 21.9439C16.7561 21.8746 16.3098 21.8313 15.7031 21.8139V20.6049H17.0161C17.3455 20.6049 17.6185 20.4923 17.8351 20.2669C18.0518 20.0329 18.1601 19.7426 18.1601 19.3959C18.1601 18.9539 18.0085 18.6116 17.7051 18.3689C17.4105 18.1176 17.0031 17.9919 16.4831 17.9919C16.1538 17.9919 15.6988 18.0656 15.1181 18.2129V16.8999ZM21.6054 16.8999C22.2641 16.6919 22.8058 16.5879 23.2304 16.5879C24.1404 16.5879 24.8641 16.8263 25.4014 17.3029C25.9214 17.7623 26.1814 18.3733 26.1814 19.1359C26.1814 20.2539 25.6441 20.9603 24.5694 21.2549C25.2021 21.3849 25.6874 21.6536 26.0254 22.0609C26.3808 22.4943 26.5584 22.9796 26.5584 23.5169C26.5584 24.4096 26.1858 25.0986 25.4404 25.5839C24.8684 25.9566 24.1794 26.1429 23.3734 26.1429C22.8101 26.1429 22.2554 26.0736 21.7094 25.9349L21.2024 25.3109V24.7129C21.8091 24.8256 22.3291 24.8819 22.7624 24.8819C24.2358 24.8819 24.9724 24.4313 24.9724 23.5299C24.9724 23.0619 24.7688 22.6676 24.3614 22.3469C24.1014 22.1476 23.8241 22.0133 23.5294 21.9439C23.2434 21.8746 22.7971 21.8313 22.1904 21.8139V20.6049H23.5034C23.8328 20.6049 24.1058 20.4923 24.3224 20.2669C24.5391 20.0329 24.6474 19.7426 24.6474 19.3959C24.6474 18.9539 24.4958 18.6116 24.1924 18.3689C23.8978 18.1176 23.4904 17.9919 22.9704 17.9919C22.6411 17.9919 22.1861 18.0656 21.6054 18.2129V16.8999Z" fill="black"/>
</svg>
