<svg width="42" height="45" viewBox="0 0 42 45" fill="none" xmlns="http://www.w3.org/2000/svg">
<path d="M13.0968 7.91082C16.5769 6.1495 20.2855 7.48402 24.7833 10.0297C26.6568 11.0887 28.6365 12.2508 30.4217 13.5719C32.5235 15.1273 33.9539 16.6268 34.6731 18.0287C35.6522 19.9373 36.1788 21.9606 36.238 24.0423C36.2925 25.9537 35.9556 27.8628 35.2368 29.7166C33.8976 33.1703 31.2884 36.1481 28.2573 37.6821C26.9345 38.3516 24.2936 39.5657 21.4698 40.1749C18.5866 40.7968 16.3584 40.6125 14.8472 39.6272C13.8681 38.9901 12.9092 37.7084 11.9969 35.8177C11.2478 34.2654 10.7481 32.7525 10.5079 32.0254C10.4456 31.8369 10.4037 31.7102 10.3662 31.6216C9.67592 26.9725 9.26952 24.6373 9.05061 23.3793C8.76375 21.7309 8.76375 21.7309 8.79834 20.4741C8.80464 20.2452 8.81205 19.9759 8.81916 19.65C8.89285 16.1925 9.16339 13.9638 9.72378 12.1977C10.3891 10.1009 11.4609 8.73875 13.0968 7.91082Z" fill="white"/>
<path d="M13.2734 8.25641C11.7369 9.03402 10.7271 10.3235 10.0953 12.3146C9.5467 14.0436 9.28153 16.2399 9.20866 19.6586C9.20154 19.9855 9.19411 20.2555 9.18779 20.485C9.15427 21.7032 9.15427 21.7032 9.43449 23.3136C9.65307 24.5696 10.0584 26.8985 10.7458 31.5262C10.7875 31.6308 10.8286 31.7552 10.878 31.9048C11.1156 32.624 11.61 34.1207 12.3481 35.6503C13.2168 37.4506 14.1545 38.7135 15.0605 39.3031C18.0033 41.2219 23.7152 39.5454 28.0794 37.3367C31.0272 35.8448 33.5665 32.944 34.872 29.5771C35.5722 27.7714 35.9003 25.9129 35.8474 24.0531C35.7897 22.0294 35.2775 20.0617 34.3248 18.2047C33.6332 16.8564 32.2414 15.4023 30.1882 13.8829C28.4198 12.5743 26.4526 11.4196 24.5897 10.3666C22.0157 8.9098 20.1153 8.09396 18.4275 7.72134C16.4814 7.29167 14.8437 7.46169 13.2734 8.25641ZM12.9189 7.56531C16.5658 5.71962 20.393 7.0991 24.9756 9.69279C28.4263 11.6433 33.3194 14.5375 35.0201 17.8528C39.2299 26.059 34.5529 34.931 28.434 38.0278C24.8605 39.8363 18.2566 42.3143 14.6326 39.9514C11.6936 38.039 9.99759 31.4851 9.99083 31.7539C8.23449 19.9145 8.35004 23.2368 8.42841 19.6414C8.55434 13.7328 9.26589 9.4141 12.9189 7.56531Z" fill="#707070"/>
<path d="M15.1181 16.9C15.7768 16.692 16.3185 16.588 16.7431 16.588C17.6531 16.588 18.3768 16.8263 18.9141 17.303C19.4341 17.7623 19.6941 18.3733 19.6941 19.136C19.6941 20.254 19.1568 20.9603 18.0821 21.255C18.7148 21.385 19.2001 21.6537 19.5381 22.061C19.8935 22.4943 20.0711 22.9797 20.0711 23.517C20.0711 24.4097 19.6985 25.0987 18.9531 25.584C18.3811 25.9567 17.6921 26.143 16.8861 26.143C16.3228 26.143 15.7681 26.0737 15.2221 25.935L14.7151 25.311V24.713C15.3218 24.8257 15.8418 24.882 16.2751 24.882C17.7485 24.882 18.4851 24.4313 18.4851 23.53C18.4851 23.062 18.2815 22.6677 17.8741 22.347C17.6141 22.1477 17.3368 22.0133 17.0421 21.944C16.7561 21.8747 16.3098 21.8313 15.7031 21.814V20.605H17.0161C17.3455 20.605 17.6185 20.4923 17.8351 20.267C18.0518 20.033 18.1601 19.7427 18.1601 19.396C18.1601 18.954 18.0085 18.6117 17.7051 18.369C17.4105 18.1177 17.0031 17.992 16.4831 17.992C16.1538 17.992 15.6988 18.0657 15.1181 18.213V16.9ZM21.6054 16.9C22.2641 16.692 22.8058 16.588 23.2304 16.588C24.1404 16.588 24.8641 16.8263 25.4014 17.303C25.9214 17.7623 26.1814 18.3733 26.1814 19.136C26.1814 20.254 25.6441 20.9603 24.5694 21.255C25.2021 21.385 25.6874 21.6537 26.0254 22.061C26.3808 22.4943 26.5584 22.9797 26.5584 23.517C26.5584 24.4097 26.1858 25.0987 25.4404 25.584C24.8684 25.9567 24.1794 26.143 23.3734 26.143C22.8101 26.143 22.2554 26.0737 21.7094 25.935L21.2024 25.311V24.713C21.8091 24.8257 22.3291 24.882 22.7624 24.882C24.2358 24.882 24.9724 24.4313 24.9724 23.53C24.9724 23.062 24.7688 22.6677 24.3614 22.347C24.1014 22.1477 23.8241 22.0133 23.5294 21.944C23.2434 21.8747 22.7971 21.8313 22.1904 21.814V20.605H23.5034C23.8328 20.605 24.1058 20.4923 24.3224 20.267C24.5391 20.033 24.6474 19.7427 24.6474 19.396C24.6474 18.954 24.4958 18.6117 24.1924 18.369C23.8978 18.1177 23.4904 17.992 22.9704 17.992C22.6411 17.992 22.1861 18.0657 21.6054 18.213V16.9Z" fill="black"/>
</svg>
