<svg width="42" height="45" viewBox="0 0 42 45" fill="none" xmlns="http://www.w3.org/2000/svg">
<path d="M13.0965 7.91076C16.5766 6.14944 20.2852 7.48396 24.783 10.0296C26.6565 11.0887 28.6361 12.2507 30.4214 13.5718C32.5232 15.1272 33.9536 16.6267 34.6728 18.0286C35.6519 19.9373 36.1785 21.9606 36.2377 24.0422C36.2922 25.9536 35.9553 27.8628 35.2365 29.7166C33.8973 33.1703 31.2881 36.148 28.257 37.6821C26.9342 38.3516 24.2933 39.5657 21.4695 40.1748C18.5863 40.7967 16.3581 40.6125 14.8469 39.6271C13.8678 38.99 12.9089 37.7084 11.9966 35.8176C11.2475 34.2653 10.7478 32.7524 10.5076 32.0254C10.4453 31.8368 10.4034 31.7101 10.3659 31.6215C9.67561 26.9725 9.26922 24.6372 9.05031 23.3793C8.76345 21.7309 8.76345 21.7309 8.79804 20.474C8.80434 20.2451 8.81175 19.9759 8.81886 19.6499C8.89254 16.1924 9.16309 13.9638 9.72347 12.1976C10.3888 10.1009 11.4606 8.73869 13.0965 7.91076Z" fill="#FFFF00"/>
<path d="M13.2732 8.25622C11.7367 9.03384 10.7269 10.3233 10.0951 12.3144C9.54651 14.0434 9.28135 16.2397 9.20848 19.6585C9.20136 19.9853 9.19392 20.2553 9.18761 20.4848C9.15408 21.703 9.15408 21.703 9.43431 23.3134C9.65289 24.5694 10.0582 26.8984 10.7457 31.526C10.7873 31.6306 10.8284 31.755 10.8778 31.9046C11.1154 32.6239 11.6098 34.1205 12.3479 35.6501C13.2166 37.4504 14.1543 38.7133 15.0603 39.3029C18.0031 41.2217 23.715 39.5452 28.0792 37.3365C31.027 35.8446 33.5663 32.9438 34.8718 29.5769C35.572 27.7712 35.9001 25.9127 35.8472 24.0529C35.7896 22.0292 35.2773 20.0615 34.3247 18.2045C33.633 16.8562 32.2412 15.4021 30.188 13.8827C28.4197 12.5741 26.4524 11.4195 24.5895 10.3664C22.0156 8.90962 20.1151 8.09378 18.4273 7.72116C16.4813 7.29149 14.8435 7.4615 13.2732 8.25622ZM12.9187 7.56513C16.5656 5.71944 20.3928 7.09892 24.9754 9.69261C28.4261 11.6432 33.3192 14.5373 35.0199 17.8526C39.2297 26.0588 34.5527 34.9308 28.4338 38.0276C24.8603 39.8361 18.2564 42.3141 14.6324 39.9512C11.6934 38.0388 9.99741 31.4849 9.99065 31.7537C8.23431 19.9143 8.34986 23.2366 8.42823 19.6412C8.55416 13.7326 9.2657 9.41391 12.9187 7.56513Z" fill="#707070"/>
<path d="M15.118 16.8999C15.7767 16.6919 16.3183 16.5879 16.743 16.5879C17.653 16.5879 18.3767 16.8263 18.914 17.3029C19.434 17.7623 19.694 18.3733 19.694 19.1359C19.694 20.2539 19.1567 20.9603 18.082 21.2549C18.7147 21.3849 19.2 21.6536 19.538 22.0609C19.8933 22.4943 20.071 22.9796 20.071 23.5169C20.071 24.4096 19.6983 25.0986 18.953 25.5839C18.381 25.9566 17.692 26.1429 16.886 26.1429C16.3227 26.1429 15.768 26.0736 15.222 25.9349L14.715 25.3109V24.7129C15.3217 24.8256 15.8417 24.8819 16.275 24.8819C17.7483 24.8819 18.485 24.4313 18.485 23.5299C18.485 23.0619 18.2813 22.6676 17.874 22.3469C17.614 22.1476 17.3367 22.0133 17.042 21.9439C16.756 21.8746 16.3097 21.8313 15.703 21.8139V20.6049H17.016C17.3453 20.6049 17.6183 20.4923 17.835 20.2669C18.0517 20.0329 18.16 19.7426 18.16 19.3959C18.16 18.9539 18.0083 18.6116 17.705 18.3689C17.4103 18.1176 17.003 17.9919 16.483 17.9919C16.1537 17.9919 15.6987 18.0656 15.118 18.2129V16.8999ZM21.6053 16.8999C22.264 16.6919 22.8056 16.5879 23.2303 16.5879C24.1403 16.5879 24.864 16.8263 25.4013 17.3029C25.9213 17.7623 26.1813 18.3733 26.1813 19.1359C26.1813 20.2539 25.644 20.9603 24.5693 21.2549C25.202 21.3849 25.6873 21.6536 26.0253 22.0609C26.3806 22.4943 26.5583 22.9796 26.5583 23.5169C26.5583 24.4096 26.1856 25.0986 25.4403 25.5839C24.8683 25.9566 24.1793 26.1429 23.3733 26.1429C22.81 26.1429 22.2553 26.0736 21.7093 25.9349L21.2023 25.3109V24.7129C21.809 24.8256 22.329 24.8819 22.7623 24.8819C24.2356 24.8819 24.9723 24.4313 24.9723 23.5299C24.9723 23.0619 24.7686 22.6676 24.3613 22.3469C24.1013 22.1476 23.824 22.0133 23.5293 21.9439C23.2433 21.8746 22.797 21.8313 22.1903 21.8139V20.6049H23.5033C23.8326 20.6049 24.1056 20.4923 24.3223 20.2669C24.539 20.0329 24.6473 19.7426 24.6473 19.3959C24.6473 18.9539 24.4956 18.6116 24.1923 18.3689C23.8976 18.1176 23.4903 17.9919 22.9703 17.9919C22.641 17.9919 22.186 18.0656 21.6053 18.2129V16.8999Z" fill="black"/>
</svg>
