<svg width="34" height="33" viewBox="0 0 34 33" fill="none" xmlns="http://www.w3.org/2000/svg">
<path d="M17.8152 32.4812C15.5335 32.4812 13.6603 32.3036 12.0886 31.9384C10.3276 31.5291 8.883 30.8759 7.67229 29.9415C6.37047 28.9368 5.33798 27.6099 4.51582 25.8848C3.64519 24.0581 3.02675 21.8244 2.62515 19.0561L2.61877 19.0121L2.60253 18.9707C0.996726 14.8743 0.494943 11.6899 1.0685 9.23573C1.56515 7.11059 2.7925 5.78412 3.97942 4.50132C4.12165 4.34761 4.26871 4.18866 4.41091 4.03207C5.67057 2.64229 7.72247 1.66734 10.5098 1.13401C12.98 0.661376 15.5889 0.597656 17.8152 0.597656C21.694 0.597656 25.4592 2.41714 28.4175 5.72096C29.8503 7.31858 30.9546 8.99053 31.6998 10.6906C32.518 12.5575 32.9329 14.5253 32.9329 16.5394C32.9329 18.6945 32.5322 20.7846 31.742 22.7519C30.9792 24.6509 29.8875 26.356 28.4971 27.82C27.1083 29.2825 25.4916 30.4304 23.692 31.2319C21.8306 32.0609 19.8534 32.4812 17.8152 32.4812Z" fill="white"/>
<path d="M17.8151 0.984936C15.6073 0.984936 13.0216 1.04783 10.5836 1.5143C7.88152 2.03129 5.90237 2.96544 4.70059 4.29135C4.55717 4.44928 4.40949 4.6089 4.26665 4.76327C3.11394 6.00909 1.92197 7.29733 1.44857 9.32297C0.893373 11.6986 1.38976 14.8082 2.96612 18.8296L2.99858 18.9124L3.01134 19.0004C3.4073 21.7298 4.01478 23.9273 4.86846 25.7185C5.66383 27.3872 6.65926 28.6683 7.91163 29.6349C10.1144 31.3349 13.1687 32.093 17.8151 32.093C19.7979 32.093 21.7214 31.6841 23.5322 30.8776C25.2848 30.0971 26.8597 28.9787 28.2132 27.5535C29.5697 26.1252 30.635 24.4612 31.3795 22.6077C32.1512 20.6864 32.5426 18.6446 32.5426 16.539C32.5426 14.5784 32.1386 12.6627 31.3419 10.845C30.6132 9.18261 29.5313 7.54535 28.1258 5.97821C25.2427 2.75825 21.5809 0.984936 17.8151 0.984936ZM17.8151 0.209473C22.2603 0.209473 26.0381 2.4799 28.709 5.46279C31.4862 8.55935 33.3231 12.2011 33.3231 16.539C33.3231 25.5575 26.3799 32.8685 17.8151 32.8685C9.2503 32.8685 3.88586 30.4644 2.23879 19.111C-1.64355 9.20699 1.62984 6.51508 4.12108 3.77188C7.11296 0.470944 13.4042 0.209473 17.8151 0.209473Z" fill="#707070"/>
<path d="M11.1179 9.9C11.7766 9.692 12.3183 9.588 12.7429 9.588C13.6529 9.588 14.3766 9.82633 14.9139 10.303C15.4339 10.7623 15.6939 11.3733 15.6939 12.136C15.6939 13.254 15.1566 13.9603 14.0819 14.255C14.7146 14.385 15.1999 14.6537 15.5379 15.061C15.8933 15.4943 16.0709 15.9797 16.0709 16.517C16.0709 17.4097 15.6983 18.0987 14.9529 18.584C14.3809 18.9567 13.6919 19.143 12.8859 19.143C12.3226 19.143 11.7679 19.0737 11.2219 18.935L10.7149 18.311V17.713C11.3216 17.8257 11.8416 17.882 12.2749 17.882C13.7483 17.882 14.4849 17.4313 14.4849 16.53C14.4849 16.062 14.2813 15.6677 13.8739 15.347C13.6139 15.1477 13.3366 15.0133 13.0419 14.944C12.7559 14.8747 12.3096 14.8313 11.7029 14.814V13.605H13.0159C13.3453 13.605 13.6183 13.4923 13.8349 13.267C14.0516 13.033 14.1599 12.7427 14.1599 12.396C14.1599 11.954 14.0083 11.6117 13.7049 11.369C13.4103 11.1177 13.0029 10.992 12.4829 10.992C12.1536 10.992 11.6986 11.0657 11.1179 11.213V9.9ZM21.9862 9.692V15.464H23.1562V16.816H21.9862V18.285L21.1932 19H20.4392V16.816H16.7862V15.672L20.4652 9.692H21.9862ZM20.4392 11.772L18.2552 15.464H20.4392V11.772Z" fill="black"/>
</svg>
