<svg width="34" height="33" viewBox="0 0 34 33" fill="none" xmlns="http://www.w3.org/2000/svg">
<path d="M17.8152 32.481C15.5335 32.481 13.6603 32.3034 12.0886 31.9382C10.3276 31.5289 8.883 30.8757 7.67229 29.9413C6.37047 28.9366 5.33798 27.6097 4.51582 25.8847C3.64519 24.0579 3.02675 21.8243 2.62515 19.0559L2.61877 19.012L2.60253 18.9706C0.996726 14.8741 0.494943 11.6897 1.0685 9.23554C1.56515 7.1104 2.7925 5.78393 3.97942 4.50113C4.12165 4.34743 4.26871 4.18848 4.41091 4.03189C5.67057 2.64211 7.72247 1.66715 10.5098 1.13383C12.98 0.661193 15.5889 0.597473 17.8152 0.597473C21.694 0.597473 25.4592 2.41696 28.4175 5.72077C29.8503 7.3184 30.9546 8.99035 31.6998 10.6904C32.518 12.5573 32.9329 14.5251 32.9329 16.5392C32.9329 18.6943 32.5322 20.7844 31.742 22.7517C30.9792 24.6507 29.8875 26.3558 28.4971 27.8199C27.1083 29.2823 25.4916 30.4302 23.692 31.2317C21.8306 32.0607 19.8534 32.481 17.8152 32.481Z" fill="#FFFF00"/>
<path d="M17.8152 0.984814C15.6073 0.984814 13.0216 1.0477 10.5836 1.51418C7.88158 2.03117 5.90243 2.96532 4.70065 4.29123C4.55723 4.44916 4.40955 4.60878 4.26672 4.76315C3.114 6.00897 1.92203 7.29721 1.44863 9.32285C0.893434 11.6985 1.38982 14.8081 2.96618 18.8295L2.99864 18.9123L3.0114 19.0002C3.40736 21.7296 4.01484 23.9271 4.86852 25.7183C5.66389 27.3871 6.65932 28.6682 7.91169 29.6347C10.1144 31.3348 13.1688 32.0929 17.8152 32.0929C19.798 32.0929 21.7215 31.684 23.5323 30.8775C25.2849 30.0969 26.8598 28.9785 28.2133 27.5534C29.5697 26.125 30.635 24.461 31.3795 22.6076C32.1513 20.6863 32.5426 18.6444 32.5426 16.5389C32.5426 14.5783 32.1387 12.6626 31.3419 10.8449C30.6133 9.18248 29.5314 7.54522 28.1259 5.97808C25.2427 2.75813 21.581 0.984814 17.8152 0.984814ZM17.8152 0.209351C22.2603 0.209351 26.0382 2.47978 28.709 5.46267C31.4863 8.55923 33.3232 12.2009 33.3232 16.5389C33.3232 25.5574 26.38 32.8684 17.8152 32.8684C9.25036 32.8684 3.88592 30.4643 2.23885 19.1109C-1.64349 9.20687 1.6299 6.51496 4.12114 3.77176C7.11302 0.470822 13.4043 0.209351 17.8152 0.209351Z" fill="#707070"/>
<path d="M11.118 9.9C11.7767 9.692 12.3183 9.588 12.743 9.588C13.653 9.588 14.3767 9.82633 14.914 10.303C15.434 10.7623 15.694 11.3733 15.694 12.136C15.694 13.254 15.1567 13.9603 14.082 14.255C14.7147 14.385 15.2 14.6537 15.538 15.061C15.8933 15.4943 16.071 15.9797 16.071 16.517C16.071 17.4097 15.6983 18.0987 14.953 18.584C14.381 18.9567 13.692 19.143 12.886 19.143C12.3227 19.143 11.768 19.0737 11.222 18.935L10.715 18.311V17.713C11.3217 17.8257 11.8417 17.882 12.275 17.882C13.7483 17.882 14.485 17.4313 14.485 16.53C14.485 16.062 14.2813 15.6677 13.874 15.347C13.614 15.1477 13.3367 15.0133 13.042 14.944C12.756 14.8747 12.3097 14.8313 11.703 14.814V13.605H13.016C13.3453 13.605 13.6183 13.4923 13.835 13.267C14.0517 13.033 14.16 12.7427 14.16 12.396C14.16 11.954 14.0083 11.6117 13.705 11.369C13.4103 11.1177 13.003 10.992 12.483 10.992C12.1537 10.992 11.6987 11.0657 11.118 11.213V9.9ZM21.9863 9.692V15.464H23.1563V16.816H21.9863V18.285L21.1933 19H20.4393V16.816H16.7863V15.672L20.4653 9.692H21.9863ZM20.4393 11.772L18.2553 15.464H20.4393V11.772Z" fill="black"/>
</svg>
