<svg width="34" height="33" viewBox="0 0 34 33" fill="none" xmlns="http://www.w3.org/2000/svg">
<path d="M17.8152 32.4811C15.5335 32.4811 13.6603 32.3035 12.0886 31.9382C10.3276 31.529 8.883 30.8758 7.67229 29.9414C6.37047 28.9367 5.33798 27.6097 4.51582 25.8847C3.64519 24.058 3.02675 21.8243 2.62515 19.056L2.61877 19.012L2.60253 18.9706C0.996726 14.8741 0.494943 11.6898 1.0685 9.23561C1.56515 7.11046 2.7925 5.784 3.97942 4.50119C4.12165 4.34749 4.26871 4.18854 4.41091 4.03195C5.67057 2.64217 7.72247 1.66722 10.5098 1.13389C12.98 0.661254 15.5889 0.597534 17.8152 0.597534C21.694 0.597534 25.4592 2.41702 28.4175 5.72083C29.8503 7.31846 30.9546 8.99041 31.6998 10.6905C32.518 12.5573 32.9329 14.5252 32.9329 16.5393C32.9329 18.6943 32.5322 20.7845 31.742 22.7518C30.9792 24.6507 29.8875 26.3559 28.4971 27.8199C27.1083 29.2823 25.4916 30.4302 23.692 31.2318C21.8306 32.0607 19.8534 32.4811 17.8152 32.4811Z" fill="#D2B48C"/>
<path d="M17.8151 0.984814C15.6073 0.984814 13.0216 1.0477 10.5836 1.51418C7.88152 2.03117 5.90237 2.96532 4.70059 4.29123C4.55717 4.44916 4.40949 4.60878 4.26665 4.76315C3.11394 6.00897 1.92197 7.29721 1.44857 9.32285C0.893373 11.6985 1.38976 14.8081 2.96612 18.8295L2.99858 18.9123L3.01134 19.0002C3.4073 21.7296 4.01478 23.9271 4.86846 25.7183C5.66383 27.3871 6.65926 28.6682 7.91163 29.6347C10.1144 31.3348 13.1687 32.0929 17.8151 32.0929C19.7979 32.0929 21.7214 31.684 23.5322 30.8775C25.2848 30.0969 26.8597 28.9785 28.2132 27.5534C29.5697 26.125 30.635 24.461 31.3795 22.6076C32.1512 20.6863 32.5426 18.6444 32.5426 16.5389C32.5426 14.5783 32.1386 12.6626 31.3419 10.8449C30.6132 9.18248 29.5313 7.54522 28.1258 5.97808C25.2427 2.75813 21.5809 0.984814 17.8151 0.984814ZM17.8151 0.209351C22.2603 0.209351 26.0381 2.47978 28.709 5.46267C31.4862 8.55923 33.3231 12.2009 33.3231 16.5389C33.3231 25.5574 26.3799 32.8684 17.8151 32.8684C9.2503 32.8684 3.88586 30.4643 2.23879 19.1109C-1.64355 9.20687 1.62984 6.51496 4.12108 3.77176C7.11296 0.470822 13.4042 0.209351 17.8151 0.209351Z" fill="#707070"/>
<path d="M11.1179 9.9C11.7766 9.692 12.3183 9.588 12.7429 9.588C13.6529 9.588 14.3766 9.82633 14.9139 10.303C15.4339 10.7623 15.6939 11.3733 15.6939 12.136C15.6939 13.254 15.1566 13.9603 14.0819 14.255C14.7146 14.385 15.1999 14.6537 15.5379 15.061C15.8933 15.4943 16.0709 15.9797 16.0709 16.517C16.0709 17.4097 15.6983 18.0987 14.9529 18.584C14.3809 18.9567 13.6919 19.143 12.8859 19.143C12.3226 19.143 11.7679 19.0737 11.2219 18.935L10.7149 18.311V17.713C11.3216 17.8257 11.8416 17.882 12.2749 17.882C13.7483 17.882 14.4849 17.4313 14.4849 16.53C14.4849 16.062 14.2813 15.6677 13.8739 15.347C13.6139 15.1477 13.3366 15.0133 13.0419 14.944C12.7559 14.8747 12.3096 14.8313 11.7029 14.814V13.605H13.0159C13.3453 13.605 13.6183 13.4923 13.8349 13.267C14.0516 13.033 14.1599 12.7427 14.1599 12.396C14.1599 11.954 14.0083 11.6117 13.7049 11.369C13.4103 11.1177 13.0029 10.992 12.4829 10.992C12.1536 10.992 11.6986 11.0657 11.1179 11.213V9.9ZM21.9862 9.692V15.464H23.1562V16.816H21.9862V18.285L21.1932 19H20.4392V16.816H16.7862V15.672L20.4652 9.692H21.9862ZM20.4392 11.772L18.2552 15.464H20.4392V11.772Z" fill="black"/>
</svg>
