<svg width="50" height="47" viewBox="0 0 50 47" fill="none" xmlns="http://www.w3.org/2000/svg">
<path d="M7.53078 15.2882C9.29756 11.3477 12.2689 8.34094 15.8976 6.82195C17.7402 6.0506 19.699 5.67943 21.7196 5.71875C23.8428 5.76007 25.9929 6.25581 28.1103 7.19222C30.2615 8.1436 32.4958 9.59104 34.5717 11.378C36.652 13.1689 38.5205 15.2556 39.975 17.4125C41.5053 19.682 42.5644 22.02 43.0378 24.174C43.5565 26.534 43.3974 28.6721 42.5649 30.5288C41.7201 32.413 40.2497 34.0802 38.1943 35.4839C36.2849 36.7881 33.8958 37.8236 31.2853 38.4787C25.9653 39.8137 20.269 39.4962 16.0478 37.6293C13.9422 36.6981 12.0925 35.3539 10.5499 33.6341C9.08762 32.0037 7.95886 30.1053 7.19502 27.9915C5.67486 23.7848 5.79724 19.1546 7.53078 15.2882Z" fill="#ED6503"/>
<path d="M7.88761 15.446C6.19466 19.2219 6.07624 23.7467 7.56272 27.8602C8.30958 29.927 9.41279 31.7827 10.8417 33.3758C12.3472 35.0544 14.1523 36.3662 16.207 37.2748C20.351 39.1075 25.9522 39.4169 31.1902 38.1025C33.7562 37.4586 36.1019 36.4426 37.9735 35.1642C39.9686 33.8016 41.3935 32.189 42.2085 30.3711C43.0064 28.5915 43.1571 26.5345 42.6566 24.257C42.1935 22.1501 41.1542 19.8581 39.6508 17.6287C36.7418 13.3149 32.2589 9.45168 27.9515 7.54673C25.882 6.63148 23.7827 6.14698 21.7119 6.10669C19.7463 6.06844 17.8411 6.4294 16.0491 7.17952C12.5123 8.66008 9.61385 11.5958 7.88761 15.446ZM7.17438 15.1305C10.8123 7.01663 19.3635 2.89907 28.2694 6.83775C37.1753 10.7764 46.5597 22.5726 42.9218 30.6865C39.2838 38.8004 24.795 41.9225 15.8891 37.9838C6.98315 34.0451 3.53644 23.2445 7.17438 15.1305Z" fill="#707070"/>
<path d="M17.195 16.2334C17.8537 16.0254 18.3954 15.9214 18.82 15.9214C19.73 15.9214 20.4537 16.1597 20.991 16.6364C21.511 17.0957 21.771 17.7067 21.771 18.4694C21.771 19.5874 21.2337 20.2937 20.159 20.5884C20.7917 20.7184 21.277 20.987 21.615 21.3944C21.9704 21.8277 22.148 22.313 22.148 22.8504C22.148 23.743 21.7754 24.432 21.03 24.9174C20.458 25.29 19.769 25.4764 18.963 25.4764C18.3997 25.4764 17.845 25.407 17.299 25.2684L16.792 24.6444V24.0464C17.3987 24.159 17.9187 24.2154 18.352 24.2154C19.8254 24.2154 20.562 23.7647 20.562 22.8634C20.562 22.3954 20.3584 22.001 19.951 21.6804C19.691 21.481 19.4137 21.3467 19.119 21.2774C18.833 21.208 18.3867 21.1647 17.78 21.1474V19.9384H19.093C19.4224 19.9384 19.6954 19.8257 19.912 19.6004C20.1287 19.3664 20.237 19.076 20.237 18.7294C20.237 18.2874 20.0854 17.945 19.782 17.7024C19.4874 17.451 19.08 17.3254 18.56 17.3254C18.2307 17.3254 17.7757 17.399 17.195 17.5464V16.2334ZM27.2313 16.0254V17.3514H24.3713L24.2413 19.6784C24.5273 19.635 24.7613 19.6134 24.9433 19.6134C25.9313 19.6134 26.694 19.9254 27.2313 20.5494C27.6907 21.0867 27.9203 21.793 27.9203 22.6684C27.9203 23.6044 27.5693 24.3237 26.8673 24.8264C26.304 25.225 25.5933 25.4244 24.7353 25.4244C24.172 25.4244 23.6173 25.355 23.0713 25.2164L22.5643 24.6054V23.9944C23.1623 24.1157 23.6823 24.1764 24.1243 24.1764C24.8957 24.1764 25.4417 24.0724 25.7623 23.8644C26.1437 23.6217 26.3343 23.197 26.3343 22.5904C26.3343 21.975 26.174 21.533 25.8533 21.2644C25.5327 20.9957 25.0083 20.8614 24.2803 20.8614C23.977 20.8614 23.5003 20.896 22.8503 20.9654C22.7637 20.974 22.69 20.9827 22.6293 20.9914L22.9023 16.0254H27.2313Z" fill="black"/>
</svg>
