<svg width="50" height="47" viewBox="0 0 50 47" fill="none" xmlns="http://www.w3.org/2000/svg">
<path d="M7.53078 15.2882C9.29756 11.3477 12.2689 8.34094 15.8976 6.82195C17.7402 6.0506 19.699 5.67943 21.7196 5.71875C23.8428 5.76007 25.9929 6.25581 28.1103 7.19222C30.2615 8.1436 32.4958 9.59104 34.5717 11.378C36.652 13.1689 38.5205 15.2556 39.975 17.4125C41.5053 19.682 42.5644 22.02 43.0378 24.174C43.5565 26.534 43.3974 28.6721 42.5649 30.5288C41.7201 32.413 40.2497 34.0802 38.1943 35.4839C36.2849 36.7881 33.8958 37.8236 31.2853 38.4787C25.9653 39.8137 20.269 39.4962 16.0478 37.6293C13.9422 36.6981 12.0925 35.3539 10.5499 33.6341C9.08762 32.0037 7.95886 30.1053 7.19502 27.9915C5.67486 23.7848 5.79724 19.1546 7.53078 15.2882Z" fill="white"/>
<path d="M7.88761 15.446C6.19465 19.2219 6.07624 23.7467 7.56272 27.8602C8.30958 29.927 9.41279 31.7827 10.8417 33.3758C12.3472 35.0544 14.1523 36.3662 16.207 37.2748C20.351 39.1075 25.9522 39.4169 31.1902 38.1025C33.7562 37.4586 36.1019 36.4426 37.9735 35.1642C39.9686 33.8016 41.3935 32.189 42.2085 30.3711C43.0064 28.5915 43.1571 26.5345 42.6566 24.257C42.1935 22.1501 41.1542 19.8581 39.6508 17.6287C36.7418 13.3149 32.2589 9.45168 27.9515 7.54673C25.882 6.63148 23.7827 6.14698 21.7119 6.10669C19.7463 6.06844 17.8411 6.4294 16.0491 7.17952C12.5123 8.66008 9.61385 11.5958 7.88761 15.446ZM7.17438 15.1305C10.8123 7.01663 19.3635 2.89907 28.2694 6.83774C37.1753 10.7764 46.5597 22.5726 42.9218 30.6865C39.2838 38.8004 24.795 41.9225 15.8891 37.9838C6.98315 34.0451 3.53644 23.2445 7.17438 15.1305Z" fill="#707070"/>
<path d="M17.195 16.2333C17.8537 16.0253 18.3954 15.9213 18.82 15.9213C19.73 15.9213 20.4537 16.1596 20.991 16.6363C21.511 17.0956 21.771 17.7066 21.771 18.4693C21.771 19.5873 21.2337 20.2936 20.159 20.5883C20.7917 20.7183 21.277 20.9869 21.615 21.3943C21.9704 21.8276 22.148 22.3129 22.148 22.8503C22.148 23.7429 21.7754 24.4319 21.03 24.9173C20.458 25.2899 19.769 25.4763 18.963 25.4763C18.3997 25.4763 17.845 25.4069 17.299 25.2683L16.792 24.6443V24.0463C17.3987 24.1589 17.9187 24.2153 18.352 24.2153C19.8254 24.2153 20.562 23.7646 20.562 22.8633C20.562 22.3953 20.3584 22.0009 19.951 21.6803C19.691 21.4809 19.4137 21.3466 19.119 21.2773C18.833 21.2079 18.3867 21.1646 17.78 21.1473V19.9383H19.093C19.4224 19.9383 19.6954 19.8256 19.912 19.6003C20.1287 19.3663 20.237 19.0759 20.237 18.7293C20.237 18.2873 20.0854 17.9449 19.782 17.7023C19.4874 17.4509 19.08 17.3253 18.56 17.3253C18.2307 17.3253 17.7757 17.3989 17.195 17.5463V16.2333ZM27.2313 16.0253V17.3513H24.3713L24.2413 19.6783C24.5273 19.6349 24.7613 19.6133 24.9433 19.6133C25.9313 19.6133 26.694 19.9253 27.2313 20.5493C27.6907 21.0866 27.9203 21.7929 27.9203 22.6683C27.9203 23.6043 27.5693 24.3236 26.8673 24.8263C26.304 25.2249 25.5933 25.4243 24.7353 25.4243C24.172 25.4243 23.6173 25.3549 23.0713 25.2163L22.5643 24.6053V23.9943C23.1623 24.1156 23.6823 24.1763 24.1243 24.1763C24.8957 24.1763 25.4417 24.0723 25.7623 23.8643C26.1437 23.6216 26.3343 23.1969 26.3343 22.5903C26.3343 21.9749 26.174 21.5329 25.8533 21.2643C25.5327 20.9956 25.0083 20.8613 24.2803 20.8613C23.977 20.8613 23.5003 20.8959 22.8503 20.9653C22.7637 20.9739 22.69 20.9826 22.6293 20.9913L22.9023 16.0253H27.2313Z" fill="black"/>
</svg>
