<svg width="50" height="47" viewBox="0 0 50 47" fill="none" xmlns="http://www.w3.org/2000/svg">
<path d="M7.53065 15.2881C9.29744 11.3476 12.2688 8.34085 15.8974 6.82186C17.7401 6.05051 19.6989 5.67934 21.7195 5.71865C23.8427 5.75997 25.9928 6.25572 28.1102 7.19213C30.2614 8.14351 32.4957 9.59095 34.5715 11.378C36.6519 13.1688 38.5203 15.2555 39.9748 17.4125C41.5052 19.6819 42.5643 22.02 43.0377 24.1739C43.5564 26.5339 43.3973 28.672 42.5648 30.5287C41.72 32.4129 40.2495 34.0801 38.1942 35.4838C36.2848 36.788 33.8957 37.8235 31.2852 38.4786C25.9652 39.8136 20.2689 39.4961 16.0477 37.6292C13.9421 36.698 12.0924 35.3539 10.5498 33.634C9.0875 32.0036 7.95873 30.1052 7.1949 27.9914C5.67474 23.7847 5.79712 19.1546 7.53065 15.2881Z" fill="#FFFF00"/>
<path d="M7.88749 15.4459C6.19453 19.2218 6.07611 23.7466 7.5626 27.8601C8.30946 29.9269 9.41267 31.7826 10.8416 33.3758C12.3471 35.0543 14.1522 36.3661 16.2068 37.2748C20.3508 39.1075 25.952 39.4169 31.1901 38.1025C33.7561 37.4585 36.1017 36.4425 37.9734 35.1642C39.9685 33.8016 41.3933 32.1889 42.2084 30.371C43.0063 28.5915 43.157 26.5344 42.6565 24.2569C42.1934 22.1501 41.154 19.858 39.6506 17.6286C36.7417 13.3148 32.2588 9.45162 27.9514 7.54667C25.8819 6.63142 23.7826 6.14692 21.7118 6.10663C19.7462 6.06838 17.841 6.42933 16.049 7.17946C12.5122 8.66002 9.61373 11.5958 7.88749 15.4459ZM7.17425 15.1305C10.8122 7.01657 19.3634 2.89901 28.2693 6.83768C37.1752 10.7764 46.5596 22.5725 42.9216 30.6864C39.2837 38.8004 24.7949 41.9224 15.889 37.9837C6.98303 34.0451 3.53632 23.2444 7.17425 15.1305Z" fill="#707070"/>
<path d="M17.1949 16.2333C17.8536 16.0253 18.3952 15.9213 18.8199 15.9213C19.7299 15.9213 20.4536 16.1596 20.9909 16.6363C21.5109 17.0956 21.7709 17.7066 21.7709 18.4693C21.7709 19.5873 21.2336 20.2936 20.1589 20.5883C20.7916 20.7183 21.2769 20.987 21.6149 21.3943C21.9702 21.8276 22.1479 22.313 22.1479 22.8503C22.1479 23.743 21.7752 24.432 21.0299 24.9173C20.4579 25.29 19.7689 25.4763 18.9629 25.4763C18.3996 25.4763 17.8449 25.407 17.2989 25.2683L16.7919 24.6443V24.0463C17.3986 24.159 17.9186 24.2153 18.3519 24.2153C19.8252 24.2153 20.5619 23.7646 20.5619 22.8633C20.5619 22.3953 20.3582 22.001 19.9509 21.6803C19.6909 21.481 19.4136 21.3466 19.1189 21.2773C18.8329 21.208 18.3866 21.1646 17.7799 21.1473V19.9383H19.0929C19.4222 19.9383 19.6952 19.8256 19.9119 19.6003C20.1286 19.3663 20.2369 19.076 20.2369 18.7293C20.2369 18.2873 20.0852 17.945 19.7819 17.7023C19.4872 17.451 19.0799 17.3253 18.5599 17.3253C18.2306 17.3253 17.7756 17.399 17.1949 17.5463V16.2333ZM27.2312 16.0253V17.3513H24.3712L24.2412 19.6783C24.5272 19.635 24.7612 19.6133 24.9432 19.6133C25.9312 19.6133 26.6939 19.9253 27.2312 20.5493C27.6905 21.0866 27.9202 21.793 27.9202 22.6683C27.9202 23.6043 27.5692 24.3236 26.8672 24.8263C26.3039 25.225 25.5932 25.4243 24.7352 25.4243C24.1719 25.4243 23.6172 25.355 23.0712 25.2163L22.5642 24.6053V23.9943C23.1622 24.1156 23.6822 24.1763 24.1242 24.1763C24.8955 24.1763 25.4415 24.0723 25.7622 23.8643C26.1435 23.6216 26.3342 23.197 26.3342 22.5903C26.3342 21.975 26.1739 21.533 25.8532 21.2643C25.5325 20.9956 25.0082 20.8613 24.2802 20.8613C23.9769 20.8613 23.5002 20.896 22.8502 20.9653C22.7635 20.974 22.6899 20.9826 22.6292 20.9913L22.9022 16.0253H27.2312Z" fill="black"/>
</svg>
