<svg width="50" height="47" viewBox="0 0 50 47" fill="none" xmlns="http://www.w3.org/2000/svg">
<path d="M7.53078 15.2881C9.29756 11.3476 12.2689 8.34085 15.8976 6.82186C17.7402 6.05051 19.699 5.67934 21.7196 5.71865C23.8428 5.75997 25.9929 6.25572 28.1103 7.19213C30.2615 8.14351 32.4958 9.59095 34.5717 11.378C36.652 13.1688 38.5205 15.2555 39.975 17.4125C41.5053 19.6819 42.5644 22.02 43.0378 24.1739C43.5565 26.5339 43.3974 28.672 42.5649 30.5287C41.7201 32.4129 40.2497 34.0801 38.1943 35.4838C36.2849 36.788 33.8958 37.8235 31.2853 38.4786C25.9653 39.8136 20.269 39.4961 16.0478 37.6292C13.9422 36.698 12.0925 35.3539 10.5499 33.634C9.08762 32.0036 7.95886 30.1052 7.19502 27.9914C5.67486 23.7847 5.79724 19.1546 7.53078 15.2881Z" fill="#ADD8E6"/>
<path d="M7.88761 15.4459C6.19465 19.2218 6.07624 23.7466 7.56272 27.8601C8.30958 29.9269 9.41279 31.7826 10.8417 33.3758C12.3472 35.0543 14.1523 36.3661 16.207 37.2748C20.351 39.1075 25.9522 39.4169 31.1902 38.1025C33.7562 37.4585 36.1019 36.4425 37.9735 35.1642C39.9686 33.8016 41.3935 32.1889 42.2085 30.371C43.0064 28.5915 43.1571 26.5344 42.6566 24.2569C42.1935 22.1501 41.1542 19.858 39.6508 17.6286C36.7418 13.3148 32.2589 9.45162 27.9515 7.54667C25.882 6.63142 23.7827 6.14692 21.7119 6.10663C19.7463 6.06838 17.8411 6.42933 16.0491 7.17946C12.5123 8.66002 9.61385 11.5958 7.88761 15.4459ZM7.17438 15.1305C10.8123 7.01657 19.3635 2.89901 28.2694 6.83768C37.1753 10.7764 46.5597 22.5725 42.9218 30.6864C39.2838 38.8004 24.795 41.9224 15.8891 37.9837C6.98315 34.0451 3.53644 23.2444 7.17438 15.1305Z" fill="#707070"/>
<path d="M17.195 16.2333C17.8537 16.0253 18.3954 15.9213 18.82 15.9213C19.73 15.9213 20.4537 16.1596 20.991 16.6363C21.511 17.0956 21.771 17.7066 21.771 18.4693C21.771 19.5873 21.2337 20.2936 20.159 20.5883C20.7917 20.7183 21.277 20.987 21.615 21.3943C21.9704 21.8276 22.148 22.313 22.148 22.8503C22.148 23.743 21.7754 24.432 21.03 24.9173C20.458 25.29 19.769 25.4763 18.963 25.4763C18.3997 25.4763 17.845 25.407 17.299 25.2683L16.792 24.6443V24.0463C17.3987 24.159 17.9187 24.2153 18.352 24.2153C19.8254 24.2153 20.562 23.7646 20.562 22.8633C20.562 22.3953 20.3584 22.001 19.951 21.6803C19.691 21.481 19.4137 21.3466 19.119 21.2773C18.833 21.208 18.3867 21.1646 17.78 21.1473V19.9383H19.093C19.4224 19.9383 19.6954 19.8256 19.912 19.6003C20.1287 19.3663 20.237 19.076 20.237 18.7293C20.237 18.2873 20.0854 17.945 19.782 17.7023C19.4874 17.451 19.08 17.3253 18.56 17.3253C18.2307 17.3253 17.7757 17.399 17.195 17.5463V16.2333ZM27.2313 16.0253V17.3513H24.3713L24.2413 19.6783C24.5273 19.635 24.7613 19.6133 24.9433 19.6133C25.9313 19.6133 26.694 19.9253 27.2313 20.5493C27.6907 21.0866 27.9203 21.793 27.9203 22.6683C27.9203 23.6043 27.5693 24.3236 26.8673 24.8263C26.304 25.225 25.5933 25.4243 24.7353 25.4243C24.172 25.4243 23.6173 25.355 23.0713 25.2163L22.5643 24.6053V23.9943C23.1623 24.1156 23.6823 24.1763 24.1243 24.1763C24.8957 24.1763 25.4417 24.0723 25.7623 23.8643C26.1437 23.6216 26.3343 23.197 26.3343 22.5903C26.3343 21.975 26.174 21.533 25.8533 21.2643C25.5327 20.9956 25.0083 20.8613 24.2803 20.8613C23.977 20.8613 23.5003 20.896 22.8503 20.9653C22.7637 20.974 22.69 20.9826 22.6293 20.9913L22.9023 16.0253H27.2313Z" fill="black"/>
</svg>
