<svg width="51" height="54" viewBox="0 0 51 54" fill="none" xmlns="http://www.w3.org/2000/svg">
<path d="M30.1507 52.6251C25.5977 52.6251 20.4722 51.6776 15.7184 49.9572C10.8266 48.1869 6.70329 45.7145 4.10806 42.9954C2.61557 41.4329 1.70168 39.7808 1.23189 37.7961C0.787391 35.9182 0.751221 33.8095 0.751221 31.4467C0.751221 28.1495 1.02999 25.866 1.68334 23.8112C2.30537 21.8548 3.31694 19.9862 5.06578 17.5628L5.11453 17.4952L5.13112 17.4138C6.09447 12.6846 8.02025 8.66327 10.7003 5.7846C13.4192 2.86416 16.7512 1.3205 20.3363 1.3205C23.9736 1.3205 28.1569 3.01978 31.8478 4.51902C32.1216 4.63023 32.3923 4.74019 32.6594 4.84808L32.6676 4.8514L32.676 4.85434C37.2879 6.47833 39.741 7.54683 41.4252 8.66533C43.1682 9.82292 44.1603 11.0818 45.662 12.9873C47.2561 15.0087 48.3407 17.1086 49.0752 19.596C49.7233 21.7904 50.1189 24.3489 50.3581 27.8918C50.6268 31.8709 49.9165 35.897 48.247 39.8581C46.5476 43.8901 44.3156 46.7233 43.1363 48.0533C41.2967 50.1311 39.7984 51.2287 37.9645 51.842C36.0059 52.497 33.6163 52.6251 30.1507 52.6251Z" fill="#DCDCDC"/>
<path d="M20.336 1.70802C16.8626 1.70802 13.6296 3.20864 10.9865 6.04767C8.35512 8.87413 6.46255 12.831 5.5134 17.4905L5.48021 17.6534L5.38272 17.7885C3.6363 20.2085 2.67226 21.9872 2.05524 23.9278C1.4146 25.9427 1.14125 28.1912 1.14125 31.4464C1.14125 33.7847 1.17664 35.8698 1.61156 37.7071C2.06486 39.6222 2.94799 41.2177 4.39101 42.7284C6.94546 45.4047 11.0156 47.8425 15.8517 49.5927C20.5638 51.298 25.6419 52.2372 30.1505 52.2372C33.5756 52.2372 35.9318 52.1124 37.8397 51.4743C39.6031 50.8846 41.0526 49.8193 42.8432 47.7968C44.0067 46.4847 46.2089 43.6891 47.8868 39.7082C49.5327 35.803 50.2331 31.8361 49.9685 27.9175C49.7313 24.404 49.3402 21.8712 48.7005 19.7049C47.9804 17.2663 46.9172 15.2077 45.3545 13.2262C42.3488 9.41222 41.5409 8.38716 32.5454 5.2196L32.5122 5.20705C32.2448 5.09908 31.974 4.98905 31.7 4.87774C28.0423 3.392 23.8967 1.70802 20.336 1.70802ZM20.336 0.932556C24.3254 0.932556 28.9393 2.92688 32.8061 4.48868C41.9279 7.70068 42.8585 8.80115 45.9691 12.7481C49.3132 16.9885 50.3133 21.438 50.7473 27.8656C51.3551 36.8679 46.8708 44.4276 43.4289 48.3094C39.7735 52.438 37.2699 53.0126 30.1505 53.0126C20.8504 53.0126 9.38349 49.0861 3.82463 43.262C0.515489 39.7975 0.360718 36.3254 0.360718 31.4464C0.360718 24.9915 1.43215 21.932 4.74837 17.3367C6.71124 7.70068 12.6967 0.932556 20.336 0.932556Z" fill="#707070"/>
<path d="M19.0249 22.0342C19.6835 21.8262 20.2252 21.7222 20.6499 21.7222C21.5599 21.7222 22.2835 21.9605 22.8209 22.4372C23.3409 22.8965 23.6009 23.5075 23.6009 24.2702C23.6009 25.3882 23.0635 26.0945 21.9889 26.3892C22.6215 26.5192 23.1069 26.7879 23.4449 27.1952C23.8002 27.6285 23.9779 28.1139 23.9779 28.6512C23.9779 29.5439 23.6052 30.2329 22.8599 30.7182C22.2879 31.0909 21.5989 31.2772 20.7929 31.2772C20.2295 31.2772 19.6749 31.2079 19.1289 31.0692L18.6219 30.4452V29.8472C19.2285 29.9599 19.7485 30.0162 20.1819 30.0162C21.6552 30.0162 22.3919 29.5655 22.3919 28.6642C22.3919 28.1962 22.1882 27.8019 21.7809 27.4812C21.5209 27.2819 21.2435 27.1475 20.9489 27.0782C20.6629 27.0089 20.2165 26.9655 19.6099 26.9482V25.7392H20.9229C21.2522 25.7392 21.5252 25.6265 21.7419 25.4012C21.9585 25.1672 22.0669 24.8769 22.0669 24.5302C22.0669 24.0882 21.9152 23.7459 21.6119 23.5032C21.3172 23.2519 20.9099 23.1262 20.3899 23.1262C20.0605 23.1262 19.6055 23.1999 19.0249 23.3472V22.0342ZM26.4092 26.2982C26.9552 25.5789 27.5922 25.2192 28.3202 25.2192C29.1955 25.2192 29.8672 25.5355 30.3352 26.1682C30.7252 26.6795 30.9202 27.3252 30.9202 28.1052C30.9202 29.1105 30.6472 29.8992 30.1012 30.4712C29.5985 30.9999 28.9182 31.2642 28.0602 31.2642C26.9682 31.2642 26.1578 30.8352 25.6292 29.9772C25.2392 29.3359 25.0442 28.5212 25.0442 27.5332V27.1692C25.0442 25.5745 25.3475 24.2919 25.9542 23.3212C26.6215 22.2725 27.5922 21.7482 28.8662 21.7482C29.0742 21.7482 29.3342 21.7742 29.6462 21.8262L30.2052 22.5022V23.1132C30.1618 23.1045 30.0838 23.0915 29.9712 23.0742C29.5552 22.9962 29.2388 22.9572 29.0222 22.9572C28.4848 22.9572 28.0038 23.1219 27.5792 23.4512C27.1545 23.7719 26.8555 24.2095 26.6822 24.7642C26.5522 25.1715 26.4612 25.6829 26.4092 26.2982ZM29.3342 28.1312C29.3342 27.6285 29.2085 27.2255 28.9572 26.9222C28.7145 26.6102 28.3895 26.4585 27.9822 26.4672C27.6095 26.4672 27.2802 26.6232 26.9942 26.9352C26.7082 27.2385 26.5652 27.5939 26.5652 28.0012C26.5652 28.5992 26.6908 29.0715 26.9422 29.4182C27.2022 29.7649 27.5575 29.9382 28.0082 29.9382C28.3982 29.9382 28.7145 29.7692 28.9572 29.4312C29.2085 29.0932 29.3342 28.6599 29.3342 28.1312Z" fill="black"/>
</svg>
