<svg width="51" height="54" viewBox="0 0 51 54" fill="none" xmlns="http://www.w3.org/2000/svg">
<path d="M30.1505 52.6251C25.5975 52.6251 20.472 51.6777 15.7182 49.9573C10.8263 48.1869 6.70305 45.7145 4.10782 42.9954C2.61533 41.4329 1.70144 39.7808 1.23165 37.7961C0.787147 35.9183 0.750977 33.8096 0.750977 31.4467C0.750977 28.1496 1.02974 25.8661 1.68309 23.8112C2.30513 21.8549 3.3167 19.9862 5.06554 17.5628L5.11428 17.4953L5.13088 17.4138C6.09423 12.6846 8.02001 8.6633 10.7 5.78463C13.4189 2.86419 16.751 1.32053 20.336 1.32053C23.9734 1.32053 28.1567 3.01981 31.8475 4.51905C32.1213 4.63027 32.392 4.74022 32.6591 4.84811L32.6674 4.85143L32.6757 4.85437C37.2877 6.47836 39.7407 7.54686 41.4249 8.66537C43.168 9.82295 44.1601 11.0818 45.6618 12.9874C47.2559 15.0087 48.3404 17.1086 49.075 19.596C49.723 21.7904 50.1187 24.3489 50.3579 27.8918C50.6266 31.8709 49.9163 35.897 48.2467 39.8582C46.5474 43.8902 44.3153 46.7234 43.1361 48.0533C41.2964 50.1311 39.7981 51.2287 37.9642 51.842C36.0056 52.497 33.6161 52.6251 30.1505 52.6251Z" fill="#FFFF00"/>
<path d="M20.3359 1.70805C16.8625 1.70805 13.6295 3.20867 10.9864 6.0477C8.355 8.87416 6.46243 12.831 5.51328 17.4905L5.48009 17.6534L5.3826 17.7885C3.63618 20.2086 2.67214 21.9872 2.05512 23.9278C1.41448 25.9427 1.14113 28.1913 1.14113 31.4465C1.14113 33.7848 1.17652 35.8698 1.61144 37.7072C2.06474 39.6222 2.94787 41.2177 4.39089 42.7284C6.94534 45.4048 11.0155 47.8426 15.8516 49.5927C20.5637 51.2981 25.6418 52.2372 30.1504 52.2372C33.5755 52.2372 35.9317 52.1124 37.8396 51.4743C39.6029 50.8846 41.0524 49.8193 42.8431 47.7969C44.0065 46.4847 46.2088 43.6891 47.8867 39.7082C49.5326 35.803 50.233 31.8361 49.9684 27.9175C49.7312 24.404 49.3401 21.8712 48.7004 19.705C47.9802 17.2663 46.9171 15.2077 45.3544 13.2262C42.3487 9.41226 41.5408 8.38719 32.5452 5.21963L32.512 5.20708C32.2447 5.09911 31.9738 4.98908 31.6998 4.87777C28.0422 3.39203 23.8966 1.70805 20.3359 1.70805ZM20.3359 0.932587C24.3253 0.932587 28.9392 2.92691 32.806 4.48872C41.9277 7.70071 42.8584 8.80118 45.969 12.7481C49.3131 16.9885 50.3132 21.438 50.7472 27.8656C51.355 36.8679 46.8707 44.4276 43.4288 48.3094C39.7734 52.438 37.2698 53.0127 30.1504 53.0127C20.8503 53.0127 9.38337 49.0861 3.82451 43.262C0.515367 39.7976 0.360596 36.3254 0.360596 31.4465C0.360596 24.9915 1.43203 21.932 4.74825 17.3367C6.71112 7.70071 12.6966 0.932587 20.3359 0.932587Z" fill="#707070"/>
<path d="M19.0247 22.0343C19.6834 21.8263 20.2251 21.7223 20.6497 21.7223C21.5597 21.7223 22.2834 21.9606 22.8207 22.4373C23.3407 22.8966 23.6007 23.5076 23.6007 24.2703C23.6007 25.3883 23.0634 26.0946 21.9887 26.3893C22.6214 26.5193 23.1067 26.7879 23.4447 27.1953C23.8001 27.6286 23.9777 28.1139 23.9777 28.6513C23.9777 29.5439 23.6051 30.2329 22.8597 30.7183C22.2877 31.0909 21.5987 31.2773 20.7927 31.2773C20.2294 31.2773 19.6747 31.2079 19.1287 31.0693L18.6217 30.4453V29.8473C19.2284 29.9599 19.7484 30.0163 20.1817 30.0163C21.6551 30.0163 22.3917 29.5656 22.3917 28.6643C22.3917 28.1963 22.1881 27.8019 21.7807 27.4813C21.5207 27.2819 21.2434 27.1476 20.9487 27.0783C20.6627 27.0089 20.2164 26.9656 19.6097 26.9483V25.7393H20.9227C21.2521 25.7393 21.5251 25.6266 21.7417 25.4013C21.9584 25.1673 22.0667 24.8769 22.0667 24.5303C22.0667 24.0883 21.9151 23.7459 21.6117 23.5033C21.3171 23.2519 20.9097 23.1263 20.3897 23.1263C20.0604 23.1263 19.6054 23.1999 19.0247 23.3473V22.0343ZM26.409 26.2983C26.955 25.5789 27.592 25.2193 28.32 25.2193C29.1954 25.2193 29.867 25.5356 30.335 26.1683C30.725 26.6796 30.92 27.3253 30.92 28.1053C30.92 29.1106 30.647 29.8993 30.101 30.4713C29.5984 30.9999 28.918 31.2643 28.06 31.2643C26.968 31.2643 26.1577 30.8353 25.629 29.9773C25.239 29.3359 25.044 28.5213 25.044 27.5333V27.1693C25.044 25.5746 25.3474 24.2919 25.954 23.3213C26.6214 22.2726 27.592 21.7483 28.866 21.7483C29.074 21.7483 29.334 21.7743 29.646 21.8263L30.205 22.5023V23.1133C30.1617 23.1046 30.0837 23.0916 29.971 23.0743C29.555 22.9963 29.2387 22.9573 29.022 22.9573C28.4847 22.9573 28.0037 23.1219 27.579 23.4513C27.1544 23.7719 26.8554 24.2096 26.682 24.7643C26.552 25.1716 26.461 25.6829 26.409 26.2983ZM29.334 28.1313C29.334 27.6286 29.2084 27.2256 28.957 26.9223C28.7144 26.6103 28.3894 26.4586 27.982 26.4673C27.6094 26.4673 27.28 26.6233 26.994 26.9353C26.708 27.2386 26.565 27.5939 26.565 28.0013C26.565 28.5993 26.6907 29.0716 26.942 29.4183C27.202 29.7649 27.5574 29.9383 28.008 29.9383C28.398 29.9383 28.7144 29.7693 28.957 29.4313C29.2084 29.0933 29.334 28.6599 29.334 28.1313Z" fill="black"/>
</svg>
