<svg width="51" height="54" viewBox="0 0 51 54" fill="none" xmlns="http://www.w3.org/2000/svg">
<path d="M30.1507 52.6251C25.5977 52.6251 20.4722 51.6777 15.7184 49.9573C10.8266 48.1869 6.70329 45.7145 4.10806 42.9954C2.61557 41.4329 1.70168 39.7808 1.23189 37.7961C0.787391 35.9183 0.751221 33.8096 0.751221 31.4467C0.751221 28.1496 1.02999 25.8661 1.68334 23.8112C2.30537 21.8549 3.31694 19.9862 5.06578 17.5628L5.11453 17.4953L5.13112 17.4138C6.09447 12.6846 8.02025 8.6633 10.7003 5.78463C13.4192 2.86419 16.7512 1.32053 20.3363 1.32053C23.9736 1.32053 28.1569 3.01981 31.8478 4.51905C32.1216 4.63027 32.3923 4.74022 32.6594 4.84811L32.6676 4.85143L32.676 4.85437C37.2879 6.47836 39.741 7.54686 41.4252 8.66537C43.1682 9.82295 44.1603 11.0818 45.662 12.9874C47.2561 15.0087 48.3407 17.1086 49.0752 19.596C49.7233 21.7904 50.1189 24.3489 50.3581 27.8918C50.6268 31.8709 49.9165 35.897 48.247 39.8582C46.5476 43.8902 44.3156 46.7234 43.1363 48.0533C41.2967 50.1311 39.7984 51.2287 37.9645 51.842C36.0059 52.497 33.6163 52.6251 30.1507 52.6251Z" fill="#ADD8E6"/>
<path d="M20.336 1.70805C16.8626 1.70805 13.6296 3.20867 10.9865 6.0477C8.35512 8.87416 6.46255 12.831 5.5134 17.4905L5.48021 17.6534L5.38272 17.7885C3.6363 20.2086 2.67226 21.9872 2.05524 23.9278C1.4146 25.9427 1.14125 28.1913 1.14125 31.4465C1.14125 33.7848 1.17664 35.8698 1.61156 37.7072C2.06486 39.6222 2.94799 41.2177 4.39101 42.7284C6.94546 45.4048 11.0156 47.8426 15.8517 49.5927C20.5638 51.2981 25.6419 52.2372 30.1505 52.2372C33.5756 52.2372 35.9318 52.1124 37.8397 51.4743C39.6031 50.8846 41.0526 49.8193 42.8432 47.7969C44.0067 46.4847 46.2089 43.6891 47.8868 39.7082C49.5327 35.803 50.2331 31.8361 49.9685 27.9175C49.7313 24.404 49.3402 21.8712 48.7005 19.705C47.9804 17.2663 46.9172 15.2077 45.3545 13.2262C42.3488 9.41226 41.5409 8.38719 32.5454 5.21963L32.5122 5.20708C32.2448 5.09911 31.974 4.98908 31.7 4.87777C28.0423 3.39203 23.8967 1.70805 20.336 1.70805ZM20.336 0.932587C24.3254 0.932587 28.9393 2.92691 32.8061 4.48872C41.9279 7.70071 42.8585 8.80118 45.9691 12.7481C49.3132 16.9885 50.3133 21.438 50.7473 27.8656C51.3551 36.8679 46.8708 44.4276 43.4289 48.3094C39.7735 52.438 37.2699 53.0127 30.1505 53.0127C20.8504 53.0127 9.38349 49.0861 3.82463 43.262C0.515489 39.7976 0.360718 36.3254 0.360718 31.4465C0.360718 24.9915 1.43215 21.932 4.74837 17.3367C6.71124 7.70071 12.6967 0.932587 20.336 0.932587Z" fill="#707070"/>
<path d="M19.0249 22.0343C19.6835 21.8263 20.2252 21.7223 20.6499 21.7223C21.5599 21.7223 22.2835 21.9606 22.8209 22.4373C23.3409 22.8966 23.6009 23.5076 23.6009 24.2703C23.6009 25.3883 23.0635 26.0946 21.9889 26.3893C22.6215 26.5193 23.1069 26.7879 23.4449 27.1953C23.8002 27.6286 23.9779 28.1139 23.9779 28.6513C23.9779 29.5439 23.6052 30.2329 22.8599 30.7183C22.2879 31.0909 21.5989 31.2773 20.7929 31.2773C20.2295 31.2773 19.6749 31.2079 19.1289 31.0693L18.6219 30.4453V29.8473C19.2285 29.9599 19.7485 30.0163 20.1819 30.0163C21.6552 30.0163 22.3919 29.5656 22.3919 28.6643C22.3919 28.1963 22.1882 27.8019 21.7809 27.4813C21.5209 27.2819 21.2435 27.1476 20.9489 27.0783C20.6629 27.0089 20.2165 26.9656 19.6099 26.9483V25.7393H20.9229C21.2522 25.7393 21.5252 25.6266 21.7419 25.4013C21.9585 25.1673 22.0669 24.8769 22.0669 24.5303C22.0669 24.0883 21.9152 23.7459 21.6119 23.5033C21.3172 23.2519 20.9099 23.1263 20.3899 23.1263C20.0605 23.1263 19.6055 23.1999 19.0249 23.3473V22.0343ZM26.4092 26.2983C26.9552 25.5789 27.5922 25.2193 28.3202 25.2193C29.1955 25.2193 29.8672 25.5356 30.3352 26.1683C30.7252 26.6796 30.9202 27.3253 30.9202 28.1053C30.9202 29.1106 30.6472 29.8993 30.1012 30.4713C29.5985 30.9999 28.9182 31.2643 28.0602 31.2643C26.9682 31.2643 26.1578 30.8353 25.6292 29.9773C25.2392 29.3359 25.0442 28.5213 25.0442 27.5333V27.1693C25.0442 25.5746 25.3475 24.2919 25.9542 23.3213C26.6215 22.2726 27.5922 21.7483 28.8662 21.7483C29.0742 21.7483 29.3342 21.7743 29.6462 21.8263L30.2052 22.5023V23.1133C30.1618 23.1046 30.0838 23.0916 29.9712 23.0743C29.5552 22.9963 29.2388 22.9573 29.0222 22.9573C28.4848 22.9573 28.0038 23.1219 27.5792 23.4513C27.1545 23.7719 26.8555 24.2096 26.6822 24.7643C26.5522 25.1716 26.4612 25.6829 26.4092 26.2983ZM29.3342 28.1313C29.3342 27.6286 29.2085 27.2256 28.9572 26.9223C28.7145 26.6103 28.3895 26.4586 27.9822 26.4673C27.6095 26.4673 27.2802 26.6233 26.9942 26.9353C26.7082 27.2386 26.5652 27.5939 26.5652 28.0013C26.5652 28.5993 26.6908 29.0716 26.9422 29.4183C27.2022 29.7649 27.5575 29.9383 28.0082 29.9383C28.3982 29.9383 28.7145 29.7693 28.9572 29.4313C29.2085 29.0933 29.3342 28.6599 29.3342 28.1313Z" fill="black"/>
</svg>
