<svg width="48" height="47" viewBox="0 0 48 47" fill="none" xmlns="http://www.w3.org/2000/svg">
<path d="M25.0902 46.0207C19.4705 46.0207 12.9347 42.6985 7.16836 39.7673C6.31939 39.3358 5.51675 38.9278 4.7243 38.5339C3.52858 37.5805 2.61187 36.4359 1.99925 35.1314C1.50349 34.0758 1.20324 32.9112 1.10683 31.67C0.941251 29.538 1.44138 27.8985 1.44645 27.8822L1.45025 27.87L1.45335 27.8572L3.63755 18.7375L3.64076 18.7241L3.643 18.7106C3.65684 18.6267 5.04114 10.3014 6.19402 8.01816C6.2452 7.91636 6.30133 7.80065 6.36632 7.66668C6.94799 6.46755 8.15834 3.97236 10.2899 2.49545C12.9153 0.67399 16.7818 0.477356 18.3223 0.477356C24.211 0.477356 31.3724 2.87164 37.0119 6.72584C39.9341 8.72296 42.355 11.0581 44.0129 13.4789C45.8392 16.1454 46.7651 18.8956 46.7651 21.6532C46.7651 24.8438 46.0117 28.6058 44.6979 31.9747C43.6622 34.6305 41.8001 38.28 38.8106 40.5843C35.944 42.794 33.9961 44.0158 32.0872 44.8015C30.0388 45.6447 27.8809 46.0207 25.0902 46.0207Z" fill="#DCDCDC"/>
<path d="M18.3219 0.86488C16.8183 0.86488 13.0475 1.0547 10.5127 2.81327C8.46512 4.23203 7.28475 6.66537 6.71749 7.83478C6.65186 7.97009 6.59517 8.08696 6.54245 8.19181C5.41612 10.4225 4.04147 18.6899 4.02772 18.7732L4.02323 18.8003L1.81857 27.9976C1.81376 28.013 1.33911 29.5581 1.49348 31.6129C1.58354 32.8117 1.87021 33.9353 2.34554 34.9524C2.92723 36.1971 3.79858 37.2913 4.93608 38.2056C5.71791 38.5945 6.50934 38.9968 7.34576 39.422C13.0729 42.3332 19.5641 45.6327 25.0898 45.6327C27.8637 45.6327 29.9116 45.2769 31.9374 44.4431C33.8119 43.6715 35.7337 42.4647 38.571 40.2778C39.7556 39.3647 40.8655 38.1404 41.8699 36.6389C42.8088 35.2353 43.6377 33.6189 44.3336 31.8345C45.6306 28.5085 46.3745 24.7975 46.3745 21.653C46.3745 18.9746 45.4712 16.2978 43.6898 13.6968C42.0588 11.3154 39.673 9.01525 36.7903 7.04509C31.2125 3.23299 24.1358 0.86488 18.3219 0.86488ZM18.3219 0.0894165C30.3065 0.0894165 47.155 9.74631 47.155 21.653C47.155 27.9278 44.2739 36.8634 39.0494 40.8905C33.825 44.9175 30.7585 46.4082 25.0898 46.4082C18.5343 46.4082 10.765 41.9681 4.51241 38.8621C-1.02822 34.478 1.07328 27.7672 1.07328 27.7672L3.25748 18.6476C3.25748 18.6476 4.65171 10.207 5.84478 7.8441C6.3632 6.81298 7.61614 3.87486 10.0662 2.17722C12.6501 0.384587 16.3621 0.0894165 18.3219 0.0894165Z" fill="#707070"/>
<path d="M17.0745 16.9951C17.7332 16.7871 18.2749 16.6831 18.6995 16.6831C19.6095 16.6831 20.3332 16.9214 20.8705 17.3981C21.3905 17.8574 21.6505 18.4684 21.6505 19.2311C21.6505 20.3491 21.1132 21.0554 20.0385 21.3501C20.6712 21.4801 21.1565 21.7488 21.4945 22.1561C21.8499 22.5894 22.0275 23.0748 22.0275 23.6121C22.0275 24.5048 21.6549 25.1938 20.9095 25.6791C20.3375 26.0518 19.6485 26.2381 18.8425 26.2381C18.2792 26.2381 17.7245 26.1688 17.1785 26.0301L16.6715 25.4061V24.8081C17.2782 24.9208 17.7982 24.9771 18.2315 24.9771C19.7049 24.9771 20.4415 24.5264 20.4415 23.6251C20.4415 23.1571 20.2379 22.7628 19.8305 22.4421C19.5705 22.2428 19.2932 22.1084 18.9985 22.0391C18.7125 21.9698 18.2662 21.9264 17.6595 21.9091V20.7001H18.9725C19.3019 20.7001 19.5749 20.5874 19.7915 20.3621C20.0082 20.1281 20.1165 19.8378 20.1165 19.4911C20.1165 19.0491 19.9649 18.7068 19.6615 18.4641C19.3669 18.2128 18.9595 18.0871 18.4395 18.0871C18.1102 18.0871 17.6552 18.1608 17.0745 18.3081V16.9951ZM28.7358 16.7871V17.9051L25.7848 25.3931L24.9268 26.0951H23.8088L27.0198 18.1911H22.8338V16.7871H28.7358Z" fill="black"/>
</svg>
