<svg width="48" height="47" viewBox="0 0 48 47" fill="none" xmlns="http://www.w3.org/2000/svg">
<path d="M25.0901 46.0206C19.4703 46.0206 12.9346 42.6984 7.16824 39.7673C6.31927 39.3357 5.51662 38.9277 4.72418 38.5338C3.52846 37.5804 2.61175 36.4359 1.99913 35.1314C1.50336 34.0757 1.20312 32.9111 1.10671 31.6699C0.941129 29.5379 1.44126 27.8985 1.44633 27.8822L1.45013 27.8699L1.45323 27.8571L3.63743 18.7375L3.64064 18.7241L3.64288 18.7105C3.65672 18.6267 5.04102 10.3013 6.1939 8.0181C6.24508 7.9163 6.30121 7.80059 6.3662 7.66662C6.94787 6.46749 8.15822 3.9723 10.2897 2.49538C12.9151 0.673929 16.7817 0.477295 18.3222 0.477295C24.2109 0.477295 31.3723 2.87158 37.0118 6.72578C39.9339 8.7229 42.3549 11.0581 44.0128 13.4788C45.839 16.1453 46.765 18.8955 46.765 21.6531C46.765 24.8437 46.0115 28.6058 44.6978 31.9747C43.6621 34.6304 41.8 38.2799 38.8105 40.5843C35.9438 42.7939 33.9959 44.0157 32.0871 44.8014C30.0387 45.6446 27.8807 46.0206 25.0901 46.0206Z" fill="white"/>
<path d="M18.3219 0.864819C16.8183 0.864819 13.0474 1.05464 10.5126 2.81321C8.46505 4.23197 7.28469 6.66531 6.71743 7.83472C6.6518 7.97003 6.59511 8.08689 6.54239 8.19175C5.41606 10.4224 4.04141 18.6899 4.02765 18.7731L4.02316 18.8003L1.81851 27.9975C1.8137 28.0129 1.33905 29.5581 1.49342 31.6128C1.58347 32.8117 1.87015 33.9353 2.34548 34.9524C2.92717 36.197 3.79852 37.2912 4.93602 38.2055C5.71785 38.5945 6.50928 38.9968 7.3457 39.4219C13.0728 42.3331 19.564 45.6327 25.0898 45.6327C27.8637 45.6327 29.9116 45.2769 31.9374 44.443C33.8118 43.6714 35.7337 42.4647 38.5709 40.2777C39.7555 39.3646 40.8654 38.1403 41.8699 36.6388C42.8087 35.2353 43.6376 33.6188 44.3335 31.8344C45.6305 28.5085 46.3744 24.7974 46.3744 21.6529C46.3744 18.9746 45.4712 16.2977 43.6898 13.6967C42.0588 11.3153 39.673 9.01518 36.7902 7.04503C31.2124 3.23293 24.1358 0.864819 18.3219 0.864819ZM18.3219 0.0893555C30.3064 0.0893555 47.1549 9.74625 47.1549 21.6529C47.1549 27.9277 44.2738 36.8633 39.0494 40.8904C33.8249 44.9175 30.7584 46.4081 25.0898 46.4081C18.5342 46.4081 10.7649 41.968 4.51235 38.862C-1.02828 34.4779 1.07322 27.7672 1.07322 27.7672L3.25742 18.6475C3.25742 18.6475 4.65164 10.2069 5.84472 7.84404C6.36314 6.81292 7.61608 3.87479 10.0661 2.17716C12.65 0.384526 16.3621 0.0893555 18.3219 0.0893555Z" fill="#707070"/>
<path d="M17.0745 16.995C17.7332 16.787 18.2749 16.683 18.6995 16.683C19.6095 16.683 20.3332 16.9213 20.8705 17.398C21.3905 17.8573 21.6505 18.4683 21.6505 19.231C21.6505 20.349 21.1132 21.0553 20.0385 21.35C20.6712 21.48 21.1565 21.7486 21.4945 22.156C21.8499 22.5893 22.0275 23.0746 22.0275 23.612C22.0275 24.5046 21.6549 25.1936 20.9095 25.679C20.3375 26.0516 19.6485 26.238 18.8425 26.238C18.2792 26.238 17.7245 26.1686 17.1785 26.03L16.6715 25.406V24.808C17.2782 24.9206 17.7982 24.977 18.2315 24.977C19.7049 24.977 20.4415 24.5263 20.4415 23.625C20.4415 23.157 20.2379 22.7626 19.8305 22.442C19.5705 22.2426 19.2932 22.1083 18.9985 22.039C18.7125 21.9696 18.2662 21.9263 17.6595 21.909V20.7H18.9725C19.3019 20.7 19.5749 20.5873 19.7915 20.362C20.0082 20.128 20.1165 19.8376 20.1165 19.491C20.1165 19.049 19.9649 18.7066 19.6615 18.464C19.3669 18.2126 18.9595 18.087 18.4395 18.087C18.1102 18.087 17.6552 18.1606 17.0745 18.308V16.995ZM28.7358 16.787V17.905L25.7848 25.393L24.9268 26.095H23.8088L27.0198 18.191H22.8338V16.787H28.7358Z" fill="black"/>
</svg>
