<svg width="48" height="47" viewBox="0 0 48 47" fill="none" xmlns="http://www.w3.org/2000/svg">
<path d="M25.09 46.0207C19.4702 46.0207 12.9345 42.6985 7.16812 39.7673C6.31914 39.3358 5.5165 38.9278 4.72406 38.5339C3.52834 37.5805 2.61163 36.4359 1.99901 35.1314C1.50324 34.0758 1.20299 32.9112 1.10659 31.67C0.941007 29.538 1.44114 27.8985 1.44621 27.8822L1.45001 27.87L1.45311 27.8572L3.63731 18.7375L3.64051 18.7241L3.64275 18.7106C3.6566 18.6267 5.0409 10.3014 6.19378 8.01816C6.24496 7.91636 6.30109 7.80065 6.36608 7.66668C6.94775 6.46755 8.1581 3.97236 10.2896 2.49545C12.915 0.67399 16.7816 0.477356 18.3221 0.477356C24.2108 0.477356 31.3722 2.87164 37.0117 6.72584C39.9338 8.72296 42.3547 11.0581 44.0127 13.4789C45.8389 16.1454 46.7649 18.8956 46.7649 21.6532C46.7649 24.8438 46.0114 28.6058 44.6976 31.9747C43.662 34.6305 41.7999 38.28 38.8103 40.5843C35.9437 42.794 33.9958 44.0158 32.087 44.8015C30.0386 45.6447 27.8806 46.0207 25.09 46.0207Z" fill="#FFFF00"/>
<path d="M18.3218 0.86488C16.8182 0.86488 13.0473 1.0547 10.5126 2.81327C8.46499 4.23203 7.28463 6.66537 6.71737 7.83478C6.65174 7.97009 6.59505 8.08696 6.54233 8.19181C5.416 10.4225 4.04135 18.6899 4.02759 18.7732L4.0231 18.8003L1.81845 27.9976C1.81364 28.013 1.33899 29.5581 1.49336 31.6129C1.58341 32.8117 1.87009 33.9353 2.34542 34.9524C2.92711 36.1971 3.79846 37.2913 4.93596 38.2056C5.71779 38.5945 6.50922 38.9968 7.34564 39.422C13.0727 42.3332 19.564 45.6327 25.0897 45.6327C27.8636 45.6327 29.9115 45.2769 31.9373 44.4431C33.8118 43.6715 35.7336 42.4647 38.5708 40.2778C39.7554 39.3647 40.8654 38.1404 41.8698 36.6389C42.8087 35.2353 43.6376 33.6189 44.3334 31.8345C45.6305 28.5085 46.3743 24.7975 46.3743 21.653C46.3743 18.9746 45.4711 16.2978 43.6897 13.6968C42.0587 11.3154 39.6729 9.01525 36.7902 7.04509C31.2124 3.23299 24.1357 0.86488 18.3218 0.86488ZM18.3218 0.0894165C30.3064 0.0894165 47.1549 9.74631 47.1549 21.653C47.1549 27.9278 44.2738 36.8634 39.0493 40.8905C33.8248 44.9175 30.7584 46.4082 25.0897 46.4082C18.5341 46.4082 10.7649 41.9681 4.51229 38.8621C-1.02834 34.478 1.07315 27.7672 1.07315 27.7672L3.25736 18.6476C3.25736 18.6476 4.65158 10.207 5.84466 7.8441C6.36308 6.81298 7.61602 3.87486 10.0661 2.17722C12.6499 0.384587 16.362 0.0894165 18.3218 0.0894165Z" fill="#707070"/>
<path d="M17.0745 16.9951C17.7332 16.7871 18.2749 16.6831 18.6995 16.6831C19.6095 16.6831 20.3332 16.9214 20.8705 17.3981C21.3905 17.8574 21.6505 18.4684 21.6505 19.2311C21.6505 20.3491 21.1132 21.0554 20.0385 21.3501C20.6712 21.4801 21.1565 21.7488 21.4945 22.1561C21.8499 22.5894 22.0275 23.0748 22.0275 23.6121C22.0275 24.5048 21.6549 25.1938 20.9095 25.6791C20.3375 26.0518 19.6485 26.2381 18.8425 26.2381C18.2792 26.2381 17.7245 26.1688 17.1785 26.0301L16.6715 25.4061V24.8081C17.2782 24.9208 17.7982 24.9771 18.2315 24.9771C19.7049 24.9771 20.4415 24.5264 20.4415 23.6251C20.4415 23.1571 20.2379 22.7628 19.8305 22.4421C19.5705 22.2428 19.2932 22.1084 18.9985 22.0391C18.7125 21.9698 18.2662 21.9264 17.6595 21.9091V20.7001H18.9725C19.3019 20.7001 19.5749 20.5874 19.7915 20.3621C20.0082 20.1281 20.1165 19.8378 20.1165 19.4911C20.1165 19.0491 19.9649 18.7068 19.6615 18.4641C19.3669 18.2128 18.9595 18.0871 18.4395 18.0871C18.1102 18.0871 17.6552 18.1608 17.0745 18.3081V16.9951ZM28.7358 16.7871V17.9051L25.7848 25.3931L24.9268 26.0951H23.8088L27.0198 18.1911H22.8338V16.7871H28.7358Z" fill="black"/>
</svg>
