<svg width="48" height="47" viewBox="0 0 48 47" fill="none" xmlns="http://www.w3.org/2000/svg">
<path d="M28.0459 46.2527C28.0457 46.2527 28.0461 46.2527 28.0459 46.2527C27.6926 46.2527 27.3163 46.244 26.8812 46.2339C26.3323 46.2213 25.7102 46.2069 24.9744 46.2069C17.8654 46.2069 11.3408 43.2652 5.26716 40.2489C4.32697 39.6226 3.57458 38.868 2.96757 37.9428C2.40482 37.0849 1.97946 36.098 1.6672 34.9257C1.09408 32.7738 0.97414 30.3031 0.972839 27.2588C1.40174 25.6599 1.59591 24.8867 1.94557 23.4944C2.21988 22.4021 2.59554 20.9062 3.25952 18.3183L3.26863 18.2828L3.27088 18.2463C3.61946 12.5898 4.21543 10.5715 5.41948 8.1869C6.23567 6.56354 8.06837 5.11612 10.0087 3.5837C10.446 3.23827 10.8981 2.88124 11.3462 2.51634C13.6457 1.13012 16.1538 0.93866 18.5224 0.93866C19.3052 0.93866 20.083 0.961815 20.9065 0.986327C21.7241 1.01066 22.5695 1.03583 23.4138 1.03583C26.4874 1.03583 29.5367 1.62135 32.4768 2.77615C35.3457 3.90296 37.9489 5.5055 40.2141 7.53926C42.512 9.60235 44.3223 11.986 45.5949 14.6241C46.932 17.3958 47.6099 20.3252 47.6099 23.3307C47.6099 26.8842 47.1396 30.0702 46.2121 32.8004C45.1633 35.8875 43.5223 38.3994 41.3339 40.2673C31.9861 45.6596 30.8607 46.2527 28.0459 46.2527Z" fill="#23BF73"/>
<path d="M18.5219 1.32637C16.2183 1.32637 13.7831 1.50973 11.5716 2.83381C11.1285 3.19436 10.6827 3.5464 10.2513 3.88717C8.34574 5.39211 6.5459 6.81359 5.76803 8.36074C4.58875 10.6963 4.00454 12.6813 3.66013 18.2699L3.65563 18.3431L3.6374 18.4141C2.97367 21.001 2.59813 22.4964 2.32393 23.5883C1.9774 24.9681 1.78337 25.7408 1.36286 27.3094C1.36546 30.3 1.48501 32.7269 2.04421 34.8264C2.66207 37.1463 3.74936 38.7641 5.46379 39.9132C11.4895 42.905 17.9586 45.8191 24.9741 45.8191C25.7143 45.8191 26.3387 45.8336 26.8896 45.8463C27.3224 45.8563 27.6962 45.8649 28.0451 45.8649C29.4124 45.8649 30.3114 45.7337 32.0241 44.9557C33.8326 44.1342 36.521 42.5951 41.1063 39.95C43.2273 38.1305 44.8203 35.6838 45.842 32.6764C46.756 29.9862 47.2193 26.8419 47.2193 23.3307C47.2193 20.3836 46.5543 17.5107 45.2427 14.7916C43.9922 12.1993 42.2122 9.85602 39.9522 7.82691C37.7217 5.82439 35.1583 4.24638 32.333 3.1367C29.4388 1.99992 26.4378 1.42353 23.4135 1.42353C22.5633 1.42353 21.7149 1.39828 20.8945 1.37386C20.074 1.34944 19.299 1.32637 18.5219 1.32637ZM18.5221 0.550903C20.1157 0.550912 21.7535 0.648064 23.4135 0.648064C36.1303 0.648064 47.9999 10.6965 47.9999 23.3307C47.9999 29.9889 46.3642 36.5043 41.5605 40.5848C29.4622 47.5639 30.9891 46.5946 24.9741 46.5946C18.018 46.5946 11.705 43.8805 5.07036 40.5848C0.972543 37.8706 0.582275 32.9313 0.582275 27.208C1.36671 24.2855 1.38002 24.0729 2.88105 18.2226C3.22745 12.6016 3.80439 10.5202 5.07036 8.01303C6.11617 5.93296 8.64475 4.21668 11.1196 2.19928C13.4046 0.8131 15.9039 0.550886 18.5221 0.550903Z" fill="#707070"/>
<path d="M19.0017 16.7309C19.6603 16.5229 20.202 16.4189 20.6267 16.4189C21.5367 16.4189 22.2603 16.6573 22.7977 17.1339C23.3177 17.5933 23.5777 18.2043 23.5777 18.9669C23.5777 20.0849 23.0403 20.7913 21.9657 21.0859C22.5983 21.2159 23.0837 21.4846 23.4217 21.8919C23.777 22.3253 23.9547 22.8106 23.9547 23.3479C23.9547 24.2406 23.582 24.9296 22.8367 25.4149C22.2647 25.7876 21.5757 25.9739 20.7697 25.9739C20.2063 25.9739 19.6517 25.9046 19.1057 25.7659L18.5987 25.1419V24.5439C19.2053 24.6566 19.7253 24.7129 20.1587 24.7129C21.632 24.7129 22.3687 24.2623 22.3687 23.3609C22.3687 22.8929 22.165 22.4986 21.7577 22.1779C21.4977 21.9786 21.2203 21.8443 20.9257 21.7749C20.6397 21.7056 20.1933 21.6623 19.5867 21.6449V20.4359H20.8997C21.229 20.4359 21.502 20.3233 21.7187 20.0979C21.9353 19.8639 22.0437 19.5736 22.0437 19.2269C22.0437 18.7849 21.892 18.4426 21.5887 18.1999C21.294 17.9486 20.8867 17.8229 20.3667 17.8229C20.0373 17.8229 19.5823 17.8966 19.0017 18.0439V16.7309ZM26.919 21.0339C25.8356 20.3839 25.294 19.5693 25.294 18.5899C25.294 17.7926 25.593 17.1989 26.191 16.8089C26.6503 16.5056 27.2396 16.3539 27.959 16.3539C28.7563 16.3539 29.3976 16.5663 29.883 16.9909C30.351 17.3983 30.585 17.9356 30.585 18.6029C30.585 19.5303 30.039 20.3363 28.947 21.0209C29.597 21.3416 30.065 21.6579 30.351 21.9699C30.7496 22.4119 30.949 22.9406 30.949 23.5559C30.949 24.2233 30.7063 24.7779 30.221 25.2199C29.649 25.7399 28.882 25.9999 27.92 25.9999C27.0273 25.9999 26.2993 25.7703 25.736 25.3109C25.19 24.8689 24.917 24.2753 24.917 23.5299C24.917 22.5679 25.5843 21.7359 26.919 21.0339ZM27.985 20.4099C28.661 19.9506 28.999 19.3396 28.999 18.5769C28.999 17.8489 28.648 17.4849 27.946 17.4849C27.6253 17.4936 27.3696 17.5889 27.179 17.7709C26.9796 17.9789 26.88 18.2563 26.88 18.6029C26.88 18.9409 26.9666 19.2616 27.14 19.5649C27.3133 19.8769 27.595 20.1586 27.985 20.4099ZM27.946 21.5929C27.4173 21.8703 27.0446 22.1433 26.828 22.4119C26.62 22.6806 26.516 23.0143 26.516 23.4129C26.516 24.2883 26.9926 24.7259 27.946 24.7259C28.9166 24.7259 29.402 24.2926 29.402 23.4259C29.402 22.7066 28.9166 22.0956 27.946 21.5929Z" fill="black"/>
</svg>
