<svg width="48" height="47" viewBox="0 0 48 47" fill="none" xmlns="http://www.w3.org/2000/svg">
<path d="M28.0459 46.2527C28.0457 46.2527 28.0461 46.2527 28.0459 46.2527C27.6926 46.2527 27.3163 46.244 26.8812 46.2339C26.3323 46.2212 25.7102 46.2069 24.9744 46.2069C17.8654 46.2069 11.3408 43.2652 5.26716 40.2489C4.32697 39.6226 3.57458 38.868 2.96757 37.9427C2.40482 37.0849 1.97946 36.098 1.6672 34.9256C1.09408 32.7738 0.97414 30.3031 0.972839 27.2588C1.40174 25.6599 1.59591 24.8867 1.94557 23.4944C2.21988 22.4021 2.59554 20.9062 3.25952 18.3183L3.26863 18.2828L3.27088 18.2463C3.61946 12.5898 4.21543 10.5715 5.41948 8.18688C6.23567 6.56353 8.06837 5.1161 10.0087 3.58369C10.446 3.23825 10.8981 2.88122 11.3462 2.51633C13.6457 1.1301 16.1538 0.938644 18.5224 0.938644C19.3052 0.938644 20.083 0.9618 20.9065 0.986312C21.7241 1.01065 22.5695 1.03581 23.4138 1.03581C26.4874 1.03581 29.5367 1.62134 32.4768 2.77614C35.3457 3.90295 37.9489 5.50549 40.2141 7.53925C42.512 9.60234 44.3223 11.986 45.5949 14.6241C46.932 17.3958 47.6099 20.3252 47.6099 23.3307C47.6099 26.8841 47.1396 30.0702 46.2121 32.8004C45.1633 35.8875 43.5223 38.3994 41.3339 40.2673C31.9861 45.6596 30.8607 46.2527 28.0459 46.2527Z" fill="#F08080"/>
<path d="M18.5219 1.32634C16.2183 1.32634 13.7831 1.50969 11.5716 2.83378C11.1285 3.19433 10.6827 3.54637 10.2513 3.88714C8.34574 5.39208 6.5459 6.81356 5.76803 8.36071C4.58875 10.6962 4.00454 12.6812 3.66013 18.2699L3.65563 18.3431L3.6374 18.4141C2.97367 21.001 2.59813 22.4964 2.32393 23.5882C1.9774 24.9681 1.78337 25.7407 1.36286 27.3094C1.36546 30.3 1.48501 32.7269 2.04421 34.8264C2.66207 37.1462 3.74936 38.7641 5.46379 39.9132C11.4895 42.905 17.9586 45.8191 24.9741 45.8191C25.7143 45.8191 26.3387 45.8335 26.8896 45.8463C27.3224 45.8563 27.6962 45.8649 28.0451 45.8649C29.4124 45.8649 30.3114 45.7336 32.0241 44.9557C33.8326 44.1342 36.521 42.595 41.1063 39.95C43.2273 38.1305 44.8203 35.6838 45.842 32.6764C46.756 29.9862 47.2193 26.8419 47.2193 23.3307C47.2193 20.3836 46.5543 17.5106 45.2427 14.7916C43.9922 12.1993 42.2122 9.85599 39.9522 7.82688C37.7217 5.82436 35.1583 4.24635 32.333 3.13667C29.4388 1.99989 26.4378 1.4235 23.4135 1.4235C22.5633 1.4235 21.7149 1.39825 20.8945 1.37383C20.074 1.34941 19.299 1.32634 18.5219 1.32634ZM18.5221 0.550873C20.1157 0.550882 21.7535 0.648033 23.4135 0.648033C36.1303 0.648033 47.9999 10.6965 47.9999 23.3307C47.9999 29.9889 46.3642 36.5043 41.5605 40.5847C29.4622 47.5639 30.9891 46.5946 24.9741 46.5946C18.018 46.5946 11.705 43.8804 5.07036 40.5847C0.972543 37.8706 0.582275 32.9313 0.582275 27.208C1.36671 24.2854 1.38002 24.0729 2.88105 18.2225C3.22745 12.6016 3.80439 10.5202 5.07036 8.01299C6.11617 5.93293 8.64475 4.21665 11.1196 2.19925C13.4046 0.813069 15.9039 0.550855 18.5221 0.550873Z" fill="#707070"/>
<path d="M19.0016 16.7309C19.6603 16.5229 20.202 16.4189 20.6266 16.4189C21.5366 16.4189 22.2603 16.6573 22.7976 17.1339C23.3176 17.5933 23.5776 18.2043 23.5776 18.9669C23.5776 20.0849 23.0403 20.7913 21.9656 21.0859C22.5983 21.2159 23.0836 21.4846 23.4216 21.8919C23.777 22.3253 23.9546 22.8106 23.9546 23.3479C23.9546 24.2406 23.582 24.9296 22.8366 25.4149C22.2646 25.7876 21.5756 25.9739 20.7696 25.9739C20.2063 25.9739 19.6516 25.9046 19.1056 25.7659L18.5986 25.1419V24.5439C19.2053 24.6566 19.7253 24.7129 20.1586 24.7129C21.632 24.7129 22.3686 24.2623 22.3686 23.3609C22.3686 22.8929 22.165 22.4986 21.7576 22.1779C21.4976 21.9786 21.2203 21.8443 20.9256 21.7749C20.6396 21.7056 20.1933 21.6623 19.5866 21.6449V20.4359H20.8996C21.229 20.4359 21.502 20.3233 21.7186 20.0979C21.9353 19.8639 22.0436 19.5736 22.0436 19.2269C22.0436 18.7849 21.892 18.4426 21.5886 18.1999C21.294 17.9486 20.8866 17.8229 20.3666 17.8229C20.0373 17.8229 19.5823 17.8966 19.0016 18.0439V16.7309ZM26.9189 21.0339C25.8356 20.3839 25.2939 19.5693 25.2939 18.5899C25.2939 17.7926 25.5929 17.1989 26.1909 16.8089C26.6503 16.5056 27.2396 16.3539 27.9589 16.3539C28.7563 16.3539 29.3976 16.5663 29.8829 16.9909C30.3509 17.3983 30.5849 17.9356 30.5849 18.6029C30.5849 19.5303 30.0389 20.3363 28.9469 21.0209C29.5969 21.3416 30.0649 21.6579 30.3509 21.9699C30.7496 22.4119 30.9489 22.9406 30.9489 23.5559C30.9489 24.2233 30.7063 24.7779 30.2209 25.2199C29.6489 25.7399 28.8819 25.9999 27.9199 25.9999C27.0273 25.9999 26.2993 25.7703 25.7359 25.3109C25.1899 24.8689 24.9169 24.2753 24.9169 23.5299C24.9169 22.5679 25.5843 21.7359 26.9189 21.0339ZM27.9849 20.4099C28.6609 19.9506 28.9989 19.3396 28.9989 18.5769C28.9989 17.8489 28.6479 17.4849 27.9459 17.4849C27.6253 17.4936 27.3696 17.5889 27.1789 17.7709C26.9796 17.9789 26.8799 18.2563 26.8799 18.6029C26.8799 18.9409 26.9666 19.2616 27.1399 19.5649C27.3133 19.8769 27.5949 20.1586 27.9849 20.4099ZM27.9459 21.5929C27.4173 21.8703 27.0446 22.1433 26.8279 22.4119C26.6199 22.6806 26.5159 23.0143 26.5159 23.4129C26.5159 24.2883 26.9926 24.7259 27.9459 24.7259C28.9166 24.7259 29.4019 24.2926 29.4019 23.4259C29.4019 22.7066 28.9166 22.0956 27.9459 21.5929Z" fill="black"/>
</svg>
