<svg width="26" height="35" viewBox="0 0 26 35" fill="none" xmlns="http://www.w3.org/2000/svg">
<path d="M17.5038 33.9308C13.6044 33.9308 9.40888 33.3748 6.28089 32.4435C4.52085 31.9195 3.12809 31.2949 2.14131 30.5869C1.10465 29.8431 0.548045 29.025 0.486976 28.1553C0.306329 25.5827 1.19502 20.5718 2.69838 15.6863C3.51251 13.0406 4.47608 10.5324 5.48492 8.43288C6.62617 6.05779 7.81362 4.20502 9.01427 2.92605C10.2626 1.59634 11.4975 0.922119 12.6847 0.922119C12.7188 0.922119 12.7519 0.922646 12.7861 0.92374C15.7454 1.01859 17.6171 2.11539 19.0444 4.59115C20.4582 7.04342 21.3988 10.7077 22.7005 15.7793C22.9882 16.9001 23.2855 18.0587 23.6111 19.2943C23.6187 19.3597 23.6365 19.4297 23.6565 19.508C23.6853 19.6206 23.7282 19.7802 23.7826 19.9822C24.0999 21.1601 24.7602 23.6112 25.1558 26.1531C25.6303 29.202 25.5523 31.3841 24.9302 32.4634C24.5101 33.1939 22.0509 33.9308 17.5038 33.9308Z" fill="white"/>
<path d="M12.6852 1.30989C11.6106 1.30989 10.4717 1.94264 9.30019 3.19055C8.1267 4.44058 6.96173 6.26057 5.83763 8.59997C4.83699 10.6824 3.88069 13.1721 3.07211 15.7997C1.5814 20.6442 0.699174 25.5986 0.876817 28.1283C0.983251 29.6441 2.94243 31.0447 6.39343 32.0722C9.4871 32.9932 13.6407 33.5431 17.5043 33.5431C19.4473 33.5431 21.1632 33.4031 22.4664 33.1384C24.2566 32.7748 24.5627 32.3218 24.592 32.2708C24.9949 31.5719 25.3528 29.9535 24.7706 26.2124C24.3782 23.6912 23.7217 21.2538 23.4062 20.0824C23.3514 19.8791 23.3081 19.7184 23.2787 19.6033C23.2612 19.5344 23.2416 19.4578 23.2297 19.3757C22.9055 18.1453 22.6094 16.9915 22.3229 15.8752C21.0287 10.8333 20.0937 7.19038 18.7063 4.7839C18.0316 3.61352 17.2625 2.77894 16.3552 2.23246C15.4036 1.65936 14.2322 1.35805 12.774 1.31131C12.7441 1.31035 12.7151 1.30989 12.6852 1.30989ZM12.6852 0.534424C12.7236 0.534424 12.7608 0.535015 12.7992 0.536249C19.958 0.765707 20.697 6.70787 23.9993 19.2346C23.9105 19.2346 27.1439 29.4037 25.2694 32.6561C24.6393 33.7517 21.4302 34.3185 17.5043 34.3185C10.193 34.3185 0.391145 32.3545 0.0981704 28.1823C-0.349711 21.8042 5.57749 0.534424 12.6852 0.534424Z" fill="#707070"/>
<path d="M11.3252 12.7755V18.5475H12.4952V19.8995H11.3252V21.3685L10.5322 22.0835H9.77817V19.8995H6.12517V18.7555L9.80417 12.7755H11.3252ZM9.77817 14.8555L7.59417 18.5475H9.77817V14.8555ZM17.0599 12.7755V21.3815L16.2539 22.0835H15.4739V14.5825L13.9659 15.8565L13.2119 14.9075L15.7339 12.7755H17.0599Z" fill="black"/>
</svg>
