<svg width="26" height="35" viewBox="0 0 26 35" fill="none" xmlns="http://www.w3.org/2000/svg">
<path d="M17.5038 33.9305C13.6044 33.9305 9.40888 33.3745 6.28089 32.4433C4.52085 31.9193 3.12809 31.2946 2.14131 30.5866C1.10465 29.8428 0.548045 29.0247 0.486976 28.155C0.306329 25.5825 1.19502 20.5716 2.69838 15.6861C3.51251 13.0403 4.47608 10.5322 5.48492 8.43264C6.62617 6.05754 7.81362 4.20478 9.01427 2.9258C10.2626 1.59609 11.4975 0.921875 12.6847 0.921875C12.7188 0.921875 12.7519 0.922402 12.7861 0.923496C15.7454 1.01835 17.6171 2.11515 19.0444 4.59091C20.4582 7.04317 21.3988 10.7075 22.7005 15.7791C22.9882 16.8999 23.2855 18.0584 23.6111 19.2941C23.6187 19.3595 23.6365 19.4294 23.6565 19.5078C23.6853 19.6204 23.7282 19.7799 23.7826 19.9819C24.0999 21.1598 24.7602 23.6109 25.1558 26.1529C25.6303 29.2018 25.5523 31.3838 24.9302 32.4632C24.5101 33.1937 22.0509 33.9305 17.5038 33.9305Z" fill="#D2B48C"/>
<path d="M12.6852 1.30977C11.6106 1.30977 10.4717 1.94252 9.30019 3.19043C8.1267 4.44046 6.96173 6.26045 5.83763 8.59984C4.83699 10.6823 3.88069 13.1719 3.07211 15.7996C1.5814 20.644 0.699174 25.5985 0.876817 28.1282C0.983251 29.644 2.94243 31.0446 6.39343 32.072C9.4871 32.9931 13.6407 33.5429 17.5043 33.5429C19.4473 33.5429 21.1632 33.403 22.4664 33.1383C24.2566 32.7746 24.5627 32.3217 24.592 32.2707C24.9949 31.5718 25.3528 29.9533 24.7706 26.2123C24.3782 23.691 23.7217 21.2537 23.4062 20.0823C23.3514 19.8789 23.3081 19.7183 23.2787 19.6032C23.2612 19.5343 23.2416 19.4576 23.2297 19.3756C22.9055 18.1451 22.6094 16.9914 22.3229 15.8751C21.0287 10.8331 20.0937 7.19026 18.7063 4.78378C18.0316 3.6134 17.2625 2.77881 16.3552 2.23233C15.4036 1.65924 14.2322 1.35792 12.774 1.31119C12.7441 1.31022 12.7151 1.30977 12.6852 1.30977ZM12.6852 0.534302C12.7236 0.534302 12.7608 0.534893 12.7992 0.536127C19.958 0.765585 20.697 6.70774 23.9993 19.2345C23.9105 19.2345 27.1439 29.4036 25.2694 32.656C24.6393 33.7515 21.4302 34.3184 17.5043 34.3184C10.193 34.3184 0.391145 32.3544 0.0981704 28.1822C-0.349711 21.8041 5.57749 0.534302 12.6852 0.534302Z" fill="#707070"/>
<path d="M11.3252 12.7754V18.5474H12.4952V19.8994H11.3252V21.3684L10.5322 22.0834H9.77817V19.8994H6.12517V18.7554L9.80417 12.7754H11.3252ZM9.77817 14.8554L7.59417 18.5474H9.77817V14.8554ZM17.0599 12.7754V21.3814L16.2539 22.0834H15.4739V14.5824L13.9659 15.8564L13.2119 14.9074L15.7339 12.7754H17.0599Z" fill="black"/>
</svg>
