<svg width="26" height="35" viewBox="0 0 26 35" fill="none" xmlns="http://www.w3.org/2000/svg">
<path d="M17.5039 33.9305C13.6044 33.9305 9.40894 33.3745 6.28095 32.4433C4.52091 31.9193 3.12815 31.2946 2.14137 30.5866C1.10471 29.8428 0.548106 29.0247 0.487037 28.155C0.30639 25.5825 1.19508 20.5716 2.69844 15.6861C3.51257 13.0403 4.47615 10.5322 5.48498 8.43264C6.62623 6.05754 7.81368 4.20478 9.01433 2.9258C10.2626 1.59609 11.4975 0.921875 12.6848 0.921875C12.7189 0.921875 12.752 0.922402 12.7862 0.923496C15.7455 1.01835 17.6172 2.11515 19.0445 4.59091C20.4583 7.04317 21.3988 10.7075 22.7006 15.7791C22.9883 16.8999 23.2856 18.0584 23.6112 19.2941C23.6187 19.3595 23.6366 19.4294 23.6566 19.5078C23.6853 19.6204 23.7283 19.7799 23.7827 19.9819C24.1 21.1598 24.7602 23.6109 25.1558 26.1529C25.6303 29.2018 25.5523 31.3838 24.9303 32.4632C24.5101 33.1937 22.051 33.9305 17.5039 33.9305Z" fill="#FFFF00"/>
<path d="M12.6853 1.30977C11.6107 1.30977 10.4718 1.94252 9.30031 3.19043C8.12682 4.44046 6.96185 6.26045 5.83775 8.59984C4.83711 10.6823 3.88082 13.1719 3.07223 15.7996C1.58152 20.644 0.699296 25.5985 0.876939 28.1282C0.983373 29.644 2.94255 31.0446 6.39356 32.072C9.48722 32.9931 13.6408 33.5429 17.5044 33.5429C19.4474 33.5429 21.1633 33.403 22.4665 33.1383C24.2567 32.7746 24.5628 32.3217 24.5922 32.2707C24.995 31.5718 25.353 29.9533 24.7707 26.2123C24.3783 23.691 23.7218 21.2537 23.4063 20.0823C23.3515 19.8789 23.3082 19.7183 23.2789 19.6032C23.2613 19.5343 23.2417 19.4576 23.2298 19.3756C22.9056 18.1451 22.6095 16.9914 22.323 15.8751C21.0289 10.8331 20.0938 7.19026 18.7064 4.78378C18.0317 3.6134 17.2626 2.77881 16.3553 2.23233C15.4037 1.65924 14.2324 1.35792 12.7742 1.31119C12.7442 1.31022 12.7152 1.30977 12.6853 1.30977ZM12.6853 0.534302C12.7237 0.534302 12.7609 0.534893 12.7993 0.536127C19.9581 0.765585 20.6971 6.70774 23.9994 19.2345C23.9106 19.2345 27.144 29.4036 25.2695 32.656C24.6395 33.7515 21.4303 34.3184 17.5044 34.3184C10.1932 34.3184 0.391267 32.3544 0.0982924 28.1822C-0.349589 21.8041 5.57761 0.534302 12.6853 0.534302Z" fill="#707070"/>
<path d="M11.3254 12.7754V18.5474H12.4954V19.8994H11.3254V21.3684L10.5324 22.0834H9.77842V19.8994H6.12542V18.7554L9.80442 12.7754H11.3254ZM9.77842 14.8554L7.59442 18.5474H9.77842V14.8554ZM17.0601 12.7754V21.3814L16.2541 22.0834H15.4741V14.5824L13.9661 15.8564L13.2121 14.9074L15.7341 12.7754H17.0601Z" fill="black"/>
</svg>
