<svg width="26" height="37" viewBox="0 0 26 37" fill="none" xmlns="http://www.w3.org/2000/svg">
<path d="M21.2919 36.0044C18.0688 36.0044 13.5646 34.2713 13.29 34.1643C13.0726 34.0589 10.0748 32.591 7.06794 30.4154C4.24591 28.3736 0.835316 25.276 0.61334 22.1149C0.474646 20.1399 1.32613 17.1018 2.94944 13.7797C4.54328 10.5178 6.70413 7.31902 8.87791 5.00345C9.95912 3.85172 11.0082 2.95262 11.9961 2.33114C13.0272 1.68244 13.9652 1.35352 14.7841 1.35352C17.5992 1.35352 19.2326 2.2744 20.61 4.638C22.079 7.15877 23.2363 11.3103 24.8291 17.3509C24.8271 17.4271 24.8313 17.5233 24.8368 17.6521C24.8455 17.8537 24.8605 18.1409 24.8795 18.5045C24.9684 20.2058 25.1533 23.7459 25.119 27.1219C25.067 32.2348 24.5411 34.2015 24.1091 34.9511C23.7071 35.6501 22.7593 36.0044 21.2919 36.0044Z" fill="white"/>
<path d="M14.7836 1.74104C13.294 1.74104 11.2978 2.9935 9.16288 5.2677C7.01454 7.55616 4.87764 10.7203 3.3001 13.9488C1.70569 17.2118 0.868144 20.1783 1.00223 22.0878C1.16952 24.4701 3.3432 27.239 7.28829 30.0953C10.2204 32.2182 13.1484 33.6635 13.4466 33.8088C13.8218 33.9542 18.1822 35.6165 21.2914 35.6165C22.1969 35.6165 23.362 35.4677 23.77 34.7582C24.1789 34.0487 24.6771 32.1472 24.7283 27.1178C24.7625 23.7538 24.578 20.2218 24.4893 18.5244C24.4703 18.1598 24.4552 17.8719 24.4465 17.6685C24.4423 17.5708 24.4384 17.4826 24.4386 17.4014C22.8602 11.4169 21.7125 7.30426 20.2719 4.83207C19.5987 3.67693 18.8842 2.91524 18.0234 2.43499C17.1747 1.96155 16.1453 1.74104 14.7836 1.74104ZM14.7836 0.965576C20.6032 0.965576 21.9208 4.78979 25.2231 17.3165C25.1343 17.3165 26.3219 31.8911 24.4474 35.1435C22.6439 38.2793 13.1324 34.5194 13.1324 34.5194C13.1324 34.5194 0.673875 28.5543 0.223585 22.1417C-0.226707 15.7292 8.9641 0.965576 14.7836 0.965576Z" fill="#707070"/>
<path d="M12.4991 12.692V18.464H13.6691V19.816H12.4991V21.285L11.7061 22H10.9521V19.816H7.29912V18.672L10.9781 12.692H12.4991ZM10.9521 14.772L8.76812 18.464H10.9521V14.772ZM14.7758 13.394C15.5992 12.8567 16.4312 12.588 17.2718 12.588C18.1125 12.588 18.7538 12.835 19.1958 13.329C19.5858 13.7537 19.7808 14.3213 19.7808 15.032C19.7808 15.5607 19.6552 16.0807 19.4038 16.592C19.1525 17.1033 18.7148 17.7403 18.0908 18.503C17.3888 19.3523 16.9988 19.816 16.9208 19.894L16.1538 20.674H19.9628V21.194L19.3128 22H14.3858V20.674L15.3478 19.686L16.2838 18.62C17.0032 17.8227 17.4668 17.2723 17.6748 16.969C18.1168 16.3363 18.3378 15.7773 18.3378 15.292C18.3378 14.9107 18.2122 14.603 17.9608 14.369C17.7182 14.1263 17.3975 14.005 16.9988 14.005C16.5308 14.005 16.0542 14.174 15.5688 14.512L14.7758 13.394Z" fill="black"/>
</svg>
