<svg width="26" height="37" viewBox="0 0 26 37" fill="none" xmlns="http://www.w3.org/2000/svg">
<path d="M21.2918 36.0046C18.0687 36.0046 13.5646 34.2714 13.2899 34.1645C13.0725 34.059 10.0747 32.5911 7.06788 30.4156C4.24585 28.3737 0.835255 25.2762 0.613279 22.1151C0.474585 20.14 1.32606 17.1019 2.94938 13.7798C4.54322 10.518 6.70407 7.31915 8.87785 5.00357C9.95906 3.85184 11.0082 2.95274 11.996 2.33126C13.0271 1.68256 13.9652 1.35364 14.784 1.35364C17.5991 1.35364 19.2326 2.27452 20.61 4.63812C22.0789 7.15889 23.2362 11.3104 24.8291 17.351C24.827 17.4272 24.8312 17.5235 24.8368 17.6523C24.8454 17.8538 24.8604 18.141 24.8794 18.5047C24.9683 20.2059 25.1533 23.746 25.1189 27.122C25.0669 32.2349 24.541 34.2016 24.109 34.9512C23.707 35.6502 22.7592 36.0046 21.2918 36.0046Z" fill="#FFFF00"/>
<path d="M14.7835 1.74116C13.2939 1.74116 11.2977 2.99362 9.16276 5.26782C7.01442 7.55628 4.87752 10.7204 3.29998 13.9489C1.70557 17.2119 0.868022 20.1784 1.00211 22.0879C1.16939 24.4702 3.34308 27.2392 7.28817 30.0954C10.2203 32.2183 13.1483 33.6637 13.4465 33.809C13.8217 33.9543 18.1821 35.6166 21.2913 35.6166C22.1968 35.6166 23.3618 35.4678 23.7699 34.7583C24.1788 34.0488 24.677 32.1473 24.7282 27.1179C24.7624 23.7539 24.5779 20.2219 24.4892 18.5246C24.4702 18.16 24.4551 17.872 24.4463 17.6687C24.4421 17.5709 24.4383 17.4827 24.4385 17.4015C22.8601 11.4171 21.7124 7.30439 20.2717 4.83219C19.5986 3.67705 18.8841 2.91536 18.0233 2.43512C17.1746 1.96167 16.1452 1.74116 14.7835 1.74116ZM14.7835 0.965698C20.6031 0.965698 21.9207 4.78991 25.223 17.3166C25.1342 17.3166 26.3217 31.8913 24.4472 35.1436C22.6438 38.2794 13.1323 34.5195 13.1323 34.5195C13.1323 34.5195 0.673753 28.5544 0.223463 22.1418C-0.226829 15.7293 8.96397 0.965698 14.7835 0.965698Z" fill="#707070"/>
<path d="M12.499 12.692V18.464H13.669V19.816H12.499V21.285L11.706 22H10.952V19.816H7.299V18.672L10.978 12.692H12.499ZM10.952 14.772L8.768 18.464H10.952V14.772ZM14.7757 13.394C15.5991 12.8567 16.4311 12.588 17.2717 12.588C18.1124 12.588 18.7537 12.835 19.1957 13.329C19.5857 13.7537 19.7807 14.3213 19.7807 15.032C19.7807 15.5607 19.6551 16.0807 19.4037 16.592C19.1524 17.1033 18.7147 17.7403 18.0907 18.503C17.3887 19.3523 16.9987 19.816 16.9207 19.894L16.1537 20.674H19.9627V21.194L19.3127 22H14.3857V20.674L15.3477 19.686L16.2837 18.62C17.0031 17.8227 17.4667 17.2723 17.6747 16.969C18.1167 16.3363 18.3377 15.7773 18.3377 15.292C18.3377 14.9107 18.2121 14.603 17.9607 14.369C17.7181 14.1263 17.3974 14.005 16.9987 14.005C16.5307 14.005 16.0541 14.174 15.5687 14.512L14.7757 13.394Z" fill="black"/>
</svg>
