<svg width="26" height="37" viewBox="0 0 26 37" fill="none" xmlns="http://www.w3.org/2000/svg">
<path d="M21.2919 36.0046C18.0688 36.0046 13.5647 34.2714 13.2901 34.1645C13.0726 34.059 10.0749 32.5911 7.068 30.4156C4.24597 28.3737 0.835377 25.2762 0.613401 22.1151C0.474707 20.14 1.32619 17.1019 2.94951 13.7798C4.54334 10.518 6.70419 7.31915 8.87797 5.00357C9.95918 3.85184 11.0083 2.95274 11.9961 2.33126C13.0273 1.68256 13.9653 1.35364 14.7841 1.35364C17.5993 1.35364 19.2327 2.27452 20.6101 4.63812C22.0791 7.15889 23.2363 11.3104 24.8292 17.351C24.8272 17.4272 24.8313 17.5235 24.8369 17.6523C24.8456 17.8538 24.8606 18.141 24.8796 18.5047C24.9685 20.2059 25.1534 23.746 25.1191 27.122C25.067 32.2349 24.5412 34.2016 24.1092 34.9512C23.7071 35.6502 22.7593 36.0046 21.2919 36.0046Z" fill="#ADD8E6"/>
<path d="M14.7836 1.74116C13.294 1.74116 11.2978 2.99362 9.16288 5.26782C7.01454 7.55628 4.87764 10.7204 3.3001 13.9489C1.70569 17.2119 0.868144 20.1784 1.00223 22.0879C1.16952 24.4702 3.3432 27.2392 7.28829 30.0954C10.2204 32.2183 13.1484 33.6637 13.4466 33.809C13.8218 33.9543 18.1822 35.6166 21.2914 35.6166C22.1969 35.6166 23.362 35.4678 23.77 34.7583C24.1789 34.0488 24.6771 32.1473 24.7283 27.1179C24.7625 23.7539 24.578 20.2219 24.4893 18.5246C24.4703 18.16 24.4552 17.872 24.4465 17.6687C24.4423 17.5709 24.4384 17.4827 24.4386 17.4015C22.8602 11.4171 21.7125 7.30439 20.2719 4.83219C19.5987 3.67705 18.8842 2.91536 18.0234 2.43512C17.1747 1.96167 16.1453 1.74116 14.7836 1.74116ZM14.7836 0.965698C20.6032 0.965698 21.9208 4.78991 25.2231 17.3166C25.1343 17.3166 26.3219 31.8913 24.4474 35.1436C22.6439 38.2794 13.1324 34.5195 13.1324 34.5195C13.1324 34.5195 0.673875 28.5544 0.223585 22.1418C-0.226707 15.7293 8.9641 0.965698 14.7836 0.965698Z" fill="#707070"/>
<path d="M12.4991 12.692V18.464H13.6691V19.816H12.4991V21.285L11.7061 22H10.9521V19.816H7.29912V18.672L10.9781 12.692H12.4991ZM10.9521 14.772L8.76812 18.464H10.9521V14.772ZM14.7758 13.394C15.5992 12.8567 16.4312 12.588 17.2718 12.588C18.1125 12.588 18.7538 12.835 19.1958 13.329C19.5858 13.7537 19.7808 14.3213 19.7808 15.032C19.7808 15.5607 19.6552 16.0807 19.4038 16.592C19.1525 17.1033 18.7148 17.7403 18.0908 18.503C17.3888 19.3523 16.9988 19.816 16.9208 19.894L16.1538 20.674H19.9628V21.194L19.3128 22H14.3858V20.674L15.3478 19.686L16.2838 18.62C17.0032 17.8227 17.4668 17.2723 17.6748 16.969C18.1168 16.3363 18.3378 15.7773 18.3378 15.292C18.3378 14.9107 18.2122 14.603 17.9608 14.369C17.7182 14.1263 17.3975 14.005 16.9988 14.005C16.5308 14.005 16.0542 14.174 15.5688 14.512L14.7758 13.394Z" fill="black"/>
</svg>
