<svg width="41" height="43" viewBox="0 0 41 43" fill="none" xmlns="http://www.w3.org/2000/svg">
<path d="M13.6651 36.6897C10.8206 35.2501 8.41091 32.3767 7.21912 29.0032C6.57836 27.1894 6.30296 25.3115 6.40057 23.4215C6.50698 21.3612 7.05813 19.3473 8.03868 17.4359C8.75932 16.0312 10.1606 14.5139 12.2036 12.9262C13.9376 11.5787 15.8529 10.3839 17.6644 9.29352C22.0081 6.67579 25.5691 5.27067 28.8307 6.92135C30.3605 7.69557 31.344 9.01007 31.926 11.0582C32.4179 12.7894 32.6226 14.9846 32.6101 18.3985C32.6091 18.7205 32.6098 18.9864 32.6103 19.2123C32.6132 20.4543 32.6132 20.4543 32.3 22.0909C32.0612 23.339 31.6178 25.6565 30.8482 30.2676C30.81 30.3557 30.7671 30.4818 30.7031 30.6697C30.4566 31.3941 29.9436 32.9014 29.1918 34.4538C28.2752 36.3464 27.3284 37.6375 26.3779 38.2913C24.9158 39.2988 22.7921 39.5332 20.0655 38.9883C17.3929 38.4542 14.9083 37.3189 13.6651 36.6897Z" fill="#DCDCDC"/>
<path d="M28.6534 7.26653C27.1933 6.5276 25.6515 6.40073 23.801 6.86728C22.1851 7.27469 20.3549 8.12507 17.8664 9.62478C16.0652 10.709 14.1617 11.8963 12.4438 13.2313C10.446 14.7838 9.08084 16.2575 8.38625 17.6115C7.43078 19.474 6.8938 21.4353 6.79022 23.4408C6.69522 25.2802 6.96339 27.1082 7.58726 28.8742C8.74666 32.156 11.085 34.9484 13.8423 36.3439C17.933 38.4142 23.3158 39.9292 26.1559 37.9721C27.0375 37.3658 27.9657 36.091 28.8401 34.2856C29.5816 32.7546 30.0894 31.2625 30.3335 30.5454C30.3844 30.3958 30.4266 30.2715 30.4693 30.1672C31.2358 25.5764 31.6782 23.2646 31.9167 22.0183C32.2229 20.4181 32.2229 20.4181 32.22 19.2131C32.2195 18.9865 32.2189 18.72 32.2199 18.397C32.2322 15.0212 32.032 12.8579 31.5504 11.1634C31.0001 9.22655 30.0795 7.98829 28.6534 7.26653ZM29.0079 6.57543C32.4464 8.31567 33.0215 12.5653 33.0003 18.3993C32.9891 21.9494 33.1787 18.6646 31.2211 30.402C31.2212 30.1373 29.4476 36.6511 26.5998 38.6097C23.0882 41.0295 16.8514 38.7373 13.4878 37.0349C7.72814 34.12 3.48128 25.4657 7.691 17.2596C9.39173 13.9444 14.1259 10.9699 17.4623 8.96154C21.8933 6.29116 25.5752 4.83811 29.0079 6.57543Z" fill="#707070"/>
<path d="M19.499 16.692V22.464H20.669V23.816H19.499V25.285L18.706 26H17.952V23.816H14.299V22.672L17.978 16.692H19.499ZM17.952 18.772L15.768 22.464H17.952V18.772ZM22.0877 16.9C22.7464 16.692 23.2881 16.588 23.7127 16.588C24.6227 16.588 25.3464 16.8263 25.8837 17.303C26.4037 17.7623 26.6637 18.3733 26.6637 19.136C26.6637 20.254 26.1264 20.9603 25.0517 21.255C25.6844 21.385 26.1697 21.6537 26.5077 22.061C26.8631 22.4943 27.0407 22.9797 27.0407 23.517C27.0407 24.4097 26.6681 25.0987 25.9227 25.584C25.3507 25.9567 24.6617 26.143 23.8557 26.143C23.2924 26.143 22.7377 26.0737 22.1917 25.935L21.6847 25.311V24.713C22.2914 24.8257 22.8114 24.882 23.2447 24.882C24.7181 24.882 25.4547 24.4313 25.4547 23.53C25.4547 23.062 25.2511 22.6677 24.8437 22.347C24.5837 22.1477 24.3064 22.0133 24.0117 21.944C23.7257 21.8747 23.2794 21.8313 22.6727 21.814V20.605H23.9857C24.3151 20.605 24.5881 20.4923 24.8047 20.267C25.0214 20.033 25.1297 19.7427 25.1297 19.396C25.1297 18.954 24.9781 18.6117 24.6747 18.369C24.3801 18.1177 23.9727 17.992 23.4527 17.992C23.1234 17.992 22.6684 18.0657 22.0877 18.213V16.9Z" fill="black"/>
</svg>
