<svg width="41" height="43" viewBox="0 0 41 43" fill="none" xmlns="http://www.w3.org/2000/svg">
<path d="M13.6651 36.6898C10.8206 35.2502 8.41091 32.3767 7.21912 29.0032C6.57836 27.1895 6.30296 25.3116 6.40057 23.4216C6.50698 21.3613 7.05813 19.3474 8.03868 17.436C8.75932 16.0312 10.1606 14.514 12.2036 12.9263C13.9376 11.5788 15.8529 10.384 17.6644 9.29358C22.0081 6.67586 25.5691 5.27073 28.8307 6.92141C30.3605 7.69563 31.344 9.01013 31.926 11.0582C32.4179 12.7894 32.6226 14.9847 32.6101 18.3986C32.6091 18.7206 32.6098 18.9864 32.6103 19.2124C32.6132 20.4543 32.6132 20.4543 32.3 22.091C32.0612 23.3391 31.6178 25.6566 30.8482 30.2676C30.81 30.3557 30.7671 30.4819 30.7031 30.6697C30.4566 31.3941 29.9436 32.9015 29.1918 34.4539C28.2752 36.3464 27.3284 37.6376 26.3779 38.2913C24.9158 39.2989 22.7921 39.5333 20.0655 38.9884C17.3929 38.4542 14.9083 37.319 13.6651 36.6898Z" fill="#F08080"/>
<path d="M28.6533 7.26659C27.1933 6.52766 25.6514 6.40079 23.8009 6.86734C22.185 7.27475 20.3548 8.12513 17.8663 9.62484C16.0652 10.709 14.1616 11.8963 12.4438 13.2313C10.4459 14.7839 9.08078 16.2576 8.38619 17.6116C7.43072 19.4741 6.89374 21.4354 6.79016 23.4409C6.69516 25.2803 6.96333 27.1083 7.5872 28.8742C8.74659 32.156 11.0849 34.9484 13.8422 36.3439C17.9329 38.4142 23.3158 39.9293 26.1558 37.9722C27.0375 37.3658 27.9657 36.091 28.8401 34.2856C29.5815 32.7547 30.0893 31.2625 30.3334 30.5454C30.3843 30.3958 30.4266 30.2716 30.4693 30.1672C31.2358 25.5765 31.6781 23.2647 31.9166 22.0184C32.2228 20.4181 32.2228 20.4181 32.22 19.2132C32.2195 18.9866 32.2188 18.7201 32.2199 18.3971C32.2321 15.0213 32.0319 12.858 31.5504 11.1635C31 9.22661 30.0794 7.98835 28.6533 7.26659ZM29.0079 6.5755C32.4464 8.31573 33.0215 12.5654 33.0003 18.3994C32.989 21.9494 33.1786 18.6646 31.2211 30.4021C31.2212 30.1373 29.4475 36.6512 26.5997 38.6098C23.0882 41.0296 16.8513 38.7374 13.4877 37.035C7.72808 34.12 3.48122 25.4658 7.69094 17.2597C9.39167 13.9444 14.1259 10.9699 17.4623 8.9616C21.8933 6.29122 25.5751 4.83817 29.0079 6.5755Z" fill="#707070"/>
<path d="M19.499 16.692V22.464H20.669V23.816H19.499V25.285L18.706 26H17.952V23.816H14.299V22.672L17.978 16.692H19.499ZM17.952 18.772L15.768 22.464H17.952V18.772ZM22.0877 16.9C22.7464 16.692 23.2881 16.588 23.7127 16.588C24.6227 16.588 25.3464 16.8263 25.8837 17.303C26.4037 17.7623 26.6637 18.3733 26.6637 19.136C26.6637 20.254 26.1264 20.9603 25.0517 21.255C25.6844 21.385 26.1697 21.6537 26.5077 22.061C26.8631 22.4943 27.0407 22.9797 27.0407 23.517C27.0407 24.4097 26.6681 25.0987 25.9227 25.584C25.3507 25.9567 24.6617 26.143 23.8557 26.143C23.2924 26.143 22.7377 26.0737 22.1917 25.935L21.6847 25.311V24.713C22.2914 24.8257 22.8114 24.882 23.2447 24.882C24.7181 24.882 25.4547 24.4313 25.4547 23.53C25.4547 23.062 25.2511 22.6677 24.8437 22.347C24.5837 22.1477 24.3064 22.0133 24.0117 21.944C23.7257 21.8747 23.2794 21.8313 22.6727 21.814V20.605H23.9857C24.3151 20.605 24.5881 20.4923 24.8047 20.267C25.0214 20.033 25.1297 19.7427 25.1297 19.396C25.1297 18.954 24.9781 18.6117 24.6747 18.369C24.3801 18.1177 23.9727 17.992 23.4527 17.992C23.1234 17.992 22.6684 18.0657 22.0877 18.213V16.9Z" fill="black"/>
</svg>
