<svg width="41" height="43" viewBox="0 0 41 43" fill="none" xmlns="http://www.w3.org/2000/svg">
<path d="M13.6651 36.6897C10.8206 35.2501 8.41091 32.3767 7.21912 29.0032C6.57836 27.1894 6.30296 25.3115 6.40057 23.4215C6.50698 21.3612 7.05813 19.3473 8.03868 17.4359C8.75932 16.0312 10.1606 14.5139 12.2036 12.9262C13.9376 11.5787 15.8529 10.3839 17.6644 9.29352C22.0081 6.67579 25.5691 5.27067 28.8307 6.92135C30.3605 7.69557 31.344 9.01007 31.926 11.0582C32.4179 12.7894 32.6226 14.9846 32.6101 18.3985C32.6091 18.7205 32.6098 18.9864 32.6103 19.2123C32.6132 20.4543 32.6132 20.4543 32.3 22.0909C32.0612 23.339 31.6178 25.6565 30.8482 30.2676C30.81 30.3557 30.7671 30.4818 30.7031 30.6697C30.4566 31.3941 29.9436 32.9014 29.1918 34.4538C28.2752 36.3464 27.3284 37.6375 26.3779 38.2913C24.9158 39.2988 22.7921 39.5332 20.0655 38.9883C17.3929 38.4542 14.9083 37.3189 13.6651 36.6897Z" fill="white"/>
<path d="M28.6533 7.2664C27.1933 6.52747 25.6514 6.40061 23.8009 6.86716C22.185 7.27457 20.3548 8.12494 17.8663 9.62466C16.0652 10.7088 14.1616 11.8961 12.4438 13.2311C10.4459 14.7837 9.08078 16.2574 8.38619 17.6114C7.43072 19.4739 6.89374 21.4352 6.79016 23.4407C6.69516 25.2801 6.96333 27.1081 7.5872 28.8741C8.74659 32.1558 11.0849 34.9483 13.8422 36.3437C17.9329 38.414 23.3158 39.9291 26.1558 37.972C27.0375 37.3657 27.9657 36.0908 28.8401 34.2854C29.5815 32.7545 30.0893 31.2623 30.3334 30.5452C30.3843 30.3956 30.4266 30.2714 30.4693 30.1671C31.2358 25.5763 31.6781 23.2645 31.9166 22.0182C32.2228 20.4179 32.2228 20.4179 32.22 19.213C32.2195 18.9864 32.2188 18.7199 32.2199 18.3969C32.2321 15.0211 32.0319 12.8578 31.5504 11.1633C31 9.22642 30.0794 7.98817 28.6533 7.2664ZM29.0079 6.57531C32.4464 8.31555 33.0215 12.5652 33.0003 18.3992C32.989 21.9493 33.1786 18.6645 31.2211 30.4019C31.2212 30.1371 29.4475 36.651 26.5997 38.6096C23.0882 41.0294 16.8513 38.7372 13.4877 37.0348C7.72808 34.1199 3.48122 25.4656 7.69094 17.2595C9.39167 13.9443 14.1259 10.9697 17.4623 8.96142C21.8933 6.29104 25.5751 4.83799 29.0079 6.57531Z" fill="#707070"/>
<path d="M19.499 16.692V22.464H20.669V23.816H19.499V25.285L18.706 26H17.952V23.816H14.299V22.672L17.978 16.692H19.499ZM17.952 18.772L15.768 22.464H17.952V18.772ZM22.0877 16.9C22.7464 16.692 23.2881 16.588 23.7127 16.588C24.6227 16.588 25.3464 16.8263 25.8837 17.303C26.4037 17.7623 26.6637 18.3733 26.6637 19.136C26.6637 20.254 26.1264 20.9603 25.0517 21.255C25.6844 21.385 26.1697 21.6537 26.5077 22.061C26.8631 22.4943 27.0407 22.9797 27.0407 23.517C27.0407 24.4097 26.6681 25.0987 25.9227 25.584C25.3507 25.9567 24.6617 26.143 23.8557 26.143C23.2924 26.143 22.7377 26.0737 22.1917 25.935L21.6847 25.311V24.713C22.2914 24.8257 22.8114 24.882 23.2447 24.882C24.7181 24.882 25.4547 24.4313 25.4547 23.53C25.4547 23.062 25.2511 22.6677 24.8437 22.347C24.5837 22.1477 24.3064 22.0133 24.0117 21.944C23.7257 21.8747 23.2794 21.8313 22.6727 21.814V20.605H23.9857C24.3151 20.605 24.5881 20.4923 24.8047 20.267C25.0214 20.033 25.1297 19.7427 25.1297 19.396C25.1297 18.954 24.9781 18.6117 24.6747 18.369C24.3801 18.1177 23.9727 17.992 23.4527 17.992C23.1234 17.992 22.6684 18.0657 22.0877 18.213V16.9Z" fill="black"/>
</svg>
