<svg width="33" height="32" viewBox="0 0 33 32" fill="none" xmlns="http://www.w3.org/2000/svg">
<path d="M15.9209 31.5592C13.9199 31.5592 11.9788 31.1599 10.1517 30.3724C8.38603 29.6114 6.80005 28.5218 5.43782 27.1337C4.07492 25.7449 3.00485 24.1276 2.25732 22.3267C1.48321 20.4618 1.0907 18.4804 1.0907 16.4377C1.0907 14.529 1.49705 12.6641 2.29844 10.8947C3.0288 9.28223 4.11137 7.69613 5.51609 6.18047C8.4186 3.04357 12.1137 1.31613 15.9209 1.31613C18.1061 1.31613 20.6669 1.37666 23.0917 1.82563C25.8272 2.33213 27.8404 3.25748 29.0753 4.576C29.2152 4.72505 29.3595 4.87604 29.4992 5.02205C30.6622 6.23845 31.8648 7.49626 32.3507 9.508C32.9121 11.8325 32.42 14.8509 30.8464 18.7357L30.8292 18.7782L30.8224 18.8234C30.4287 21.4496 29.8225 23.5684 28.9693 25.3008C28.1638 26.9364 27.152 28.1946 25.8762 29.1475C23.6429 30.8154 20.5726 31.5592 15.9209 31.5592Z" fill="#7FFFD4"/>
<path d="M15.9206 1.70362C12.2239 1.70362 8.6309 3.38656 5.80297 6.44288C4.42667 7.92786 3.36725 9.47913 2.65411 11.0536C1.87551 12.7726 1.48073 14.584 1.48073 16.4374C1.48073 18.4292 1.86333 20.3609 2.61788 22.1787C3.34634 23.9336 4.38904 25.5096 5.71703 26.8628C8.44363 29.6411 12.0673 31.1712 15.9206 31.1712C20.4822 31.1712 23.4802 30.4514 25.6415 28.8373C26.8669 27.9221 27.8407 26.7094 28.6185 25.1302C29.4539 23.4341 30.0484 21.3523 30.4362 18.766L30.4497 18.6756L30.4841 18.5907C32.0264 14.7832 32.5128 11.8417 31.971 9.59822C31.5095 7.68763 30.3436 6.46816 29.216 5.28884C29.0757 5.14219 28.9308 4.99054 28.7894 4.83989C27.6126 3.58349 25.6715 2.6975 23.02 2.20656C20.6264 1.76337 18.088 1.70362 15.9206 1.70362ZM15.9206 0.928162C20.2497 0.928162 26.4244 1.1765 29.3608 4.31163C31.8058 6.91703 35.0185 9.47374 31.2082 18.8803C29.5917 29.6634 24.3267 31.9467 15.9206 31.9467C7.51463 31.9467 0.700195 25.003 0.700195 16.4374C0.700195 12.3174 2.50301 8.85862 5.22877 5.9176C7.85012 3.08455 11.5579 0.928162 15.9206 0.928162Z" fill="#707070"/>
<path d="M14.499 10.6919V16.4639H15.669V17.8159H14.499V19.2849L13.706 19.9999H12.952V17.8159H9.299V16.6719L12.978 10.6919H14.499ZM12.952 12.7719L10.768 16.4639H12.952V12.7719ZM21.4687 10.6919V16.4639H22.6387V17.8159H21.4687V19.2849L20.6757 19.9999H19.9217V17.8159H16.2687V16.6719L19.9477 10.6919H21.4687ZM19.9217 12.7719L17.7377 16.4639H19.9217V12.7719Z" fill="black"/>
</svg>
