<svg width="33" height="32" viewBox="0 0 33 32" fill="none" xmlns="http://www.w3.org/2000/svg">
<path d="M15.9209 31.5592C13.9199 31.5592 11.9788 31.1599 10.1517 30.3725C8.38603 29.6115 6.80005 28.5218 5.43782 27.1337C4.07492 25.745 3.00485 24.1277 2.25732 22.3268C1.48321 20.4618 1.0907 18.4805 1.0907 16.4377C1.0907 14.529 1.49705 12.6641 2.29844 10.8948C3.0288 9.28226 4.11137 7.69616 5.51609 6.1805C8.4186 3.0436 12.1137 1.31616 15.9209 1.31616C18.1061 1.31616 20.6669 1.37669 23.0917 1.82566C25.8272 2.33216 27.8404 3.25751 29.0753 4.57603C29.2152 4.72508 29.3595 4.87607 29.4992 5.02208C30.6622 6.23848 31.8648 7.49629 32.3507 9.50803C32.9121 11.8325 32.42 14.851 30.8464 18.7358L30.8292 18.7782L30.8224 18.8234C30.4287 21.4497 29.8225 23.5685 28.9693 25.3009C28.1638 26.9364 27.152 28.1946 25.8762 29.1475C23.6429 30.8154 20.5726 31.5592 15.9209 31.5592Z" fill="#ED6503"/>
<path d="M15.9206 1.70369C12.2239 1.70369 8.6309 3.38662 5.80297 6.44294C4.42667 7.92792 3.36725 9.47919 2.65411 11.0537C1.87551 12.7727 1.48073 14.5841 1.48073 16.4375C1.48073 18.4293 1.86333 20.3609 2.61788 22.1788C3.34634 23.9337 4.38904 25.5097 5.71703 26.8628C8.44363 29.6412 12.0673 31.1713 15.9206 31.1713C20.4822 31.1713 23.4802 30.4515 25.6415 28.8373C26.8669 27.9221 27.8407 26.7095 28.6185 25.1302C29.4539 23.4341 30.0484 21.3524 30.4362 18.7661L30.4497 18.6756L30.4841 18.5908C32.0264 14.7833 32.5128 11.8418 31.971 9.59828C31.5095 7.68769 30.3436 6.46822 29.216 5.2889C29.0757 5.14225 28.9308 4.9906 28.7894 4.83995C27.6126 3.58355 25.6715 2.69756 23.02 2.20662C20.6264 1.76343 18.088 1.70369 15.9206 1.70369ZM15.9206 0.928223C20.2497 0.928223 26.4244 1.17656 29.3608 4.31169C31.8058 6.9171 35.0185 9.4738 31.2082 18.8803C29.5917 29.6634 24.3267 31.9468 15.9206 31.9468C7.51463 31.9468 0.700195 25.003 0.700195 16.4375C0.700195 12.3175 2.50301 8.85868 5.22877 5.91766C7.85012 3.08461 11.5579 0.928223 15.9206 0.928223Z" fill="#707070"/>
<path d="M14.499 10.692V16.464H15.669V17.816H14.499V19.285L13.706 20H12.952V17.816H9.299V16.672L12.978 10.692H14.499ZM12.952 12.772L10.768 16.464H12.952V12.772ZM21.4687 10.692V16.464H22.6387V17.816H21.4687V19.285L20.6757 20H19.9217V17.816H16.2687V16.672L19.9477 10.692H21.4687ZM19.9217 12.772L17.7377 16.464H19.9217V12.772Z" fill="black"/>
</svg>
