<svg width="50" height="46" viewBox="0 0 50 46" fill="none" xmlns="http://www.w3.org/2000/svg">
<path d="M7.14706 29.8849C6.34617 28.0983 6.21339 26.0313 6.7524 23.7413C7.24498 21.6486 8.31929 19.3706 9.8592 17.1537C11.3232 15.046 13.1961 13.0019 15.2756 11.2422C17.3509 9.48606 19.5793 8.0575 21.7199 7.11094C23.8271 6.17916 25.9617 5.67451 28.0645 5.61103C30.0648 5.55065 31.999 5.88886 33.8135 6.61628C37.3836 8.04756 40.287 10.9265 41.9888 14.7227C43.6586 18.4475 43.727 22.9304 42.1765 27.0222C41.3969 29.0797 40.2584 30.9327 38.7928 32.5297C37.246 34.215 35.3992 35.5394 33.3037 36.466C29.1034 38.3233 23.461 38.6942 18.2102 37.4582C15.6348 36.852 13.2831 35.8747 11.4092 34.632C9.39408 33.2957 7.96011 31.6985 7.14706 29.8849Z" fill="#D2B48C"/>
<path d="M41.6325 14.8806C39.9721 11.1767 37.1435 8.36954 33.6678 6.9761C31.9038 6.2689 30.0227 5.9401 28.0767 5.99886C26.0248 6.0608 23.9396 6.55423 21.8789 7.46546C17.5917 9.36118 13.1092 13.158 10.1805 17.3743C8.66809 19.5517 7.61411 21.7841 7.13253 23.83C6.61336 26.0358 6.73822 28.02 7.50366 29.7274C8.28619 31.473 9.67307 33.0147 11.6258 34.3097C13.4615 35.5271 15.7694 36.4854 18.3 37.0811C23.4706 38.2982 29.0201 37.9358 33.145 36.1118C35.1911 35.2071 36.9942 33.914 38.5045 32.2684C39.9367 30.7079 41.0493 28.8968 41.8115 26.8855C43.326 22.8884 43.2608 18.5128 41.6325 14.8806ZM42.3454 14.5653C45.8543 22.3927 42.3213 32.9033 33.4627 36.8205C24.6041 40.7376 10.2997 37.87 6.79078 30.0427C3.28184 22.2153 12.7026 10.674 21.5612 6.75683C30.4198 2.83966 38.8365 6.73795 42.3454 14.5653Z" fill="#707070"/>
<path d="M24.499 16.692V22.464H25.669V23.816H24.499V25.285L23.706 26H22.952V23.816H19.299V22.672L22.978 16.692H24.499ZM22.952 18.772L20.768 22.464H22.952V18.772ZM30.6367 16.692V18.018H27.7767L27.6467 20.345C27.9327 20.3017 28.1667 20.28 28.3487 20.28C29.3367 20.28 30.0994 20.592 30.6367 21.216C31.0961 21.7533 31.3257 22.4597 31.3257 23.335C31.3257 24.271 30.9747 24.9903 30.2727 25.493C29.7094 25.8917 28.9987 26.091 28.1407 26.091C27.5774 26.091 27.0227 26.0217 26.4767 25.883L25.9697 25.272V24.661C26.5677 24.7823 27.0877 24.843 27.5297 24.843C28.3011 24.843 28.8471 24.739 29.1677 24.531C29.5491 24.2883 29.7397 23.8637 29.7397 23.257C29.7397 22.6417 29.5794 22.1997 29.2587 21.931C28.9381 21.6623 28.4137 21.528 27.6857 21.528C27.3824 21.528 26.9057 21.5627 26.2557 21.632C26.1691 21.6407 26.0954 21.6493 26.0347 21.658L26.3077 16.692H30.6367Z" fill="black"/>
</svg>
