<svg width="50" height="46" viewBox="0 0 50 46" fill="none" xmlns="http://www.w3.org/2000/svg">
<path d="M7.14706 29.8849C6.34617 28.0983 6.21339 26.0313 6.7524 23.7413C7.24498 21.6486 8.31929 19.3706 9.8592 17.1537C11.3232 15.0461 13.1961 13.0019 15.2756 11.2422C17.3509 9.48609 19.5793 8.05753 21.7199 7.11097C23.8271 6.17919 25.9617 5.67454 28.0645 5.61106C30.0648 5.55068 31.999 5.88889 33.8135 6.61631C37.3836 8.04759 40.287 10.9265 41.9888 14.7228C43.6586 18.4475 43.727 22.9305 42.1765 27.0222C41.3969 29.0797 40.2584 30.9327 38.7928 32.5297C37.246 34.215 35.3992 35.5394 33.3037 36.466C29.1034 38.3233 23.461 38.6943 18.2102 37.4583C15.6348 36.8521 13.2831 35.8748 11.4092 34.632C9.39408 33.2957 7.96011 31.6985 7.14706 29.8849Z" fill="#ADD8E6"/>
<path d="M41.6325 14.8806C39.9721 11.1767 37.1435 8.36954 33.6678 6.9761C31.9038 6.2689 30.0227 5.9401 28.0767 5.99886C26.0248 6.0608 23.9396 6.55423 21.8789 7.46546C17.5917 9.36118 13.1092 13.158 10.1805 17.3743C8.66809 19.5517 7.61411 21.7841 7.13253 23.83C6.61336 26.0358 6.73822 28.02 7.50366 29.7274C8.28619 31.473 9.67307 33.0147 11.6258 34.3097C13.4615 35.5271 15.7694 36.4854 18.3 37.0811C23.4706 38.2982 29.0201 37.9358 33.145 36.1118C35.1911 35.2071 36.9942 33.914 38.5045 32.2684C39.9367 30.7079 41.0493 28.8968 41.8115 26.8855C43.326 22.8884 43.2608 18.5128 41.6325 14.8806ZM42.3454 14.5653C45.8543 22.3927 42.3213 32.9033 33.4627 36.8205C24.6041 40.7376 10.2997 37.87 6.79078 30.0427C3.28184 22.2153 12.7026 10.674 21.5612 6.75683C30.4198 2.83966 38.8365 6.73795 42.3454 14.5653Z" fill="#707070"/>
<path d="M24.499 16.6921V22.4641H25.669V23.8161H24.499V25.2851L23.706 26.0001H22.952V23.8161H19.299V22.6721L22.978 16.6921H24.499ZM22.952 18.7721L20.768 22.4641H22.952V18.7721ZM30.6367 16.6921V18.0181H27.7767L27.6467 20.3451C27.9327 20.3017 28.1667 20.2801 28.3487 20.2801C29.3367 20.2801 30.0994 20.5921 30.6367 21.2161C31.0961 21.7534 31.3257 22.4597 31.3257 23.3351C31.3257 24.2711 30.9747 24.9904 30.2727 25.4931C29.7094 25.8917 28.9987 26.0911 28.1407 26.0911C27.5774 26.0911 27.0227 26.0217 26.4767 25.8831L25.9697 25.2721V24.6611C26.5677 24.7824 27.0877 24.8431 27.5297 24.8431C28.3011 24.8431 28.8471 24.7391 29.1677 24.5311C29.5491 24.2884 29.7397 23.8637 29.7397 23.2571C29.7397 22.6417 29.5794 22.1997 29.2587 21.9311C28.9381 21.6624 28.4137 21.5281 27.6857 21.5281C27.3824 21.5281 26.9057 21.5627 26.2557 21.6321C26.1691 21.6407 26.0954 21.6494 26.0347 21.6581L26.3077 16.6921H30.6367Z" fill="black"/>
</svg>
