<svg width="51" height="53" viewBox="0 0 51 53" fill="none" xmlns="http://www.w3.org/2000/svg">
<path d="M21.0594 52.1759C17.5937 52.1759 15.2042 52.0478 13.2456 51.3928C11.4117 50.7795 9.91338 49.6819 8.07394 47.6044C6.8945 46.2742 4.66244 43.441 2.96307 39.409C1.29356 35.4478 0.583263 31.4217 0.851916 27.4426C1.09111 23.8998 1.48677 21.3412 2.13481 19.1468C2.86937 16.6594 3.95391 14.5595 5.54794 12.5383C7.04976 10.6326 8.04186 9.37374 9.78491 8.21615C11.4691 7.09765 13.9221 6.02915 18.5341 4.40516L18.5424 4.40222L18.5507 4.3989C18.8178 4.29101 19.0885 4.18105 19.3623 4.06985C23.0531 2.5706 27.2364 0.871307 30.8738 0.871307C34.4588 0.871307 37.7909 2.41497 40.5098 5.33541C43.1898 8.21408 45.1156 12.2354 46.0789 16.9646L46.0955 17.046L46.1443 17.1136C47.8931 19.537 48.9047 21.4057 49.5267 23.362C50.1801 25.4168 50.4588 27.7004 50.4588 30.9975C50.4588 33.3604 50.4227 35.4691 49.9782 37.3469C49.5084 39.3316 48.5945 40.9837 47.1021 42.5461C44.5068 45.2653 40.3835 47.7377 35.4917 49.5081C30.7378 51.2285 25.6124 52.1759 21.0594 52.1759Z" fill="#F08080"/>
<path d="M30.8734 1.2591C27.3128 1.2591 23.1672 2.94307 19.5096 4.4288C19.2356 4.54011 18.9646 4.65016 18.6973 4.75814L18.6641 4.77069C9.66851 7.93825 8.86067 8.96332 5.85478 12.7774C4.29227 14.7588 3.2291 16.8174 2.50894 19.256C1.86923 21.4223 1.47816 23.9551 1.24095 27.4686C0.976387 31.3872 1.67679 35.3541 3.32269 39.2593C5.00052 43.2402 7.20281 46.0358 8.36661 47.3483C10.1569 49.3704 11.6064 50.4357 13.3697 51.0254C15.2776 51.6635 17.6339 51.7883 21.059 51.7883C25.5676 51.7883 30.6456 50.8491 35.3577 49.1438C40.1938 47.3936 44.264 44.9558 46.8187 42.2793C48.2615 40.7687 49.1446 39.1733 49.5979 37.2582C50.0328 35.4209 50.0682 33.3358 50.0682 30.9975C50.0682 27.7423 49.7949 25.4937 49.1542 23.4788C48.5372 21.5383 47.5732 19.7596 45.8267 17.3396L45.7293 17.2045L45.6961 17.0416C44.7469 12.3821 42.8543 8.42521 40.2229 5.59875C37.5798 2.75973 34.3468 1.2591 30.8734 1.2591ZM30.8734 0.483643C38.5128 0.483643 44.4982 7.25177 46.4611 16.8877C49.7773 21.483 50.8488 24.5426 50.8488 30.9975C50.8488 35.8765 50.694 39.3486 47.3848 42.8131C41.826 48.6372 30.3591 52.5637 21.059 52.5637C13.9395 52.5637 11.4359 51.9891 7.78054 47.8605C4.33866 43.9787 -0.145636 36.419 0.462163 27.4167C0.896131 20.989 1.89627 16.5396 5.24037 12.2992C8.35094 8.35223 9.28159 7.25177 18.4033 4.03977C22.2701 2.47797 26.884 0.483643 30.8734 0.483643Z" fill="#707070"/>
<path d="M23.0025 22.4397V28.2117H24.1725V29.5637H23.0025V31.0327L22.2095 31.7477H21.4555V29.5637H17.8025V28.4197L21.4815 22.4397H23.0025ZM21.4555 24.5197L19.2715 28.2117H21.4555V24.5197ZM26.4882 26.9117C27.0342 26.1924 27.6712 25.8327 28.3992 25.8327C29.2745 25.8327 29.9462 26.149 30.4142 26.7817C30.8042 27.293 30.9992 27.9387 30.9992 28.7187C30.9992 29.724 30.7262 30.5127 30.1802 31.0847C29.6775 31.6134 28.9972 31.8777 28.1392 31.8777C27.0472 31.8777 26.2369 31.4487 25.7082 30.5907C25.3182 29.9494 25.1232 29.1347 25.1232 28.1467V27.7827C25.1232 26.188 25.4265 24.9054 26.0332 23.9347C26.7005 22.886 27.6712 22.3617 28.9452 22.3617C29.1532 22.3617 29.4132 22.3877 29.7252 22.4397L30.2842 23.1157V23.7267C30.2409 23.718 30.1629 23.705 30.0502 23.6877C29.6342 23.6097 29.3179 23.5707 29.1012 23.5707C28.5639 23.5707 28.0829 23.7354 27.6582 24.0647C27.2335 24.3854 26.9345 24.823 26.7612 25.3777C26.6312 25.785 26.5402 26.2964 26.4882 26.9117ZM29.4132 28.7447C29.4132 28.242 29.2875 27.839 29.0362 27.5357C28.7935 27.2237 28.4685 27.072 28.0612 27.0807C27.6885 27.0807 27.3592 27.2367 27.0732 27.5487C26.7872 27.852 26.6442 28.2074 26.6442 28.6147C26.6442 29.2127 26.7699 29.685 27.0212 30.0317C27.2812 30.3784 27.6365 30.5517 28.0872 30.5517C28.4772 30.5517 28.7935 30.3827 29.0362 30.0447C29.2875 29.7067 29.4132 29.2734 29.4132 28.7447Z" fill="black"/>
</svg>
