<svg width="51" height="53" viewBox="0 0 51 53" fill="none" xmlns="http://www.w3.org/2000/svg">
<path d="M21.0594 52.176C17.5937 52.176 15.2042 52.0478 13.2456 51.3928C11.4117 50.7795 9.91338 49.682 8.07394 47.6044C6.8945 46.2742 4.66244 43.441 2.96307 39.409C1.29356 35.4478 0.583263 31.4218 0.851916 27.4426C1.09111 23.8998 1.48677 21.3413 2.13481 19.1468C2.86937 16.6595 3.95391 14.5596 5.54794 12.5383C7.04976 10.6326 8.04186 9.37377 9.78491 8.21619C11.4691 7.09768 13.9221 6.02918 18.5341 4.40519L18.5424 4.40225L18.5507 4.39893C18.8178 4.29104 19.0885 4.18109 19.3623 4.06988C23.0531 2.57063 27.2364 0.871338 30.8738 0.871338C34.4588 0.871338 37.7909 2.415 40.5098 5.33544C43.1898 8.21411 45.1156 12.2354 46.0789 16.9646L46.0955 17.0461L46.1443 17.1136C47.8931 19.537 48.9047 21.4057 49.5267 23.362C50.1801 25.4169 50.4588 27.7004 50.4588 30.9975C50.4588 33.3604 50.4227 35.4691 49.9782 37.3469C49.5084 39.3316 48.5945 40.9837 47.1021 42.5462C44.5068 45.2653 40.3835 47.7377 35.4917 49.5081C30.7378 51.2285 25.6124 52.176 21.0594 52.176Z" fill="white"/>
<path d="M30.8734 1.2591C27.3128 1.2591 23.1672 2.94307 19.5096 4.4288C19.2356 4.54011 18.9646 4.65016 18.6973 4.75814L18.6641 4.77069C9.66851 7.93825 8.86067 8.96332 5.85478 12.7774C4.29227 14.7588 3.2291 16.8174 2.50894 19.256C1.86923 21.4223 1.47816 23.9551 1.24095 27.4686C0.976387 31.3872 1.67679 35.3541 3.32269 39.2593C5.00052 43.2402 7.20281 46.0358 8.36661 47.3483C10.1569 49.3704 11.6064 50.4357 13.3697 51.0254C15.2776 51.6635 17.6339 51.7883 21.059 51.7883C25.5676 51.7883 30.6456 50.8491 35.3577 49.1438C40.1938 47.3936 44.264 44.9558 46.8187 42.2793C48.2615 40.7687 49.1446 39.1733 49.5979 37.2582C50.0328 35.4209 50.0682 33.3358 50.0682 30.9975C50.0682 27.7423 49.7949 25.4937 49.1542 23.4788C48.5372 21.5383 47.5732 19.7596 45.8267 17.3396L45.7293 17.2045L45.6961 17.0416C44.7469 12.3821 42.8543 8.42521 40.2229 5.59875C37.5798 2.75973 34.3468 1.2591 30.8734 1.2591ZM30.8734 0.483643C38.5128 0.483643 44.4982 7.25177 46.4611 16.8877C49.7773 21.483 50.8488 24.5426 50.8488 30.9975C50.8488 35.8765 50.694 39.3486 47.3848 42.8131C41.826 48.6372 30.3591 52.5637 21.059 52.5637C13.9395 52.5637 11.4359 51.9891 7.78054 47.8605C4.33866 43.9787 -0.145636 36.419 0.462163 27.4167C0.896131 20.989 1.89627 16.5396 5.24037 12.2992C8.35094 8.35223 9.28159 7.25177 18.4033 4.03977C22.2701 2.47797 26.884 0.483643 30.8734 0.483643Z" fill="#707070"/>
<path d="M23.0025 22.4398V28.2118H24.1725V29.5638H23.0025V31.0328L22.2095 31.7478H21.4555V29.5638H17.8025V28.4198L21.4815 22.4398H23.0025ZM21.4555 24.5198L19.2715 28.2118H21.4555V24.5198ZM26.4882 26.9118C27.0342 26.1925 27.6712 25.8328 28.3992 25.8328C29.2745 25.8328 29.9462 26.1491 30.4142 26.7818C30.8042 27.2931 30.9992 27.9388 30.9992 28.7188C30.9992 29.7241 30.7262 30.5128 30.1802 31.0848C29.6775 31.6135 28.9972 31.8778 28.1392 31.8778C27.0472 31.8778 26.2369 31.4488 25.7082 30.5908C25.3182 29.9495 25.1232 29.1348 25.1232 28.1468V27.7828C25.1232 26.1881 25.4265 24.9055 26.0332 23.9348C26.7005 22.8861 27.6712 22.3618 28.9452 22.3618C29.1532 22.3618 29.4132 22.3878 29.7252 22.4398L30.2842 23.1158V23.7268C30.2409 23.7181 30.1629 23.7051 30.0502 23.6878C29.6342 23.6098 29.3179 23.5708 29.1012 23.5708C28.5639 23.5708 28.0829 23.7355 27.6582 24.0648C27.2335 24.3855 26.9345 24.8231 26.7612 25.3778C26.6312 25.7851 26.5402 26.2965 26.4882 26.9118ZM29.4132 28.7448C29.4132 28.2421 29.2875 27.8391 29.0362 27.5358C28.7935 27.2238 28.4685 27.0721 28.0612 27.0808C27.6885 27.0808 27.3592 27.2368 27.0732 27.5488C26.7872 27.8521 26.6442 28.2075 26.6442 28.6148C26.6442 29.2128 26.7699 29.6851 27.0212 30.0318C27.2812 30.3785 27.6365 30.5518 28.0872 30.5518C28.4772 30.5518 28.7935 30.3828 29.0362 30.0448C29.2875 29.7068 29.4132 29.2735 29.4132 28.7448Z" fill="black"/>
</svg>
