<svg width="51" height="53" viewBox="0 0 51 53" fill="none" xmlns="http://www.w3.org/2000/svg">
<path d="M21.0594 52.1759C17.5938 52.1759 15.2042 52.0478 13.2457 51.3928C11.4118 50.7795 9.91344 49.6819 8.074 47.6044C6.89456 46.2742 4.6625 43.441 2.96313 39.409C1.29362 35.4478 0.583324 31.4217 0.851977 27.4426C1.09117 23.8998 1.48683 21.3412 2.13487 19.1468C2.86943 16.6594 3.95397 14.5595 5.548 12.5383C7.04982 10.6326 8.04192 9.37374 9.78497 8.21615C11.4692 7.09765 13.9222 6.02915 18.5341 4.40516L18.5425 4.40222L18.5507 4.3989C18.8179 4.29101 19.0885 4.18105 19.3623 4.06985C23.0532 2.5706 27.2365 0.871307 30.8739 0.871307C34.4589 0.871307 37.791 2.41497 40.5099 5.33541C43.1899 8.21408 45.1157 12.2354 46.079 16.9646L46.0956 17.046L46.1443 17.1136C47.8932 19.537 48.9048 21.4057 49.5268 23.362C50.1801 25.4168 50.4589 27.7004 50.4589 30.9975C50.4589 33.3604 50.4227 35.4691 49.9782 37.3469C49.5084 39.3316 48.5946 40.9837 47.1022 42.5461C44.5068 45.2653 40.3835 47.7377 35.4917 49.5081C30.7379 51.2285 25.6124 52.1759 21.0594 52.1759Z" fill="#FFFF00"/>
<path d="M30.8736 1.2591C27.3129 1.2591 23.1673 2.94307 19.5097 4.4288C19.2357 4.54011 18.9648 4.65016 18.6974 4.75814L18.6642 4.77069C9.66864 7.93825 8.86079 8.96332 5.8549 12.7774C4.29239 14.7588 3.22922 16.8174 2.50906 19.256C1.86935 21.4223 1.47828 23.9551 1.24107 27.4686C0.976509 31.3872 1.67691 35.3541 3.32282 39.2593C5.00064 43.2402 7.20293 46.0358 8.36673 47.3483C10.157 49.3704 11.6065 50.4357 13.3699 51.0254C15.2778 51.6635 17.634 51.7883 21.0591 51.7883C25.5677 51.7883 30.6458 50.8491 35.3578 49.1438C40.194 47.3936 44.2641 44.9558 46.8188 42.2793C48.2616 40.7687 49.1447 39.1733 49.598 37.2582C50.0329 35.4209 50.0683 33.3358 50.0683 30.9975C50.0683 27.7423 49.795 25.4937 49.1543 23.4788C48.5373 21.5383 47.5733 19.7596 45.8269 17.3396L45.7294 17.2045L45.6962 17.0416C44.747 12.3821 42.8545 8.42521 40.2231 5.59875C37.5799 2.75973 34.3469 1.2591 30.8736 1.2591ZM30.8736 0.483643C38.5129 0.483643 44.4983 7.25177 46.4612 16.8877C49.7774 21.483 50.8489 24.5426 50.8489 30.9975C50.8489 35.8765 50.6941 39.3486 47.385 42.8131C41.8261 48.6372 30.3592 52.5637 21.0591 52.5637C13.9396 52.5637 11.436 51.9891 7.78067 47.8605C4.33879 43.9787 -0.145514 36.419 0.462285 27.4167C0.896254 20.989 1.8964 16.5396 5.24049 12.2992C8.35106 8.35223 9.28171 7.25177 18.4035 4.03977C22.2702 2.47797 26.8841 0.483643 30.8736 0.483643Z" fill="#707070"/>
<path d="M23.0027 22.4397V28.2117H24.1727V29.5637H23.0027V31.0327L22.2097 31.7477H21.4557V29.5637H17.8027V28.4197L21.4817 22.4397H23.0027ZM21.4557 24.5197L19.2717 28.2117H21.4557V24.5197ZM26.4884 26.9117C27.0344 26.1924 27.6714 25.8327 28.3994 25.8327C29.2747 25.8327 29.9464 26.149 30.4144 26.7817C30.8044 27.293 30.9994 27.9387 30.9994 28.7187C30.9994 29.724 30.7264 30.5127 30.1804 31.0847C29.6777 31.6134 28.9974 31.8777 28.1394 31.8777C27.0474 31.8777 26.2371 31.4487 25.7084 30.5907C25.3184 29.9494 25.1234 29.1347 25.1234 28.1467V27.7827C25.1234 26.188 25.4267 24.9054 26.0334 23.9347C26.7007 22.886 27.6714 22.3617 28.9454 22.3617C29.1534 22.3617 29.4134 22.3877 29.7254 22.4397L30.2844 23.1157V23.7267C30.2411 23.718 30.1631 23.705 30.0504 23.6877C29.6344 23.6097 29.3181 23.5707 29.1014 23.5707C28.5641 23.5707 28.0831 23.7354 27.6584 24.0647C27.2337 24.3854 26.9347 24.823 26.7614 25.3777C26.6314 25.785 26.5404 26.2964 26.4884 26.9117ZM29.4134 28.7447C29.4134 28.242 29.2877 27.839 29.0364 27.5357C28.7937 27.2237 28.4687 27.072 28.0614 27.0807C27.6887 27.0807 27.3594 27.2367 27.0734 27.5487C26.7874 27.852 26.6444 28.2074 26.6444 28.6147C26.6444 29.2127 26.7701 29.685 27.0214 30.0317C27.2814 30.3784 27.6367 30.5517 28.0874 30.5517C28.4774 30.5517 28.7937 30.3827 29.0364 30.0447C29.2877 29.7067 29.4134 29.2734 29.4134 28.7447Z" fill="black"/>
</svg>
