<svg width="47" height="47" viewBox="0 0 47 47" fill="none" xmlns="http://www.w3.org/2000/svg">
<path d="M22.7426 46.4675C20.0274 46.4675 18.0031 46.0607 15.9736 45.1072C13.9424 44.1529 11.901 42.6279 9.44334 40.7335C8.22491 39.7944 7.0797 38.5312 6.0395 36.9792C5.0728 35.5369 4.21674 33.8777 3.49508 32.0477C2.14324 28.6198 1.36792 24.8309 1.36792 21.6526C1.36792 18.8946 2.26172 16.1882 4.02449 13.6084C5.6463 11.235 7.92932 9.06053 10.8101 7.1455C13.4958 5.36024 16.6217 3.8776 19.85 2.85786C23.0525 1.84627 26.2846 1.31158 29.197 1.31158C30.7375 1.31158 34.6041 1.50822 37.2293 3.32955C39.361 4.80658 40.5714 7.30175 41.153 8.50087C41.218 8.63486 41.2742 8.75058 41.325 8.85179C41.9811 10.1511 42.4109 12.5119 42.8264 14.7949C43.1555 16.6023 43.4662 18.3094 43.8904 19.6022C44.8016 22.379 45.9126 27.1313 46.0178 27.5841C46.0296 27.8836 46.1027 30.1298 45.7663 32.6147C45.3025 36.0405 44.2804 38.3722 42.8097 39.3609C42.2723 39.6279 41.7376 39.896 41.172 40.1797C35.2954 43.127 28.6347 46.4675 22.7426 46.4675Z" fill="#23BF73"/>
<path d="M29.1969 1.69917C26.3241 1.69917 23.1329 2.22756 19.9681 3.22721C16.7743 4.23605 13.6826 5.70235 11.0271 7.4676C8.18816 9.35477 5.94076 11.4941 4.34727 13.8261C2.62921 16.3404 1.75808 18.9736 1.75808 21.6525C1.75808 24.7842 2.5236 28.5215 3.85834 31.9061C4.56986 33.7103 5.41295 35.3448 6.36423 36.7642C7.38101 38.2812 8.49742 39.5136 9.68246 40.427C12.121 42.3067 14.1449 43.819 16.1404 44.7565C18.1143 45.6839 20.0887 46.0796 22.7425 46.0796C28.5416 46.0796 35.1582 42.7612 40.996 39.8334C41.5537 39.5537 42.0813 39.2891 42.6114 39.0256C43.9748 38.0937 44.9309 35.8646 45.3779 32.574C45.7007 30.197 45.6435 28.0368 45.6291 27.6353C45.4845 27.0148 44.4057 22.4235 43.5193 19.7222C43.0868 18.4043 42.7737 16.6845 42.4423 14.8638C42.0316 12.6078 41.607 10.2749 40.9758 9.02492C40.9237 8.92124 40.867 8.80437 40.8013 8.66905C40.2341 7.49965 39.0537 5.06632 37.0058 3.64729C34.4714 1.889 30.7005 1.69917 29.1969 1.69917ZM29.1969 0.923706C31.1567 0.923706 34.8688 1.21888 37.4526 3.0115C39.9027 4.70915 41.1556 7.64728 41.6741 8.67839C42.8671 11.0412 43.2923 16.5285 44.2614 19.4819C45.2305 22.4352 46.4061 27.5319 46.4061 27.5319C46.4061 27.5319 46.8683 37.1386 43.0064 39.6964C36.7539 42.8023 29.2981 46.8551 22.7425 46.8551C17.0738 46.8551 14.4285 45.0668 9.204 41.0397C3.97954 37.0127 0.977539 27.9273 0.977539 21.6525C0.977539 9.74583 17.2123 0.923706 29.1969 0.923706Z" fill="#707070"/>
<path d="M22.6365 17.2754V23.0474H23.8065V24.3994H22.6365V25.8684L21.8435 26.5834H21.0895V24.3994H17.4365V23.2554L21.1155 17.2754H22.6365ZM21.0895 19.3554L18.9055 23.0474H21.0895V19.3554ZM30.3992 17.2754V18.3934L27.4482 25.8814L26.5902 26.5834H25.4722L28.6832 18.6794H24.4972V17.2754H30.3992Z" fill="black"/>
</svg>
