<svg width="47" height="47" viewBox="0 0 47 47" fill="none" xmlns="http://www.w3.org/2000/svg">
<path d="M22.7426 46.4675C20.0274 46.4675 18.003 46.0606 15.9736 45.1071C13.9423 44.1528 11.9009 42.6279 9.44328 40.7335C8.22485 39.7943 7.07963 38.5312 6.03944 36.9791C5.07274 35.5368 4.21667 33.8776 3.49502 32.0477C2.14318 28.6197 1.36786 24.8309 1.36786 21.6526C1.36786 18.8946 2.26166 16.1881 4.02443 13.6084C5.64624 11.2349 7.92926 9.06046 10.8101 7.14543C13.4957 5.36018 16.6216 3.87754 19.8499 2.8578C23.0524 1.84621 26.2846 1.31152 29.1969 1.31152C30.7375 1.31152 34.604 1.50816 37.2292 3.32949C39.3609 4.80652 40.5713 7.30169 41.153 8.50081C41.218 8.6348 41.2741 8.75052 41.325 8.85173C41.981 10.1511 42.4108 12.5118 42.8264 14.7948C43.1554 16.6022 43.4661 18.3093 43.8904 19.6021C44.8015 22.379 45.9125 27.1313 46.0178 27.5841C46.0295 27.8835 46.1026 30.1298 45.7662 32.6147C45.3025 36.0404 44.2804 38.3722 42.8096 39.3608C42.2722 39.6278 41.7376 39.896 41.172 40.1796C35.2953 43.1269 28.6346 46.4675 22.7426 46.4675Z" fill="white"/>
<path d="M29.1969 1.69905C26.3241 1.69905 23.1329 2.22744 19.9681 3.22709C16.7743 4.23593 13.6826 5.70223 11.0271 7.46748C8.18816 9.35465 5.94076 11.4939 4.34727 13.8259C2.62921 16.3402 1.75808 18.9734 1.75808 21.6524C1.75808 24.7841 2.5236 28.5214 3.85834 31.906C4.56986 33.7102 5.41295 35.3447 6.36423 36.764C7.38101 38.2811 8.49742 39.5135 9.68246 40.4269C12.121 42.3066 14.1449 43.8189 16.1404 44.7564C18.1143 45.6838 20.0887 46.0795 22.7425 46.0795C28.5416 46.0795 35.1582 42.7611 40.996 39.8333C41.5537 39.5536 42.0813 39.289 42.6114 39.0255C43.9748 38.0935 44.9309 35.8645 45.3779 32.5739C45.7007 30.1968 45.6435 28.0367 45.6291 27.6352C45.4845 27.0147 44.4057 22.4234 43.5193 19.7221C43.0868 18.4041 42.7737 16.6844 42.4423 14.8637C42.0316 12.6076 41.607 10.2748 40.9758 9.02479C40.9237 8.92112 40.867 8.80425 40.8013 8.66893C40.2341 7.49953 39.0537 5.0662 37.0058 3.64717C34.4714 1.88888 30.7005 1.69905 29.1969 1.69905ZM29.1969 0.923584C31.1567 0.923584 34.8688 1.21876 37.4526 3.01138C39.9027 4.70903 41.1556 7.64715 41.6741 8.67826C42.8671 11.0411 43.2923 16.5284 44.2614 19.4817C45.2305 22.4351 46.4061 27.5318 46.4061 27.5318C46.4061 27.5318 46.8683 37.1385 43.0064 39.6963C36.7539 42.8022 29.2981 46.855 22.7425 46.855C17.0738 46.855 14.4285 45.0667 9.204 41.0396C3.97954 37.0125 0.977539 27.9272 0.977539 21.6524C0.977539 9.74571 17.2123 0.923584 29.1969 0.923584Z" fill="#707070"/>
<path d="M22.6365 17.2753V23.0473H23.8065V24.3993H22.6365V25.8683L21.8435 26.5833H21.0895V24.3993H17.4365V23.2553L21.1155 17.2753H22.6365ZM21.0895 19.3553L18.9055 23.0473H21.0895V19.3553ZM30.3992 17.2753V18.3933L27.4482 25.8813L26.5902 26.5833H25.4722L28.6832 18.6793H24.4972V17.2753H30.3992Z" fill="black"/>
</svg>
