<svg width="47" height="47" viewBox="0 0 47 47" fill="none" xmlns="http://www.w3.org/2000/svg">
<path d="M22.7426 46.4675C20.0274 46.4675 18.0031 46.0607 15.9736 45.1072C13.9424 44.1529 11.901 42.6279 9.44334 40.7335C8.22491 39.7943 7.0797 38.5312 6.0395 36.9792C5.0728 35.5368 4.21674 33.8777 3.49508 32.0477C2.14324 28.6198 1.36792 24.8309 1.36792 21.6526C1.36792 18.8946 2.26172 16.1882 4.02449 13.6084C5.6463 11.235 7.92932 9.06051 10.8101 7.14548C13.4958 5.36022 16.6217 3.87759 19.85 2.85784C23.0525 1.84626 26.2846 1.31157 29.197 1.31157C30.7375 1.31157 34.6041 1.5082 37.2293 3.32953C39.361 4.80657 40.5714 7.30174 41.153 8.50085C41.218 8.63484 41.2742 8.75057 41.325 8.85178C41.9811 10.1511 42.4109 12.5119 42.8264 14.7949C43.1555 16.6022 43.4662 18.3094 43.8904 19.6022C44.8016 22.379 45.9126 27.1313 46.0178 27.5841C46.0296 27.8836 46.1027 30.1298 45.7663 32.6147C45.3025 36.0404 44.2804 38.3722 42.8097 39.3609C42.2723 39.6279 41.7376 39.896 41.172 40.1797C35.2954 43.127 28.6347 46.4675 22.7426 46.4675Z" fill="#FFD700"/>
<path d="M29.1969 1.69914C26.3241 1.69914 23.1329 2.22753 19.9681 3.22718C16.7743 4.23602 13.6826 5.70232 11.0271 7.46757C8.18816 9.35474 5.94076 11.494 4.34727 13.826C2.62921 16.3403 1.75808 18.9735 1.75808 21.6525C1.75808 24.7842 2.5236 28.5215 3.85834 31.9061C4.56986 33.7103 5.41295 35.3448 6.36423 36.7641C7.38101 38.2812 8.49742 39.5136 9.68246 40.427C12.121 42.3067 14.1449 43.819 16.1404 44.7565C18.1143 45.6839 20.0887 46.0796 22.7425 46.0796C28.5416 46.0796 35.1582 42.7612 40.996 39.8334C41.5537 39.5537 42.0813 39.2891 42.6114 39.0256C43.9748 38.0936 44.9309 35.8646 45.3779 32.5739C45.7007 30.1969 45.6435 28.0368 45.6291 27.6353C45.4845 27.0148 44.4057 22.4234 43.5193 19.7222C43.0868 18.4042 42.7737 16.6845 42.4423 14.8638C42.0316 12.6077 41.607 10.2749 40.9758 9.02489C40.9237 8.92121 40.867 8.80434 40.8013 8.66902C40.2341 7.49962 39.0537 5.06629 37.0058 3.64726C34.4714 1.88897 30.7005 1.69914 29.1969 1.69914ZM29.1969 0.923676C31.1567 0.923676 34.8688 1.21885 37.4526 3.01147C39.9027 4.70912 41.1556 7.64725 41.6741 8.67836C42.8671 11.0412 43.2923 16.5285 44.2614 19.4818C45.2305 22.4352 46.4061 27.5319 46.4061 27.5319C46.4061 27.5319 46.8683 37.1385 43.0064 39.6964C36.7539 42.8023 29.2981 46.8551 22.7425 46.8551C17.0738 46.8551 14.4285 45.0668 9.204 41.0397C3.97954 37.0126 0.977539 27.9273 0.977539 21.6525C0.977539 9.7458 17.2123 0.923676 29.1969 0.923676Z" fill="#707070"/>
<path d="M22.6365 17.2753V23.0473H23.8065V24.3993H22.6365V25.8683L21.8435 26.5833H21.0895V24.3993H17.4365V23.2553L21.1155 17.2753H22.6365ZM21.0895 19.3553L18.9055 23.0473H21.0895V19.3553ZM30.3992 17.2753V18.3933L27.4482 25.8813L26.5902 26.5833H25.4722L28.6832 18.6793H24.4972V17.2753H30.3992Z" fill="black"/>
</svg>
