<svg width="48" height="47" viewBox="0 0 48 47" fill="none" xmlns="http://www.w3.org/2000/svg">
<path d="M19.9548 45.702C17.1394 45.702 16.0145 45.1092 6.66626 39.7166C4.47786 37.8487 2.83683 35.3368 1.78806 32.2497C0.860547 29.5195 0.390259 26.3334 0.390259 22.78C0.390259 19.7744 1.0682 16.8451 2.40525 14.0734C3.67782 11.4353 5.48818 9.05163 7.78606 6.98854C10.0513 4.95477 12.6545 3.35223 15.5234 2.22542C18.4635 1.07063 21.5127 0.485097 24.5864 0.485097C25.4307 0.485097 26.2761 0.459933 27.0936 0.435599C27.9171 0.411087 28.6949 0.387939 29.4777 0.387939C31.8464 0.387939 34.3544 0.579397 36.654 1.96562C37.102 2.33051 37.5541 2.68752 37.9915 3.03295C39.9318 4.56538 41.7645 6.01281 42.5804 7.63559C43.7847 10.0208 44.3807 12.0391 44.7293 17.6955L44.7315 17.7321L44.7406 17.7676C45.4047 20.3557 45.7804 21.8517 46.0547 22.944C46.4043 24.3362 46.5985 25.1093 47.0273 26.7081C47.026 29.7524 46.9061 32.2231 46.333 34.3749C46.0207 35.5473 45.5953 36.5342 45.0326 37.392C44.4256 38.3173 43.6732 39.0719 42.733 39.6982C36.6593 42.7145 30.1347 45.6562 23.0258 45.6562C22.2901 45.6562 21.6681 45.6705 21.1194 45.6832C20.6841 45.6933 20.3082 45.702 19.9548 45.702Z" fill="#23BF73"/>
<path d="M29.4777 0.775466C28.7008 0.775466 27.9258 0.798537 27.1053 0.822957C26.2849 0.847376 25.4366 0.872624 24.5864 0.872624C21.5621 0.872624 18.5611 1.44902 15.6668 2.58579C12.8416 3.69548 10.2782 5.27349 8.04773 7.27601C5.78771 9.30511 4.00772 11.6484 2.75721 14.2407C1.44558 16.9598 0.780536 19.8327 0.780536 22.7798C0.780536 26.291 1.24393 29.4353 2.15784 32.1255C3.17954 35.1329 4.77257 37.5796 6.89355 39.3991C11.4789 42.0442 14.1673 43.5833 15.9758 44.4048C17.6885 45.1828 18.5875 45.314 19.9548 45.314C20.3036 45.314 20.6775 45.3054 21.1103 45.2954C21.6612 45.2827 22.2856 45.2682 23.0258 45.2682C30.0413 45.2682 36.5104 42.3541 42.5361 39.3623C44.2505 38.2132 45.3378 36.5954 45.9557 34.2755C46.5149 32.176 46.6344 29.7491 46.637 26.7585C46.2165 25.19 46.0225 24.4174 45.676 23.0376C45.4018 21.9458 45.0263 20.4504 44.3625 17.8632L44.3443 17.7922L44.3398 17.719C43.9953 12.1304 43.4111 10.1454 42.2313 7.80865C41.454 6.26268 39.6541 4.84121 37.7486 3.33626C37.3172 2.9955 36.8714 2.64346 36.4282 2.28291C34.2167 0.958822 31.7815 0.775466 29.4777 0.775466ZM29.4777 0C32.096 0 34.5953 0.262199 36.8803 1.64837C39.3551 3.66577 41.8837 5.38206 42.9295 7.46212C44.1955 9.96934 44.7724 12.0507 45.1188 17.6716C46.6199 23.522 46.6332 23.7346 47.4176 26.6571C47.4176 32.3804 47.0273 37.3197 42.9295 40.0339C36.2949 43.3296 29.9819 46.0437 23.0258 46.0437C17.0108 46.0437 18.5377 47.013 6.43942 40.0339C1.63564 35.9534 0 29.438 0 22.7798C0 10.1456 11.8696 0.0971607 24.5864 0.0971607C26.2464 0.0971607 27.8842 0 29.4777 0Z" fill="#707070"/>
<path d="M22.8309 15.972V21.744H24.0009V23.096H22.8309V24.565L22.0379 25.28H21.2839V23.096H17.6309V21.952L21.3099 15.972H22.8309ZM21.2839 18.052L19.0999 21.744H21.2839V18.052ZM26.8496 20.483C25.7663 19.833 25.2246 19.0184 25.2246 18.039C25.2246 17.2417 25.5236 16.648 26.1216 16.258C26.581 15.9547 27.1703 15.803 27.8896 15.803C28.687 15.803 29.3283 16.0154 29.8136 16.44C30.2816 16.8474 30.5156 17.3847 30.5156 18.052C30.5156 18.9794 29.9696 19.7854 28.8776 20.47C29.5276 20.7907 29.9956 21.107 30.2816 21.419C30.6803 21.861 30.8796 22.3897 30.8796 23.005C30.8796 23.6724 30.637 24.227 30.1516 24.669C29.5796 25.189 28.8126 25.449 27.8506 25.449C26.958 25.449 26.23 25.2194 25.6666 24.76C25.1206 24.318 24.8476 23.7244 24.8476 22.979C24.8476 22.017 25.515 21.185 26.8496 20.483ZM27.9156 19.859C28.5916 19.3997 28.9296 18.7887 28.9296 18.026C28.9296 17.298 28.5786 16.934 27.8766 16.934C27.556 16.9427 27.3003 17.038 27.1096 17.22C26.9103 17.428 26.8106 17.7054 26.8106 18.052C26.8106 18.39 26.8973 18.7107 27.0706 19.014C27.244 19.326 27.5256 19.6077 27.9156 19.859ZM27.8766 21.042C27.348 21.3194 26.9753 21.5924 26.7586 21.861C26.5506 22.1297 26.4466 22.4634 26.4466 22.862C26.4466 23.7374 26.9233 24.175 27.8766 24.175C28.8473 24.175 29.3326 23.7417 29.3326 22.875C29.3326 22.1557 28.8473 21.5447 27.8766 21.042Z" fill="black"/>
</svg>
