<svg width="48" height="47" viewBox="0 0 48 47" fill="none" xmlns="http://www.w3.org/2000/svg">
<path d="M19.9549 45.702C17.1396 45.702 16.0147 45.1092 6.66638 39.7166C4.47798 37.8487 2.83695 35.3368 1.78818 32.2497C0.860669 29.5195 0.390381 26.3334 0.390381 22.78C0.390381 19.7745 1.06832 16.8451 2.40537 14.0734C3.67794 11.4353 5.4883 9.05165 7.78618 6.98856C10.0514 4.95479 12.6546 3.35225 15.5235 2.22544C18.4636 1.07064 21.5129 0.485112 24.5865 0.485112C25.4308 0.485112 26.2762 0.459949 27.0938 0.435615C27.9172 0.411102 28.695 0.387955 29.4779 0.387955C31.8465 0.387955 34.3545 0.579412 36.6541 1.96564C37.1022 2.33052 37.5542 2.68754 37.9916 3.03297C39.9319 4.56539 41.7646 6.01282 42.5805 7.6356C43.7849 10.0208 44.3808 12.0391 44.7294 17.6956L44.7317 17.7321L44.7408 17.7676C45.4048 20.3558 45.7805 21.8517 46.0548 22.944C46.4044 24.3362 46.5986 25.1093 47.0274 26.7081C47.0261 29.7524 46.9062 32.2231 46.3331 34.375C46.0208 35.5473 45.5955 36.5343 45.0327 37.3921C44.4257 38.3173 43.6733 39.0719 42.7331 39.6982C36.6595 42.7145 30.1349 45.6562 23.0259 45.6562C22.2903 45.6562 21.6683 45.6706 21.1195 45.6832C20.6842 45.6933 20.3083 45.702 19.9549 45.702Z" fill="#FFFF00"/>
<path d="M29.4777 0.775466C28.7008 0.775466 27.9258 0.798537 27.1053 0.822957C26.2849 0.847376 25.4366 0.872624 24.5864 0.872624C21.5621 0.872624 18.5611 1.44902 15.6668 2.58579C12.8416 3.69548 10.2782 5.27349 8.04773 7.27601C5.78771 9.30511 4.00772 11.6484 2.75721 14.2407C1.44558 16.9598 0.780536 19.8327 0.780536 22.7798C0.780536 26.291 1.24393 29.4353 2.15784 32.1255C3.17954 35.1329 4.77257 37.5796 6.89355 39.3991C11.4789 42.0442 14.1673 43.5833 15.9758 44.4048C17.6885 45.1828 18.5875 45.314 19.9548 45.314C20.3036 45.314 20.6775 45.3054 21.1103 45.2954C21.6612 45.2827 22.2856 45.2682 23.0258 45.2682C30.0413 45.2682 36.5104 42.3541 42.5361 39.3623C44.2505 38.2132 45.3378 36.5954 45.9557 34.2755C46.5149 32.176 46.6344 29.7491 46.637 26.7585C46.2165 25.19 46.0225 24.4174 45.676 23.0376C45.4018 21.9458 45.0263 20.4504 44.3625 17.8632L44.3443 17.7922L44.3398 17.719C43.9953 12.1304 43.4111 10.1454 42.2313 7.80865C41.454 6.26268 39.6541 4.84121 37.7486 3.33626C37.3172 2.9955 36.8714 2.64346 36.4282 2.28291C34.2167 0.958822 31.7815 0.775466 29.4777 0.775466ZM29.4777 0C32.096 0 34.5953 0.262199 36.8803 1.64837C39.3551 3.66577 41.8837 5.38206 42.9295 7.46212C44.1955 9.96934 44.7724 12.0507 45.1188 17.6716C46.6199 23.522 46.6332 23.7346 47.4176 26.6571C47.4176 32.3804 47.0273 37.3197 42.9295 40.0339C36.2949 43.3296 29.9819 46.0437 23.0258 46.0437C17.0108 46.0437 18.5377 47.013 6.43942 40.0339C1.63564 35.9534 0 29.438 0 22.7798C0 10.1456 11.8696 0.0971607 24.5864 0.0971607C26.2464 0.0971607 27.8842 0 29.4777 0Z" fill="#707070"/>
<path d="M22.8308 15.972V21.744H24.0008V23.096H22.8308V24.565L22.0378 25.28H21.2838V23.096H17.6308V21.952L21.3098 15.972H22.8308ZM21.2838 18.052L19.0998 21.744H21.2838V18.052ZM26.8495 20.483C25.7662 19.833 25.2245 19.0183 25.2245 18.039C25.2245 17.2417 25.5235 16.648 26.1215 16.258C26.5808 15.9547 27.1702 15.803 27.8895 15.803C28.6868 15.803 29.3282 16.0153 29.8135 16.44C30.2815 16.8473 30.5155 17.3847 30.5155 18.052C30.5155 18.9793 29.9695 19.7853 28.8775 20.47C29.5275 20.7907 29.9955 21.107 30.2815 21.419C30.6802 21.861 30.8795 22.3897 30.8795 23.005C30.8795 23.6723 30.6368 24.227 30.1515 24.669C29.5795 25.189 28.8125 25.449 27.8505 25.449C26.9578 25.449 26.2298 25.2193 25.6665 24.76C25.1205 24.318 24.8475 23.7243 24.8475 22.979C24.8475 22.017 25.5148 21.185 26.8495 20.483ZM27.9155 19.859C28.5915 19.3997 28.9295 18.7887 28.9295 18.026C28.9295 17.298 28.5785 16.934 27.8765 16.934C27.5558 16.9427 27.3002 17.038 27.1095 17.22C26.9102 17.428 26.8105 17.7053 26.8105 18.052C26.8105 18.39 26.8972 18.7107 27.0705 19.014C27.2438 19.326 27.5255 19.6077 27.9155 19.859ZM27.8765 21.042C27.3478 21.3193 26.9752 21.5923 26.7585 21.861C26.5505 22.1297 26.4465 22.4633 26.4465 22.862C26.4465 23.7373 26.9232 24.175 27.8765 24.175C28.8472 24.175 29.3325 23.7417 29.3325 22.875C29.3325 22.1557 28.8472 21.5447 27.8765 21.042Z" fill="black"/>
</svg>
