<svg width="46" height="49" viewBox="0 0 46 49" fill="none" xmlns="http://www.w3.org/2000/svg">
<path d="M1.35459 33.5898C2.20856 36.9565 8.07057 40.0625 13.0332 42.4034C13.8811 42.8038 25.1644 47.5989 25.1644 47.5989C25.1644 47.5989 30.2777 47.9028 31.9583 46.681C33.639 45.4593 32.7699 44.1608 38.3177 38.5908C43.8655 33.0208 43.2614 32.6857 43.9753 30.1572C45.5848 24.4671 45.6741 22.0274 43.9753 18.6182C42.2764 15.2091 36.528 9.17709 29.8643 5.37435C23.2006 1.57161 16.7988 0.785227 11.8339 1.57541C6.86906 2.36559 5.13843 5.97611 2.94899 9.04945C0.759549 12.1228 0.312107 29.4786 1.35459 33.5898Z" fill="white" stroke="#707070"/>
<path d="M23.6203 16.3207V25.1347L23.0613 25.6287H22.5153V17.6467L20.9033 18.9987L20.3183 18.2707L22.6323 16.3207H23.6203Z" fill="black"/>
</svg>
