<svg width="31" height="35" viewBox="0 0 31 35" fill="none" xmlns="http://www.w3.org/2000/svg">
<path d="M13.4642 34.0331C9.67996 34.0331 7.01313 33.2533 5.07156 31.5791C2.89638 29.7034 1.60041 26.6241 1.10958 22.1652C0.730509 18.7215 0.943579 14.889 1.70953 11.3736C2.10139 9.57511 2.62315 7.92862 3.26031 6.47984C3.92882 4.95979 4.70922 3.69441 5.57981 2.71885C6.95296 1.18015 8.51293 0.399963 10.2164 0.399963C13.7632 0.399963 16.7154 3.41161 20.8014 7.57988L21.0339 7.817C21.7702 8.56761 22.5372 9.31695 23.279 10.0416C26.6184 13.304 29.7726 16.3854 29.7726 19.1272C29.7726 20.8706 29.2483 22.6833 28.2141 24.5148C27.2598 26.2049 25.8801 27.8653 24.2242 29.3164C22.6113 30.7299 20.7761 31.9135 18.917 32.7394C17.0118 33.5857 15.1262 34.0331 13.4642 34.0331Z" fill="white"/>
<path d="M10.2163 0.779808C8.62511 0.779808 7.16002 1.51745 5.86175 2.97225C4.21151 4.82145 2.8682 7.83391 2.07929 11.4547C1.3219 14.9308 1.11112 18.7197 1.48579 22.1234C1.9656 26.4822 3.21919 29.4809 5.31821 31.2909C7.18719 32.9025 9.77564 33.6532 13.4642 33.6532C15.0738 33.6532 16.9064 33.217 18.7638 32.3919C20.5885 31.5813 22.3906 30.4189 23.9752 29.0302C25.5993 27.6069 26.9512 25.9807 27.8847 24.3275C28.8862 22.5538 29.3941 20.8041 29.3941 19.1272C29.3941 17.9997 28.7828 16.6737 27.5252 15.0737C26.3282 13.5506 24.7188 11.9783 23.0149 10.3138C22.2717 9.58772 21.5032 8.83697 20.764 8.08342L20.5315 7.84626C16.5101 3.74386 13.6045 0.779808 10.2163 0.779808ZM10.2163 0.0200195C13.9907 0.0200195 17.0417 3.20409 21.3036 7.55049C25.362 11.6876 30.1511 15.5848 30.1511 19.1272C30.1511 26.6803 20.5722 34.4129 13.4642 34.4129C6.3562 34.4129 1.77751 31.693 0.733301 22.2068C-0.3109 12.7207 3.10835 0.0200195 10.2163 0.0200195Z" fill="#707070"/>
<path d="M10.7175 11.0159V19.8299L10.1585 20.3239H9.61251V12.3419L8.00051 13.6939L7.41551 12.9659L9.72951 11.0159H10.7175ZM15.0526 20.4929C13.8999 20.4929 13.0766 19.8905 12.5826 18.6859C12.2619 17.9145 12.1016 16.9569 12.1016 15.8129C12.1016 14.3742 12.3529 13.1869 12.8556 12.2509C13.3496 11.3149 14.0819 10.8469 15.0526 10.8469C15.9973 10.8469 16.7209 11.3019 17.2236 12.2119C17.7523 13.1392 18.0166 14.3265 18.0166 15.7739C18.0166 17.1345 17.7999 18.2265 17.3666 19.0499C16.8553 20.0119 16.0839 20.4929 15.0526 20.4929ZM16.8856 15.7999C16.8856 13.1565 16.2746 11.8349 15.0526 11.8349C13.8393 11.8349 13.2326 13.1479 13.2326 15.7739C13.2326 16.8745 13.3323 17.7022 13.5316 18.2569C13.8176 19.0802 14.3246 19.4919 15.0526 19.4919C16.2746 19.4919 16.8856 18.2612 16.8856 15.7999Z" fill="black"/>
</svg>
