<svg width="32" height="37" viewBox="0 0 32 37" fill="none" xmlns="http://www.w3.org/2000/svg">
<path d="M12.6931 36.4788C9.49836 36.4788 6.55565 35.2193 4.40701 32.9322C3.32438 31.7798 2.47829 30.4085 1.89223 28.8562C1.27767 27.2284 0.966064 25.4422 0.966064 23.5474C0.966064 19.2689 1.52805 17.1837 2.72065 13.8037C3.27087 13.1869 4.03016 11.6804 4.83241 10.0886C5.53993 8.68486 6.27156 7.23329 6.82956 6.46166C7.76579 5.16632 9.19481 3.69906 10.6523 2.53666C12.1245 1.36247 13.4278 0.661468 14.1387 0.661468L14.3553 0.661331L14.5885 0.661194C16.7326 0.661194 19.1645 0.744854 20.8892 1.74379C23.8653 3.46432 26.1791 5.30979 27.9631 7.38579C29.0108 8.60499 29.7381 10.2641 30.2519 12.607C30.7475 14.8664 31.0638 17.8777 31.2475 22.0831C31.2455 23.8832 30.5905 25.715 29.3005 27.5276C28.1447 29.1517 26.4685 30.748 24.4533 32.144C22.5806 33.4411 20.4681 34.5369 18.3441 35.3129C16.2566 36.0756 14.3025 36.4788 12.6931 36.4788Z" fill="white"/>
<path d="M14.5883 1.0411L14.1386 1.04137C13.6758 1.04137 12.5467 1.51088 10.8876 2.83408C9.45556 3.97625 8.05305 5.41571 7.13579 6.68481C6.59555 7.43186 5.87088 8.86966 5.17007 10.2601C4.3472 11.8927 3.62902 13.3176 3.05339 13.9985C1.86579 17.3701 1.34447 19.3363 1.34447 23.5474C1.34447 25.3961 1.64781 27.1369 2.24608 28.7216C2.81438 30.2268 3.63404 31.5558 4.6823 32.6716C6.75868 34.8817 9.60358 36.0989 12.6929 36.0989C14.2587 36.0989 16.1681 35.7037 18.2145 34.956C20.3087 34.1908 22.3916 33.1103 24.2381 31.8313C26.2177 30.4601 27.8617 28.8956 28.9924 27.3068C30.2337 25.5626 30.8649 23.808 30.8689 22.0911C30.6861 17.9125 30.3725 14.9246 29.8821 12.6887C29.3823 10.4097 28.6814 8.80351 27.6763 7.63391C25.9206 5.59077 23.6387 3.77182 20.6999 2.07284C18.9186 1.04111 16.2079 1.04111 14.5883 1.0411ZM14.5883 0.281311C16.4938 0.281317 19.1926 0.322581 21.0783 1.41478C23.3748 2.7424 26.0739 4.60583 28.2496 7.1377C30.4253 9.66957 31.2735 13.9938 31.6259 22.075C31.6259 30.0477 19.3828 36.8587 12.6929 36.8587C6.00306 36.8587 0.587402 31.5201 0.587402 23.5474C0.587402 19.1783 1.15804 17.0869 2.38994 13.6026C3.36129 12.602 5.30077 7.92878 6.52308 6.23853C8.49055 3.51639 12.3999 0.281583 14.1386 0.281583C14.2827 0.281583 14.4327 0.281311 14.5883 0.281311Z" fill="#707070"/>
<path d="M14.4294 11.3291V20.1431L13.8704 20.6371H13.3244V12.6551L11.7124 14.0071L11.1274 13.2791L13.4414 11.3291H14.4294ZM19.0505 11.3291V20.1431L18.4915 20.6371H17.9455V12.6551L16.3335 14.0071L15.7485 13.2791L18.0625 11.3291H19.0505Z" fill="black"/>
</svg>
