<svg width="46" height="42" viewBox="0 0 46 42" fill="none" xmlns="http://www.w3.org/2000/svg">
<path d="M23.7605 5.10451C23.7606 5.10444 23.7603 5.10458 23.7605 5.10451C25.1245 4.60562 26.2747 4.34857 27.0864 4.36126C30.7304 4.41613 33.6913 6.53307 35.5335 8.29929C37.6769 10.3543 39.499 13.0788 40.4076 15.5872C41.9098 19.7346 42.0608 25.5787 39.0118 29.2856C37.7314 30.8451 35.8933 31.7366 33.3425 32.6695C32.8764 32.84 32.4014 33.0074 31.8985 33.1846C31.374 33.3695 30.8316 33.5606 30.2767 33.7636C25.291 35.5871 23.2608 36.0201 18.4779 35.5926L18.2903 35.5759C15.5983 35.3363 14.1154 35.2043 12.706 34.5687C11.2587 33.916 9.82049 32.6742 7.51367 30.4654C5.76521 28.2959 5.04981 26.1813 5.32687 24.0015C5.56649 22.1161 6.48607 20.3943 7.57343 18.4994C9.32972 15.4355 11.4582 12.8647 13.8997 10.8585C16.7606 8.50765 20.6313 6.24897 23.7605 5.10451Z" fill="white"/>
<path d="M23.8896 5.46124C20.7972 6.59227 16.97 8.82605 14.1393 11.1521C11.7335 13.129 9.63481 15.6645 7.90144 18.6885C6.83481 20.5472 5.93311 22.2335 5.70237 24.0489C5.5771 25.0345 5.65984 25.9768 5.95532 26.9294C6.28734 27.9999 6.90552 29.1026 7.79301 30.2076C10.0584 32.3761 11.468 33.594 12.8617 34.2225C14.2129 34.8319 15.6733 34.9619 18.3244 35.1978L18.5121 35.2145C23.2214 35.6355 25.2242 35.2077 30.1475 33.4071C30.7045 33.2033 31.2479 33.0118 31.7735 32.8266C32.2753 32.6497 32.7492 32.4827 33.2133 32.3129C35.7041 31.402 37.494 30.5375 38.7198 29.0444C40.0478 27.43 40.8463 25.2313 41.0292 22.686C41.1942 20.3884 40.8471 17.9136 40.0516 15.7175C39.1619 13.2612 37.375 10.5907 35.2715 8.57401C33.4782 6.85467 30.6014 4.79399 27.0798 4.74095C26.3139 4.72898 25.2107 4.97809 23.8896 5.46124ZM23.6313 4.74784C24.9939 4.24949 26.1981 3.96768 27.0929 3.98166C33.7453 4.08185 39.0903 10.8378 40.7635 15.4571C42.3567 19.8558 42.3796 25.7875 39.3037 29.527C37.3406 31.918 34.1773 32.741 30.4059 34.1204C25.3634 35.9647 23.2784 36.4031 18.4435 35.9709C12.8601 35.4734 12.1817 35.4622 7.2343 30.7236C3.16097 25.6858 5.21559 21.8474 7.24523 18.3106C9.32809 14.6769 11.6169 12.2438 13.6599 10.565C16.627 8.1269 20.5379 5.87922 23.6313 4.74784Z" fill="#707070"/>
<path d="M21.3597 13.9217V22.5277L20.5537 23.2297H19.7737V15.7287L18.2657 17.0027L17.5117 16.0537L20.0337 13.9217H21.3597ZM23.0687 14.6237C23.892 14.0864 24.724 13.8177 25.5647 13.8177C26.4054 13.8177 27.0467 14.0647 27.4887 14.5587C27.8787 14.9834 28.0737 15.5511 28.0737 16.2617C28.0737 16.7904 27.948 17.3104 27.6967 17.8217C27.4454 18.3331 27.0077 18.9701 26.3837 19.7327C25.6817 20.5821 25.2917 21.0457 25.2137 21.1237L24.4467 21.9037H28.2557V22.4237L27.6057 23.2297H22.6787V21.9037L23.6407 20.9157L24.5767 19.8497C25.296 19.0524 25.7597 18.5021 25.9677 18.1987C26.4097 17.5661 26.6307 17.0071 26.6307 16.5217C26.6307 16.1404 26.505 15.8327 26.2537 15.5987C26.011 15.3561 25.6904 15.2347 25.2917 15.2347C24.8237 15.2347 24.347 15.4037 23.8617 15.7417L23.0687 14.6237Z" fill="black"/>
</svg>
