<svg width="49" height="43" viewBox="0 0 49 43" fill="none" xmlns="http://www.w3.org/2000/svg">
<path d="M21.3746 7.06924L21.3756 7.06889C25.0089 5.74019 29.1204 4.97652 30.9964 5.00583C32.5145 5.02869 33.9911 5.38262 35.3852 6.05777C36.6351 6.66305 37.8265 7.52867 38.9266 8.63058C40.7606 10.4677 42.3531 13.014 43.2958 15.6166C44.049 17.6962 44.2219 20.253 43.7827 22.8161C43.3393 25.403 42.3036 27.79 40.8663 29.5373C39.2863 31.4619 37.6012 32.1753 35.0138 33.1216C34.7399 33.2218 34.4559 33.3244 34.1612 33.4308C33.8422 33.5461 33.5106 33.6659 33.1653 33.7921C28.1382 35.6307 20.8878 35.7945 16.2065 35.376C10.6359 34.8797 7.34048 33.0164 6.13191 29.6798C5.53925 28.0436 5.40547 26.0815 5.74502 24.0058C6.06212 22.0671 6.77088 20.0994 7.79464 18.3154C9.77145 14.8668 13.1868 12.0644 15.2275 10.3901L15.4429 10.2132C16.841 9.06435 18.8924 7.9771 21.3746 7.06924Z" fill="white"/>
<path d="M21.5042 7.42613C19.0614 8.31955 17.0485 9.38486 15.683 10.5069L15.4673 10.684C13.4469 12.3418 10.0653 15.1165 8.12312 18.5046C7.12184 20.2494 6.42883 22.1728 6.11902 24.0669C5.78994 26.0786 5.9176 27.9746 6.4882 29.5499C7.64153 32.7341 10.8317 34.5162 16.2411 34.9982C20.8837 35.4132 28.068 35.253 33.0366 33.4358C33.3823 33.3094 33.7144 33.1894 34.0339 33.074C34.3281 32.9677 34.6116 32.8653 34.8851 32.7653C37.412 31.8411 39.0559 31.1465 40.5749 29.2964C41.9707 27.5994 42.9776 25.2755 43.41 22.7527C43.8383 20.2537 43.6715 17.7657 42.9403 15.7471C42.0158 13.1947 40.4554 10.6989 38.6592 8.89966C37.5892 7.82776 36.4322 6.98673 35.2205 6.39993C33.8763 5.74895 32.4532 5.4077 30.9902 5.38567C29.1487 5.35691 25.0969 6.11228 21.5042 7.42613ZM21.2469 6.71244C25.0849 5.30886 29.1647 4.5977 31.0034 4.62642C37.6555 4.7266 41.9791 10.8676 43.6522 15.4867C45.2454 19.8852 44.2345 26.0396 41.1587 29.7789C39.1957 32.1699 37.0663 32.7698 33.2949 34.1491C28.2526 35.9933 21.0073 36.1867 16.1726 35.7545C10.5894 35.2571 7.06491 33.3677 5.77637 29.8103C4.47285 26.2115 5.43737 21.6634 7.46692 18.1268C9.54971 14.4933 13.1607 11.5986 15.2037 9.9199C16.792 8.61472 18.9768 7.54259 21.2469 6.71244Z" fill="#707070"/>
<path d="M22.6843 14.0338V22.8478L22.1253 23.3418H21.5793V15.3598L19.9673 16.7118L19.3823 15.9838L21.6963 14.0338H22.6843ZM24.7574 14.1768C25.3207 14.0035 25.7801 13.9168 26.1354 13.9168C27.0021 13.9168 27.6954 14.1421 28.2154 14.5928C28.7094 15.0261 28.9564 15.6068 28.9564 16.3348C28.9564 17.5568 28.4147 18.2891 27.3314 18.5318C27.9554 18.6358 28.4451 18.9001 28.8004 19.3248C29.1644 19.7495 29.3464 20.2738 29.3464 20.8978C29.3464 21.7991 28.9954 22.4838 28.2934 22.9518C27.7561 23.3071 27.0844 23.4848 26.2784 23.4848C25.7584 23.4848 25.2384 23.4111 24.7184 23.2638L24.3024 22.7438V22.3408C24.9004 22.4708 25.4247 22.5358 25.8754 22.5358C27.4441 22.5358 28.2284 22.0071 28.2284 20.9498C28.2284 20.3778 27.9901 19.8968 27.5134 19.5068C27.2447 19.2901 26.9587 19.1428 26.6554 19.0648C26.3607 18.9781 25.9231 18.9305 25.3424 18.9218V18.0768H26.4474C26.8634 18.0768 27.2014 17.9425 27.4614 17.6738C27.7301 17.3965 27.8644 17.0411 27.8644 16.6078C27.8644 16.0965 27.6954 15.6935 27.3574 15.3988C27.0194 15.0955 26.5601 14.9438 25.9794 14.9438C25.6934 14.9438 25.2861 15.0001 24.7574 15.1128V14.1768Z" fill="black"/>
</svg>
