<svg width="50" height="52" viewBox="0 0 50 52" fill="none" xmlns="http://www.w3.org/2000/svg">
<path d="M20.0971 51.1584C16.0187 51.1584 12.2585 50.1276 9.22307 48.1772C6.11139 46.1779 3.85383 43.257 2.69447 39.7302C1.44899 35.9452 0.675302 30.784 0.675302 26.2607C0.675302 26.1276 0.674765 25.9919 0.67422 25.8536C0.667588 24.1809 0.659336 22.0991 1.63073 19.6525C2.77828 16.7623 5.0352 13.9573 8.53017 11.078C12.7128 8.26416 16.2228 6.11965 19.2598 4.52237C22.9592 2.57677 26.0176 1.39786 28.61 0.918285C29.4974 0.754049 30.405 0.670776 31.3077 0.670776C33.5775 0.670776 35.853 1.18171 38.071 2.18938C38.8595 2.54758 40.0402 3.15441 41.1872 4.0111L41.2299 4.04283C43.2417 5.52238 45.31 8.04825 46.2597 10.1854C47.5356 13.0512 47.6875 14.6097 47.939 17.1916C48.1163 19.0119 48.3368 21.2757 49.0267 24.7916C49.0281 25.6386 49.0771 26.5671 49.1289 27.5492C49.2682 30.1928 49.4262 33.1891 48.6106 35.0545C46.5644 39.74 40.543 42.8112 34.9227 45.1976L34.909 45.2034L34.8957 45.2103C34.1849 45.5807 33.4809 45.9527 32.8 46.3124C27.878 48.9127 23.6271 51.1584 20.0971 51.1584Z" fill="white"/>
<path d="M20.097 50.7785C23.5335 50.7785 27.746 48.553 32.6236 45.9762C33.3049 45.6162 34.0094 45.244 34.7212 44.8731L34.7477 44.8593L34.7751 44.8477C40.3268 42.4904 46.2709 39.4654 48.2639 34.9018C49.0433 33.119 48.8879 30.1706 48.7507 27.5692C48.6995 26.5962 48.6509 25.6756 48.6482 24.829C47.9603 21.3157 47.7396 19.0507 47.5621 17.2285C47.3144 14.685 47.1648 13.1497 45.9139 10.34C44.9883 8.25715 42.9702 5.79367 41.0059 4.34912C40.9945 4.3407 40.9795 4.32955 40.9611 4.31582C39.8411 3.47931 38.6863 2.88591 37.9148 2.5354C35.7461 1.55017 33.5231 1.05062 31.3076 1.05062C30.4279 1.05062 29.5434 1.13177 28.6785 1.29183C26.1241 1.76439 23.1006 2.93116 19.4354 4.85881C16.4142 6.44773 12.9206 8.58213 8.75611 11.3832C5.32009 14.2166 3.10396 16.968 1.98227 19.7931C1.03806 22.1712 1.04614 24.2122 1.05264 25.8521C1.05319 25.9909 1.05373 26.1271 1.05373 26.2606C1.05373 30.7462 1.8201 35.8618 3.05384 39.6111C4.18564 43.0541 6.38947 45.9055 9.42706 47.8572C12.4015 49.7683 16.0911 50.7785 20.097 50.7785ZM20.097 51.5383C11.7806 51.5383 4.79239 47.3248 2.33489 39.8492C0.976774 35.7219 0.296662 30.503 0.296662 26.2606C0.296662 22.8329 -0.0614994 17.6586 8.3041 10.7726C15.6856 5.80588 22.9233 1.58394 28.5413 0.54463C35.6438 -0.769797 41.0432 3.43432 41.4537 3.73644C43.4442 5.20029 45.5995 7.76719 46.6053 10.0306C48.8175 14.9993 47.7253 16.2123 49.4051 24.7543C49.4051 27.9518 50.1157 32.5571 48.9571 35.2071C46.8753 39.9741 40.8937 43.0747 35.0701 45.5474C29.2464 48.5821 24.2236 51.5383 20.097 51.5383Z" fill="#707070"/>
<path d="M22.0505 20.5097V29.3237L21.4915 29.8177H20.9455V21.8357L19.3335 23.1877L18.7485 22.4597L21.0625 20.5097H22.0505ZM28.1666 20.5097V26.5547H29.5446V27.5557H28.1666V29.3237L27.6076 29.8177H27.0616V27.5557H23.2526V26.5807L26.9706 20.5097H28.1666ZM27.0616 21.9657L24.3446 26.5547H27.0616V21.9657Z" fill="black"/>
</svg>
