<svg width="45" height="47" viewBox="0 0 45 47" fill="none" xmlns="http://www.w3.org/2000/svg">
<path d="M42.7687 32.4413C41.9677 35.6005 36.4661 38.5158 31.8094 40.7139C31.0137 41.09 20.4253 45.5894 20.4253 45.5894C20.4253 45.5894 16.2236 46.7352 14.6466 45.5894C14.2143 45.2756 10.9946 43.5707 10.5698 42.7281C9.75915 40.888 9.10717 38.9816 8.62113 37.0297C3.91594 33.2391 2.50478 31.949 1.83477 29.5777C0.482006 25.1891 0.793153 20.4536 2.70842 16.2814C3.64265 14.407 5.50052 13.5195 8.62191 10.7197C10.5388 8.99956 13.4232 7.44427 16.0116 5.96724C18.7818 4.38612 20.5616 3.06332 23.2038 2.14094C26.0985 1.15282 29.1783 0.83465 32.2129 1.21022C36.8719 1.94873 39.1689 5.32217 41.222 8.20633C41.7929 9.38172 41.6445 11.282 42.02 17.0389C42.2153 20.0385 43.0443 23.6582 43.4781 26.4831C43.8112 28.6477 43.0185 31.4566 42.7687 32.4413Z" fill="white" stroke="#707070"/>
<path d="M19.1401 16.292V25.106L18.5811 25.6H18.0351V17.618L16.4231 18.97L15.8381 18.242L18.1521 16.292H19.1401ZM25.0612 16.292V17.228H22.0322L21.8762 20.101C22.2749 20.0404 22.5912 20.01 22.8252 20.01C23.7872 20.01 24.5282 20.3047 25.0482 20.894C25.4989 21.4054 25.7242 22.0857 25.7242 22.935C25.7242 23.8884 25.3905 24.6077 24.7232 25.093C24.1945 25.483 23.5012 25.678 22.6432 25.678C22.1232 25.678 21.6032 25.6 21.0832 25.444L20.6672 24.937V24.534C21.2652 24.6554 21.7895 24.716 22.2402 24.716C23.0462 24.716 23.6355 24.586 24.0082 24.326C24.4242 24.04 24.6322 23.5677 24.6322 22.909C24.6322 21.5917 23.8565 20.933 22.3052 20.933C21.9412 20.933 21.4125 20.972 20.7192 21.05L20.9792 16.292H25.0612Z" fill="black"/>
</svg>
