<svg width="46" height="48" viewBox="0 0 46 48" fill="none" xmlns="http://www.w3.org/2000/svg">
<path d="M44.8813 32.8301C44.0274 36.1967 38.1654 39.3027 33.2028 41.6437C32.3549 42.0441 21.0715 46.8391 21.0715 46.8391C21.0715 46.8391 15.9583 47.143 14.2776 45.9213C12.5969 44.6995 13.466 43.401 7.91819 37.831C2.37039 32.261 2.97456 31.926 2.26065 29.3974C0.65112 23.7073 0.561786 21.2677 2.26065 17.8585C3.95951 14.4493 9.70791 8.41732 16.3716 4.61458C23.0354 0.811842 29.4372 0.0254613 34.402 0.815641C39.3669 1.60582 41.0975 5.21634 43.2869 8.28968C45.4764 11.363 45.9238 28.7189 44.8813 32.8301Z" fill="white" stroke="#707070"/>
<path d="M21.3188 17.4296V26.2436L20.7598 26.7376H20.2138V18.7556L18.6018 20.1076L18.0168 19.3796L20.3308 17.4296H21.3188ZM23.9379 22.0836C24.4926 21.3643 25.1469 21.0046 25.9009 21.0046C26.7763 21.0046 27.4436 21.3209 27.9029 21.9536C28.2669 22.4649 28.4489 23.1106 28.4489 23.8906C28.4489 24.8439 28.1759 25.5979 27.6299 26.1526C27.1273 26.6466 26.4686 26.8936 25.6539 26.8936C23.8079 26.8936 22.8849 25.6803 22.8849 23.2536V22.7596C22.8849 21.1823 23.1969 19.8996 23.8209 18.9116C24.4883 17.8456 25.4503 17.3126 26.7069 17.3126C26.8629 17.3126 27.0536 17.3213 27.2789 17.3386L27.7209 17.8846V18.2876C27.3743 18.2356 27.0883 18.2096 26.8629 18.2096C25.1903 18.2096 24.2153 19.5009 23.9379 22.0836ZM27.3309 23.8386C27.3309 23.2926 27.1836 22.8419 26.8889 22.4866C26.6029 22.1226 26.2346 21.9406 25.7839 21.9406C25.2986 21.9406 24.8523 22.1443 24.4449 22.5516C24.0896 22.9069 23.9119 23.2926 23.9119 23.7086C23.9119 24.3499 24.0766 24.8786 24.4059 25.2946C24.7266 25.6933 25.1513 25.8926 25.6799 25.8926C26.1653 25.8926 26.5596 25.7063 26.8629 25.3336C27.1749 24.9523 27.3309 24.4539 27.3309 23.8386Z" fill="black"/>
</svg>
