<svg width="48" height="47" viewBox="0 0 48 47" fill="none" xmlns="http://www.w3.org/2000/svg">
<path d="M28.046 46.2528C28.0458 46.2528 28.0461 46.2528 28.046 46.2528C27.6926 46.2527 27.3164 46.2441 26.8812 46.234C26.3323 46.2213 25.7102 46.2069 24.9744 46.2069C17.8655 46.2069 11.3409 43.2653 5.26722 40.249C4.32703 39.6227 3.57464 38.8681 2.96763 37.9428C2.40488 37.085 1.97952 36.0981 1.66726 34.9257C1.09414 32.7739 0.974201 30.3032 0.9729 27.2589C1.4018 25.6599 1.59597 24.8868 1.94563 23.4944C2.21994 22.4022 2.5956 20.9063 3.25958 18.3184L3.26869 18.2829L3.27094 18.2463C3.61952 12.5899 4.21549 10.5716 5.41954 8.18696C6.23573 6.56361 8.06843 5.11618 10.0087 3.58376C10.4461 3.23833 10.8982 2.8813 11.3462 2.51641C13.6458 1.13018 16.1538 0.938721 18.5224 0.938721C19.3053 0.938721 20.0831 0.961876 20.9066 0.986388C21.7241 1.01072 22.5695 1.03589 23.4138 1.03589C26.4875 1.03589 29.5367 1.62142 32.4769 2.77621C35.3457 3.90302 37.9489 5.50556 40.2142 7.53932C42.512 9.60241 44.3224 11.9861 45.595 14.6242C46.932 17.3959 47.61 20.3252 47.61 23.3308C47.61 26.8842 47.1397 30.0703 46.2122 32.8005C45.1634 35.8876 43.5224 38.3995 41.334 40.2673C31.9862 45.6597 30.8608 46.2528 28.046 46.2528Z" fill="white"/>
<path d="M18.5219 1.32637C16.2183 1.32637 13.7831 1.50973 11.5716 2.83381C11.1285 3.19436 10.6827 3.5464 10.2513 3.88717C8.34574 5.39211 6.5459 6.81359 5.76803 8.36074C4.58875 10.6963 4.00454 12.6813 3.66013 18.2699L3.65563 18.3431L3.6374 18.4141C2.97367 21.001 2.59813 22.4964 2.32393 23.5883C1.9774 24.9681 1.78337 25.7408 1.36286 27.3094C1.36546 30.3 1.48501 32.7269 2.04421 34.8264C2.66207 37.1463 3.74936 38.7641 5.46379 39.9132C11.4895 42.905 17.9586 45.8191 24.9741 45.8191C25.7143 45.8191 26.3387 45.8336 26.8896 45.8463C27.3224 45.8563 27.6962 45.8649 28.0451 45.8649C29.4124 45.8649 30.3114 45.7337 32.0241 44.9557C33.8326 44.1342 36.521 42.5951 41.1063 39.95C43.2273 38.1305 44.8203 35.6838 45.842 32.6764C46.756 29.9862 47.2193 26.8419 47.2193 23.3307C47.2193 20.3836 46.5543 17.5107 45.2427 14.7916C43.9922 12.1993 42.2122 9.85602 39.9522 7.82691C37.7217 5.82439 35.1583 4.24638 32.333 3.1367C29.4388 1.99992 26.4378 1.42353 23.4135 1.42353C22.5633 1.42353 21.7149 1.39828 20.8945 1.37386C20.074 1.34944 19.299 1.32637 18.5219 1.32637ZM18.5221 0.550903C20.1157 0.550912 21.7535 0.648064 23.4135 0.648064C36.1303 0.648064 47.9999 10.6965 47.9999 23.3307C47.9999 29.9889 46.3642 36.5043 41.5605 40.5848C29.4622 47.5639 30.9891 46.5946 24.9741 46.5946C18.018 46.5946 11.705 43.8805 5.07036 40.5848C0.972543 37.8706 0.582275 32.9313 0.582275 27.208C1.36671 24.2855 1.38002 24.0729 2.88105 18.2226C3.22745 12.6016 3.80439 10.5202 5.07036 8.01303C6.11617 5.93296 8.64475 4.21668 11.1196 2.19928C13.4046 0.8131 15.9039 0.550886 18.5221 0.550903Z" fill="#707070"/>
<path d="M22.1475 16.5229V25.1289L21.3415 25.8309H20.5615V18.3299L19.0535 19.6039L18.2995 18.6549L20.8215 16.5229H22.1475ZM29.3425 16.5229V17.6409L26.3915 25.1289L25.5335 25.8309H24.4155L27.6265 17.9269H23.4405V16.5229H29.3425Z" fill="black"/>
</svg>
