<svg width="48" height="47" viewBox="0 0 48 47" fill="none" xmlns="http://www.w3.org/2000/svg">
<path d="M25.09 46.0207C19.4702 46.0207 12.9345 42.6985 7.16812 39.7674C6.31914 39.3359 5.5165 38.9279 4.72406 38.5339C3.52834 37.5806 2.61163 36.436 1.99901 35.1315C1.50324 34.0758 1.20299 32.9112 1.10659 31.67C0.941007 29.538 1.44114 27.8986 1.44621 27.8823L1.45001 27.8701L1.45311 27.8572L3.63731 18.7376L3.64051 18.7242L3.64275 18.7106C3.6566 18.6268 5.0409 10.3015 6.19378 8.01822C6.24496 7.91642 6.30109 7.80071 6.36608 7.66674C6.94775 6.46761 8.1581 3.97242 10.2896 2.49551C12.915 0.674051 16.7816 0.477417 18.3221 0.477417C24.2108 0.477417 31.3722 2.8717 37.0117 6.72591C39.9338 8.72302 42.3547 11.0582 44.0127 13.4789C45.8389 16.1454 46.7649 18.8957 46.7649 21.6532C46.7649 24.8438 46.0114 28.6059 44.6976 31.9748C43.662 34.6305 41.7999 38.28 38.8103 40.5844C35.9437 42.794 33.9958 44.0158 32.087 44.8015C30.0386 45.6447 27.8806 46.0207 25.09 46.0207Z" fill="white"/>
<path d="M18.3218 0.864941C16.8182 0.864941 13.0473 1.05477 10.5126 2.81333C8.46499 4.23209 7.28463 6.66543 6.71737 7.83484C6.65174 7.97015 6.59505 8.08702 6.54233 8.19187C5.416 10.4225 4.04135 18.69 4.02759 18.7732L4.0231 18.8004L1.81845 27.9976C1.81364 28.013 1.33899 29.5582 1.49336 31.613C1.58341 32.8118 1.87009 33.9354 2.34542 34.9525C2.92711 36.1972 3.79846 37.2913 4.93596 38.2057C5.71779 38.5946 6.50922 38.9969 7.34564 39.4221C13.0727 42.3332 19.564 45.6328 25.0897 45.6328C27.8636 45.6328 29.9115 45.277 31.9373 44.4431C33.8118 43.6716 35.7336 42.4648 38.5708 40.2778C39.7554 39.3647 40.8654 38.1404 41.8698 36.6389C42.8087 35.2354 43.6376 33.619 44.3334 31.8345C45.6305 28.5086 46.3743 24.7976 46.3743 21.653C46.3743 18.9747 45.4711 16.2978 43.6897 13.6968C42.0587 11.3154 39.6729 9.01531 36.7902 7.04515C31.2124 3.23306 24.1357 0.864941 18.3218 0.864941ZM18.3218 0.0894775C30.3064 0.0894775 47.1549 9.74637 47.1549 21.653C47.1549 27.9278 44.2738 36.8634 39.0493 40.8905C33.8248 44.9176 30.7584 46.4083 25.0897 46.4083C18.5341 46.4083 10.7649 41.9681 4.51229 38.8622C-1.02834 34.478 1.07315 27.7673 1.07315 27.7673L3.25736 18.6476C3.25736 18.6476 4.65158 10.207 5.84466 7.84416C6.36308 6.81304 7.61602 3.87492 10.0661 2.17728C12.6499 0.384648 16.362 0.0894775 18.3218 0.0894775Z" fill="#707070"/>
<path d="M20.2205 16.7872V25.3932L19.4145 26.0952H18.6345V18.5942L17.1265 19.8682L16.3725 18.9192L18.8945 16.7872H20.2205ZM23.6715 21.2982C22.5882 20.6482 22.0465 19.8335 22.0465 18.8542C22.0465 18.0569 22.3455 17.4632 22.9435 17.0732C23.4029 16.7699 23.9922 16.6182 24.7115 16.6182C25.5089 16.6182 26.1502 16.8305 26.6355 17.2552C27.1035 17.6625 27.3375 18.1999 27.3375 18.8672C27.3375 19.7945 26.7915 20.6005 25.6995 21.2852C26.3495 21.6059 26.8175 21.9222 27.1035 22.2342C27.5022 22.6762 27.7015 23.2049 27.7015 23.8202C27.7015 24.4875 27.4589 25.0422 26.9735 25.4842C26.4015 26.0042 25.6345 26.2642 24.6725 26.2642C23.7799 26.2642 23.0519 26.0345 22.4885 25.5752C21.9425 25.1332 21.6695 24.5395 21.6695 23.7942C21.6695 22.8322 22.3369 22.0002 23.6715 21.2982ZM24.7375 20.6742C25.4135 20.2149 25.7515 19.6039 25.7515 18.8412C25.7515 18.1132 25.4005 17.7492 24.6985 17.7492C24.3779 17.7579 24.1222 17.8532 23.9315 18.0352C23.7322 18.2432 23.6325 18.5205 23.6325 18.8672C23.6325 19.2052 23.7192 19.5259 23.8925 19.8292C24.0659 20.1412 24.3475 20.4229 24.7375 20.6742ZM24.6985 21.8572C24.1699 22.1345 23.7972 22.4075 23.5805 22.6762C23.3725 22.9449 23.2685 23.2785 23.2685 23.6772C23.2685 24.5525 23.7452 24.9902 24.6985 24.9902C25.6692 24.9902 26.1545 24.5569 26.1545 23.6902C26.1545 22.9709 25.6692 22.3599 24.6985 21.8572Z" fill="black"/>
</svg>
