<svg width="51" height="54" viewBox="0 0 51 54" fill="none" xmlns="http://www.w3.org/2000/svg">
<path d="M30.1505 52.6252C25.5975 52.6252 20.472 51.6777 15.7182 49.9573C10.8263 48.187 6.70305 45.7145 4.10782 42.9955C2.61533 41.4329 1.70144 39.7808 1.23165 37.7961C0.787147 35.9183 0.750977 33.8096 0.750977 31.4467C0.750977 28.1496 1.02974 25.8661 1.68309 23.8112C2.30513 21.8549 3.3167 19.9862 5.06554 17.5628L5.11428 17.4953L5.13088 17.4138C6.09423 12.6846 8.02001 8.66333 10.7 5.78466C13.4189 2.86422 16.751 1.32056 20.336 1.32056C23.9734 1.32056 28.1567 3.01984 31.8475 4.51908C32.1213 4.6303 32.392 4.74025 32.6591 4.84814L32.6674 4.85146L32.6757 4.8544C37.2877 6.47839 39.7407 7.54689 41.4249 8.6654C43.168 9.82298 44.1601 11.0819 45.6618 12.9874C47.2559 15.0088 48.3404 17.1087 49.075 19.5961C49.723 21.7905 50.1187 24.349 50.3579 27.8918C50.6266 31.871 49.9163 35.897 48.2467 39.8582C46.5474 43.8902 44.3153 46.7234 43.1361 48.0534C41.2964 50.1312 39.7981 51.2287 37.9642 51.842C36.0056 52.497 33.6161 52.6252 30.1505 52.6252Z" fill="white"/>
<path d="M20.3359 1.70808C16.8625 1.70808 13.6295 3.2087 10.9864 6.04773C8.355 8.87419 6.46243 12.831 5.51328 17.4905L5.48009 17.6535L5.3826 17.7886C3.63618 20.2086 2.67214 21.9873 2.05512 23.9278C1.41448 25.9427 1.14113 28.1913 1.14113 31.4465C1.14113 33.7848 1.17652 35.8698 1.61144 37.7072C2.06474 39.6222 2.94787 41.2177 4.39089 42.7285C6.94534 45.4048 11.0155 47.8426 15.8516 49.5928C20.5637 51.2981 25.6418 52.2372 30.1504 52.2372C33.5755 52.2372 35.9317 52.1124 37.8396 51.4744C39.6029 50.8847 41.0524 49.8193 42.8431 47.7969C44.0065 46.4848 46.2088 43.6891 47.8867 39.7082C49.5326 35.8031 50.233 31.8361 49.9684 27.9176C49.7312 24.4041 49.3401 21.8712 48.7004 19.705C47.9802 17.2663 46.9171 15.2077 45.3544 13.2262C42.3487 9.41229 41.5408 8.38722 32.5452 5.21966L32.512 5.20711C32.2447 5.09914 31.9738 4.98911 31.6998 4.87781C28.0422 3.39206 23.8966 1.70808 20.3359 1.70808ZM20.3359 0.932617C24.3253 0.932617 28.9392 2.92694 32.806 4.48875C41.9277 7.70074 42.8584 8.80121 45.969 12.7482C49.3131 16.9886 50.3132 21.438 50.7472 27.8657C51.355 36.8679 46.8707 44.4277 43.4288 48.3095C39.7734 52.4381 37.2698 53.0127 30.1504 53.0127C20.8503 53.0127 9.38337 49.0861 3.82451 43.2621C0.515367 39.7976 0.360596 36.3254 0.360596 31.4465C0.360596 24.9915 1.43203 21.932 4.74825 17.3367C6.71112 7.70074 12.6966 0.932617 20.3359 0.932617Z" fill="#707070"/>
<path d="M22.1707 21.8263V30.4323L21.3647 31.1343H20.5847V23.6333L19.0767 24.9073L18.3227 23.9583L20.8447 21.8263H22.1707ZM27.9747 26.7923C27.7667 27.0523 27.5457 27.2559 27.3117 27.4033C26.9651 27.6199 26.5621 27.7283 26.1027 27.7283C25.2361 27.7283 24.5731 27.4119 24.1137 26.7793C23.7411 26.2679 23.5547 25.6223 23.5547 24.8423C23.5547 23.8369 23.8234 23.0526 24.3607 22.4893C24.8547 21.9693 25.5307 21.7093 26.3887 21.7093C28.3734 21.7093 29.3657 23.1609 29.3657 26.0643C29.3657 27.1389 29.2704 28.0013 29.0797 28.6513C28.8977 29.3013 28.5901 29.8473 28.1567 30.2893C27.5414 30.9133 26.7354 31.2253 25.7387 31.2253C25.5047 31.2253 25.1971 31.1906 24.8157 31.1213L24.3087 30.4973V29.8863C24.6381 29.9556 24.9674 29.9903 25.2967 29.9903C26.2674 29.9903 26.9434 29.7606 27.3247 29.3013C27.7147 28.8419 27.9314 28.0056 27.9747 26.7923ZM27.7797 24.9073C27.7797 23.6679 27.3421 23.0483 26.4667 23.0483C26.0594 23.0483 25.7301 23.2086 25.4787 23.5293C25.2361 23.8499 25.1147 24.2746 25.1147 24.8033C25.1147 25.2886 25.2361 25.6873 25.4787 25.9993C25.7214 26.3113 26.0291 26.4673 26.4017 26.4673C26.8004 26.4673 27.1297 26.3199 27.3897 26.0253C27.6497 25.7306 27.7797 25.3579 27.7797 24.9073Z" fill="black"/>
</svg>
