<svg width="44" height="47" viewBox="0 0 44 47" fill="none" xmlns="http://www.w3.org/2000/svg">
<path d="M1.67432 32.4413C2.47529 35.6005 7.97692 38.5158 12.6337 40.7139C13.4293 41.09 24.0177 45.5894 24.0177 45.5894C24.0177 45.5894 28.2194 46.7352 29.7964 45.5894C30.2287 45.2756 33.4485 43.5707 33.8732 42.7281C34.6839 40.888 35.3358 38.9816 35.8219 37.0297C40.5271 33.2391 41.9383 31.949 42.6083 29.5777C43.961 25.1891 43.6499 20.4536 41.7346 16.2814C40.8004 14.407 38.9425 13.5195 35.8211 10.7197C33.9042 8.99956 31.0198 7.44427 28.4314 5.96724C25.6613 4.38612 23.8814 3.06332 21.2393 2.14094C18.3446 1.15282 15.2647 0.83465 12.2301 1.21022C7.57112 1.94873 4.94032 5.1763 2.88639 8.06046C1.92719 9.40757 2.79783 11.282 2.42233 17.0389C2.227 20.0385 1.39799 23.6582 0.964194 26.4831C0.63184 28.6477 1.42448 31.4566 1.67432 32.4413Z" fill="white" stroke="#707070"/>
<path d="M17.8167 16.968C18.6314 16.4394 19.4547 16.175 20.2867 16.175C21.1014 16.175 21.7124 16.4134 22.1197 16.89C22.4751 17.306 22.6527 17.8607 22.6527 18.554C22.6527 19.1 22.5141 19.633 22.2367 20.153C21.9854 20.595 21.5434 21.193 20.9107 21.947L19.0777 24.027L18.5447 24.677H22.8087V25.041L22.3537 25.6H17.3747V24.664L18.3627 23.481L20.3647 21.154C20.7634 20.6774 21.0451 20.2787 21.2097 19.958C21.4351 19.5247 21.5477 19.1044 21.5477 18.697C21.5477 18.2464 21.4134 17.8824 21.1447 17.605C20.8761 17.3277 20.5164 17.189 20.0657 17.189C19.5371 17.189 18.9867 17.3927 18.4147 17.8L17.8167 16.968Z" fill="black"/>
</svg>
