<svg width="50" height="47" viewBox="0 0 50 47" fill="none" xmlns="http://www.w3.org/2000/svg">
<path d="M7.53053 15.2882C9.29732 11.3477 12.2687 8.34094 15.8973 6.82195C17.7399 6.0506 19.6988 5.67943 21.7194 5.71875C23.8425 5.76007 25.9927 6.25581 28.11 7.19222C30.2612 8.1436 32.4956 9.59104 34.5714 11.378C36.6518 13.1689 38.5202 15.2556 39.9747 17.4125C41.5051 19.682 42.5642 22.02 43.0376 24.174C43.5563 26.534 43.3972 28.6721 42.5647 30.5288C41.7199 32.413 40.2494 34.0802 38.1941 35.4839C36.2847 36.7881 33.8956 37.8236 31.2851 38.4787C25.9651 39.8137 20.2688 39.4962 16.0475 37.6293C13.942 36.6981 12.0923 35.3539 10.5497 33.6341C9.08737 32.0037 7.95861 30.1053 7.19478 27.9915C5.67462 23.7848 5.797 19.1546 7.53053 15.2882Z" fill="white"/>
<path d="M7.88749 15.446C6.19453 19.2219 6.07611 23.7467 7.5626 27.8602C8.30946 29.927 9.41267 31.7827 10.8416 33.3758C12.3471 35.0544 14.1522 36.3662 16.2068 37.2748C20.3508 39.1075 25.952 39.4169 31.1901 38.1025C33.7561 37.4586 36.1017 36.4426 37.9734 35.1642C39.9685 33.8016 41.3933 32.189 42.2084 30.3711C43.0063 28.5915 43.157 26.5345 42.6565 24.257C42.1934 22.1501 41.154 19.8581 39.6506 17.6287C36.7417 13.3149 32.2588 9.45168 27.9514 7.54673C25.8819 6.63148 23.7826 6.14698 21.7118 6.10669C19.7462 6.06844 17.841 6.4294 16.049 7.17952C12.5122 8.66008 9.61373 11.5958 7.88749 15.446ZM7.17425 15.1305C10.8122 7.01663 19.3634 2.89907 28.2693 6.83774C37.1752 10.7764 46.5596 22.5726 42.9216 30.6865C39.2837 38.8004 24.7949 41.9225 15.889 37.9838C6.98303 34.0451 3.53632 23.2445 7.17425 15.1305Z" fill="#707070"/>
<path d="M16.8829 16.7274C17.7062 16.19 18.5382 15.9214 19.3789 15.9214C20.2196 15.9214 20.8609 16.1684 21.3029 16.6624C21.6929 17.087 21.8879 17.6547 21.8879 18.3654C21.8879 18.894 21.7622 19.414 21.5109 19.9254C21.2596 20.4367 20.8219 21.0737 20.1979 21.8364C19.4959 22.6857 19.1059 23.1494 19.0279 23.2274L18.2609 24.0074H22.0699V24.5274L21.4199 25.3334H16.4929V24.0074L17.4549 23.0194L18.3909 21.9534C19.1102 21.156 19.5739 20.6057 19.7819 20.3024C20.2239 19.6697 20.4449 19.1107 20.4449 18.6254C20.4449 18.244 20.3192 17.9364 20.0679 17.7024C19.8252 17.4597 19.5046 17.3384 19.1059 17.3384C18.6379 17.3384 18.1612 17.5074 17.6759 17.8454L16.8829 16.7274ZM26.076 15.8174C27.0727 15.826 27.844 16.294 28.39 17.2214C28.9274 18.14 29.196 19.3187 29.196 20.7574C29.196 22.2134 28.9274 23.366 28.39 24.2154C27.8614 25.056 27.0944 25.4764 26.089 25.4764C25.049 25.4764 24.2647 25.0344 23.736 24.1504C23.2247 23.2837 22.969 22.157 22.969 20.7704C22.969 19.349 23.2247 18.179 23.736 17.2604C24.2734 16.2984 25.0534 15.8174 26.076 15.8174ZM27.61 20.7834C27.61 19.856 27.5147 19.0804 27.324 18.4564C27.064 17.5984 26.648 17.165 26.076 17.1564C25.5647 17.1564 25.1834 17.4987 24.932 18.1834C24.6807 18.8767 24.555 19.739 24.555 20.7704C24.555 21.6977 24.6547 22.4604 24.854 23.0584C25.088 23.769 25.4954 24.1244 26.076 24.1244C27.0987 24.1244 27.61 23.0107 27.61 20.7834Z" fill="black"/>
</svg>
