<svg width="34" height="33" viewBox="0 0 34 33" fill="none" xmlns="http://www.w3.org/2000/svg">
<path d="M17.8152 32.4811C15.5335 32.4811 13.6603 32.3035 12.0886 31.9382C10.3276 31.529 8.883 30.8758 7.67229 29.9414C6.37047 28.9367 5.33798 27.6097 4.51582 25.8847C3.64519 24.058 3.02675 21.8243 2.62515 19.056L2.61877 19.012L2.60253 18.9706C0.996726 14.8741 0.494943 11.6898 1.0685 9.23561C1.56515 7.11046 2.7925 5.784 3.97942 4.50119C4.12165 4.34749 4.26871 4.18854 4.41091 4.03195C5.67057 2.64217 7.72247 1.66722 10.5098 1.13389C12.98 0.661254 15.5889 0.597534 17.8152 0.597534C21.694 0.597534 25.4592 2.41702 28.4175 5.72083C29.8503 7.31846 30.9546 8.99041 31.6998 10.6905C32.518 12.5573 32.9329 14.5252 32.9329 16.5393C32.9329 18.6943 32.5322 20.7845 31.742 22.7518C30.9792 24.6507 29.8875 26.3559 28.4971 27.8199C27.1083 29.2823 25.4916 30.4302 23.692 31.2318C21.8306 32.0607 19.8534 32.4811 17.8152 32.4811Z" fill="white"/>
<path d="M17.8152 0.984814C15.6073 0.984814 13.0216 1.0477 10.5836 1.51418C7.88158 2.03117 5.90243 2.96532 4.70065 4.29123C4.55723 4.44916 4.40955 4.60878 4.26672 4.76315C3.114 6.00897 1.92203 7.29721 1.44863 9.32285C0.893434 11.6985 1.38982 14.8081 2.96618 18.8295L2.99864 18.9123L3.0114 19.0002C3.40736 21.7296 4.01484 23.9271 4.86852 25.7183C5.66389 27.3871 6.65932 28.6682 7.91169 29.6347C10.1144 31.3348 13.1688 32.0929 17.8152 32.0929C19.798 32.0929 21.7215 31.684 23.5323 30.8775C25.2849 30.0969 26.8598 28.9785 28.2133 27.5534C29.5697 26.125 30.635 24.461 31.3795 22.6076C32.1513 20.6863 32.5426 18.6444 32.5426 16.5389C32.5426 14.5783 32.1387 12.6626 31.3419 10.8449C30.6133 9.18248 29.5314 7.54522 28.1259 5.97808C25.2427 2.75813 21.581 0.984814 17.8152 0.984814ZM17.8152 0.209351C22.2603 0.209351 26.0382 2.47978 28.709 5.46267C31.4863 8.55923 33.3232 12.2009 33.3232 16.5389C33.3232 25.5574 26.38 32.8684 17.8152 32.8684C9.25036 32.8684 3.88592 30.4643 2.23885 19.1109C-1.64349 9.20687 1.6299 6.51496 4.12114 3.77176C7.11302 0.470822 13.4043 0.209351 17.8152 0.209351Z" fill="#707070"/>
<path d="M10.806 10.394C11.6293 9.85667 12.4613 9.588 13.302 9.588C14.1427 9.588 14.784 9.835 15.226 10.329C15.616 10.7537 15.811 11.3213 15.811 12.032C15.811 12.5607 15.6853 13.0807 15.434 13.592C15.1827 14.1033 14.745 14.7403 14.121 15.503C13.419 16.3523 13.029 16.816 12.951 16.894L12.184 17.674H15.993V18.194L15.343 19H10.416V17.674L11.378 16.686L12.314 15.62C13.0333 14.8227 13.497 14.2723 13.705 13.969C14.147 13.3363 14.368 12.7773 14.368 12.292C14.368 11.9107 14.2423 11.603 13.991 11.369C13.7483 11.1263 13.4277 11.005 13.029 11.005C12.561 11.005 12.0843 11.174 11.599 11.512L10.806 10.394ZM20.6751 9.692V18.298L19.8691 19H19.0891V11.499L17.5811 12.773L16.8271 11.824L19.3491 9.692H20.6751Z" fill="black"/>
</svg>
