<svg width="42" height="45" viewBox="0 0 42 45" fill="none" xmlns="http://www.w3.org/2000/svg">
<path d="M13.0965 7.91082C16.5766 6.1495 20.2852 7.48402 24.783 10.0297C26.6565 11.0887 28.6361 12.2508 30.4214 13.5719C32.5232 15.1273 33.9536 16.6268 34.6728 18.0287C35.6519 19.9373 36.1785 21.9606 36.2377 24.0423C36.2922 25.9537 35.9553 27.8628 35.2365 29.7166C33.8973 33.1703 31.2881 36.1481 28.257 37.6821C26.9342 38.3516 24.2933 39.5657 21.4695 40.1749C18.5863 40.7968 16.3581 40.6125 14.8469 39.6272C13.8678 38.9901 12.9089 37.7084 11.9966 35.8177C11.2475 34.2654 10.7478 32.7525 10.5076 32.0254C10.4453 31.8369 10.4034 31.7102 10.3659 31.6216C9.67561 26.9725 9.26922 24.6373 9.05031 23.3793C8.76345 21.7309 8.76345 21.7309 8.79804 20.4741C8.80434 20.2452 8.81175 19.9759 8.81886 19.65C8.89254 16.1925 9.16309 13.9638 9.72347 12.1977C10.3888 10.1009 11.4606 8.73875 13.0965 7.91082Z" fill="white"/>
<path d="M13.2732 8.25628C11.7367 9.0339 10.7269 10.3234 10.0951 12.3144C9.54651 14.0435 9.28135 16.2397 9.20848 19.6585C9.20136 19.9854 9.19392 20.2553 9.18761 20.4849C9.15408 21.7031 9.15408 21.7031 9.43431 23.3134C9.65289 24.5695 10.0582 26.8984 10.7457 31.526C10.7873 31.6307 10.8284 31.7551 10.8778 31.9046C11.1154 32.6239 11.6098 34.1206 12.3479 35.6502C13.2166 37.4504 14.1543 38.7134 15.0603 39.3029C18.0031 41.2217 23.715 39.5453 28.0792 37.3365C31.027 35.8447 33.5663 32.9439 34.8718 29.5769C35.572 27.7713 35.9001 25.9128 35.8472 24.053C35.7896 22.0292 35.2773 20.0615 34.3247 18.2045C33.633 16.8563 32.2412 15.4022 30.188 13.8828C28.4197 12.5742 26.4524 11.4195 24.5895 10.3665C22.0156 8.90968 20.1151 8.09384 18.4273 7.72122C16.4813 7.29155 14.8435 7.46157 13.2732 8.25628ZM12.9187 7.56519C16.5656 5.7195 20.3928 7.09898 24.9754 9.69267C28.4261 11.6432 33.3192 14.5374 35.0199 17.8527C39.2297 26.0589 34.5527 34.9308 28.4338 38.0276C24.8603 39.8362 18.2564 42.3142 14.6324 39.9513C11.6934 38.0388 9.99741 31.4849 9.99065 31.7537C8.23431 19.9144 8.34986 23.2367 8.42823 19.6412C8.55416 13.7327 9.2657 9.41398 12.9187 7.56519Z" fill="#707070"/>
<path d="M14.806 17.394C15.6293 16.8567 16.4613 16.588 17.302 16.588C18.1427 16.588 18.784 16.835 19.226 17.329C19.616 17.7537 19.811 18.3213 19.811 19.032C19.811 19.5607 19.6853 20.0807 19.434 20.592C19.1827 21.1033 18.745 21.7403 18.121 22.503C17.419 23.3523 17.029 23.816 16.951 23.894L16.184 24.674H19.993V25.194L19.343 26H14.416V24.674L15.378 23.686L16.314 22.62C17.0333 21.8227 17.497 21.2723 17.705 20.969C18.147 20.3363 18.368 19.7773 18.368 19.292C18.368 18.9107 18.2423 18.603 17.991 18.369C17.7483 18.1263 17.4277 18.005 17.029 18.005C16.561 18.005 16.0843 18.174 15.599 18.512L14.806 17.394ZM21.2171 17.394C22.0405 16.8567 22.8725 16.588 23.7131 16.588C24.5538 16.588 25.1951 16.835 25.6371 17.329C26.0271 17.7537 26.2221 18.3213 26.2221 19.032C26.2221 19.5607 26.0965 20.0807 25.8451 20.592C25.5938 21.1033 25.1561 21.7403 24.5321 22.503C23.8301 23.3523 23.4401 23.816 23.3621 23.894L22.5951 24.674H26.4041V25.194L25.7541 26H20.8271V24.674L21.7891 23.686L22.7251 22.62C23.4445 21.8227 23.9081 21.2723 24.1161 20.969C24.5581 20.3363 24.7791 19.7773 24.7791 19.292C24.7791 18.9107 24.6535 18.603 24.4021 18.369C24.1595 18.1263 23.8388 18.005 23.4401 18.005C22.9721 18.005 22.4955 18.174 22.0101 18.512L21.2171 17.394Z" fill="black"/>
</svg>
