<svg width="27" height="37" viewBox="0 0 27 37" fill="none" xmlns="http://www.w3.org/2000/svg">
<path d="M4.98021 36.0044C4.98001 36.0044 4.98041 36.0044 4.98021 36.0044C3.51274 36.0044 2.56447 35.6501 2.16264 34.9514C0.681777 32.382 0.895519 28.225 1.21907 21.9326C1.29355 20.4841 1.37057 18.9862 1.43797 17.3324C1.61899 12.8906 2.72685 8.83024 4.55749 5.89927C5.46156 4.45179 6.50921 3.32499 7.67134 2.55016C8.86229 1.75613 10.1462 1.35352 11.4875 1.35352C12.3063 1.35352 13.2444 1.68244 14.2755 2.33114C15.2634 2.95262 16.3125 3.85172 17.3937 5.00345C19.5674 7.31902 21.7283 10.5178 23.3221 13.7797C24.9454 17.1018 25.7969 20.1399 25.6582 22.115C25.4363 25.276 22.0257 28.3736 19.2036 30.4154C16.1971 32.5908 13.1998 34.0585 12.9817 34.1643C12.7074 34.2711 8.20084 36.0044 4.98021 36.0044Z" fill="white"/>
<path d="M11.4876 1.74116C10.2252 1.74116 9.01444 2.12164 7.88895 2.87203C6.77314 3.61597 5.76389 4.70324 4.88924 6.10362C3.09353 8.97865 2.00639 12.972 1.82804 17.348C1.76057 19.0039 1.68349 20.5028 1.60895 21.9523C1.28894 28.1762 1.07752 32.288 2.50163 34.7589C2.90932 35.4678 4.07433 35.6166 4.97986 35.6166C8.0846 35.6166 12.4508 33.9536 12.8249 33.8088C13.1234 33.6635 16.0342 32.2276 18.9651 30.1084C22.9216 27.2475 25.1015 24.474 25.269 22.0879C25.4031 20.1784 24.5656 17.2119 22.9712 13.9489C21.3936 10.7204 19.2567 7.55629 17.1084 5.26782C14.9734 2.99362 12.9773 1.74116 11.4876 1.74116ZM11.4876 0.965698C17.3072 0.965698 26.498 15.7293 26.0477 22.1418C25.5974 28.5544 13.1388 34.5195 13.1388 34.5195C13.1388 34.5195 3.62737 38.2794 1.82392 35.1436C-0.050589 31.8912 0.673608 26.5071 1.04815 17.3166C1.4227 8.12619 5.66808 0.965698 11.4876 0.965698Z" fill="#707070"/>
<path d="M5.806 15.394C6.62933 14.8567 7.46133 14.588 8.302 14.588C9.14267 14.588 9.784 14.835 10.226 15.329C10.616 15.7537 10.811 16.3213 10.811 17.032C10.811 17.5607 10.6853 18.0807 10.434 18.592C10.1827 19.1033 9.745 19.7403 9.121 20.503C8.419 21.3523 8.029 21.816 7.951 21.894L7.184 22.674H10.993V23.194L10.343 24H5.416V22.674L6.378 21.686L7.314 20.62C8.03333 19.8227 8.497 19.2723 8.705 18.969C9.147 18.3363 9.368 17.7773 9.368 17.292C9.368 16.9107 9.24233 16.603 8.991 16.369C8.74833 16.1263 8.42767 16.005 8.029 16.005C7.561 16.005 7.08433 16.174 6.599 16.512L5.806 15.394ZM12.5291 14.9C13.1878 14.692 13.7295 14.588 14.1541 14.588C15.0641 14.588 15.7878 14.8263 16.3251 15.303C16.8451 15.7623 17.1051 16.3733 17.1051 17.136C17.1051 18.254 16.5678 18.9603 15.4931 19.255C16.1258 19.385 16.6111 19.6537 16.9491 20.061C17.3045 20.4943 17.4821 20.9797 17.4821 21.517C17.4821 22.4097 17.1095 23.0987 16.3641 23.584C15.7921 23.9567 15.1031 24.143 14.2971 24.143C13.7338 24.143 13.1791 24.0737 12.6331 23.935L12.1261 23.311V22.713C12.7328 22.8257 13.2528 22.882 13.6861 22.882C15.1595 22.882 15.8961 22.4313 15.8961 21.53C15.8961 21.062 15.6925 20.6677 15.2851 20.347C15.0251 20.1477 14.7478 20.0133 14.4531 19.944C14.1671 19.8747 13.7208 19.8313 13.1141 19.814V18.605H14.4271C14.7565 18.605 15.0295 18.4923 15.2461 18.267C15.4628 18.033 15.5711 17.7427 15.5711 17.396C15.5711 16.954 15.4195 16.6117 15.1161 16.369C14.8215 16.1177 14.4141 15.992 13.8941 15.992C13.5648 15.992 13.1098 16.0657 12.5291 16.213V14.9Z" fill="black"/>
</svg>
