<svg width="27" height="35" viewBox="0 0 27 35" fill="none" xmlns="http://www.w3.org/2000/svg">
<path d="M8.76917 33.9305H8.76713C4.21984 33.9303 1.76074 33.1935 1.34087 32.4635C0.718626 31.3838 0.640627 29.2018 1.11514 26.1528C1.51074 23.6109 2.17097 21.1598 2.48826 19.9819C2.54266 19.7799 2.58564 19.6204 2.61438 19.5078C2.63437 19.4294 2.65222 19.3595 2.65979 19.294C2.98536 18.0584 3.28272 16.8999 3.5704 15.7791C4.87213 10.7075 5.81266 7.04318 7.22645 4.59092C8.6538 2.11515 10.5255 1.01835 13.4848 0.923496C13.519 0.922402 13.552 0.921875 13.5862 0.921875C14.7734 0.921875 16.0083 1.59609 17.2566 2.9258C18.4573 4.20478 19.6447 6.05754 20.786 8.43264C21.7948 10.5322 22.7584 13.0403 23.5725 15.6861C25.0759 20.5716 25.9646 25.5825 25.7839 28.155C25.7229 29.0247 25.1663 29.8428 24.1296 30.5867C23.1428 31.2947 21.75 31.9194 19.99 32.4434C16.8624 33.3746 12.6678 33.9305 8.76917 33.9305Z" fill="white"/>
<path d="M13.5843 0.534305V1.30977C13.5549 1.30977 13.5264 1.31024 13.4969 1.31119C12.0387 1.35792 10.8673 1.65924 9.91581 2.23234C9.00849 2.77881 8.23942 3.6134 7.56466 4.78378C6.17726 7.19026 5.24224 10.8331 3.94812 15.8751C3.6616 16.9914 3.36546 18.1451 3.04131 19.3756C3.02938 19.4576 3.00981 19.5343 2.99223 19.6032C2.96286 19.7183 2.91959 19.8789 2.86481 20.0823C2.54929 21.2537 1.89275 23.691 1.50038 26.2123C0.918145 29.9533 1.27611 31.5718 1.67928 32.2713C1.7083 32.3217 2.01442 32.7746 3.80456 33.1383C5.10777 33.403 6.82365 33.5429 8.76667 33.5429C12.6303 33.5429 16.7839 32.9931 19.8775 32.072C23.3285 31.0446 25.2877 29.644 25.3942 28.1282C25.5718 25.5988 24.6897 20.645 23.1991 15.8012C22.3907 13.1739 21.4345 10.6845 20.4339 8.60209C19.3099 6.26279 18.145 4.44266 16.9716 3.19225C15.7997 1.9435 14.6605 1.31015 13.5854 1.30977L13.5843 0.534305ZM13.5858 0.534302C20.6935 0.536793 26.6207 21.8041 26.1728 28.1822C25.8798 32.3544 16.0779 34.3184 8.76667 34.3184C4.84082 34.3184 1.63164 33.7515 1.00158 32.656C-0.872942 29.4036 2.36046 19.2345 2.27166 19.2345C5.57398 6.70775 6.31297 0.765588 13.4718 0.536127C13.5102 0.534897 13.5474 0.53429 13.5858 0.534302Z" fill="#707070"/>
<path d="M7.806 13.394C8.62933 12.8567 9.46133 12.588 10.302 12.588C11.1427 12.588 11.784 12.835 12.226 13.329C12.616 13.7537 12.811 14.3213 12.811 15.032C12.811 15.5607 12.6853 16.0807 12.434 16.592C12.1827 17.1033 11.745 17.7403 11.121 18.503C10.419 19.3523 10.029 19.816 9.951 19.894L9.184 20.674H12.993V21.194L12.343 22H7.416V20.674L8.378 19.686L9.314 18.62C10.0333 17.8227 10.497 17.2723 10.705 16.969C11.147 16.3363 11.368 15.7773 11.368 15.292C11.368 14.9107 11.2423 14.603 10.991 14.369C10.7483 14.1263 10.4277 14.005 10.029 14.005C9.561 14.005 9.08433 14.174 8.599 14.512L7.806 13.394ZM18.9101 12.692V18.464H20.0801V19.816H18.9101V21.285L18.1171 22H17.3631V19.816H13.7101V18.672L17.3891 12.692H18.9101ZM17.3631 14.772L15.1791 18.464H17.3631V14.772Z" fill="black"/>
</svg>
