<svg width="26" height="35" viewBox="0 0 26 35" fill="none" xmlns="http://www.w3.org/2000/svg">
<path d="M17.5039 33.9305C13.6044 33.9305 9.40894 33.3745 6.28095 32.4433C4.52091 31.9193 3.12815 31.2946 2.14137 30.5866C1.10471 29.8428 0.548106 29.0247 0.487037 28.155C0.30639 25.5825 1.19508 20.5716 2.69844 15.6861C3.51257 13.0403 4.47615 10.5322 5.48498 8.43264C6.62623 6.05754 7.81368 4.20478 9.01433 2.9258C10.2626 1.59609 11.4975 0.921875 12.6848 0.921875C12.7189 0.921875 12.752 0.922402 12.7862 0.923496C15.7455 1.01835 17.6172 2.11515 19.0445 4.59091C20.4583 7.04317 21.3988 10.7075 22.7006 15.7791C22.9883 16.8999 23.2856 18.0584 23.6112 19.2941C23.6187 19.3595 23.6366 19.4294 23.6566 19.5078C23.6853 19.6204 23.7283 19.7799 23.7827 19.9819C24.1 21.1598 24.7602 23.6109 25.1558 26.1529C25.6303 29.2018 25.5523 31.3838 24.9303 32.4632C24.5101 33.1937 22.051 33.9305 17.5039 33.9305Z" fill="white"/>
<path d="M12.6853 1.30977C11.6107 1.30977 10.4718 1.94252 9.30031 3.19043C8.12682 4.44046 6.96185 6.26045 5.83775 8.59984C4.83711 10.6823 3.88082 13.1719 3.07223 15.7996C1.58152 20.644 0.699296 25.5985 0.876939 28.1282C0.983373 29.644 2.94255 31.0446 6.39356 32.072C9.48722 32.9931 13.6408 33.5429 17.5044 33.5429C19.4474 33.5429 21.1633 33.403 22.4665 33.1383C24.2567 32.7746 24.5628 32.3217 24.5922 32.2707C24.995 31.5718 25.353 29.9533 24.7707 26.2123C24.3783 23.691 23.7218 21.2537 23.4063 20.0823C23.3515 19.8789 23.3082 19.7183 23.2789 19.6032C23.2613 19.5343 23.2417 19.4576 23.2298 19.3756C22.9056 18.1451 22.6095 16.9914 22.323 15.8751C21.0289 10.8331 20.0938 7.19026 18.7064 4.78378C18.0317 3.6134 17.2626 2.77881 16.3553 2.23233C15.4037 1.65924 14.2324 1.35792 12.7742 1.31119C12.7442 1.31022 12.7152 1.30977 12.6853 1.30977ZM12.6853 0.534302C12.7237 0.534302 12.7609 0.534893 12.7993 0.536127C19.9581 0.765585 20.6971 6.70774 23.9994 19.2345C23.9106 19.2345 27.144 29.4036 25.2695 32.656C24.6395 33.7515 21.4303 34.3184 17.5044 34.3184C10.1932 34.3184 0.391267 32.3544 0.0982924 28.1822C-0.349589 21.8041 5.57761 0.534302 12.6853 0.534302Z" fill="#707070"/>
<path d="M6.63242 13.4774C7.45575 12.94 8.28775 12.6714 9.12842 12.6714C9.96908 12.6714 10.6104 12.9184 11.0524 13.4124C11.4424 13.837 11.6374 14.4047 11.6374 15.1154C11.6374 15.644 11.5117 16.164 11.2604 16.6754C11.0091 17.1867 10.5714 17.8237 9.94742 18.5864C9.24542 19.4357 8.85542 19.8994 8.77742 19.9774L8.01042 20.7574H11.8194V21.2774L11.1694 22.0834H6.24242V20.7574L7.20442 19.7694L8.14042 18.7034C8.85975 17.906 9.32342 17.3557 9.53142 17.0524C9.97342 16.4197 10.1944 15.8607 10.1944 15.3754C10.1944 14.994 10.0687 14.6864 9.81742 14.4524C9.57475 14.2097 9.25408 14.0884 8.85542 14.0884C8.38742 14.0884 7.91075 14.2574 7.42542 14.5954L6.63242 13.4774ZM16.9045 12.7754V14.1014H14.0445L13.9145 16.4284C14.2005 16.385 14.4345 16.3634 14.6165 16.3634C15.6045 16.3634 16.3672 16.6754 16.9045 17.2994C17.3639 17.8367 17.5935 18.543 17.5935 19.4184C17.5935 20.3544 17.2425 21.0737 16.5405 21.5764C15.9772 21.975 15.2665 22.1744 14.4085 22.1744C13.8452 22.1744 13.2905 22.105 12.7445 21.9664L12.2375 21.3554V20.7444C12.8355 20.8657 13.3555 20.9264 13.7975 20.9264C14.5689 20.9264 15.1149 20.8224 15.4355 20.6144C15.8169 20.3717 16.0075 19.947 16.0075 19.3404C16.0075 18.725 15.8472 18.283 15.5265 18.0144C15.2059 17.7457 14.6815 17.6114 13.9535 17.6114C13.6502 17.6114 13.1735 17.646 12.5235 17.7154C12.4369 17.724 12.3632 17.7327 12.3025 17.7414L12.5755 12.7754H16.9045Z" fill="black"/>
</svg>
