<svg width="26" height="37" viewBox="0 0 26 37" fill="none" xmlns="http://www.w3.org/2000/svg">
<path d="M21.2918 36.0046C18.0687 36.0046 13.5646 34.2714 13.2899 34.1645C13.0725 34.059 10.0747 32.5911 7.06788 30.4156C4.24585 28.3737 0.835255 25.2762 0.613279 22.1151C0.474585 20.14 1.32606 17.1019 2.94938 13.7798C4.54322 10.518 6.70407 7.31915 8.87785 5.00357C9.95906 3.85184 11.0082 2.95274 11.996 2.33126C13.0271 1.68256 13.9652 1.35364 14.784 1.35364C17.5991 1.35364 19.2326 2.27452 20.61 4.63812C22.0789 7.15889 23.2362 11.3104 24.8291 17.351C24.827 17.4272 24.8312 17.5235 24.8368 17.6523C24.8454 17.8538 24.8604 18.141 24.8794 18.5047C24.9683 20.2059 25.1533 23.746 25.1189 27.122C25.0669 32.2349 24.541 34.2016 24.109 34.9512C23.707 35.6502 22.7592 36.0046 21.2918 36.0046Z" fill="white"/>
<path d="M14.7835 1.74116C13.2939 1.74116 11.2977 2.99362 9.16276 5.26782C7.01442 7.55628 4.87752 10.7204 3.29998 13.9489C1.70557 17.2119 0.868022 20.1784 1.00211 22.0879C1.16939 24.4702 3.34308 27.2392 7.28817 30.0954C10.2203 32.2183 13.1483 33.6637 13.4465 33.809C13.8217 33.9543 18.1821 35.6166 21.2913 35.6166C22.1968 35.6166 23.3618 35.4678 23.7699 34.7583C24.1788 34.0488 24.677 32.1473 24.7282 27.1179C24.7624 23.7539 24.5779 20.2219 24.4892 18.5246C24.4702 18.16 24.4551 17.872 24.4463 17.6687C24.4421 17.5709 24.4383 17.4827 24.4385 17.4015C22.8601 11.4171 21.7124 7.30439 20.2717 4.83219C19.5986 3.67705 18.8841 2.91536 18.0233 2.43512C17.1746 1.96167 16.1452 1.74116 14.7835 1.74116ZM14.7835 0.965698C20.6031 0.965698 21.9207 4.78991 25.223 17.3166C25.1342 17.3166 26.3217 31.8913 24.4472 35.1436C22.6438 38.2794 13.1323 34.5195 13.1323 34.5195C13.1323 34.5195 0.673753 28.5544 0.223463 22.1418C-0.226829 15.7293 8.96397 0.965698 14.7835 0.965698Z" fill="#707070"/>
<path d="M7.806 13.394C8.62933 12.8567 9.46133 12.588 10.302 12.588C11.1427 12.588 11.784 12.835 12.226 13.329C12.616 13.7537 12.811 14.3213 12.811 15.032C12.811 15.5607 12.6853 16.0807 12.434 16.592C12.1827 17.1033 11.745 17.7403 11.121 18.503C10.419 19.3523 10.029 19.816 9.951 19.894L9.184 20.674H12.993V21.194L12.343 22H7.416V20.674L8.378 19.686L9.314 18.62C10.0333 17.8227 10.497 17.2723 10.705 16.969C11.147 16.3363 11.368 15.7773 11.368 15.292C11.368 14.9107 11.2423 14.603 10.991 14.369C10.7483 14.1263 10.4277 14.005 10.029 14.005C9.561 14.005 9.08433 14.174 8.599 14.512L7.806 13.394ZM15.4261 17.164C15.9721 16.4447 16.6091 16.085 17.3371 16.085C18.2125 16.085 18.8841 16.4013 19.3521 17.034C19.7421 17.5453 19.9371 18.191 19.9371 18.971C19.9371 19.9763 19.6641 20.765 19.1181 21.337C18.6155 21.8657 17.9351 22.13 17.0771 22.13C15.9851 22.13 15.1748 21.701 14.6461 20.843C14.2561 20.2017 14.0611 19.387 14.0611 18.399V18.035C14.0611 16.4403 14.3645 15.1577 14.9711 14.187C15.6385 13.1383 16.6091 12.614 17.8831 12.614C18.0911 12.614 18.3511 12.64 18.6631 12.692L19.2221 13.368V13.979C19.1788 13.9703 19.1008 13.9573 18.9881 13.94C18.5721 13.862 18.2558 13.823 18.0391 13.823C17.5018 13.823 17.0208 13.9877 16.5961 14.317C16.1715 14.6377 15.8725 15.0753 15.6991 15.63C15.5691 16.0373 15.4781 16.5487 15.4261 17.164ZM18.3511 18.997C18.3511 18.4943 18.2255 18.0913 17.9741 17.788C17.7315 17.476 17.4065 17.3243 16.9991 17.333C16.6265 17.333 16.2971 17.489 16.0111 17.801C15.7251 18.1043 15.5821 18.4597 15.5821 18.867C15.5821 19.465 15.7078 19.9373 15.9591 20.284C16.2191 20.6307 16.5745 20.804 17.0251 20.804C17.4151 20.804 17.7315 20.635 17.9741 20.297C18.2255 19.959 18.3511 19.5257 18.3511 18.997Z" fill="black"/>
</svg>
