<svg width="41" height="43" viewBox="0 0 41 43" fill="none" xmlns="http://www.w3.org/2000/svg">
<path d="M13.6651 36.6897C10.8206 35.2501 8.41091 32.3767 7.21912 29.0032C6.57836 27.1894 6.30296 25.3115 6.40057 23.4215C6.50698 21.3612 7.05813 19.3473 8.03868 17.4359C8.75932 16.0312 10.1606 14.5139 12.2036 12.9262C13.9376 11.5787 15.8529 10.3839 17.6644 9.29352C22.0081 6.67579 25.5691 5.27067 28.8307 6.92135C30.3605 7.69557 31.344 9.01007 31.926 11.0582C32.4179 12.7894 32.6226 14.9846 32.6101 18.3985C32.6091 18.7205 32.6098 18.9864 32.6103 19.2123C32.6132 20.4543 32.6132 20.4543 32.3 22.0909C32.0612 23.339 31.6178 25.6565 30.8482 30.2676C30.81 30.3557 30.7671 30.4818 30.7031 30.6697C30.4566 31.3941 29.9436 32.9014 29.1918 34.4538C28.2752 36.3464 27.3284 37.6375 26.3779 38.2913C24.9158 39.2988 22.7921 39.5332 20.0655 38.9883C17.3929 38.4542 14.9083 37.3189 13.6651 36.6897Z" fill="white"/>
<path d="M28.6531 7.26653C27.1931 6.5276 25.6512 6.40073 23.8007 6.86728C22.1848 7.27469 20.3546 8.12507 17.8661 9.62478C16.065 10.709 14.1614 11.8963 12.4436 13.2313C10.4458 14.7838 9.08059 16.2575 8.38601 17.6115C7.43054 19.474 6.89356 21.4353 6.78998 23.4408C6.69498 25.2802 6.96315 27.1082 7.58702 28.8742C8.74641 32.156 11.0847 34.9484 13.8421 36.3439C17.9328 38.4142 23.3156 39.9292 26.1556 37.9721C27.0373 37.3658 27.9655 36.091 28.8399 34.2856C29.5813 32.7546 30.0892 31.2625 30.3332 30.5454C30.3841 30.3958 30.4264 30.2715 30.4691 30.1672C31.2356 25.5764 31.678 23.2646 31.9164 22.0183C32.2226 20.4181 32.2226 20.4181 32.2198 19.2131C32.2193 18.9865 32.2186 18.72 32.2197 18.397C32.2319 15.0212 32.0317 12.8579 31.5502 11.1634C30.9998 9.22655 30.0793 7.98829 28.6531 7.26653ZM29.0077 6.57543C32.4462 8.31567 33.0213 12.5653 33.0001 18.3993C32.9888 21.9494 33.1784 18.6646 31.2209 30.402C31.221 30.1373 29.4473 36.6511 26.5995 38.6097C23.088 41.0295 16.8512 38.7373 13.4875 37.0349C7.72789 34.12 3.48103 25.4657 7.69076 17.2596C9.39149 13.9444 14.1257 10.9699 17.4621 8.96154C21.8931 6.29116 25.5749 4.83811 29.0077 6.57543Z" fill="#707070"/>
<path d="M14.806 17.394C15.6293 16.8567 16.4613 16.588 17.302 16.588C18.1427 16.588 18.784 16.835 19.226 17.329C19.616 17.7537 19.811 18.3213 19.811 19.032C19.811 19.5607 19.6853 20.0807 19.434 20.592C19.1827 21.1033 18.745 21.7403 18.121 22.503C17.419 23.3523 17.029 23.816 16.951 23.894L16.184 24.674H19.993V25.194L19.343 26H14.416V24.674L15.378 23.686L16.314 22.62C17.0333 21.8227 17.497 21.2723 17.705 20.969C18.147 20.3363 18.368 19.7773 18.368 19.292C18.368 18.9107 18.2423 18.603 17.991 18.369C17.7483 18.1263 17.4277 18.005 17.029 18.005C16.561 18.005 16.0843 18.174 15.599 18.512L14.806 17.394ZM26.7031 16.692V17.81L23.7521 25.298L22.8941 26H21.7761L24.9871 18.096H20.8011V16.692H26.7031Z" fill="black"/>
</svg>
