<svg width="50" height="46" viewBox="0 0 50 46" fill="none" xmlns="http://www.w3.org/2000/svg">
<path d="M7.14731 29.8849C6.34642 28.0983 6.21363 26.0313 6.75264 23.7413C7.24522 21.6486 8.31953 19.3706 9.85944 17.1537C11.3234 15.046 13.1964 13.0019 15.2758 11.2422C17.3511 9.48606 19.5795 8.0575 21.7201 7.11094C23.8273 6.17916 25.962 5.67451 28.0647 5.61103C30.065 5.55065 31.9993 5.88886 33.8137 6.61628C37.3838 8.04756 40.2872 10.9265 41.9891 14.7227C43.6588 18.4475 43.7272 22.9304 42.1768 27.0222C41.3971 29.0797 40.2587 30.9327 38.793 32.5297C37.2463 34.215 35.3995 35.5394 33.304 36.466C29.1037 38.3233 23.4612 38.6942 18.2104 37.4582C15.6351 36.852 13.2833 35.8747 11.4094 34.632C9.39433 33.2957 7.96035 31.6985 7.14731 29.8849Z" fill="white"/>
<path d="M41.6325 14.8806C39.9721 11.1767 37.1435 8.36954 33.6678 6.9761C31.9038 6.2689 30.0227 5.9401 28.0767 5.99886C26.0248 6.0608 23.9396 6.55423 21.8789 7.46546C17.5917 9.36118 13.1092 13.158 10.1805 17.3743C8.66809 19.5517 7.61411 21.7841 7.13253 23.83C6.61336 26.0358 6.73822 28.02 7.50366 29.7274C8.28619 31.473 9.67307 33.0147 11.6258 34.3097C13.4615 35.5271 15.7694 36.4854 18.3 37.0811C23.4706 38.2982 29.0201 37.9358 33.145 36.1118C35.1911 35.2071 36.9942 33.914 38.5045 32.2684C39.9367 30.7079 41.0493 28.8968 41.8115 26.8855C43.326 22.8884 43.2608 18.5128 41.6325 14.8806ZM42.3454 14.5653C45.8543 22.3927 42.3213 32.9033 33.4627 36.8205C24.6041 40.7376 10.2997 37.87 6.79078 30.0427C3.28184 22.2153 12.7026 10.674 21.5612 6.75683C30.4198 2.83966 38.8365 6.73795 42.3454 14.5653Z" fill="#707070"/>
<path d="M19.806 17.394C20.6293 16.8567 21.4613 16.588 22.302 16.588C23.1427 16.588 23.784 16.835 24.226 17.329C24.616 17.7537 24.811 18.3213 24.811 19.032C24.811 19.5607 24.6853 20.0807 24.434 20.592C24.1827 21.1033 23.745 21.7403 23.121 22.503C22.419 23.3523 22.029 23.816 21.951 23.894L21.184 24.674H24.993V25.194L24.343 26H19.416V24.674L20.378 23.686L21.314 22.62C22.0333 21.8227 22.497 21.2723 22.705 20.969C23.147 20.3363 23.368 19.7773 23.368 19.292C23.368 18.9107 23.2423 18.603 22.991 18.369C22.7483 18.1263 22.4277 18.005 22.029 18.005C21.561 18.005 21.0843 18.174 20.599 18.512L19.806 17.394ZM30.3121 21.658C30.1041 21.918 29.8831 22.1217 29.6491 22.269C29.3025 22.4857 28.8995 22.594 28.4401 22.594C27.5735 22.594 26.9105 22.2777 26.4511 21.645C26.0785 21.1337 25.8921 20.488 25.8921 19.708C25.8921 18.7027 26.1608 17.9183 26.6981 17.355C27.1921 16.835 27.8681 16.575 28.7261 16.575C30.7108 16.575 31.7031 18.0267 31.7031 20.93C31.7031 22.0047 31.6078 22.867 31.4171 23.517C31.2351 24.167 30.9275 24.713 30.4941 25.155C29.8788 25.779 29.0728 26.091 28.0761 26.091C27.8421 26.091 27.5345 26.0563 27.1531 25.987L26.6461 25.363V24.752C26.9755 24.8213 27.3048 24.856 27.6341 24.856C28.6048 24.856 29.2808 24.6263 29.6621 24.167C30.0521 23.7077 30.2688 22.8713 30.3121 21.658ZM30.1171 19.773C30.1171 18.5337 29.6795 17.914 28.8041 17.914C28.3968 17.914 28.0675 18.0743 27.8161 18.395C27.5735 18.7157 27.4521 19.1403 27.4521 19.669C27.4521 20.1543 27.5735 20.553 27.8161 20.865C28.0588 21.177 28.3665 21.333 28.7391 21.333C29.1378 21.333 29.4671 21.1857 29.7271 20.891C29.9871 20.5963 30.1171 20.2237 30.1171 19.773Z" fill="black"/>
</svg>
