<svg width="49" height="52" viewBox="0 0 49 52" fill="none" xmlns="http://www.w3.org/2000/svg">
<path d="M28.9013 51.1585C26.0211 51.1585 23.2536 49.5482 19.7498 47.5096C18.3605 46.7012 16.9238 45.8653 15.3006 45.0195L15.2874 45.0126L15.2737 45.0068C9.65337 42.6204 3.63198 39.5491 1.58583 34.8638C0.77022 32.9983 0.928175 30.0019 1.06753 27.3583C1.1193 26.3762 1.16824 25.4478 1.16965 24.6008C1.85957 21.0848 2.08009 18.8211 2.25741 17.0008C2.50893 14.4189 2.66074 12.8604 3.93658 9.99478C4.88636 7.85742 6.95464 5.33156 8.96638 3.8521C9.07213 3.77583 10.4502 3.00274 12.6633 2.23138C14.5572 1.57129 17.463 0.784424 20.5511 0.784424C21.589 0.784424 22.5961 0.873395 23.5442 1.04887C25.782 1.46286 27.8325 2.22272 30.1927 3.51266C32.3947 4.71614 34.6567 6.25976 37.5205 8.21405C38.4234 8.83027 39.3571 9.46738 40.3642 10.1451C43.9726 13.1175 46.2937 15.867 47.4604 18.5508C48.4593 20.8485 48.4584 22.7461 48.4576 24.4203L48.4575 24.5636C48.4575 29.2943 47.6641 34.7622 46.4362 38.4938C45.8412 40.3037 44.9635 42.0087 43.8273 43.5615C42.7053 45.0949 41.3577 46.4444 39.822 47.5725C38.2682 48.7138 36.5585 49.6011 34.7404 50.2097C32.8594 50.8392 30.8949 51.1585 28.9013 51.1585Z" fill="white"/>
<path d="M20.5511 1.16433C17.5441 1.16433 14.7081 1.92633 12.8586 2.56556C10.6991 3.31191 9.33193 4.06576 9.18416 4.16288C7.22197 5.60781 5.20701 8.06841 4.28211 10.1498C3.03142 12.9589 2.88186 14.4942 2.63408 17.0378C2.45657 18.8599 2.23589 21.125 1.54803 24.6383C1.54529 25.4849 1.49676 26.4054 1.44547 27.3784C1.30834 29.9798 1.15291 32.9283 1.93246 34.7113C3.92532 39.2746 9.8694 42.2997 15.4211 44.6569L15.4486 44.6686L15.475 44.6823C17.106 45.5322 18.5465 46.3704 19.9396 47.181C23.3942 49.191 26.1229 50.7786 28.9013 50.7786C32.771 50.7786 36.47 49.5639 39.5983 47.2659C41.1028 46.1608 42.423 44.8388 43.5221 43.3366C44.6347 41.8161 45.4942 40.1467 46.0767 38.3747C47.293 34.6784 48.0789 29.2572 48.0789 24.5636L48.0789 24.4201C48.0805 21.1136 48.0829 16.9996 40.1381 10.4504C39.1357 9.77579 38.2065 9.14165 37.3075 8.52818C34.4524 6.57978 32.1972 5.04082 30.0116 3.84629C27.6881 2.5764 25.6723 1.82887 23.4755 1.42247C22.55 1.25118 21.566 1.16433 20.5511 1.16433ZM20.5511 0.404541C21.5628 0.404541 22.5902 0.486026 23.6128 0.675277C29.2308 1.71459 33.2086 4.87311 40.5901 9.83982C48.9557 16.7259 48.836 21.1358 48.836 24.5636C48.836 28.8059 48.1537 34.4856 46.7956 38.6129C44.3381 46.0886 37.2176 51.5384 28.9013 51.5384C24.7746 51.5384 20.9498 48.3913 15.1261 45.3566C9.30251 42.884 3.3209 39.7834 1.23907 35.0163C0.0805253 32.3664 0.79108 27.7611 0.79108 24.5636C2.47097 16.0215 1.37873 14.8085 3.5909 9.83982C4.59669 7.57643 6.75206 5.00953 8.74256 3.54568C9.09394 3.28706 14.5362 0.404541 20.5511 0.404541Z" fill="#707070"/>
<path d="M21.7559 17.6467C22.3193 17.4734 22.7786 17.3867 23.1339 17.3867C24.0006 17.3867 24.6939 17.612 25.2139 18.0627C25.7079 18.496 25.9549 19.0767 25.9549 19.8047C25.9549 21.0267 25.4133 21.759 24.3299 22.0017C24.9539 22.1057 25.4436 22.37 25.7989 22.7947C26.1629 23.2194 26.3449 23.7437 26.3449 24.3677C26.3449 25.269 25.9939 25.9537 25.2919 26.4217C24.7546 26.777 24.0829 26.9547 23.2769 26.9547C22.7569 26.9547 22.2369 26.881 21.7169 26.7337L21.3009 26.2137V25.8107C21.8989 25.9407 22.4233 26.0057 22.8739 26.0057C24.4426 26.0057 25.2269 25.477 25.2269 24.4197C25.2269 23.8477 24.9886 23.3667 24.5119 22.9767C24.2433 22.76 23.9573 22.6127 23.6539 22.5347C23.3593 22.448 22.9216 22.4004 22.3409 22.3917V21.5467H23.4459C23.8619 21.5467 24.1999 21.4124 24.4599 21.1437C24.7286 20.8664 24.8629 20.511 24.8629 20.0777C24.8629 19.5664 24.6939 19.1634 24.3559 18.8687C24.0179 18.5654 23.5586 18.4137 22.9779 18.4137C22.6919 18.4137 22.2846 18.47 21.7559 18.5827V17.6467Z" fill="black"/>
</svg>
