<svg width="51" height="53" viewBox="0 0 51 53" fill="none" xmlns="http://www.w3.org/2000/svg">
<path d="M21.0594 52.176C17.5938 52.176 15.2042 52.0478 13.2457 51.3928C11.4118 50.7795 9.91344 49.682 8.074 47.6044C6.89456 46.2742 4.6625 43.441 2.96313 39.409C1.29362 35.4478 0.583324 31.4218 0.851977 27.4426C1.09117 23.8998 1.48683 21.3413 2.13487 19.1468C2.86943 16.6595 3.95397 14.5596 5.548 12.5383C7.04982 10.6326 8.04192 9.37377 9.78497 8.21619C11.4692 7.09768 13.9222 6.02918 18.5341 4.40519L18.5425 4.40225L18.5507 4.39893C18.8179 4.29104 19.0885 4.18109 19.3623 4.06988C23.0532 2.57063 27.2365 0.871338 30.8739 0.871338C34.4589 0.871338 37.791 2.415 40.5099 5.33544C43.1899 8.21411 45.1157 12.2354 46.079 16.9646L46.0956 17.0461L46.1443 17.1136C47.8932 19.537 48.9048 21.4057 49.5268 23.362C50.1801 25.4169 50.4589 27.7004 50.4589 30.9975C50.4589 33.3604 50.4227 35.4691 49.9782 37.3469C49.5084 39.3316 48.5946 40.9837 47.1022 42.5462C44.5068 45.2653 40.3835 47.7377 35.4917 49.5081C30.7379 51.2285 25.6124 52.176 21.0594 52.176Z" fill="white"/>
<path d="M30.8736 1.2591C27.3129 1.2591 23.1673 2.94307 19.5097 4.4288C19.2357 4.54011 18.9648 4.65016 18.6974 4.75814L18.6642 4.77069C9.66864 7.93825 8.86079 8.96332 5.8549 12.7774C4.29239 14.7588 3.22922 16.8174 2.50906 19.256C1.86935 21.4223 1.47828 23.9551 1.24107 27.4686C0.976509 31.3872 1.67691 35.3541 3.32282 39.2593C5.00064 43.2402 7.20293 46.0358 8.36673 47.3483C10.157 49.3704 11.6065 50.4357 13.3699 51.0254C15.2778 51.6635 17.634 51.7883 21.0591 51.7883C25.5677 51.7883 30.6458 50.8491 35.3578 49.1438C40.194 47.3936 44.2641 44.9558 46.8188 42.2793C48.2616 40.7687 49.1447 39.1733 49.598 37.2582C50.0329 35.4209 50.0683 33.3358 50.0683 30.9975C50.0683 27.7423 49.795 25.4937 49.1543 23.4788C48.5373 21.5383 47.5733 19.7596 45.8269 17.3396L45.7294 17.2045L45.6962 17.0416C44.747 12.3821 42.8545 8.42521 40.2231 5.59875C37.5799 2.75973 34.3469 1.2591 30.8736 1.2591ZM30.8736 0.483643C38.5129 0.483643 44.4983 7.25177 46.4612 16.8877C49.7774 21.483 50.8489 24.5426 50.8489 30.9975C50.8489 35.8765 50.6941 39.3486 47.385 42.8131C41.8261 48.6372 30.3592 52.5637 21.0591 52.5637C13.9396 52.5637 11.436 51.9891 7.78067 47.8605C4.33879 43.9787 -0.145514 36.419 0.462285 27.4167C0.896254 20.989 1.8964 16.5396 5.24049 12.2992C8.35106 8.35223 9.28171 7.25177 18.4035 4.03977C22.2702 2.47797 26.8841 0.483643 30.8736 0.483643Z" fill="#707070"/>
<path d="M18.6217 22.6477C19.2803 22.4397 19.822 22.3357 20.2467 22.3357C21.1567 22.3357 21.8803 22.574 22.4177 23.0507C22.9377 23.51 23.1977 24.121 23.1977 24.8837C23.1977 26.0017 22.6603 26.708 21.5857 27.0027C22.2183 27.1327 22.7037 27.4013 23.0417 27.8087C23.397 28.242 23.5747 28.7273 23.5747 29.2647C23.5747 30.1573 23.202 30.8463 22.4567 31.3317C21.8847 31.7043 21.1957 31.8907 20.3897 31.8907C19.8263 31.8907 19.2717 31.8213 18.7257 31.6827L18.2187 31.0587V30.4607C18.8253 30.5733 19.3453 30.6297 19.7787 30.6297C21.252 30.6297 21.9887 30.179 21.9887 29.2777C21.9887 28.8097 21.785 28.4153 21.3777 28.0947C21.1177 27.8953 20.8403 27.761 20.5457 27.6917C20.2597 27.6223 19.8133 27.579 19.2067 27.5617V26.3527H20.5197C20.849 26.3527 21.122 26.24 21.3387 26.0147C21.5553 25.7807 21.6637 25.4903 21.6637 25.1437C21.6637 24.7017 21.512 24.3593 21.2087 24.1167C20.914 23.8653 20.5067 23.7397 19.9867 23.7397C19.6573 23.7397 19.2023 23.8133 18.6217 23.9607V22.6477ZM27.579 22.2317C28.5756 22.2403 29.347 22.7083 29.893 23.6357C30.4303 24.5543 30.699 25.733 30.699 27.1717C30.699 28.6277 30.4303 29.7803 29.893 30.6297C29.3643 31.4703 28.5973 31.8907 27.592 31.8907C26.552 31.8907 25.7676 31.4487 25.239 30.5647C24.7276 29.698 24.472 28.5713 24.472 27.1847C24.472 25.7633 24.7276 24.5933 25.239 23.6747C25.7763 22.7127 26.5563 22.2317 27.579 22.2317ZM29.113 27.1977C29.113 26.2703 29.0176 25.4947 28.827 24.8707C28.567 24.0127 28.151 23.5793 27.579 23.5707C27.0676 23.5707 26.6863 23.913 26.435 24.5977C26.1836 25.291 26.058 26.1533 26.058 27.1847C26.058 28.112 26.1576 28.8747 26.357 29.4727C26.591 30.1833 26.9983 30.5387 27.579 30.5387C28.6016 30.5387 29.113 29.425 29.113 27.1977Z" fill="black"/>
</svg>
