<svg width="47" height="47" viewBox="0 0 47 47" fill="none" xmlns="http://www.w3.org/2000/svg">
<path d="M22.7426 46.4676C20.0274 46.4676 18.0031 46.0608 15.9736 45.1073C13.9424 44.1529 11.901 42.628 9.44334 40.7336C8.22491 39.7944 7.0797 38.5313 6.0395 36.9793C5.0728 35.5369 4.21674 33.8777 3.49508 32.0478C2.14324 28.6198 1.36792 24.831 1.36792 21.6527C1.36792 18.8947 2.26172 16.1882 4.02449 13.6085C5.6463 11.235 7.92932 9.06059 10.8101 7.14556C13.4958 5.3603 16.6217 3.87766 19.85 2.85792C23.0525 1.84634 26.2846 1.31165 29.197 1.31165C30.7375 1.31165 34.6041 1.50828 37.2293 3.32961C39.361 4.80664 40.5714 7.30181 41.153 8.50093C41.218 8.63492 41.2742 8.75064 41.325 8.85186C41.9811 10.1512 42.4109 12.5119 42.8264 14.795C43.1555 16.6023 43.4662 18.3094 43.8904 19.6023C44.8016 22.3791 45.9126 27.1314 46.0178 27.5842C46.0296 27.8836 46.1027 30.1299 45.7663 32.6148C45.3025 36.0405 44.2804 38.3723 42.8097 39.3609C42.2723 39.6279 41.7376 39.8961 41.172 40.1797C35.2954 43.127 28.6347 46.4676 22.7426 46.4676Z" fill="white"/>
<path d="M29.1969 1.69917C26.3241 1.69917 23.1329 2.22756 19.9681 3.22721C16.7743 4.23605 13.6826 5.70235 11.0271 7.4676C8.18816 9.35477 5.94076 11.4941 4.34727 13.8261C2.62921 16.3404 1.75808 18.9736 1.75808 21.6525C1.75808 24.7842 2.5236 28.5215 3.85834 31.9061C4.56986 33.7103 5.41295 35.3448 6.36423 36.7642C7.38101 38.2812 8.49742 39.5136 9.68246 40.427C12.121 42.3067 14.1449 43.819 16.1404 44.7565C18.1143 45.6839 20.0887 46.0796 22.7425 46.0796C28.5416 46.0796 35.1582 42.7612 40.996 39.8334C41.5537 39.5537 42.0813 39.2891 42.6114 39.0256C43.9748 38.0937 44.9309 35.8646 45.3779 32.574C45.7007 30.197 45.6435 28.0368 45.6291 27.6353C45.4845 27.0148 44.4057 22.4235 43.5193 19.7222C43.0868 18.4043 42.7737 16.6845 42.4423 14.8638C42.0316 12.6078 41.607 10.2749 40.9758 9.02492C40.9237 8.92124 40.867 8.80437 40.8013 8.66905C40.2341 7.49965 39.0537 5.06632 37.0058 3.64729C34.4714 1.889 30.7005 1.69917 29.1969 1.69917ZM29.1969 0.923706C31.1567 0.923706 34.8688 1.21888 37.4526 3.0115C39.9027 4.70915 41.1556 7.64728 41.6741 8.67839C42.8671 11.0412 43.2923 16.5285 44.2614 19.4819C45.2305 22.4352 46.4061 27.5319 46.4061 27.5319C46.4061 27.5319 46.8683 37.1386 43.0064 39.6964C36.7539 42.8023 29.2981 46.8551 22.7425 46.8551C17.0738 46.8551 14.4285 45.0668 9.204 41.0397C3.97954 37.0127 0.977539 27.9273 0.977539 21.6525C0.977539 9.74583 17.2123 0.923706 29.1969 0.923706Z" fill="#707070"/>
<path d="M18.2555 17.4834C18.9141 17.2754 19.4558 17.1714 19.8805 17.1714C20.7905 17.1714 21.5141 17.4097 22.0515 17.8864C22.5715 18.3457 22.8315 18.9567 22.8315 19.7194C22.8315 20.8374 22.2941 21.5437 21.2195 21.8384C21.8521 21.9684 22.3375 22.237 22.6755 22.6444C23.0308 23.0777 23.2085 23.563 23.2085 24.1004C23.2085 24.993 22.8358 25.682 22.0905 26.1674C21.5185 26.54 20.8295 26.7264 20.0235 26.7264C19.4601 26.7264 18.9055 26.657 18.3595 26.5184L17.8525 25.8944V25.2964C18.4591 25.409 18.9791 25.4654 19.4125 25.4654C20.8858 25.4654 21.6225 25.0147 21.6225 24.1134C21.6225 23.6454 21.4188 23.251 21.0115 22.9304C20.7515 22.731 20.4741 22.5967 20.1795 22.5274C19.8935 22.458 19.4471 22.4147 18.8405 22.3974V21.1884H20.1535C20.4828 21.1884 20.7558 21.0757 20.9725 20.8504C21.1891 20.6164 21.2975 20.326 21.2975 19.9794C21.2975 19.5374 21.1458 19.195 20.8425 18.9524C20.5478 18.701 20.1405 18.5754 19.6205 18.5754C19.2911 18.5754 18.8361 18.649 18.2555 18.7964V17.4834ZM27.8888 17.2754V25.8814L27.0828 26.5834H26.3028V19.0824L24.7948 20.3564L24.0408 19.4074L26.5628 17.2754H27.8888Z" fill="black"/>
</svg>
