<svg width="48" height="47" viewBox="0 0 48 47" fill="none" xmlns="http://www.w3.org/2000/svg">
<path d="M19.9549 45.702C17.1396 45.702 16.0147 45.1092 6.66638 39.7166C4.47798 37.8487 2.83695 35.3368 1.78818 32.2497C0.860669 29.5195 0.390381 26.3334 0.390381 22.78C0.390381 19.7744 1.06832 16.8451 2.40537 14.0734C3.67794 11.4353 5.4883 9.05163 7.78618 6.98854C10.0514 4.95477 12.6546 3.35223 15.5235 2.22542C18.4636 1.07063 21.5129 0.485097 24.5865 0.485097C25.4308 0.485097 26.2762 0.459933 27.0938 0.435599C27.9172 0.411087 28.695 0.387939 29.4779 0.387939C31.8465 0.387939 34.3545 0.579397 36.6541 1.96562C37.1022 2.33051 37.5542 2.68752 37.9916 3.03295C39.9319 4.56538 41.7646 6.01281 42.5805 7.63559C43.7849 10.0208 44.3808 12.0391 44.7294 17.6955L44.7317 17.7321L44.7408 17.7676C45.4048 20.3557 45.7805 21.8517 46.0548 22.944C46.4044 24.3362 46.5986 25.1093 47.0274 26.7081C47.0261 29.7524 46.9062 32.2231 46.3331 34.3749C46.0208 35.5473 45.5955 36.5342 45.0327 37.392C44.4257 38.3173 43.6733 39.0719 42.7331 39.6982C36.6595 42.7145 30.1349 45.6562 23.0259 45.6562C22.2903 45.6562 21.6683 45.6705 21.1195 45.6832C20.6842 45.6933 20.3083 45.702 19.9549 45.702Z" fill="white"/>
<path d="M29.4777 0.775466C28.7008 0.775466 27.9258 0.798537 27.1053 0.822957C26.2849 0.847376 25.4366 0.872624 24.5864 0.872624C21.5621 0.872624 18.5611 1.44902 15.6668 2.58579C12.8416 3.69548 10.2782 5.27349 8.04773 7.27601C5.78771 9.30511 4.00772 11.6484 2.75721 14.2407C1.44558 16.9598 0.780536 19.8327 0.780536 22.7798C0.780536 26.291 1.24393 29.4353 2.15784 32.1255C3.17954 35.1329 4.77257 37.5796 6.89355 39.3991C11.4789 42.0442 14.1673 43.5833 15.9758 44.4048C17.6885 45.1828 18.5875 45.314 19.9548 45.314C20.3036 45.314 20.6775 45.3054 21.1103 45.2954C21.6612 45.2827 22.2856 45.2682 23.0258 45.2682C30.0413 45.2682 36.5104 42.3541 42.5361 39.3623C44.2505 38.2132 45.3378 36.5954 45.9557 34.2755C46.5149 32.176 46.6344 29.7491 46.637 26.7585C46.2165 25.19 46.0225 24.4174 45.676 23.0376C45.4018 21.9458 45.0263 20.4504 44.3625 17.8632L44.3443 17.7922L44.3398 17.719C43.9953 12.1304 43.4111 10.1454 42.2313 7.80865C41.454 6.26268 39.6541 4.84121 37.7486 3.33626C37.3172 2.9955 36.8714 2.64346 36.4282 2.28291C34.2167 0.958822 31.7815 0.775466 29.4777 0.775466ZM29.4777 0C32.096 0 34.5953 0.262199 36.8803 1.64837C39.3551 3.66577 41.8837 5.38206 42.9295 7.46212C44.1955 9.96934 44.7724 12.0507 45.1188 17.6716C46.6199 23.522 46.6332 23.7346 47.4176 26.6571C47.4176 32.3804 47.0273 37.3197 42.9295 40.0339C36.2949 43.3296 29.9819 46.0437 23.0258 46.0437C17.0108 46.0437 18.5377 47.013 6.43942 40.0339C1.63564 35.9534 0 29.438 0 22.7798C0 10.1456 11.8696 0.0971607 24.5864 0.0971607C26.2464 0.0971607 27.8842 0 29.4777 0Z" fill="#707070"/>
<path d="M18.4498 16.18C19.1085 15.972 19.6501 15.868 20.0748 15.868C20.9848 15.868 21.7085 16.1064 22.2458 16.583C22.7658 17.0424 23.0258 17.6534 23.0258 18.416C23.0258 19.534 22.4885 20.2404 21.4138 20.535C22.0465 20.665 22.5318 20.9337 22.8698 21.341C23.2251 21.7744 23.4028 22.2597 23.4028 22.797C23.4028 23.6897 23.0301 24.3787 22.2848 24.864C21.7128 25.2367 21.0238 25.423 20.2178 25.423C19.6545 25.423 19.0998 25.3537 18.5538 25.215L18.0468 24.591V23.993C18.6535 24.1057 19.1735 24.162 19.6068 24.162C21.0801 24.162 21.8168 23.7114 21.8168 22.81C21.8168 22.342 21.6131 21.9477 21.2058 21.627C20.9458 21.4277 20.6685 21.2934 20.3738 21.224C20.0878 21.1547 19.6415 21.1114 19.0348 21.094V19.885H20.3478C20.6771 19.885 20.9501 19.7724 21.1668 19.547C21.3835 19.313 21.4918 19.0227 21.4918 18.676C21.4918 18.234 21.3401 17.8917 21.0368 17.649C20.7421 17.3977 20.3348 17.272 19.8148 17.272C19.4855 17.272 19.0305 17.3457 18.4498 17.493V16.18ZM24.6251 16.674C25.4484 16.1367 26.2804 15.868 27.1211 15.868C27.9618 15.868 28.6031 16.115 29.0451 16.609C29.4351 17.0337 29.6301 17.6014 29.6301 18.312C29.6301 18.8407 29.5044 19.3607 29.2531 19.872C29.0018 20.3834 28.5641 21.0204 27.9401 21.783C27.2381 22.6324 26.8481 23.096 26.7701 23.174L26.0031 23.954H29.8121V24.474L29.1621 25.28H24.2351V23.954L25.1971 22.966L26.1331 21.9C26.8524 21.1027 27.3161 20.5524 27.5241 20.249C27.9661 19.6164 28.1871 19.0574 28.1871 18.572C28.1871 18.1907 28.0614 17.883 27.8101 17.649C27.5674 17.4064 27.2468 17.285 26.8481 17.285C26.3801 17.285 25.9034 17.454 25.4181 17.792L24.6251 16.674Z" fill="black"/>
</svg>
