<svg width="49" height="43" viewBox="0 0 49 43" fill="none" xmlns="http://www.w3.org/2000/svg">
<path d="M14.1527 33.2037C11.5652 32.2574 9.88019 31.544 8.30038 29.6197C6.8629 27.8721 5.8272 25.4852 5.38382 22.8982C4.94454 20.3352 5.11745 17.7784 5.8707 15.6988C6.70713 13.3896 8.63961 10.879 11.0401 8.98296C12.3442 7.95294 13.7319 7.13644 15.1648 6.55614C16.7245 5.92451 18.2964 5.59247 19.8367 5.56928C21.3437 5.54574 23.8646 6.11074 26.4157 7.04378C29.3478 8.11617 31.989 9.55014 33.8527 11.0815C34.7499 11.8188 39.346 15.7067 41.7255 19.8578C43.6135 23.1479 43.8954 26.6805 42.5634 30.3579C41.9592 32.0261 40.9523 33.1743 39.3947 33.9714C37.9202 34.7259 35.8756 35.1983 32.96 35.4581C28.2786 35.8765 21.0282 35.7128 16.0011 33.8742C15.6558 33.7479 15.3242 33.6281 15.0052 33.5129C14.7105 33.4065 14.4266 33.3039 14.1527 33.2037Z" fill="white"/>
<path d="M26.2867 7.40035C23.8142 6.49605 21.2852 5.92628 19.8433 5.94881C18.3497 5.97131 16.8236 6.29407 15.3073 6.90814C13.9076 7.47501 12.5509 8.27346 11.2749 9.2813C8.92732 11.1355 7.04018 13.5832 6.22675 15.8289C5.4956 17.8475 5.32881 20.3355 5.75712 22.8345C6.18949 25.3573 7.19636 27.6812 8.59268 29.3787C10.1112 31.2282 11.7551 31.9229 14.282 32.8471C14.5555 32.9471 14.839 33.0495 15.1332 33.1558C15.4526 33.2712 15.7847 33.3911 16.1305 33.5176C21.099 35.3347 28.2833 35.4949 32.926 35.0799C38.5939 34.5749 41.1095 33.2598 42.2078 30.2277C43.4999 26.6605 43.2274 23.2351 41.3976 20.0465C39.0511 15.953 34.5014 12.1048 33.6132 11.375C31.7817 9.87 29.1798 8.45845 26.2867 7.40035ZM26.5451 6.68704C29.1846 7.65239 31.9794 9.05154 34.0926 10.788C36.1355 12.4667 39.9711 16.0355 42.0539 19.669C44.0835 23.2057 44.2231 26.8893 42.9196 30.4881C41.6311 34.0455 38.5775 35.3388 32.9944 35.8363C28.1597 36.2684 20.9144 36.075 15.8721 34.2309C12.1008 32.8516 9.97136 32.2517 8.00839 29.8607C4.93263 26.1214 3.92174 19.9671 5.51493 15.5686C7.18803 10.9495 13.1785 5.28974 19.8306 5.18956C21.3099 5.16645 23.8463 5.69999 26.5451 6.68704Z" fill="#707070"/>
<path d="M23.1266 14.0338V20.0788H24.5046V21.0798H23.1266V22.8478L22.5676 23.3418H22.0216V21.0798H18.2126V20.1048L21.9306 14.0338H23.1266ZM22.0216 15.4898L19.3046 20.0788H22.0216V15.4898Z" fill="black"/>
</svg>
