<svg width="47" height="42" viewBox="0 0 47 42" fill="none" xmlns="http://www.w3.org/2000/svg">
<path d="M13.1368 32.6694C10.586 31.7365 8.74792 30.845 7.46776 29.2857C4.4185 25.5786 4.5695 19.7345 6.07173 15.5871C6.98031 13.0787 8.80239 10.3542 10.9458 8.29919C12.788 6.53297 15.7489 4.41604 19.3927 4.36116C20.2046 4.34847 21.3546 4.60547 22.7187 5.10435C25.848 6.24886 29.7186 8.50745 32.5796 10.8584C35.0211 12.8646 37.1495 15.4354 38.9057 18.4992C39.9932 20.3942 40.9128 22.116 41.1524 24.0014C41.4294 26.1812 40.714 28.2958 38.9656 30.4653C36.6588 32.6741 35.2205 33.9159 33.7733 34.5686C32.3639 35.2042 30.881 35.3362 28.189 35.5757L28.0015 35.5924C23.2185 36.02 21.1883 35.587 16.2026 33.7635C15.6476 33.5605 15.1053 33.3694 14.5808 33.1845C14.0779 33.0073 13.603 32.8399 13.1368 32.6694Z" fill="white"/>
<path d="M22.5892 5.46102C21.2682 4.97787 20.1651 4.72882 19.3987 4.74079C15.8776 4.79382 13.0007 6.85449 11.2074 8.57384C9.10397 10.5905 7.31702 13.261 6.42733 15.7173C5.63188 17.9134 5.28472 20.3882 5.44978 22.6858C5.63264 25.2311 6.43121 27.4298 7.75959 29.0448C8.985 30.5373 10.7749 31.4018 13.2657 32.3128C13.7298 32.4825 14.2037 32.6496 14.7055 32.8264C15.231 33.0116 15.7744 33.2032 16.3315 33.4069C21.2547 35.2075 23.2575 35.6353 27.9671 35.2143L28.1546 35.1976C30.8056 34.9617 32.266 34.8317 33.6172 34.2223C35.0109 33.5938 36.4205 32.3759 38.6859 30.2075C39.5734 29.1025 40.1916 27.9998 40.5236 26.9293C40.8191 25.9766 40.9018 25.0344 40.7765 24.0488C40.5458 22.2333 39.6441 20.547 38.5773 18.688C36.8441 15.6643 34.7454 13.1288 32.3396 11.1519C29.5089 8.82586 25.6817 6.59207 22.5892 5.46102ZM22.8476 4.74766C25.941 5.87906 29.8519 8.12673 32.819 10.5649C34.862 12.2437 37.1508 14.6767 39.2337 18.3104C41.2633 21.8472 43.3179 25.6857 39.2446 30.7234C34.2972 35.462 33.6188 35.4732 28.0354 35.9707C23.2006 36.4029 21.1156 35.9645 16.0731 34.1202C12.3016 32.7409 9.13832 31.9179 7.17528 29.5268C4.09939 25.7873 4.12222 19.8557 5.71547 15.4569C7.38864 10.8376 12.7337 4.08168 19.386 3.9815C20.2809 3.96751 21.485 4.24931 22.8476 4.74766Z" fill="#707070"/>
<path d="M23.8017 13.9217V14.8577H20.7727L20.6167 17.7307C21.0154 17.6701 21.3317 17.6397 21.5657 17.6397C22.5277 17.6397 23.2687 17.9344 23.7887 18.5237C24.2394 19.0351 24.4647 19.7154 24.4647 20.5647C24.4647 21.5181 24.131 22.2374 23.4637 22.7227C22.935 23.1127 22.2417 23.3077 21.3837 23.3077C20.8637 23.3077 20.3437 23.2297 19.8237 23.0737L19.4077 22.5667V22.1637C20.0057 22.2851 20.53 22.3457 20.9807 22.3457C21.7867 22.3457 22.376 22.2157 22.7487 21.9557C23.1647 21.6697 23.3727 21.1974 23.3727 20.5387C23.3727 19.2214 22.597 18.5627 21.0457 18.5627C20.6817 18.5627 20.153 18.6017 19.4597 18.6797L19.7197 13.9217H23.8017Z" fill="black"/>
</svg>
