<svg width="32" height="37" viewBox="0 0 32 37" fill="none" xmlns="http://www.w3.org/2000/svg">
<path d="M19.349 35.9592C17.7395 35.9592 15.7854 35.5561 13.6979 34.7934C11.5739 34.0173 9.46141 32.9215 7.58877 31.6244C5.57348 30.2285 3.89733 28.6322 2.74151 27.0081C1.44956 25.1927 0.794487 23.3581 0.794487 21.5554C0.794487 21.1823 0.779066 20.9249 0.765462 20.6978C0.721755 19.9682 0.701807 19.6352 1.43382 16.5796C1.55828 16.0601 1.67989 15.5331 1.79751 15.0234C2.59658 11.5605 3.35132 8.28973 5.18417 6.15686C7.32368 3.66714 8.8727 2.54241 11.1525 1.2244C11.9834 0.743166 13.0938 0.519104 14.6472 0.519104C15.2933 0.519104 15.9256 0.555536 16.537 0.590775C17.0649 0.621189 17.5634 0.649917 18.0047 0.649917C19.5723 0.649917 23.8488 3.48504 25.7618 6.13181C26.3354 6.92506 26.9618 8.39346 27.5676 9.81352C28.2235 11.3511 28.7932 12.6866 29.3213 13.2839C29.4662 13.6926 29.5997 14.0603 29.729 14.4167C30.659 16.9794 31.0835 18.149 31.0835 21.9032C31.0835 25.6697 29.8551 29.208 27.6247 31.8662C25.41 34.5056 22.4709 35.9592 19.349 35.9592Z" fill="white"/>
<path d="M14.6472 0.898949C13.1629 0.898949 12.1126 1.10685 11.3414 1.55353C9.0985 2.85018 7.57473 3.9565 5.47074 6.40491C3.69893 8.46677 2.95442 11.6932 2.1662 15.109C2.04841 15.6195 1.92661 16.1473 1.80178 16.6684C1.08296 19.6689 1.10185 19.9841 1.14323 20.6749C1.15646 20.8959 1.17294 21.1708 1.17294 21.5553C1.17294 23.2773 1.80429 25.0376 3.04945 26.7872C4.1801 28.3759 5.82409 29.9405 7.8037 31.3117C9.65022 32.5907 11.7331 33.6712 13.8273 34.4363C15.8737 35.1841 17.7831 35.5793 19.3489 35.5793C25.6106 35.5793 30.7049 29.4442 30.7049 21.9031C30.7049 18.2159 30.2876 17.0661 29.3733 14.5467C29.2507 14.2089 29.1244 13.8609 28.988 13.4772C28.4333 12.8084 27.8676 11.4822 27.2195 9.96298C26.6219 8.56217 26.004 7.11368 25.4553 6.35482C24.5984 5.16928 23.1281 3.80112 21.5222 2.69497C19.8521 1.54466 18.5521 1.02976 18.0046 1.02976C17.5525 1.02976 17.0486 1.00073 16.5152 0.969996C15.9091 0.935068 15.2823 0.898949 14.6472 0.898949ZM14.6472 0.13916C15.8746 0.13916 17.0786 0.269972 18.0046 0.269972C19.7433 0.269972 24.1006 3.18656 26.0681 5.9087C27.2904 7.59895 28.6805 12.0824 29.6519 13.083C30.8838 16.5673 31.462 17.534 31.462 21.9031C31.462 29.8759 26.0387 36.3391 19.3489 36.3391C12.659 36.3391 0.415868 29.5281 0.415868 21.5553C0.415868 19.9265 0.107756 20.4894 1.06569 16.4908C2.02362 12.4922 2.72171 8.44058 4.89743 5.9087C7.07314 3.37683 8.66702 2.2228 10.9635 0.895163C12.014 0.286727 13.3437 0.13916 14.6472 0.13916Z" fill="#707070"/>
<path d="M14.3981 15.4635C14.9528 14.7442 15.6071 14.3845 16.3611 14.3845C17.2365 14.3845 17.9038 14.7008 18.3631 15.3335C18.7271 15.8448 18.9091 16.4905 18.9091 17.2705C18.9091 18.2238 18.6361 18.9778 18.0901 19.5325C17.5875 20.0265 16.9288 20.2735 16.1141 20.2735C14.2681 20.2735 13.3451 19.0602 13.3451 16.6335V16.1395C13.3451 14.5622 13.6571 13.2795 14.2811 12.2915C14.9485 11.2255 15.9105 10.6925 17.1671 10.6925C17.3231 10.6925 17.5138 10.7012 17.7391 10.7185L18.1811 11.2645V11.6675C17.8345 11.6155 17.5485 11.5895 17.3231 11.5895C15.6505 11.5895 14.6755 12.8808 14.3981 15.4635ZM17.7911 17.2185C17.7911 16.6725 17.6438 16.2218 17.3491 15.8665C17.0631 15.5025 16.6948 15.3205 16.2441 15.3205C15.7588 15.3205 15.3125 15.5242 14.9051 15.9315C14.5498 16.2868 14.3721 16.6725 14.3721 17.0885C14.3721 17.7298 14.5368 18.2585 14.8661 18.6745C15.1868 19.0732 15.6115 19.2725 16.1401 19.2725C16.6255 19.2725 17.0198 19.0862 17.3231 18.7135C17.6351 18.3322 17.7911 17.8338 17.7911 17.2185Z" fill="black"/>
</svg>
