<svg width="31" height="35" viewBox="0 0 31 35" fill="none" xmlns="http://www.w3.org/2000/svg">
<path d="M19.9841 33.8454C16.4588 33.8454 11.7494 32.2851 7.98634 29.8703C5.99007 28.5893 4.33309 27.1108 3.19455 25.5945C1.93097 23.9117 1.29028 22.1945 1.29028 20.4906C1.29028 17.1492 4.18533 12.2777 8.84564 7.77703C11.008 5.6888 13.3248 3.90595 15.5457 2.62121C17.8758 1.27323 19.9644 0.56073 21.5856 0.56073C23.1312 0.56073 24.5163 1.29363 25.7025 2.73906C26.7655 4.03444 27.674 5.89618 28.4026 8.27254C30.1016 13.8137 30.2337 20.0318 30.2337 21.8056C30.2337 23.6616 30.0163 25.3508 29.5877 26.8264C29.1578 28.3063 28.513 29.5782 27.6711 30.6068C25.9123 32.7558 23.326 33.8454 19.9841 33.8454Z" fill="white"/>
<path d="M21.5857 0.940575C18.4784 0.940575 13.5807 3.73147 9.10822 8.05073C6.94084 10.1438 5.10098 12.3838 3.78758 14.5285C2.40155 16.7918 1.66893 18.8534 1.66893 20.4906C1.66893 22.1101 2.28398 23.7504 3.49698 25.3658C4.60869 26.8464 6.23164 28.2933 8.19038 29.5502C11.8968 31.9287 16.5262 33.4655 19.9842 33.4655C23.2074 33.4655 25.6952 32.4225 27.3788 30.3656C28.1879 29.3769 28.8089 28.1504 29.2244 26.72C29.643 25.279 29.8552 23.6256 29.8552 21.8056C29.8552 20.0452 29.7244 13.8747 28.0409 8.38422C27.3269 6.0555 26.4419 4.23742 25.4104 2.98052C24.284 1.60784 23.0329 0.940575 21.5857 0.940575ZM21.5857 0.180786C28.6937 0.180786 30.6123 14.2524 30.6123 21.8056C30.6123 29.3587 27.0922 34.2253 19.9842 34.2253C12.8762 34.2253 0.911865 28.0437 0.911865 20.4906C0.911865 12.9374 14.4777 0.180786 21.5857 0.180786Z" fill="#707070"/>
<path d="M18.9251 11.5355V12.3545L15.8311 20.2325L15.0771 20.8435H14.4011L17.7811 12.4715H13.2701V11.5355H18.9251Z" fill="black"/>
</svg>
