<svg width="54" height="53" viewBox="0 0 54 53" fill="none" xmlns="http://www.w3.org/2000/svg">
<path d="M15.9832 42.8315C13.4497 40.2888 10.8763 35.3808 9.57964 30.6185C8.87796 28.0414 8.58035 25.6105 8.71899 23.5886C8.87411 21.3261 9.55475 19.5748 10.742 18.3833C12.2832 16.8366 15.5138 16.6255 19.2546 16.3811C21.1038 16.2603 23.016 16.1353 24.9238 15.8376C26.9299 15.5242 29.0115 14.9819 31.0245 14.4574C35.3722 13.3247 39.4787 12.2549 41.2174 13.9999C42.3729 15.1595 43.1277 16.8914 43.4608 19.1477C43.7762 21.2835 43.6852 23.8305 43.1977 26.5132C42.1838 32.0925 39.5866 37.7081 36.2502 41.5349C34.6706 43.3467 32.9465 44.7335 31.126 45.6567C29.462 46.5006 27.7182 46.9585 25.9429 47.0179C22.3829 47.1368 18.7528 45.6109 15.9832 42.8315Z" fill="white"/>
<path d="M40.9498 14.2685C39.3642 12.6772 35.3595 13.7206 31.1196 14.8251C29.0976 15.3519 27.0068 15.8967 24.982 16.213C23.0574 16.5133 21.1367 16.6388 19.2792 16.7602C17.4163 16.8819 15.6567 16.9969 14.1923 17.2792C12.6597 17.5747 11.6484 18.0109 11.0096 18.6519C9.88893 19.7767 9.24531 21.4464 9.09663 23.6147C8.96087 25.5946 9.25416 27.9819 9.94479 30.5184C11.2256 35.2226 13.7598 40.0629 16.2509 42.5629C18.9466 45.2683 22.4746 46.7537 25.9303 46.6382C27.6501 46.5807 29.3408 46.1364 30.9553 45.3177C32.7322 44.4165 34.4178 43.0597 35.9653 41.2848C39.2587 37.5074 41.8232 31.9598 42.8253 26.445C43.3055 23.8027 43.3957 21.2986 43.0864 19.2034C42.7699 17.0602 42.0311 15.3537 40.9498 14.2685ZM41.4851 13.7313C46.5112 18.7754 43.669 33.6027 36.5351 41.7851C29.4011 49.9675 20.7417 48.1443 15.7156 43.1001C10.6895 38.056 5.15255 23.4556 10.4743 18.1147C12.9064 15.6739 19.044 16.3708 24.8656 15.4622C31.3438 14.4502 38.7559 10.9923 41.4851 13.7313Z" fill="#707070"/>
<path d="M25.0708 26.6625C23.9528 25.9172 23.3938 25.0549 23.3938 24.0755C23.3938 23.3302 23.6624 22.7712 24.1998 22.3985C24.6244 22.0952 25.1704 21.9435 25.8378 21.9435C26.6264 21.9435 27.2418 22.1472 27.6838 22.5545C28.1084 22.9359 28.3208 23.4602 28.3208 24.1275C28.3208 24.6389 28.2038 25.0679 27.9698 25.4145C27.7444 25.7612 27.3111 26.1642 26.6698 26.6235C28.0651 27.2822 28.7628 28.1575 28.7628 29.2495C28.7628 30.0469 28.4161 30.6579 27.7228 31.0825C27.1941 31.4119 26.5658 31.5765 25.8378 31.5765C24.9711 31.5765 24.2691 31.3642 23.7318 30.9395C23.2031 30.5235 22.9388 29.9515 22.9388 29.2235C22.9388 28.1402 23.6494 27.2865 25.0708 26.6625ZM25.8898 26.2205C26.7738 25.6659 27.2158 24.9509 27.2158 24.0755C27.2158 23.6595 27.0944 23.3302 26.8518 23.0875C26.6091 22.8362 26.2798 22.7105 25.8638 22.7105C25.4044 22.7105 25.0578 22.8492 24.8238 23.1265C24.6071 23.3692 24.4988 23.6899 24.4988 24.0885C24.4988 24.4959 24.6028 24.8685 24.8108 25.2065C25.0361 25.5879 25.3958 25.9259 25.8898 26.2205ZM25.8768 26.9875C25.2268 27.2995 24.7674 27.6159 24.4988 27.9365C24.2388 28.2485 24.1088 28.6429 24.1088 29.1195C24.1088 29.6049 24.2648 29.9862 24.5768 30.2635C24.8888 30.5322 25.3178 30.6665 25.8638 30.6665C26.4098 30.6665 26.8388 30.5279 27.1508 30.2505C27.4714 29.9732 27.6318 29.6005 27.6318 29.1325C27.6318 28.6819 27.4974 28.2919 27.2288 27.9625C26.9601 27.6332 26.5094 27.3082 25.8768 26.9875Z" fill="black"/>
</svg>
