<svg width="53" height="53" viewBox="0 0 53 53" fill="none" xmlns="http://www.w3.org/2000/svg">
<path d="M12.2764 13.638C13.9732 11.9351 16.8902 12.7429 20.5833 13.7657C22.3508 14.2552 24.354 14.81 26.4559 15.1384C28.2712 15.4217 30.3401 15.5842 32.3409 15.7413C36.682 16.0823 41.1709 16.4349 42.7518 18.0214C43.939 19.2129 44.6197 20.9642 44.7748 23.2267C44.9134 25.2486 44.6158 27.6795 43.9142 30.2566C42.6175 35.019 40.0441 39.927 37.5106 42.4696C36.1731 43.8119 34.5486 44.9135 32.8126 45.6554C30.9451 46.4535 29.0169 46.8254 27.0816 46.7607C25.2656 46.7 23.4956 46.2493 21.8208 45.4211C19.9851 44.5134 18.2689 43.1521 16.7197 41.3753C15.0193 39.425 13.5572 37.0501 12.374 34.3165C11.2667 31.7582 10.4582 28.973 10.0357 26.2619C9.16037 20.6438 9.99799 15.9246 12.2764 13.638Z" fill="white"/>
<path d="M12.5439 13.9066C10.3507 16.1077 9.5528 20.7046 10.4096 26.2032C10.8271 28.8829 11.6264 31.6361 12.721 34.1651C13.8886 36.8627 15.3298 39.2044 17.0044 41.1251C18.5206 42.8641 20.1973 44.1948 21.9879 45.0803C23.6142 45.8845 25.3321 46.3221 27.094 46.381C28.9738 46.4438 30.8478 46.0821 32.6642 45.3059C34.356 44.5828 35.9392 43.5092 37.2427 42.201C39.7338 39.701 42.268 34.8607 43.5488 30.1565C44.2395 27.62 44.5327 25.2327 44.397 23.2528C44.2483 21.0845 43.6047 19.4148 42.484 18.29C41.8428 17.6466 40.5798 17.1612 38.6229 16.8062C36.7724 16.4705 34.5044 16.2923 32.3112 16.1201C30.3033 15.9624 28.2271 15.7993 26.3975 15.5138C24.2741 15.1821 22.2597 14.6242 20.4825 14.1319C18.5898 13.6078 16.9553 13.1551 15.5653 13.0517C14.1684 12.9478 13.2365 13.2115 12.5439 13.9066ZM12.0085 13.3694C14.7377 10.6304 20.0359 13.751 26.514 14.763C32.3356 15.6716 40.5873 15.312 43.0193 17.7528C48.3411 23.0937 42.8042 37.6941 37.7781 42.7382C32.7519 47.7824 23.5686 49.8078 16.4347 41.6255C9.30074 33.4431 6.98242 18.4136 12.0085 13.3694Z" fill="#707070"/>
<path d="M27.2357 26.7925C26.733 27.5031 26.0787 27.8585 25.2727 27.8585C24.3974 27.8585 23.73 27.5421 23.2707 26.9095C22.898 26.3981 22.7117 25.7481 22.7117 24.9595C22.7117 24.0061 22.989 23.2565 23.5437 22.7105C24.0377 22.2078 24.692 21.9565 25.5067 21.9565C26.7114 21.9565 27.526 22.5025 27.9507 23.5945C28.2194 24.2531 28.3537 25.1935 28.3537 26.4155C28.3537 29.8215 27.1447 31.5245 24.7267 31.5245C24.51 31.5245 24.2284 31.5071 23.8817 31.4725L23.4657 30.9395V30.5495C23.8124 30.6015 24.107 30.6275 24.3497 30.6275C25.3897 30.6275 26.122 30.3458 26.5467 29.7825C26.9714 29.2105 27.201 28.2138 27.2357 26.7925ZM25.4937 22.9575C24.9304 22.9575 24.4927 23.1958 24.1807 23.6725C23.9467 24.0451 23.8297 24.4915 23.8297 25.0115C23.8297 25.5661 23.977 26.0255 24.2717 26.3895C24.5664 26.7448 24.939 26.9225 25.3897 26.9225C25.9097 26.9225 26.33 26.7535 26.6507 26.4155C26.9714 26.0775 27.1317 25.6398 27.1317 25.1025C27.1317 23.6725 26.5857 22.9575 25.4937 22.9575Z" fill="black"/>
</svg>
