<svg width="23" height="20" viewBox="0 0 23 20" fill="none" xmlns="http://www.w3.org/2000/svg">
<ellipse cx="11.0617" cy="10" rx="11.0617" ry="10" fill="#6854C2"/>
<path d="M9.73894 13.46V4.34H12.2589V13.46H9.73894ZM12.5589 15.96C12.5589 15.9733 12.5589 15.9867 12.5589 16C12.5589 16.4267 12.4256 16.7733 12.1589 17.04C11.8923 17.3067 11.5389 17.44 11.0989 17.44C10.6456 17.44 10.2789 17.3 9.99894 17.02C9.73227 16.7533 9.59894 16.3933 9.59894 15.94V15.9C9.62561 15.4867 9.77227 15.1533 10.0389 14.9C10.3189 14.6467 10.6723 14.52 11.0989 14.52C11.5389 14.52 11.8923 14.6533 12.1589 14.92C12.4256 15.1867 12.5589 15.5333 12.5589 15.96Z" fill="white"/>
</svg>
