<svg width="10" height="17" viewBox="0 0 10 17" fill="none" xmlns="http://www.w3.org/2000/svg">
<path d="M7.92159 16.199C7.7301 16.1996 7.5409 16.1614 7.36789 16.0873C7.19487 16.0133 7.04245 15.9051 6.92181 15.7709L0.730916 8.8291C0.542393 8.62208 0.439331 8.36241 0.439331 8.09443C0.439331 7.82644 0.542393 7.56677 0.730916 7.35975L7.13971 0.417957C7.35728 0.181685 7.66991 0.0331022 8.00884 0.0048957C8.34777 -0.0233108 8.68524 0.0711693 8.94699 0.267551C9.20875 0.463933 9.37336 0.74613 9.40461 1.05206C9.43586 1.35799 9.33119 1.6626 9.11362 1.89887L3.38416 8.10021L8.92136 14.3015C9.07809 14.4714 9.17766 14.6782 9.20827 14.8975C9.23887 15.1168 9.19925 15.3394 9.09407 15.539C8.98889 15.7386 8.82257 15.9069 8.61479 16.0238C8.407 16.1408 8.16644 16.2016 7.92159 16.199Z" fill="black"/>
</svg>
