<svg width="31" height="31" viewBox="0 0 31 31" fill="none" xmlns="http://www.w3.org/2000/svg">
<g clip-path="url(#clip0_201_267)">
<path d="M15.8604 2.15642C15.6291 2.06372 15.3709 2.06372 15.1396 2.15642L3.57662 6.78123L15.5 11.5494L27.4234 6.78123L15.8604 2.15642ZM29.0625 8.21304L16.4688 13.2505V28.5994L29.0625 23.5619V8.21304ZM14.5312 28.6014V13.2486L1.9375 8.21304V23.5639L14.5312 28.6014ZM14.4208 0.35648C15.1136 0.0794156 15.8864 0.0794156 16.5792 0.35648L30.3916 5.88223C30.5712 5.9542 30.7251 6.07829 30.8336 6.23852C30.942 6.39874 31 6.58776 31 6.78123V23.5639C30.9998 23.951 30.8835 24.3292 30.6663 24.6497C30.4491 24.9702 30.1408 25.2182 29.7813 25.3619L15.8604 30.9302C15.6291 31.0229 15.3709 31.0229 15.1396 30.9302L1.22063 25.3619C0.860737 25.2185 0.552076 24.9706 0.334494 24.6501C0.116912 24.3296 0.000399763 23.9512 0 23.5639L0 6.78123C4.50274e-05 6.58776 0.058016 6.39874 0.166445 6.23852C0.274874 6.07829 0.428793 5.9542 0.608375 5.88223L14.4208 0.35648Z" fill="white"/>
</g>
<defs>
<clipPath id="clip0_201_267">
<rect width="31" height="31" fill="white"/>
</clipPath>
</defs>
</svg>
