<svg width="14" height="28" viewBox="0 0 14 28" fill="none" xmlns="http://www.w3.org/2000/svg">
<path fill-rule="evenodd" clip-rule="evenodd" d="M6.59578 0C7.59 0 8.39568 0.805896 8.39568 1.8V3.4781C9.32304 3.69485 10.2216 4.0884 10.9956 4.68348C12.317 5.69954 13.2 7.2557 13.2 9.22858C13.2 10.2227 12.3941 11.0286 11.4 11.0286C10.4059 11.0286 9.6 10.2227 9.6 9.22858C9.6 8.42926 9.28152 7.90668 8.80128 7.53746C8.2716 7.13028 7.47792 6.87214 6.597 6.87274C5.71711 6.87334 4.92514 7.13191 4.3969 7.53886C3.91786 7.9079 3.6 8.43005 3.6 9.22858C3.6 9.96595 3.86438 10.3837 4.38914 10.7825C5.03794 11.2756 5.96578 11.6395 7.2324 12.1147C7.26984 12.1288 7.30776 12.143 7.34592 12.1573C8.46288 12.5759 9.876 13.1054 10.9891 13.9512C12.2645 14.9206 13.2 16.3382 13.2 18.3715C13.2 20.3443 12.317 21.9005 10.9956 22.9164C10.2216 23.5116 9.32304 23.9052 8.39568 24.1219V25.8C8.39568 26.7941 7.59 27.6 6.59578 27.6C5.60167 27.6 4.79578 26.7941 4.79578 25.8V24.12C3.86969 23.9023 2.97264 23.5082 2.19994 22.913C0.880753 21.8969 0 20.3419 0 18.3715C0 17.3772 0.805896 16.5715 1.8 16.5715C2.7941 16.5715 3.6 17.3772 3.6 18.3715C3.6 19.17 3.91786 19.692 4.3969 20.0611C4.92514 20.4682 5.71711 20.7266 6.597 20.7274C7.47792 20.7278 8.2716 20.4696 8.80128 20.0626C9.28152 19.6934 9.6 19.1707 9.6 18.3715C9.6 17.634 9.33552 17.2164 8.81088 16.8175C8.16216 16.3243 7.23432 15.9605 5.96772 15.4853C5.93016 15.4711 5.89226 15.457 5.85398 15.4426C4.73705 15.0242 3.32393 14.4946 2.21086 13.6487C0.935617 12.6795 0 11.2618 0 9.22858C0 7.25815 0.880753 5.70319 2.19994 4.68696C2.97264 4.09171 3.86969 3.69766 4.79578 3.48007V1.8C4.79578 0.805896 5.60167 0 6.59578 0Z" fill="white"/>
</svg>
