<svg width="38" height="32" viewBox="0 0 38 32" fill="none" xmlns="http://www.w3.org/2000/svg">
<g filter="url(#filter0_d_596_2)">
<path d="M6.58737 8.94228C6.36981 8.43465 5.78193 8.19949 5.27431 8.41705C4.76668 8.63461 4.53152 9.22249 4.74908 9.73012L6.58737 8.94228ZM33.2541 9.73012C33.4716 9.22249 33.2365 8.63461 32.7288 8.41705C32.2212 8.19949 31.6333 8.43465 31.4157 8.94228L33.2541 9.73012ZM19.0016 17.6695C14.703 17.6695 11.6167 15.529 9.5677 13.3224C8.5435 12.2194 7.79256 11.1133 7.29835 10.2831C7.05181 9.86886 6.87072 9.52596 6.75276 9.29002C6.69381 9.17214 6.65075 9.0812 6.62325 9.02168C6.60952 8.99193 6.59968 8.97006 6.59371 8.95664C6.59072 8.94993 6.58843 8.94469 6.58737 8.94228C6.58741 8.94238 6.58735 8.94222 6.58737 8.94228C6.58751 8.94258 6.58737 8.94228 5.66823 9.3362C4.74908 9.73012 4.74888 9.72966 4.74908 9.73012C4.74916 9.73032 4.74975 9.73166 4.74992 9.73206C4.75025 9.73285 4.75067 9.7338 4.75113 9.73486C4.75205 9.73702 4.75324 9.73974 4.75467 9.74302C4.75753 9.74957 4.7614 9.75836 4.76627 9.7693C4.776 9.7912 4.78976 9.82173 4.8076 9.86034C4.84325 9.93756 4.89524 10.0471 4.96391 10.1845C5.10115 10.4589 5.30548 10.8452 5.57977 11.306C6.12723 12.2257 6.95963 13.453 8.1021 14.6833C10.3865 17.1434 13.9667 19.6695 19.0016 19.6695V17.6695ZM23.4182 16.8439C22.1244 17.3533 20.6572 17.6695 19.0016 17.6695V19.6695C20.9192 19.6695 22.6344 19.3018 24.1508 18.705L23.4182 16.8439ZM32.3349 9.3362C31.4157 8.94228 31.4156 8.94246 31.4157 8.94228C31.4158 8.94206 31.4164 8.94085 31.4164 8.941C31.4162 8.94126 31.4158 8.94222 31.415 8.94388C31.4136 8.94717 31.4109 8.9532 31.407 8.96185C31.3993 8.97917 31.3868 9.00698 31.3693 9.04453C31.3342 9.11962 31.2797 9.23346 31.205 9.37976C31.0557 9.67256 30.8269 10.0939 30.5154 10.5938C29.8908 11.5964 28.9433 12.8988 27.6505 14.1122L29.0193 15.5705C30.4713 14.2075 31.5238 12.7574 32.2129 11.6515C32.5584 11.0971 32.8149 10.6253 32.9868 10.2884C33.0726 10.1199 33.1376 9.98477 33.182 9.88962C33.2041 9.84205 33.2212 9.80444 33.2332 9.77758C33.2392 9.76416 33.244 9.75342 33.2474 9.74548C33.2492 9.7415 33.2505 9.73824 33.2517 9.73566C33.2522 9.73438 33.2526 9.73328 33.253 9.73236C33.2533 9.73189 33.254 9.73049 33.2541 9.73012C33.2542 9.72993 33.2541 9.73021 33.2541 9.73012C33.2542 9.72989 33.2541 9.73012 32.3349 9.3362ZM27.6505 14.1122C26.5052 15.1871 25.1001 16.1819 23.4182 16.8439L24.1508 18.705C26.1156 17.9317 27.7304 16.7802 29.0193 15.5705L27.6505 14.1122Z" fill="#6854C2"/>
<path opacity="0.5" d="M20.0013 18.6642C20.0013 18.1119 19.5536 17.6642 19.0013 17.6642C18.449 17.6642 18.0013 18.1119 18.0013 18.6642H20.0013ZM24.6224 17.2236C24.3212 16.7607 23.7017 16.6296 23.2388 16.9308C22.776 17.232 22.6448 17.8515 22.9461 18.3144L24.6224 17.2236ZM15.0566 18.3144C15.3578 17.8515 15.2267 17.232 14.7638 16.9308C14.3008 16.6296 13.6814 16.7607 13.3802 17.2236L15.0566 18.3144ZM11.4964 20.1187C11.1952 20.5816 11.3263 21.2011 11.7892 21.5023C12.2522 21.8035 12.8716 21.6724 13.1728 21.2095L11.4964 20.1187ZM29.0417 14.1288C28.6512 13.7383 28.0181 13.7383 27.6276 14.1288C27.237 14.5194 27.237 15.1524 27.6276 15.543L29.0417 14.1288ZM29.6276 17.543C30.0181 17.9335 30.6512 17.9335 31.0417 17.543C31.4322 17.1524 31.4322 16.5194 31.0417 16.1288L29.6276 17.543ZM18.0013 21.9975C18.0013 22.5498 18.449 22.9975 19.0013 22.9975C19.5536 22.9975 20.0013 22.5498 20.0013 21.9975H18.0013ZM24.8298 21.2095C25.131 21.6724 25.7505 21.8035 26.2133 21.5023C26.6762 21.2011 26.8073 20.5816 26.5061 20.1187L24.8298 21.2095ZM10.3751 15.543C10.7656 15.1524 10.7656 14.5194 10.3751 14.1288C9.98455 13.7383 9.35138 13.7383 8.96086 14.1288L10.3751 15.543ZM6.96086 16.1288C6.57034 16.5194 6.57034 17.1524 6.96086 17.543C7.35138 17.9335 7.98455 17.9335 8.37507 17.543L6.96086 16.1288ZM13.3802 17.2236L11.4964 20.1187L13.1728 21.2095L15.0566 18.3144L13.3802 17.2236ZM27.6276 15.543L29.6276 17.543L31.0417 16.1288L29.0417 14.1288L27.6276 15.543ZM18.0013 18.6642V21.9975H20.0013V18.6642H18.0013ZM22.9461 18.3144L24.8298 21.2095L26.5061 20.1187L24.6224 17.2236L22.9461 18.3144ZM8.96086 14.1288L6.96086 16.1288L8.37507 17.543L10.3751 15.543L8.96086 14.1288Z" fill="#6854C2"/>
</g>
<defs>
<filter id="filter0_d_596_2" x="0.667969" y="8.33594" width="36.668" height="22.6602" filterUnits="userSpaceOnUse" color-interpolation-filters="sRGB">
<feFlood flood-opacity="0" result="BackgroundImageFix"/>
<feColorMatrix in="SourceAlpha" type="matrix" values="0 0 0 0 0 0 0 0 0 0 0 0 0 0 0 0 0 0 127 0" result="hardAlpha"/>
<feOffset dy="4"/>
<feGaussianBlur stdDeviation="2"/>
<feComposite in2="hardAlpha" operator="out"/>
<feColorMatrix type="matrix" values="0 0 0 0 0 0 0 0 0 0 0 0 0 0 0 0 0 0 0.25 0"/>
<feBlend mode="normal" in2="BackgroundImageFix" result="effect1_dropShadow_596_2"/>
<feBlend mode="normal" in="SourceGraphic" in2="effect1_dropShadow_596_2" result="shape"/>
</filter>
</defs>
</svg>
