<svg width="26" height="22" viewBox="0 0 26 22" fill="none" xmlns="http://www.w3.org/2000/svg">
<path d="M4.13316 12.8236C5.03382 9.09555 8.79889 6.44663 13.0341 6.44663C17.268 6.44663 21.0331 9.09555 21.935 12.8236C21.9708 12.9716 22.0732 13.1012 22.2198 13.184C22.3664 13.2669 22.5452 13.2961 22.7169 13.2653C22.8885 13.2345 23.0389 13.1462 23.135 13.0198C23.2311 12.8934 23.265 12.7393 23.2292 12.5914C22.2031 8.35108 17.9111 5.30829 13.0341 5.30829C8.15708 5.30829 3.86508 8.35108 2.83896 12.5914C2.80324 12.7393 2.83715 12.8934 2.93324 13.0198C3.02934 13.1462 3.17974 13.2345 3.35136 13.2653C3.52298 13.2961 3.70177 13.2669 3.84838 13.184C3.995 13.1012 4.09744 12.9716 4.13316 12.8236ZM13.0209 8.72331C14.2468 8.72331 15.4224 9.14308 16.2893 9.89026C17.1561 10.6374 17.643 11.6508 17.643 12.7075C17.643 13.7642 17.1561 14.7776 16.2893 15.5248C15.4224 16.2719 14.2468 16.6917 13.0209 16.6917C11.795 16.6917 10.6194 16.2719 9.75255 15.5248C8.88572 14.7776 8.39875 13.7642 8.39875 12.7075C8.39875 11.6508 8.88572 10.6374 9.75255 9.89026C10.6194 9.14308 11.795 8.72331 13.0209 8.72331Z" fill="#6854C2"/>
</svg>
