<svg width="26" height="37" viewBox="0 0 26 37" fill="none" xmlns="http://www.w3.org/2000/svg">
<path d="M21.2919 36.0044C18.0688 36.0044 13.5647 34.2713 13.2901 34.1643C13.0726 34.0589 10.0749 32.591 7.068 30.4154C4.24597 28.3736 0.835377 25.276 0.613401 22.1149C0.474707 20.1399 1.32619 17.1018 2.94951 13.7797C4.54334 10.5178 6.70419 7.31902 8.87797 5.00345C9.95918 3.85172 11.0083 2.95262 11.9961 2.33114C13.0273 1.68244 13.9653 1.35352 14.7841 1.35352C17.5993 1.35352 19.2327 2.2744 20.6101 4.638C22.0791 7.15877 23.2363 11.3103 24.8292 17.3509C24.8272 17.4271 24.8313 17.5233 24.8369 17.6521C24.8456 17.8537 24.8606 18.1409 24.8796 18.5045C24.9685 20.2058 25.1534 23.7459 25.1191 27.1219C25.067 32.2348 24.5412 34.2015 24.1092 34.9511C23.7071 35.6501 22.7593 36.0044 21.2919 36.0044Z" fill="#23BF73"/>
<path d="M14.7836 1.74104C13.294 1.74104 11.2978 2.9935 9.16288 5.2677C7.01454 7.55616 4.87764 10.7203 3.3001 13.9488C1.70569 17.2118 0.868144 20.1783 1.00223 22.0878C1.16952 24.4701 3.3432 27.239 7.28829 30.0953C10.2204 32.2182 13.1484 33.6635 13.4466 33.8088C13.8218 33.9542 18.1822 35.6165 21.2914 35.6165C22.1969 35.6165 23.362 35.4677 23.77 34.7582C24.1789 34.0487 24.6771 32.1472 24.7283 27.1178C24.7625 23.7538 24.578 20.2218 24.4893 18.5244C24.4703 18.1598 24.4552 17.8719 24.4465 17.6685C24.4423 17.5708 24.4384 17.4826 24.4386 17.4014C22.8602 11.4169 21.7125 7.30426 20.2719 4.83207C19.5987 3.67693 18.8842 2.91524 18.0234 2.43499C17.1747 1.96155 16.1453 1.74104 14.7836 1.74104ZM14.7836 0.965576C20.6032 0.965576 21.9208 4.78979 25.2231 17.3165C25.1343 17.3165 26.3219 31.8911 24.4474 35.1435C22.6439 38.2793 13.1324 34.5194 13.1324 34.5194C13.1324 34.5194 0.673875 28.5543 0.223585 22.1417C-0.226707 15.7292 8.9641 0.965576 14.7836 0.965576Z" fill="#707070"/>
<path d="M7.80612 13.394C8.62946 12.8567 9.46146 12.588 10.3021 12.588C11.1428 12.588 11.7841 12.835 12.2261 13.329C12.6161 13.7537 12.8111 14.3213 12.8111 15.032C12.8111 15.5607 12.6855 16.0807 12.4341 16.592C12.1828 17.1033 11.7451 17.7403 11.1211 18.503C10.4191 19.3523 10.0291 19.816 9.95112 19.894L9.18412 20.674H12.9931V21.194L12.3431 22H7.41612V20.674L8.37812 19.686L9.31412 18.62C10.0335 17.8227 10.4971 17.2723 10.7051 16.969C11.1471 16.3363 11.3681 15.7773 11.3681 15.292C11.3681 14.9107 11.2425 14.603 10.9911 14.369C10.7485 14.1263 10.4278 14.005 10.0291 14.005C9.56112 14.005 9.08446 14.174 8.59912 14.512L7.80612 13.394ZM15.4263 17.164C15.9723 16.4447 16.6093 16.085 17.3373 16.085C18.2126 16.085 18.8843 16.4013 19.3523 17.034C19.7423 17.5453 19.9373 18.191 19.9373 18.971C19.9373 19.9763 19.6643 20.765 19.1183 21.337C18.6156 21.8657 17.9353 22.13 17.0773 22.13C15.9853 22.13 15.1749 21.701 14.6463 20.843C14.2563 20.2017 14.0613 19.387 14.0613 18.399V18.035C14.0613 16.4403 14.3646 15.1577 14.9713 14.187C15.6386 13.1383 16.6093 12.614 17.8833 12.614C18.0913 12.614 18.3513 12.64 18.6633 12.692L19.2223 13.368V13.979C19.1789 13.9703 19.1009 13.9573 18.9883 13.94C18.5723 13.862 18.2559 13.823 18.0393 13.823C17.5019 13.823 17.0209 13.9877 16.5963 14.317C16.1716 14.6377 15.8726 15.0753 15.6993 15.63C15.5693 16.0373 15.4783 16.5487 15.4263 17.164ZM18.3513 18.997C18.3513 18.4943 18.2256 18.0913 17.9743 17.788C17.7316 17.476 17.4066 17.3243 16.9993 17.333C16.6266 17.333 16.2973 17.489 16.0113 17.801C15.7253 18.1043 15.5823 18.4597 15.5823 18.867C15.5823 19.465 15.7079 19.9373 15.9593 20.284C16.2193 20.6307 16.5746 20.804 17.0253 20.804C17.4153 20.804 17.7316 20.635 17.9743 20.297C18.2256 19.959 18.3513 19.5257 18.3513 18.997Z" fill="black"/>
</svg>
