<svg width="32" height="37" viewBox="0 0 32 37" fill="none" xmlns="http://www.w3.org/2000/svg">
<path d="M12.8752 36.4787C9.68049 36.4787 6.73778 35.2192 4.58914 32.9321C3.50651 31.7798 2.66042 30.4084 2.07436 28.8561C1.4598 27.2283 1.14819 25.4422 1.14819 23.5473C1.14819 19.2688 1.71018 17.1836 2.90277 13.8037C3.453 13.1868 4.21229 11.6803 5.01454 10.0886C5.72206 8.6848 6.45369 7.23323 7.01169 6.46159C7.94792 5.16626 9.37694 3.699 10.8344 2.5366C12.3066 1.36241 13.61 0.661407 14.3208 0.661407L14.5375 0.66127L14.7706 0.661133C16.9147 0.661133 19.3467 0.744793 21.0714 1.74373C24.0474 3.46426 26.3612 5.30972 28.1452 7.38573C29.1929 8.60493 29.9202 10.264 30.4341 12.6069C30.9296 14.8663 31.246 17.8776 31.4297 22.0831C31.4277 23.8832 30.7726 25.715 29.4826 27.5276C28.3268 29.1517 26.6507 30.748 24.6354 32.1439C22.7627 33.441 20.6502 34.5368 18.5263 35.3129C16.4388 36.0756 14.4847 36.4787 12.8752 36.4787Z" fill="#23BF73"/>
<path d="M14.7705 1.04104L14.3207 1.04131C13.8579 1.04131 12.7288 1.51082 11.0698 2.83402C9.63769 3.97618 8.23517 5.41565 7.31792 6.68475C6.77768 7.43179 6.05301 8.8696 5.3522 10.2601C4.52933 11.8927 3.81115 13.3176 3.23552 13.9984C2.04792 17.3701 1.5266 19.3363 1.5266 23.5473C1.5266 25.396 1.82994 27.1369 2.42821 28.7215C2.99651 30.2268 3.81617 31.5558 4.86443 32.6715C6.94081 34.8817 9.7857 36.0989 12.8751 36.0989C14.4409 36.0989 16.3502 35.7036 18.3966 34.9559C20.4908 34.1908 22.5737 33.1103 24.4202 31.8312C26.3999 30.46 28.0438 28.8955 29.1745 27.3068C30.4158 25.5626 31.0471 23.8079 31.051 22.0911C30.8682 17.9124 30.5546 14.9246 30.0642 12.6886C29.5644 10.4096 28.8635 8.80345 27.8584 7.63385C26.1027 5.5907 23.8209 3.77176 20.882 2.07278C19.1007 1.04105 16.39 1.04105 14.7705 1.04104ZM14.7705 0.28125C16.6759 0.281256 19.3748 0.32252 21.2604 1.41472C23.5569 2.74234 26.256 4.60577 28.4317 7.13764C30.6075 9.66951 31.4556 13.9937 31.8081 22.0749C31.8081 30.0477 19.5649 36.8586 12.8751 36.8586C6.18518 36.8586 0.769531 31.5201 0.769531 23.5473C0.769531 19.1782 1.34016 17.0868 2.57207 13.6026C3.54342 12.602 5.4829 7.92872 6.70521 6.23847C8.67268 3.51632 12.582 0.281522 14.3207 0.281522C14.4649 0.281522 14.6149 0.28125 14.7705 0.28125Z" fill="#707070"/>
<path d="M14.6117 11.3291V20.1431L14.0527 20.6371H13.5067V12.6551L11.8947 14.0071L11.3097 13.2791L13.6237 11.3291H14.6117ZM19.2328 11.3291V20.1431L18.6738 20.6371H18.1278V12.6551L16.5158 14.0071L15.9308 13.2791L18.2448 11.3291H19.2328Z" fill="black"/>
</svg>
