<svg width="45" height="47" viewBox="0 0 45 47" fill="none" xmlns="http://www.w3.org/2000/svg">
<path d="M42.9508 32.4413C42.1498 35.6005 36.6483 38.5158 31.9915 40.7139C31.1959 41.09 20.6075 45.5894 20.6075 45.5894C20.6075 45.5894 16.4057 46.7352 14.8288 45.5894C14.3965 45.2756 11.1767 43.5707 10.752 42.7281C9.94128 40.888 9.2893 38.9816 8.80326 37.0297C4.09807 33.2391 2.68691 31.949 2.0169 29.5777C0.664135 25.1891 0.975282 20.4536 2.89055 16.2814C3.82477 14.407 5.68265 13.5195 8.80404 10.7197C10.7209 8.99956 13.6054 7.44427 16.1938 5.96724C18.9639 4.38612 20.7438 3.06332 23.3859 2.14094C26.2806 1.15282 29.3605 0.83465 32.395 1.21022C37.054 1.94873 39.351 5.32217 41.4042 8.20633C41.975 9.38172 41.8266 11.282 42.2021 17.0389C42.3974 20.0385 43.2264 23.6582 43.6602 26.4831C43.9933 28.6477 43.2007 31.4566 42.9508 32.4413Z" fill="#23BF73" stroke="#707070"/>
<path d="M19.3222 16.2921V25.1061L18.7632 25.6001H18.2172V17.6181L16.6052 18.9701L16.0202 18.2421L18.3342 16.2921H19.3222ZM25.2433 16.2921V17.2281H22.2143L22.0583 20.1011C22.457 20.0404 22.7733 20.0101 23.0073 20.0101C23.9693 20.0101 24.7103 20.3048 25.2303 20.8941C25.681 21.4054 25.9063 22.0858 25.9063 22.9351C25.9063 23.8884 25.5727 24.6078 24.9053 25.0931C24.3767 25.4831 23.6833 25.6781 22.8253 25.6781C22.3053 25.6781 21.7853 25.6001 21.2653 25.4441L20.8493 24.9371V24.5341C21.4473 24.6554 21.9717 24.7161 22.4223 24.7161C23.2283 24.7161 23.8177 24.5861 24.1903 24.3261C24.6063 24.0401 24.8143 23.5678 24.8143 22.9091C24.8143 21.5918 24.0387 20.9331 22.4873 20.9331C22.1233 20.9331 21.5947 20.9721 20.9013 21.0501L21.1613 16.2921H25.2433Z" fill="black"/>
</svg>
