<svg width="50" height="47" viewBox="0 0 50 47" fill="none" xmlns="http://www.w3.org/2000/svg">
<path d="M7.53078 15.2882C9.29756 11.3477 12.2689 8.34094 15.8976 6.82195C17.7402 6.0506 19.699 5.67943 21.7196 5.71875C23.8428 5.76007 25.9929 6.25581 28.1103 7.19222C30.2615 8.1436 32.4958 9.59104 34.5717 11.378C36.652 13.1689 38.5205 15.2556 39.975 17.4125C41.5053 19.682 42.5644 22.02 43.0378 24.174C43.5565 26.534 43.3974 28.6721 42.5649 30.5288C41.7201 32.413 40.2497 34.0802 38.1943 35.4839C36.2849 36.7881 33.8958 37.8236 31.2853 38.4787C25.9653 39.8137 20.269 39.4962 16.0478 37.6293C13.9422 36.6981 12.0925 35.3539 10.5499 33.6341C9.08762 32.0037 7.95886 30.1053 7.19502 27.9915C5.67486 23.7848 5.79724 19.1546 7.53078 15.2882Z" fill="#23BF73"/>
<path d="M7.88761 15.446C6.19466 19.2219 6.07624 23.7467 7.56272 27.8602C8.30958 29.927 9.41279 31.7827 10.8417 33.3758C12.3472 35.0544 14.1523 36.3662 16.207 37.2748C20.351 39.1075 25.9522 39.4169 31.1902 38.1025C33.7562 37.4586 36.1019 36.4426 37.9735 35.1642C39.9686 33.8016 41.3935 32.189 42.2085 30.3711C43.0064 28.5915 43.1571 26.5345 42.6566 24.257C42.1935 22.1501 41.1542 19.8581 39.6508 17.6287C36.7418 13.3149 32.2589 9.45168 27.9515 7.54673C25.882 6.63148 23.7827 6.14698 21.7119 6.10669C19.7463 6.06844 17.8411 6.4294 16.0491 7.17952C12.5123 8.66008 9.61385 11.5958 7.88761 15.446ZM7.17438 15.1305C10.8123 7.01663 19.3635 2.89907 28.2694 6.83775C37.1753 10.7764 46.5597 22.5726 42.9218 30.6865C39.2838 38.8004 24.795 41.9225 15.8891 37.9838C6.98315 34.0451 3.53644 23.2445 7.17438 15.1305Z" fill="#707070"/>
<path d="M16.883 16.7273C17.7064 16.1899 18.5384 15.9213 19.379 15.9213C20.2197 15.9213 20.861 16.1683 21.303 16.6623C21.693 17.0869 21.888 17.6546 21.888 18.3653C21.888 18.8939 21.7624 19.4139 21.511 19.9253C21.2597 20.4366 20.822 21.0736 20.198 21.8363C19.496 22.6856 19.106 23.1493 19.028 23.2273L18.261 24.0073H22.07V24.5273L21.42 25.3333H16.493V24.0073L17.455 23.0193L18.391 21.9533C19.1104 21.1559 19.574 20.6056 19.782 20.3023C20.224 19.6696 20.445 19.1106 20.445 18.6253C20.445 18.2439 20.3194 17.9363 20.068 17.7023C19.8254 17.4596 19.5047 17.3383 19.106 17.3383C18.638 17.3383 18.1614 17.5073 17.676 17.8453L16.883 16.7273ZM26.0762 15.8173C27.0728 15.8259 27.8442 16.2939 28.3902 17.2213C28.9275 18.1399 29.1962 19.3186 29.1962 20.7573C29.1962 22.2133 28.9275 23.3659 28.3902 24.2153C27.8615 25.0559 27.0945 25.4763 26.0892 25.4763C25.0492 25.4763 24.2648 25.0343 23.7362 24.1503C23.2248 23.2836 22.9692 22.1569 22.9692 20.7703C22.9692 19.3489 23.2248 18.1789 23.7362 17.2603C24.2735 16.2983 25.0535 15.8173 26.0762 15.8173ZM27.6102 20.7833C27.6102 19.8559 27.5148 19.0803 27.3242 18.4563C27.0642 17.5983 26.6482 17.1649 26.0762 17.1563C25.5648 17.1563 25.1835 17.4986 24.9322 18.1833C24.6808 18.8766 24.5552 19.7389 24.5552 20.7703C24.5552 21.6976 24.6548 22.4603 24.8542 23.0583C25.0882 23.7689 25.4955 24.1243 26.0762 24.1243C27.0988 24.1243 27.6102 23.0106 27.6102 20.7833Z" fill="black"/>
</svg>
