<svg width="47" height="48" viewBox="0 0 47 48" fill="none" xmlns="http://www.w3.org/2000/svg">
<path d="M45.0635 32.8301C44.2095 36.1967 38.3475 39.3027 33.3849 41.6437C32.537 42.0441 21.2537 46.8391 21.2537 46.8391C21.2537 46.8391 16.1404 47.143 14.4597 45.9213C12.779 44.6995 13.6481 43.401 8.10032 37.831C2.55252 32.261 3.15669 31.926 2.44278 29.3974C0.833249 23.7073 0.743915 21.2677 2.44278 17.8585C4.14164 14.4493 9.89004 8.41732 16.5538 4.61458C23.2175 0.811842 29.6193 0.0254613 34.5841 0.815641C39.549 1.60582 41.2796 5.21634 43.4691 8.28968C45.6585 11.363 46.106 28.7189 45.0635 32.8301Z" fill="#23BF73" stroke="#707070"/>
<path d="M21.501 17.4295V26.2435L20.942 26.7375H20.396V18.7555L18.784 20.1075L18.199 19.3795L20.513 17.4295H21.501ZM24.1201 22.0835C24.6747 21.3642 25.3291 21.0045 26.0831 21.0045C26.9584 21.0045 27.6257 21.3209 28.0851 21.9535C28.4491 22.4649 28.6311 23.1105 28.6311 23.8905C28.6311 24.8439 28.3581 25.5979 27.8121 26.1525C27.3094 26.6465 26.6507 26.8935 25.8361 26.8935C23.9901 26.8935 23.0671 25.6802 23.0671 23.2535V22.7595C23.0671 21.1822 23.3791 19.8995 24.0031 18.9115C24.6704 17.8455 25.6324 17.3125 26.8891 17.3125C27.0451 17.3125 27.2357 17.3212 27.4611 17.3385L27.9031 17.8845V18.2875C27.5564 18.2355 27.2704 18.2095 27.0451 18.2095C25.3724 18.2095 24.3974 19.5009 24.1201 22.0835ZM27.5131 23.8385C27.5131 23.2925 27.3657 22.8419 27.0711 22.4865C26.7851 22.1225 26.4167 21.9405 25.9661 21.9405C25.4807 21.9405 25.0344 22.1442 24.6271 22.5515C24.2717 22.9069 24.0941 23.2925 24.0941 23.7085C24.0941 24.3499 24.2587 24.8785 24.5881 25.2945C24.9087 25.6932 25.3334 25.8925 25.8621 25.8925C26.3474 25.8925 26.7417 25.7062 27.0451 25.3335C27.3571 24.9522 27.5131 24.4539 27.5131 23.8385Z" fill="black"/>
</svg>
