<svg width="30" height="35" viewBox="0 0 30 35" fill="none" xmlns="http://www.w3.org/2000/svg">
<path d="M19.1661 33.8454C15.6408 33.8454 10.9314 32.285 7.16835 29.8703C5.17207 28.5893 3.51509 27.1107 2.37656 25.5945C1.11297 23.9117 0.47229 22.1945 0.47229 20.4906C0.47229 17.1492 3.36734 12.2776 8.02765 7.77697C10.19 5.68874 12.5068 3.90589 14.7277 2.62115C17.0578 1.27317 19.1464 0.560669 20.7676 0.560669C22.3132 0.560669 23.6983 1.29357 24.8845 2.739C25.9475 4.03438 26.856 5.89612 27.5846 8.27248C29.2836 13.8136 29.4157 20.0318 29.4157 21.8056C29.4157 23.6616 29.1983 25.3508 28.7697 26.8263C28.3398 28.3063 27.695 29.5782 26.8532 30.6067C25.0943 32.7557 22.508 33.8454 19.1661 33.8454Z" fill="#23BF73"/>
<path d="M20.7678 0.940575C17.6606 0.940575 12.7629 3.73147 8.29035 8.05073C6.12296 10.1438 4.28311 12.3838 2.96971 14.5285C1.58368 16.7918 0.851063 18.8534 0.851063 20.4906C0.851063 22.1101 1.46611 23.7504 2.6791 25.3658C3.79082 26.8464 5.41377 28.2933 7.37251 29.5502C11.079 31.9287 15.7083 33.4655 19.1664 33.4655C22.3895 33.4655 24.8774 32.4225 26.5609 30.3656C27.3701 29.3769 27.9911 28.1504 28.4065 26.72C28.8251 25.279 29.0374 23.6256 29.0374 21.8056C29.0374 20.0452 28.9065 13.8747 27.223 8.38422C26.509 6.0555 25.624 4.23742 24.5925 2.98052C23.4661 1.60784 22.215 0.940575 20.7678 0.940575ZM20.7678 0.180786C27.8758 0.180786 29.7944 14.2524 29.7944 21.8056C29.7944 29.3587 26.2744 34.2253 19.1664 34.2253C12.0584 34.2253 0.0939941 28.0437 0.0939941 20.4906C0.0939941 12.9374 13.6598 0.180786 20.7678 0.180786Z" fill="#707070"/>
<path d="M18.1073 11.5355V12.3545L15.0133 20.2325L14.2593 20.8435H13.5833L16.9633 12.4715H12.4523V11.5355H18.1073Z" fill="black"/>
</svg>
