<svg width="50" height="52" viewBox="0 0 50 52" fill="none" xmlns="http://www.w3.org/2000/svg">
<path d="M20.2792 51.1583C16.2008 51.1583 12.4406 50.1274 9.4052 48.1771C6.29352 46.1778 4.03596 43.2569 2.8766 39.7301C1.63112 35.9451 0.857431 30.7839 0.857431 26.2605C0.857431 26.1275 0.856894 25.9918 0.856349 25.8535C0.849717 24.1808 0.841465 22.099 1.81286 19.6524C2.96041 16.7621 5.21733 13.9572 8.71229 11.0778C12.8949 8.26404 16.4049 6.11952 19.4419 4.52225C23.1413 2.57664 26.1998 1.39774 28.7921 0.918163C29.6796 0.753927 30.5872 0.670654 31.4898 0.670654C33.7596 0.670654 36.0351 1.18159 38.2531 2.18926C39.0416 2.54746 40.2223 3.15429 41.3694 4.01098L41.412 4.04271C43.4239 5.52226 45.4922 8.04812 46.4418 10.1852C47.7178 13.0511 47.8696 14.6096 48.1211 17.1915C48.2984 19.0118 48.5189 21.2755 49.2089 24.7915C49.2103 25.6385 49.2592 26.5669 49.311 27.549C49.4503 30.1926 49.6083 33.189 48.7927 35.0544C46.7465 39.7398 40.7251 42.8111 35.1048 45.1975L35.0911 45.2033L35.0779 45.2102C34.367 45.5806 33.663 45.9525 32.9821 46.3122C28.0601 48.9126 23.8093 51.1583 20.2792 51.1583Z" fill="#23BF73"/>
<path d="M20.2791 50.7784C23.7156 50.7784 27.9281 48.553 32.8057 45.9761C33.487 45.6162 34.1915 45.2439 34.9033 44.873L34.9298 44.8593L34.9572 44.8476C40.5089 42.4904 46.453 39.4653 48.446 34.9017C49.2254 33.1189 49.07 30.1705 48.9329 27.5691C48.8816 26.5961 48.8331 25.6756 48.8303 24.829C48.1424 21.3157 47.9218 19.0507 47.7443 17.2285C47.4965 14.6849 47.3469 13.1496 46.096 10.34C45.1704 8.25709 43.1523 5.79361 41.188 4.34906C41.1766 4.34064 41.1617 4.32949 41.1433 4.31576C40.0232 3.47925 38.8684 2.88585 38.0969 2.53534C35.9283 1.55011 33.7053 1.05056 31.4897 1.05056C30.61 1.05056 29.7255 1.13171 28.8606 1.29177C26.3062 1.76433 23.2827 2.9311 19.6175 4.85875C16.5964 6.44767 13.1027 8.58207 8.93824 11.3831C5.50222 14.2165 3.28609 16.9679 2.1644 19.793C1.22019 22.1712 1.22827 24.2121 1.23477 25.852C1.23532 25.9908 1.23586 26.127 1.23586 26.2606C1.23586 30.7462 2.00223 35.8617 3.23597 39.6111C4.36777 43.054 6.5716 45.9055 9.60919 47.8572C12.5836 49.7683 16.2732 50.7784 20.2791 50.7784ZM20.2791 51.5382C11.9628 51.5382 4.97451 47.3248 2.51702 39.8491C1.1589 35.7218 0.478791 30.5029 0.478791 26.2606C0.478791 22.8328 0.12063 17.6586 8.48623 10.7725C15.8677 5.80581 23.1054 1.58388 28.7234 0.544569C35.8259 -0.769858 41.2253 3.43426 41.6358 3.73638C43.6263 5.20023 45.7817 7.76713 46.7874 10.0305C48.9996 14.9992 47.9074 16.2122 49.5873 24.7543C49.5873 27.9518 50.2978 32.5571 49.1393 35.207C47.0574 39.9741 41.0758 43.0746 35.2522 45.5473C29.4286 48.582 24.4058 51.5382 20.2791 51.5382Z" fill="#707070"/>
<path d="M22.2326 20.5097V29.3237L21.6736 29.8177H21.1276V21.8357L19.5156 23.1877L18.9306 22.4597L21.2446 20.5097H22.2326ZM28.3487 20.5097V26.5547H29.7267V27.5557H28.3487V29.3237L27.7897 29.8177H27.2437V27.5557H23.4347V26.5807L27.1527 20.5097H28.3487ZM27.2437 21.9657L24.5267 26.5547H27.2437V21.9657Z" fill="black"/>
</svg>
