<svg width="27" height="35" viewBox="0 0 27 35" fill="none" xmlns="http://www.w3.org/2000/svg">
<path d="M8.76917 33.9308H8.76713C4.21984 33.9305 1.76074 33.1938 1.34087 32.4637C0.718626 31.3841 0.640627 29.202 1.11514 26.1531C1.51074 23.6111 2.17097 21.1601 2.48826 19.9822C2.54266 19.7802 2.58564 19.6206 2.61438 19.508C2.63437 19.4297 2.65222 19.3597 2.65979 19.2943C2.98536 18.0587 3.28272 16.9002 3.5704 15.7793C4.87213 10.7077 5.81266 7.04342 7.22645 4.59116C8.6538 2.11539 10.5255 1.01859 13.4848 0.92374C13.519 0.922646 13.552 0.922119 13.5862 0.922119C14.7734 0.922119 16.0083 1.59634 17.2566 2.92605C18.4573 4.20502 19.6447 6.05779 20.786 8.43288C21.7948 10.5324 22.7584 13.0406 23.5725 15.6863C25.0759 20.5718 25.9646 25.5827 25.7839 28.1553C25.7229 29.025 25.1663 29.8431 24.1296 30.5869C23.1428 31.295 21.75 31.9197 19.99 32.4437C16.8624 33.3749 12.6678 33.9308 8.76917 33.9308Z" fill="#23BF73"/>
<path d="M13.5843 0.534427V1.30989C13.5549 1.30989 13.5264 1.31036 13.4969 1.31131C12.0387 1.35805 10.8673 1.65936 9.91581 2.23246C9.00849 2.77894 8.23942 3.61352 7.56466 4.7839C6.17726 7.19039 5.24224 10.8333 3.94812 15.8752C3.6616 16.9915 3.36546 18.1453 3.04131 19.3757C3.02938 19.4578 3.00981 19.5344 2.99223 19.6033C2.96286 19.7184 2.91959 19.8791 2.86481 20.0824C2.54929 21.2538 1.89275 23.6912 1.50038 26.2124C0.918145 29.9535 1.27611 31.5719 1.67928 32.2714C1.7083 32.3218 2.01442 32.7748 3.80456 33.1384C5.10777 33.4031 6.82365 33.5431 8.76667 33.5431C12.6303 33.5431 16.7839 32.9932 19.8775 32.0722C23.3285 31.0447 25.2877 29.6441 25.3942 28.1283C25.5718 25.5989 24.6897 20.6451 23.1991 15.8013C22.3907 13.1741 21.4345 10.6846 20.4339 8.60222C19.3099 6.26291 18.145 4.44278 16.9716 3.19237C15.7997 1.94362 14.6605 1.31027 13.5854 1.30989L13.5843 0.534427ZM13.5858 0.534424C20.6935 0.536915 26.6207 21.8042 26.1728 28.1823C25.8798 32.3545 16.0779 34.3185 8.76667 34.3185C4.84082 34.3185 1.63164 33.7517 1.00158 32.6561C-0.872942 29.4037 2.36046 19.2346 2.27166 19.2346C5.57398 6.70787 6.31297 0.765711 13.4718 0.536249C13.5102 0.535019 13.5474 0.534412 13.5858 0.534424Z" fill="#707070"/>
<path d="M7.806 13.394C8.62933 12.8567 9.46133 12.588 10.302 12.588C11.1427 12.588 11.784 12.835 12.226 13.329C12.616 13.7537 12.811 14.3213 12.811 15.032C12.811 15.5607 12.6853 16.0807 12.434 16.592C12.1827 17.1033 11.745 17.7403 11.121 18.503C10.419 19.3523 10.029 19.816 9.951 19.894L9.184 20.674H12.993V21.194L12.343 22H7.416V20.674L8.378 19.686L9.314 18.62C10.0333 17.8227 10.497 17.2723 10.705 16.969C11.147 16.3363 11.368 15.7773 11.368 15.292C11.368 14.9107 11.2423 14.603 10.991 14.369C10.7483 14.1263 10.4277 14.005 10.029 14.005C9.561 14.005 9.08433 14.174 8.599 14.512L7.806 13.394ZM18.9101 12.692V18.464H20.0801V19.816H18.9101V21.285L18.1171 22H17.3631V19.816H13.7101V18.672L17.3891 12.692H18.9101ZM17.3631 14.772L15.1791 18.464H17.3631V14.772Z" fill="black"/>
</svg>
