<svg width="45" height="47" viewBox="0 0 45 47" fill="none" xmlns="http://www.w3.org/2000/svg">
<path d="M1.85644 32.4413C2.65742 35.6005 8.15905 38.5158 12.8158 40.7139C13.6115 41.09 24.1998 45.5894 24.1998 45.5894C24.1998 45.5894 28.4015 46.7352 29.9785 45.5894C30.4108 45.2756 33.6306 43.5707 34.0553 42.7281C34.866 40.888 35.518 38.9816 36.004 37.0297C40.7092 33.2391 42.1204 31.949 42.7904 29.5777C44.1432 25.1891 43.832 20.4536 41.9167 16.2814C40.9825 14.407 39.1247 13.5195 36.0033 10.7197C34.0864 8.99956 31.202 7.44427 28.6135 5.96724C25.8434 4.38612 24.0636 3.06332 21.4214 2.14094C18.5267 1.15282 15.4468 0.83465 12.4122 1.21022C7.75325 1.94873 5.12245 5.1763 3.06852 8.06046C2.10931 9.40757 2.97996 11.282 2.60446 17.0389C2.40913 20.0385 1.58012 23.6582 1.14632 26.4831C0.813969 28.6477 1.60661 31.4566 1.85644 32.4413Z" fill="#23BF73" stroke="#707070"/>
<path d="M17.9989 16.9681C18.8136 16.4394 19.6369 16.1751 20.4689 16.1751C21.2836 16.1751 21.8946 16.4134 22.3019 16.8901C22.6573 17.3061 22.8349 17.8608 22.8349 18.5541C22.8349 19.1001 22.6963 19.6331 22.4189 20.1531C22.1676 20.5951 21.7256 21.1931 21.0929 21.9471L19.2599 24.0271L18.7269 24.6771H22.9909V25.0411L22.5359 25.6001H17.5569V24.6641L18.5449 23.4811L20.5469 21.1541C20.9456 20.6774 21.2273 20.2788 21.3919 19.9581C21.6173 19.5248 21.7299 19.1044 21.7299 18.6971C21.7299 18.2464 21.5956 17.8824 21.3269 17.6051C21.0583 17.3278 20.6986 17.1891 20.2479 17.1891C19.7193 17.1891 19.1689 17.3928 18.5969 17.8001L17.9989 16.9681Z" fill="black"/>
</svg>
