<svg width="34" height="33" viewBox="0 0 34 33" fill="none" xmlns="http://www.w3.org/2000/svg">
<path d="M17.8152 32.4812C15.5335 32.4812 13.6603 32.3036 12.0886 31.9384C10.3276 31.5291 8.883 30.8759 7.67229 29.9415C6.37047 28.9368 5.33798 27.6099 4.51582 25.8848C3.64519 24.0581 3.02675 21.8244 2.62515 19.0561L2.61877 19.0121L2.60253 18.9707C0.996726 14.8743 0.494943 11.6899 1.0685 9.23573C1.56515 7.11059 2.7925 5.78412 3.97942 4.50132C4.12165 4.34761 4.26871 4.18866 4.41091 4.03207C5.67057 2.64229 7.72247 1.66734 10.5098 1.13401C12.98 0.661376 15.5889 0.597656 17.8152 0.597656C21.694 0.597656 25.4592 2.41714 28.4175 5.72096C29.8503 7.31858 30.9546 8.99053 31.6998 10.6906C32.518 12.5575 32.9329 14.5253 32.9329 16.5394C32.9329 18.6945 32.5322 20.7846 31.742 22.7519C30.9792 24.6509 29.8875 26.356 28.4971 27.82C27.1083 29.2825 25.4916 30.4304 23.692 31.2319C21.8306 32.0609 19.8534 32.4812 17.8152 32.4812Z" fill="#23BF73"/>
<path d="M17.8151 0.984936C15.6072 0.984936 13.0215 1.04783 10.5835 1.5143C7.88146 2.03129 5.90231 2.96544 4.70053 4.29135C4.55711 4.44928 4.40943 4.6089 4.26659 4.76327C3.11388 6.00909 1.92191 7.29733 1.44851 9.32297C0.893312 11.6986 1.3897 14.8082 2.96606 18.8296L2.99852 18.9124L3.01128 19.0004C3.40724 21.7298 4.01471 23.9273 4.8684 25.7185C5.66377 27.3872 6.65919 28.6683 7.91157 29.6349C10.1143 31.3349 13.1687 32.093 17.8151 32.093C19.7978 32.093 21.7214 31.6841 23.5322 30.8776C25.2848 30.0971 26.8597 28.9787 28.2131 27.5535C29.5696 26.1252 30.6349 24.4612 31.3794 22.6077C32.1512 20.6864 32.5425 18.6446 32.5425 16.539C32.5425 14.5784 32.1385 12.6627 31.3418 10.845C30.6132 9.18261 29.5313 7.54535 28.1257 5.97821C25.2426 2.75825 21.5809 0.984936 17.8151 0.984936ZM17.8151 0.209473C22.2602 0.209473 26.038 2.4799 28.7089 5.46279C31.4862 8.55935 33.323 12.2011 33.323 16.539C33.323 25.5575 26.3799 32.8685 17.8151 32.8685C9.25024 32.8685 3.88579 30.4644 2.23873 19.111C-1.64361 9.20699 1.62978 6.51508 4.12102 3.77188C7.1129 0.470944 13.4042 0.209473 17.8151 0.209473Z" fill="#707070"/>
<path d="M10.8059 10.394C11.6292 9.85667 12.4612 9.588 13.3019 9.588C14.1425 9.588 14.7839 9.835 15.2259 10.329C15.6159 10.7537 15.8109 11.3213 15.8109 12.032C15.8109 12.5607 15.6852 13.0807 15.4339 13.592C15.1825 14.1033 14.7449 14.7403 14.1209 15.503C13.4189 16.3523 13.0289 16.816 12.9509 16.894L12.1839 17.674H15.9929V18.194L15.3429 19H10.4159V17.674L11.3779 16.686L12.3139 15.62C13.0332 14.8227 13.4969 14.2723 13.7049 13.969C14.1469 13.3363 14.3679 12.7773 14.3679 12.292C14.3679 11.9107 14.2422 11.603 13.9909 11.369C13.7482 11.1263 13.4275 11.005 13.0289 11.005C12.5609 11.005 12.0842 11.174 11.5989 11.512L10.8059 10.394ZM20.675 9.692V18.298L19.869 19H19.089V11.499L17.581 12.773L16.827 11.824L19.349 9.692H20.675Z" fill="black"/>
</svg>
