<svg width="54" height="53" viewBox="0 0 54 53" fill="none" xmlns="http://www.w3.org/2000/svg">
<path d="M16.1654 42.8314C13.6318 40.2888 11.0584 35.3808 9.76177 30.6185C9.06009 28.0413 8.76248 25.6104 8.90112 23.5885C9.05624 21.326 9.73688 19.5747 10.9241 18.3832C12.4653 16.8365 15.696 16.6254 19.4368 16.381C21.2859 16.2602 23.1981 16.1353 25.1059 15.8375C27.112 15.5241 29.1936 14.9818 31.2067 14.4574C35.5543 13.3247 39.6608 12.2548 41.3996 13.9998C42.555 15.1594 43.3098 16.8914 43.6429 19.1477C43.9583 21.2835 43.8673 23.8304 43.3798 26.5131C42.366 32.0925 39.7688 37.7081 36.4323 41.5349C34.8527 43.3466 33.1287 44.7334 31.3081 45.6567C29.6442 46.5005 27.9003 46.9585 26.125 47.0178C22.565 47.1367 18.9349 45.6109 16.1654 42.8314Z" fill="#23BF73"/>
<path d="M41.1319 14.2685C39.5463 12.6772 35.5416 13.7205 31.3018 14.8251C29.2797 15.3519 27.1889 15.8966 25.1641 16.2129C23.2396 16.5133 21.3188 16.6388 19.4614 16.7601C17.5984 16.8818 15.8388 16.9968 14.3744 17.2791C12.8419 17.5746 11.8305 18.0108 11.1918 18.6519C10.0711 19.7766 9.42743 21.4463 9.27876 23.6146C9.143 25.5945 9.43629 27.9818 10.1269 30.5183C11.4077 35.2225 13.942 40.0628 16.433 42.5628C19.1287 45.2682 22.6567 46.7536 26.1124 46.6381C27.8323 46.5807 29.5229 46.1364 31.1374 45.3176C32.9143 44.4165 34.6 43.0596 36.1474 41.2847C39.4408 37.5073 42.0053 31.9598 43.0074 26.445C43.4876 23.8027 43.5779 21.2986 43.2685 19.2034C42.952 17.0601 42.2132 15.3537 41.1319 14.2685ZM41.6672 13.7312C46.6934 18.7754 43.8511 33.6027 36.7172 41.785C29.5833 49.9674 20.9238 48.1442 15.8977 43.1001C10.8716 38.0559 5.33468 23.4555 10.6564 18.1146C13.0885 15.6738 19.2261 16.3708 25.0478 15.4622C31.5259 14.4501 38.9381 10.9922 41.6672 13.7312Z" fill="#707070"/>
<path d="M25.2529 26.6625C24.1349 25.9171 23.5759 25.0548 23.5759 24.0755C23.5759 23.3301 23.8446 22.7711 24.3819 22.3985C24.8066 22.0951 25.3526 21.9435 26.0199 21.9435C26.8086 21.9435 27.4239 22.1471 27.8659 22.5545C28.2906 22.9358 28.5029 23.4601 28.5029 24.1275C28.5029 24.6388 28.3859 25.0678 28.1519 25.4145C27.9266 25.7611 27.4932 26.1641 26.8519 26.6235C28.2472 27.2821 28.9449 28.1575 28.9449 29.2495C28.9449 30.0468 28.5982 30.6578 27.9049 31.0825C27.3762 31.4118 26.7479 31.5765 26.0199 31.5765C25.1532 31.5765 24.4512 31.3641 23.9139 30.9395C23.3852 30.5235 23.1209 29.9515 23.1209 29.2235C23.1209 28.1401 23.8316 27.2865 25.2529 26.6625ZM26.0719 26.2205C26.9559 25.6658 27.3979 24.9508 27.3979 24.0755C27.3979 23.6595 27.2766 23.3301 27.0339 23.0875C26.7912 22.8361 26.4619 22.7105 26.0459 22.7105C25.5866 22.7105 25.2399 22.8491 25.0059 23.1265C24.7892 23.3691 24.6809 23.6898 24.6809 24.0885C24.6809 24.4958 24.7849 24.8685 24.9929 25.2065C25.2182 25.5878 25.5779 25.9258 26.0719 26.2205ZM26.0589 26.9875C25.4089 27.2995 24.9496 27.6158 24.6809 27.9365C24.4209 28.2485 24.2909 28.6428 24.2909 29.1195C24.2909 29.6048 24.4469 29.9861 24.7589 30.2635C25.0709 30.5321 25.4999 30.6665 26.0459 30.6665C26.5919 30.6665 27.0209 30.5278 27.3329 30.2505C27.6536 29.9731 27.8139 29.6005 27.8139 29.1325C27.8139 28.6818 27.6796 28.2918 27.4109 27.9625C27.1422 27.6331 26.6916 27.3081 26.0589 26.9875Z" fill="black"/>
</svg>
