<svg width="49" height="43" viewBox="0 0 49 43" fill="none" xmlns="http://www.w3.org/2000/svg">
<path d="M14.3349 33.2037C11.7474 32.2574 10.0624 31.544 8.48257 29.6197C7.04509 27.8721 6.00939 25.4852 5.56601 22.8982C5.12673 20.3352 5.29964 17.7784 6.05289 15.6988C6.88932 13.3896 8.8218 10.879 11.2223 8.98296C12.5263 7.95294 13.9141 7.13644 15.347 6.55614C16.9067 5.92451 18.4786 5.59247 20.0189 5.56928C21.5259 5.54574 24.0467 6.11074 26.5979 7.04378C29.53 8.11617 32.1712 9.55014 34.0349 11.0815C34.9321 11.8188 39.5282 15.7067 41.9077 19.8578C43.7957 23.1479 44.0776 26.6805 42.7456 30.3579C42.1414 32.0261 41.1345 33.1743 39.5768 33.9714C38.1024 34.7259 36.0577 35.1983 33.1422 35.4581C28.4608 35.8765 21.2104 35.7128 16.1833 33.8742C15.838 33.7479 15.5064 33.6281 15.1874 33.5129C14.8927 33.4065 14.6088 33.3039 14.3349 33.2037Z" fill="#23BF73"/>
<path d="M26.4688 7.40035C23.9963 6.49605 21.4673 5.92628 20.0254 5.94881C18.5319 5.97131 17.0058 6.29407 15.4895 6.90814C14.0897 7.47501 12.733 8.27345 11.457 9.2813C9.10945 11.1355 7.22231 13.5832 6.40888 15.8289C5.67772 17.8475 5.51094 20.3355 5.93925 22.8345C6.37162 25.3573 7.37849 27.6812 8.77481 29.3787C10.2933 31.2282 11.9372 31.9229 14.4642 32.8471C14.7377 32.9471 15.0211 33.0495 15.3153 33.1558C15.6348 33.2712 15.9668 33.3911 16.3126 33.5176C21.2811 35.3347 28.4654 35.4949 33.1082 35.0799C38.776 34.5749 41.2917 33.2598 42.3899 30.2277C43.682 26.6605 43.4095 23.2351 41.5797 20.0465C39.2332 15.953 34.6836 12.1048 33.7954 11.375C31.9639 9.87 29.3619 8.45845 26.4688 7.40035ZM26.7272 6.68704C29.3667 7.65239 32.1615 9.05154 34.2747 10.788C36.3176 12.4667 40.1533 16.0355 42.2361 19.669C44.2656 23.2057 44.4053 26.8893 43.1017 30.4881C41.8132 34.0455 38.7597 35.3388 33.1765 35.8363C28.3419 36.2684 21.0965 36.075 16.0542 34.2309C12.283 32.8516 10.1535 32.2517 8.19052 29.8607C5.11476 26.1214 4.10387 19.9671 5.69706 15.5686C7.37016 10.9495 13.3606 5.28974 20.0127 5.18956C21.492 5.16645 24.0284 5.69999 26.7272 6.68704Z" fill="#707070"/>
<path d="M23.3086 14.0338V20.0788H24.6866V21.0798H23.3086V22.8478L22.7496 23.3418H22.2036V21.0798H18.3946V20.1048L22.1126 14.0338H23.3086ZM22.2036 15.4898L19.4866 20.0788H22.2036V15.4898Z" fill="black"/>
</svg>
