<svg width="48" height="47" viewBox="0 0 48 47" fill="none" xmlns="http://www.w3.org/2000/svg">
<path d="M25.0902 46.0206C19.4705 46.0206 12.9347 42.6984 7.16836 39.7673C6.31939 39.3357 5.51675 38.9277 4.7243 38.5338C3.52858 37.5804 2.61187 36.4359 1.99925 35.1314C1.50349 34.0757 1.20324 32.9111 1.10683 31.6699C0.941251 29.5379 1.44138 27.8985 1.44645 27.8822L1.45025 27.8699L1.45335 27.8571L3.63755 18.7375L3.64076 18.7241L3.643 18.7105C3.65684 18.6267 5.04114 10.3013 6.19402 8.0181C6.2452 7.9163 6.30133 7.80059 6.36632 7.66661C6.94799 6.46749 8.15834 3.9723 10.2899 2.49538C12.9153 0.673929 16.7818 0.477295 18.3223 0.477295C24.211 0.477295 31.3724 2.87158 37.0119 6.72578C39.9341 8.7229 42.355 11.0581 44.0129 13.4788C45.8392 16.1453 46.7651 18.8955 46.7651 21.6531C46.7651 24.8437 46.0117 28.6058 44.6979 31.9747C43.6622 34.6304 41.8001 38.2799 38.8106 40.5843C35.944 42.7939 33.9961 44.0157 32.0872 44.8014C30.0388 45.6446 27.8809 46.0206 25.0902 46.0206Z" fill="#23BF73"/>
<path d="M18.3219 0.864819C16.8183 0.864819 13.0475 1.05464 10.5127 2.81321C8.46512 4.23197 7.28475 6.66531 6.71749 7.83472C6.65186 7.97003 6.59517 8.08689 6.54245 8.19175C5.41612 10.4224 4.04147 18.6899 4.02772 18.7731L4.02323 18.8003L1.81857 27.9975C1.81376 28.0129 1.33911 29.5581 1.49348 31.6128C1.58354 32.8117 1.87021 33.9353 2.34554 34.9524C2.92723 36.197 3.79858 37.2912 4.93608 38.2055C5.71791 38.5945 6.50934 38.9968 7.34576 39.4219C13.0729 42.3331 19.5641 45.6327 25.0898 45.6327C27.8637 45.6327 29.9116 45.2769 31.9374 44.443C33.8119 43.6714 35.7337 42.4647 38.571 40.2777C39.7556 39.3646 40.8655 38.1403 41.8699 36.6388C42.8088 35.2353 43.6377 33.6188 44.3336 31.8344C45.6306 28.5085 46.3745 24.7974 46.3745 21.6529C46.3745 18.9746 45.4712 16.2977 43.6899 13.6967C42.0588 11.3153 39.673 9.01518 36.7903 7.04503C31.2125 3.23293 24.1358 0.864819 18.3219 0.864819ZM18.3219 0.0893555C30.3065 0.0893555 47.155 9.74625 47.155 21.6529C47.155 27.9277 44.2739 36.8633 39.0494 40.8904C33.825 44.9175 30.7585 46.4081 25.0898 46.4081C18.5343 46.4081 10.765 41.968 4.51241 38.862C-1.02822 34.4779 1.07328 27.7672 1.07328 27.7672L3.25748 18.6475C3.25748 18.6475 4.65171 10.2069 5.84478 7.84404C6.3632 6.81292 7.61614 3.87479 10.0662 2.17716C12.6501 0.384526 16.3621 0.0893555 18.3219 0.0893555Z" fill="#707070"/>
<path d="M20.2205 16.787V25.393L19.4145 26.095H18.6345V18.594L17.1265 19.868L16.3725 18.919L18.8945 16.787H20.2205ZM23.6715 21.298C22.5882 20.648 22.0465 19.8333 22.0465 18.854C22.0465 18.0566 22.3455 17.463 22.9435 17.073C23.4029 16.7696 23.9922 16.618 24.7115 16.618C25.5089 16.618 26.1502 16.8303 26.6355 17.255C27.1035 17.6623 27.3375 18.1996 27.3375 18.867C27.3375 19.7943 26.7915 20.6003 25.6995 21.285C26.3495 21.6056 26.8175 21.922 27.1035 22.234C27.5022 22.676 27.7015 23.2046 27.7015 23.82C27.7015 24.4873 27.4589 25.042 26.9735 25.484C26.4015 26.004 25.6345 26.264 24.6725 26.264C23.7799 26.264 23.0519 26.0343 22.4885 25.575C21.9425 25.133 21.6695 24.5393 21.6695 23.794C21.6695 22.832 22.3369 22 23.6715 21.298ZM24.7375 20.674C25.4135 20.2146 25.7515 19.6036 25.7515 18.841C25.7515 18.113 25.4005 17.749 24.6985 17.749C24.3779 17.7576 24.1222 17.853 23.9315 18.035C23.7322 18.243 23.6325 18.5203 23.6325 18.867C23.6325 19.205 23.7192 19.5256 23.8925 19.829C24.0659 20.141 24.3475 20.4226 24.7375 20.674ZM24.6985 21.857C24.1699 22.1343 23.7972 22.4073 23.5805 22.676C23.3725 22.9446 23.2685 23.2783 23.2685 23.677C23.2685 24.5523 23.7452 24.99 24.6985 24.99C25.6692 24.99 26.1545 24.5566 26.1545 23.69C26.1545 22.9706 25.6692 22.3596 24.6985 21.857Z" fill="black"/>
</svg>
