<svg width="54" height="53" viewBox="0 0 54 53" fill="none" xmlns="http://www.w3.org/2000/svg">
<path d="M12.4584 13.638C14.1552 11.9351 17.0723 12.7429 20.7653 13.7657C22.5328 14.2552 24.536 14.81 26.6379 15.1384C28.4532 15.4217 30.5221 15.5842 32.5229 15.7413C36.864 16.0823 41.3529 16.4349 42.9338 18.0214C44.121 19.2129 44.8017 20.9642 44.9568 23.2267C45.0954 25.2486 44.7978 27.6795 44.0962 30.2566C42.7995 35.019 40.2261 39.927 37.6926 42.4696C36.3551 43.8119 34.7306 44.9135 32.9947 45.6554C31.1272 46.4535 29.1989 46.8254 27.2636 46.7607C25.4476 46.7 23.6776 46.2493 22.0028 45.4211C20.1672 44.5134 18.4509 43.1521 16.9017 41.3753C15.2013 39.425 13.7392 37.0501 12.556 34.3165C11.4487 31.7582 10.6402 28.973 10.2178 26.2619C9.34237 20.6438 10.18 15.9246 12.4584 13.638Z" fill="#23BF73"/>
<path d="M12.726 13.9066C10.5328 16.1077 9.73493 20.7046 10.5917 26.2032C11.0092 28.8829 11.8085 31.6361 12.9032 34.1651C14.0708 36.8627 15.5119 39.2044 17.1865 41.1251C18.7027 42.8641 20.3794 44.1948 22.1701 45.0803C23.7963 45.8845 25.5142 46.3221 27.2761 46.381C29.1559 46.4438 31.03 46.0821 32.8463 45.3059C34.5381 44.5828 36.1213 43.5092 37.4249 42.201C39.9159 39.701 42.4501 34.8607 43.731 30.1565C44.4216 27.62 44.7149 25.2327 44.5791 23.2528C44.4304 21.0845 43.7868 19.4148 42.6661 18.29C42.0249 17.6466 40.762 17.1612 38.805 16.8062C36.9545 16.4705 34.6866 16.2923 32.4933 16.1201C30.4854 15.9624 28.4092 15.7993 26.5797 15.5138C24.4563 15.1821 22.4419 14.6242 20.6646 14.1319C18.772 13.6078 17.1374 13.1551 15.7474 13.0517C14.3505 12.9478 13.4187 13.2115 12.726 13.9066ZM12.1907 13.3694C14.9198 10.6304 20.218 13.751 26.6961 14.763C32.5178 15.6716 40.7694 15.312 43.2014 17.7528C48.5232 23.0937 42.9863 37.6941 37.9602 42.7382C32.9341 47.7824 23.7507 49.8078 16.6168 41.6255C9.48287 33.4431 7.16455 18.4136 12.1907 13.3694Z" fill="#707070"/>
<path d="M27.418 26.7925C26.9153 27.5031 26.261 27.8585 25.455 27.8585C24.5796 27.8585 23.9123 27.5421 23.453 26.9095C23.0803 26.3981 22.894 25.7481 22.894 24.9595C22.894 24.0061 23.1713 23.2565 23.726 22.7105C24.22 22.2078 24.8743 21.9565 25.689 21.9565C26.8936 21.9565 27.7083 22.5025 28.133 23.5945C28.4016 24.2531 28.536 25.1935 28.536 26.4155C28.536 29.8215 27.327 31.5245 24.909 31.5245C24.6923 31.5245 24.4106 31.5071 24.064 31.4725L23.648 30.9395V30.5495C23.9946 30.6015 24.2893 30.6275 24.532 30.6275C25.572 30.6275 26.3043 30.3458 26.729 29.7825C27.1536 29.2105 27.3833 28.2138 27.418 26.7925ZM25.676 22.9575C25.1126 22.9575 24.675 23.1958 24.363 23.6725C24.129 24.0451 24.012 24.4915 24.012 25.0115C24.012 25.5661 24.1593 26.0255 24.454 26.3895C24.7486 26.7448 25.1213 26.9225 25.572 26.9225C26.092 26.9225 26.5123 26.7535 26.833 26.4155C27.1536 26.0775 27.314 25.6398 27.314 25.1025C27.314 23.6725 26.768 22.9575 25.676 22.9575Z" fill="black"/>
</svg>
