<svg width="46" height="49" viewBox="0 0 46 49" fill="none" xmlns="http://www.w3.org/2000/svg">
<path d="M1.53672 33.5898C2.39069 36.9565 8.2527 40.0625 13.2153 42.4034C14.0632 42.8038 25.3465 47.5989 25.3465 47.5989C25.3465 47.5989 30.4598 47.9028 32.1405 46.681C33.8212 45.4593 32.952 44.1608 38.4998 38.5908C44.0476 33.0208 43.4435 32.6857 44.1574 30.1572C45.7669 24.4671 45.8563 22.0274 44.1574 18.6182C42.4586 15.2091 36.7101 9.17709 30.0464 5.37435C23.3827 1.57161 16.9809 0.785227 12.016 1.57541C7.05119 2.36559 5.32056 5.97611 3.13112 9.04945C0.941677 12.1228 0.494236 29.4786 1.53672 33.5898Z" fill="#23BF73" stroke="#707070"/>
<path d="M23.8024 16.3207V25.1347L23.2434 25.6287H22.6974V17.6467L21.0854 18.9987L20.5004 18.2707L22.8144 16.3207H23.8024Z" fill="black"/>
</svg>
