<svg width="27" height="37" viewBox="0 0 27 37" fill="none" xmlns="http://www.w3.org/2000/svg">
<path d="M4.98033 36.0042C4.98053 36.0042 4.98013 36.0042 4.98033 36.0042C3.51287 36.0041 2.56459 35.6498 2.16276 34.9511C0.681899 32.3817 0.895642 28.2248 1.21919 21.9324C1.29368 20.4838 1.37069 18.986 1.43809 17.3322C1.61911 12.8904 2.72697 8.83 4.55761 5.89903C5.46168 4.45155 6.50933 3.32475 7.67147 2.54992C8.86242 1.75588 10.1464 1.35327 11.4876 1.35327C12.3065 1.35327 13.2445 1.68219 14.2756 2.3309C15.2635 2.95238 16.3126 3.85147 17.3938 5.00321C19.5676 7.31878 21.7284 10.5176 23.3222 13.7794C24.9456 17.1016 25.797 20.1397 25.6584 22.1147C25.4364 25.2758 22.0258 28.3733 19.2038 30.4152C16.1973 32.5905 13.1999 34.0583 12.9818 34.1641C12.7075 34.2708 8.20096 36.0042 4.98033 36.0042Z" fill="#23BF73"/>
<path d="M11.4877 1.74104C10.2253 1.74104 9.01456 2.12152 7.88907 2.87191C6.77327 3.61585 5.76401 4.70311 4.88936 6.1035C3.09366 8.97853 2.00651 12.9719 1.82817 17.3479C1.76069 19.0037 1.68361 20.5027 1.60908 21.9522C1.28906 28.1761 1.07764 32.2879 2.50175 34.7588C2.90944 35.4677 4.07445 35.6165 4.97999 35.6165C8.08472 35.6165 12.451 33.9535 12.825 33.8087C13.1235 33.6634 16.0344 32.2275 18.9652 30.1083C22.9217 27.2474 25.1016 24.4739 25.2692 22.0877C25.4033 20.1783 24.5657 17.2118 22.9713 13.9488C21.3938 10.7203 19.2569 7.55617 17.1085 5.2677C14.9736 2.9935 12.9774 1.74104 11.4877 1.74104ZM11.4877 0.965576C17.3073 0.965576 26.4981 15.7292 26.0478 22.1417C25.5975 28.5543 13.139 34.5194 13.139 34.5194C13.139 34.5194 3.62749 38.2793 1.82404 35.1435C-0.0504669 31.8911 0.67373 26.507 1.04827 17.3165C1.42282 8.12606 5.6682 0.965576 11.4877 0.965576Z" fill="#707070"/>
<path d="M5.80612 15.394C6.62946 14.8567 7.46146 14.588 8.30212 14.588C9.14279 14.588 9.78412 14.835 10.2261 15.329C10.6161 15.7537 10.8111 16.3213 10.8111 17.032C10.8111 17.5607 10.6855 18.0807 10.4341 18.592C10.1828 19.1033 9.74512 19.7403 9.12112 20.503C8.41912 21.3523 8.02912 21.816 7.95112 21.894L7.18412 22.674H10.9931V23.194L10.3431 24H5.41612V22.674L6.37812 21.686L7.31412 20.62C8.03346 19.8227 8.49712 19.2723 8.70512 18.969C9.14712 18.3363 9.36812 17.7773 9.36812 17.292C9.36812 16.9107 9.24246 16.603 8.99112 16.369C8.74846 16.1263 8.42779 16.005 8.02912 16.005C7.56112 16.005 7.08446 16.174 6.59912 16.512L5.80612 15.394ZM12.5293 14.9C13.1879 14.692 13.7296 14.588 14.1543 14.588C15.0643 14.588 15.7879 14.8263 16.3253 15.303C16.8453 15.7623 17.1053 16.3733 17.1053 17.136C17.1053 18.254 16.5679 18.9603 15.4933 19.255C16.1259 19.385 16.6113 19.6537 16.9493 20.061C17.3046 20.4943 17.4823 20.9797 17.4823 21.517C17.4823 22.4097 17.1096 23.0987 16.3643 23.584C15.7923 23.9567 15.1033 24.143 14.2973 24.143C13.7339 24.143 13.1793 24.0737 12.6333 23.935L12.1263 23.311V22.713C12.7329 22.8257 13.2529 22.882 13.6863 22.882C15.1596 22.882 15.8963 22.4313 15.8963 21.53C15.8963 21.062 15.6926 20.6677 15.2853 20.347C15.0253 20.1477 14.7479 20.0133 14.4533 19.944C14.1673 19.8747 13.7209 19.8313 13.1143 19.814V18.605H14.4273C14.7566 18.605 15.0296 18.4923 15.2463 18.267C15.4629 18.033 15.5713 17.7427 15.5713 17.396C15.5713 16.954 15.4196 16.6117 15.1163 16.369C14.8216 16.1177 14.4143 15.992 13.8943 15.992C13.5649 15.992 13.1099 16.0657 12.5293 16.213V14.9Z" fill="black"/>
</svg>
