<svg width="51" height="54" viewBox="0 0 51 54" fill="none" xmlns="http://www.w3.org/2000/svg">
<path d="M30.1507 52.6252C25.5977 52.6252 20.4722 51.6777 15.7184 49.9573C10.8266 48.187 6.70329 45.7145 4.10806 42.9955C2.61557 41.4329 1.70168 39.7808 1.23189 37.7961C0.787391 35.9183 0.751221 33.8096 0.751221 31.4467C0.751221 28.1496 1.02999 25.8661 1.68334 23.8112C2.30537 21.8549 3.31694 19.9862 5.06578 17.5628L5.11453 17.4953L5.13112 17.4138C6.09447 12.6846 8.02025 8.66333 10.7003 5.78466C13.4192 2.86422 16.7512 1.32056 20.3363 1.32056C23.9736 1.32056 28.1569 3.01984 31.8478 4.51908C32.1216 4.6303 32.3923 4.74025 32.6594 4.84814L32.6676 4.85146L32.676 4.8544C37.2879 6.47839 39.741 7.54689 41.4252 8.6654C43.1682 9.82298 44.1603 11.0819 45.662 12.9874C47.2561 15.0088 48.3407 17.1087 49.0752 19.5961C49.7233 21.7905 50.1189 24.349 50.3581 27.8918C50.6268 31.871 49.9165 35.897 48.247 39.8582C46.5476 43.8902 44.3156 46.7234 43.1363 48.0534C41.2967 50.1312 39.7984 51.2287 37.9645 51.842C36.0059 52.497 33.6163 52.6252 30.1507 52.6252Z" fill="#23BF73"/>
<path d="M20.336 1.70808C16.8626 1.70808 13.6296 3.2087 10.9865 6.04773C8.35512 8.87419 6.46255 12.831 5.5134 17.4905L5.48021 17.6535L5.38272 17.7886C3.6363 20.2086 2.67226 21.9873 2.05524 23.9278C1.4146 25.9427 1.14125 28.1913 1.14125 31.4465C1.14125 33.7848 1.17664 35.8698 1.61156 37.7072C2.06486 39.6222 2.94799 41.2177 4.39101 42.7285C6.94546 45.4048 11.0156 47.8426 15.8517 49.5928C20.5638 51.2981 25.6419 52.2372 30.1505 52.2372C33.5756 52.2372 35.9318 52.1124 37.8397 51.4744C39.6031 50.8847 41.0526 49.8193 42.8432 47.7969C44.0067 46.4848 46.2089 43.6891 47.8868 39.7082C49.5327 35.8031 50.2331 31.8361 49.9685 27.9176C49.7313 24.4041 49.3402 21.8712 48.7005 19.705C47.9804 17.2663 46.9172 15.2077 45.3545 13.2262C42.3488 9.41229 41.5409 8.38722 32.5454 5.21966L32.5122 5.20711C32.2448 5.09914 31.974 4.98911 31.7 4.87781C28.0423 3.39206 23.8967 1.70808 20.336 1.70808ZM20.336 0.932617C24.3254 0.932617 28.9393 2.92694 32.8061 4.48875C41.9279 7.70074 42.8585 8.80121 45.9691 12.7482C49.3132 16.9886 50.3133 21.438 50.7473 27.8657C51.3551 36.8679 46.8708 44.4277 43.4289 48.3095C39.7735 52.4381 37.2699 53.0127 30.1505 53.0127C20.8504 53.0127 9.38349 49.0861 3.82463 43.262C0.515489 39.7976 0.360718 36.3254 0.360718 31.4465C0.360718 24.9915 1.43215 21.932 4.74837 17.3367C6.71124 7.70074 12.6967 0.932617 20.336 0.932617Z" fill="#707070"/>
<path d="M22.1709 21.8263V30.4323L21.3649 31.1343H20.5849V23.6333L19.0769 24.9073L18.3229 23.9583L20.8449 21.8263H22.1709ZM27.9749 26.7923C27.7669 27.0523 27.5459 27.2559 27.3119 27.4033C26.9652 27.6199 26.5622 27.7283 26.1029 27.7283C25.2362 27.7283 24.5732 27.4119 24.1139 26.7793C23.7412 26.2679 23.5549 25.6223 23.5549 24.8423C23.5549 23.8369 23.8235 23.0526 24.3609 22.4893C24.8549 21.9693 25.5309 21.7093 26.3889 21.7093C28.3735 21.7093 29.3659 23.1609 29.3659 26.0643C29.3659 27.1389 29.2705 28.0013 29.0799 28.6513C28.8979 29.3013 28.5902 29.8473 28.1569 30.2893C27.5415 30.9133 26.7355 31.2253 25.7389 31.2253C25.5049 31.2253 25.1972 31.1906 24.8159 31.1213L24.3089 30.4973V29.8863C24.6382 29.9556 24.9675 29.9903 25.2969 29.9903C26.2675 29.9903 26.9435 29.7606 27.3249 29.3013C27.7149 28.8419 27.9315 28.0056 27.9749 26.7923ZM27.7799 24.9073C27.7799 23.6679 27.3422 23.0483 26.4669 23.0483C26.0595 23.0483 25.7302 23.2086 25.4789 23.5293C25.2362 23.8499 25.1149 24.2746 25.1149 24.8033C25.1149 25.2886 25.2362 25.6873 25.4789 25.9993C25.7215 26.3113 26.0292 26.4673 26.4019 26.4673C26.8005 26.4673 27.1299 26.3199 27.3899 26.0253C27.6499 25.7306 27.7799 25.3579 27.7799 24.9073Z" fill="black"/>
</svg>
