<svg width="17" height="15" viewBox="0 0 17 15" fill="none" xmlns="http://www.w3.org/2000/svg">
<path d="M6.27316 15C5.99113 15 5.71299 14.9421 5.46076 14.8307C5.20853 14.7194 4.98914 14.5578 4.81999 14.3586L0.364537 9.11635C0.221086 8.94796 0.11665 8.75628 0.057211 8.55224C-0.00222779 8.34821 -0.0155173 8.13584 0.018118 7.92728C0.0517533 7.71871 0.131651 7.51803 0.253232 7.33673C0.374813 7.15543 0.535698 6.99707 0.726689 6.87068C0.917681 6.74428 1.13503 6.65233 1.36631 6.60012C1.5976 6.5479 1.83828 6.53641 2.0746 6.56633C2.31091 6.59625 2.53822 6.66699 2.74354 6.77448C2.94885 6.88198 3.12814 7.0241 3.27116 7.19279L6.18607 10.6222L13.6727 0.712669C13.9401 0.35933 14.3556 0.114138 14.8278 0.0309934C15.3001 -0.0521513 15.7904 0.0335566 16.191 0.269259C16.5917 0.504961 16.8699 0.871392 16.9646 1.28802C17.0592 1.70465 16.9625 2.13739 16.6958 2.49116L7.78485 14.2861C7.62365 14.4994 7.40685 14.6755 7.15261 14.7997C6.89838 14.9238 6.61413 14.9923 6.32369 14.9995C6.30685 14.9998 6.28998 15 6.27316 15Z" fill="#9A9A9A"/>
</svg>
