<svg width="28" height="29" viewBox="0 0 28 29" fill="none" xmlns="http://www.w3.org/2000/svg">
<path fill-rule="evenodd" clip-rule="evenodd" d="M13.3861 3.21065C13.7472 2.92978 14.2528 2.92978 14.6139 3.21065L23.6139 10.2106C23.8575 10.4001 24 10.6914 24 11V22C24 22.7957 23.6839 23.5587 23.1213 24.1213C22.5587 24.6839 21.7957 25 21 25H7C6.20435 25 5.44129 24.6839 4.87868 24.1213C4.31607 23.5587 4 22.7957 4 22V11C4 10.6914 4.14247 10.4001 4.38606 10.2106L13.3861 3.21065ZM6 11.4891V22C6 22.2652 6.10536 22.5196 6.29289 22.7071C6.48043 22.8946 6.73478 23 7 23H21C21.2652 23 21.5196 22.8946 21.7071 22.7071C21.8946 22.5196 22 22.2652 22 22V11.4891L14 5.26686L6 11.4891Z" fill="#6854C2"/>
<path fill-rule="evenodd" clip-rule="evenodd" d="M10 14C10 13.4477 10.4477 13 11 13H17C17.5523 13 18 13.4477 18 14V24C18 24.5523 17.5523 25 17 25C16.4477 25 16 24.5523 16 24V15H12V24C12 24.5523 11.5523 25 11 25C10.4477 25 10 24.5523 10 24V14Z" fill="#6854C2"/>
</svg>
