<svg width="19" height="19" viewBox="0 0 19 19" fill="none" xmlns="http://www.w3.org/2000/svg">
<path d="M7.76899 5.44284C7.76899 6.03658 7.76899 6.61206 7.95625 7.151C5.98774 9.46205 0.790144 15.5685 0.30601 16.0344C0.209789 16.1207 0.132816 16.2263 0.0800941 16.3444C0.0273724 16.4624 8.28801e-05 16.5902 0 16.7195C0 17.1077 0.2375 17.4822 0.438461 17.6923C0.739904 18.0074 2.02788 19.1995 2.26538 18.9711C2.96875 18.286 3.11034 18.1034 3.39808 17.8202C3.83197 17.3954 3.3524 16.5276 3.50312 16.176C3.65385 15.8243 3.8137 15.7558 4.07404 15.701C4.33437 15.6462 4.79567 15.8334 5.15649 15.838C5.53558 15.8425 5.74111 15.6827 6.02428 15.4178C6.25264 15.2077 6.41707 15.0113 6.42163 14.7053C6.43077 14.2942 5.83702 13.7507 6.28005 13.3168C6.72308 12.8829 7.3625 13.6 7.83293 13.5452C8.30337 13.4904 8.87428 12.8373 8.93365 12.5587C8.99303 12.2801 8.39928 11.563 8.49062 11.1565C8.5226 11.0195 8.8012 10.6998 9.0113 10.6541C9.22139 10.6084 10.1531 10.9693 10.3632 10.9236C10.619 10.8688 10.9159 10.5993 11.1579 10.4486C11.8659 10.7546 12.5099 10.8779 13.3365 10.8779C16.4651 10.8779 19 8.43898 19 5.4337C19 2.42843 16.4651 0 13.3365 0C10.2079 0 7.76899 2.43756 7.76899 5.44284ZM16.0769 4.38459C16.0769 4.67366 15.9912 4.95623 15.8306 5.19658C15.67 5.43693 15.4418 5.62425 15.1747 5.73487C14.9076 5.84549 14.6138 5.87444 14.3303 5.81804C14.0467 5.76165 13.7863 5.62245 13.5819 5.41805C13.3775 5.21365 13.2383 4.95323 13.1819 4.66973C13.1255 4.38622 13.1545 4.09235 13.2651 3.82529C13.3757 3.55823 13.563 3.32997 13.8034 3.16938C14.0437 3.00878 14.3263 2.92306 14.6154 2.92306C15.003 2.92306 15.3748 3.07705 15.6488 3.35114C15.9229 3.62523 16.0769 3.99697 16.0769 4.38459Z" fill="#6854C2"/>
</svg>
