<svg width="17" height="19" viewBox="0 0 17 19" fill="none" xmlns="http://www.w3.org/2000/svg">
<path d="M15.5556 15.0888V15.2083H1V15.0866C1.53611 14.5791 2.00792 14.0074 2.40465 13.3843L2.42998 13.3445L2.45145 13.3025C2.93751 12.352 3.22884 11.3141 3.30833 10.2495L3.31111 10.2123V10.175L3.31111 7.43056L3.31111 7.42854C3.30867 6.21797 3.74503 5.04752 4.53936 4.134C5.33369 3.22047 6.43218 2.62577 7.63135 2.46003L8.25393 2.37398L8.85105 2.45027C10.0611 2.60486 11.173 3.196 11.9779 4.1126C12.7828 5.02921 13.2253 6.20819 13.2222 7.42804V7.43056V10.175V10.2123L13.225 10.2495C13.3045 11.3141 13.5958 12.352 14.0819 13.3025L14.1049 13.3475L14.1323 13.39C14.5349 14.013 15.013 14.5836 15.5556 15.0888Z" stroke="white" stroke-width="2"/>
<path d="M6.81641 16.7917C6.86512 17.1439 7.03962 17.4665 7.30768 17.7001C7.57573 17.9336 7.91923 18.0622 8.27474 18.0622C8.63025 18.0622 8.97375 17.9336 9.2418 17.7001C9.50986 17.4665 9.68436 17.1439 9.73307 16.7917H6.81641Z" fill="white"/>
</svg>
