<svg width="198" height="189" viewBox="0 0 198 189" fill="none" xmlns="http://www.w3.org/2000/svg">
<path d="M5.96987 175.668L6.42243 12.4275C6.43532 9.1235 7.75828 5.95955 10.101 3.62976C12.4438 1.29996 15.615 -0.00541206 18.919 1.68662e-05L142.202 0.341794C145.506 0.354703 148.67 1.67767 151 4.02042C153.329 6.36317 154.635 9.53439 154.629 12.8384L154.177 176.079C154.164 179.383 152.841 182.547 150.498 184.877C148.155 187.207 144.984 188.512 141.68 188.506L18.3973 188.165C15.0933 188.152 11.9294 186.829 9.59961 184.486C7.26982 182.143 5.96444 178.972 5.96987 175.668Z" fill="#E6E6E6"/>
<path d="M15.5631 126.389L15.854 21.4429C15.866 18.3486 17.105 15.3855 19.2991 13.2035C21.4931 11.0216 24.4631 9.7991 27.5574 9.80425L133.509 10.098C136.603 10.11 139.566 11.3489 141.748 13.543C143.93 15.737 145.153 18.7071 145.148 21.8014L144.745 167.063C144.733 170.158 143.494 173.121 141.3 175.303C139.106 177.485 136.136 178.707 133.041 178.702L67.4067 178.52C53.6235 178.466 40.4245 172.948 30.7053 163.175C20.9861 153.401 15.5405 140.172 15.5631 126.389Z" fill="white"/>
<path d="M121.607 91.7292H38.9923C37.6776 91.7292 36.4168 91.2069 35.4872 90.2773C34.5577 89.3477 34.0354 88.0869 34.0354 86.7723C34.0354 85.4576 34.5577 84.1968 35.4872 83.2672C36.4168 82.3376 37.6776 81.8154 38.9923 81.8154H121.607C122.922 81.8154 124.183 82.3376 125.112 83.2672C126.042 84.1968 126.564 85.4576 126.564 86.7723C126.564 88.0869 126.042 89.3477 125.112 90.2773C124.183 91.2069 122.922 91.7292 121.607 91.7292Z" fill="#6C63FF"/>
<path d="M57.1676 64.5452H38.9923C37.6776 64.5452 36.4168 64.0229 35.4872 63.0934C34.5577 62.1638 34.0354 60.903 34.0354 59.5883C34.0354 58.2737 34.5577 57.0129 35.4872 56.0833C36.4168 55.1537 37.6776 54.6314 38.9923 54.6314H57.1676C58.4822 54.6314 59.743 55.1537 60.6726 56.0833C61.6022 57.0129 62.1244 58.2737 62.1244 59.5883C62.1244 60.903 61.6022 62.1638 60.6726 63.0934C59.743 64.0229 58.4822 64.5452 57.1676 64.5452Z" fill="#6C63FF"/>
<path d="M121.607 135.313H38.9923C37.6776 135.313 36.4168 134.791 35.4872 133.861C34.5577 132.931 34.0354 131.671 34.0354 130.356C34.0354 129.041 34.5577 127.78 35.4872 126.851C36.4168 125.921 37.6776 125.399 38.9923 125.399H121.607C122.922 125.399 124.183 125.921 125.112 126.851C126.042 127.78 126.564 129.041 126.564 130.356C126.564 131.671 126.042 132.931 125.112 133.861C124.183 134.791 122.922 135.313 121.607 135.313Z" fill="#6C63FF"/>
<path d="M121.607 113.521H38.9923C37.6776 113.521 36.4168 112.999 35.4872 112.069C34.5577 111.14 34.0354 109.879 34.0354 108.564C34.0354 107.249 34.5577 105.989 35.4872 105.059C36.4168 104.129 37.6776 103.607 38.9923 103.607H121.607C122.922 103.607 124.183 104.129 125.112 105.059C126.042 105.989 126.564 107.249 126.564 108.564C126.564 109.879 126.042 111.14 125.112 112.069C124.183 112.999 122.922 113.521 121.607 113.521Z" fill="#6C63FF"/>
<path d="M19.7235 43.4469C30.6164 43.4469 39.4469 34.6164 39.4469 23.7235C39.4469 12.8305 30.6164 4 19.7235 4C8.8305 4 0 12.8305 0 23.7235C0 34.6164 8.8305 43.4469 19.7235 43.4469Z" fill="#6C63FF"/>
<path d="M17.0329 33.9886C16.6923 33.9886 16.3564 33.9093 16.0518 33.757C15.7471 33.6046 15.4822 33.3834 15.2779 33.1108L9.89704 25.9363C9.72379 25.7058 9.59767 25.4434 9.52588 25.1642C9.4541 24.885 9.43805 24.5943 9.47867 24.3089C9.51929 24.0234 9.61578 23.7488 9.76262 23.5007C9.90945 23.2525 10.1038 23.0358 10.3344 22.8628C10.5651 22.6898 10.8276 22.564 11.1069 22.4925C11.3862 22.4211 11.6769 22.4053 11.9623 22.4463C12.2477 22.4872 12.5222 22.584 12.7702 22.7312C13.0181 22.8783 13.2347 23.0728 13.4074 23.3037L16.9277 27.9971L25.9693 14.435C26.2923 13.9514 26.7941 13.6158 27.3644 13.502C27.9347 13.3882 28.5268 13.5055 29.0107 13.8281C29.4946 14.1507 29.8306 14.6522 29.9449 15.2224C30.0592 15.7926 29.9425 16.3848 29.6203 16.869L18.8586 33.0116C18.6639 33.3036 18.402 33.5446 18.095 33.7144C17.788 33.8843 17.4447 33.9781 17.0939 33.988C17.0736 33.9883 17.0532 33.9886 17.0329 33.9886Z" fill="white"/>
<path d="M179.739 105.335H178.319V96.0103H179.739V105.335ZM179.739 86.6848H178.319V77.36H179.739V86.6848Z" fill="#2F2E41"/>
<path d="M179.739 68.0345H178.319V64.4846H174.769V63.0646H179.739V68.0345Z" fill="#2F2E41"/>
<path d="M170.509 64.42H167.126V63H170.509V64.42ZM163.743 64.42H160.36V63H163.743V64.42ZM156.977 64.42H153.595V63H156.977V64.42ZM150.212 64.42H146.829V63H150.212V64.42ZM143.446 64.42H140.063V63H143.446L143.446 64.42ZM136.68 64.42H133.297V63H136.68V64.42ZM129.914 64.42H126.532V63H129.914V64.42ZM123.149 64.42H119.766V63H123.149V64.42ZM116.383 64.42H113V63H116.383V64.42Z" fill="#2F2E41"/>
<path d="M178.163 154.276C189.056 154.276 197.886 145.446 197.886 134.553C197.886 123.66 189.056 114.829 178.163 114.829C167.27 114.829 158.439 123.66 158.439 134.553C158.439 145.446 167.27 154.276 178.163 154.276Z" fill="#6C63FF"/>
<path d="M182.043 134.553L185.923 130.673C186.436 130.158 186.723 129.46 186.723 128.734C186.722 128.007 186.433 127.31 185.919 126.797C185.405 126.283 184.708 125.994 183.982 125.993C183.255 125.992 182.558 126.28 182.043 126.792L178.163 130.672L174.283 126.792C173.768 126.28 173.071 125.992 172.344 125.993C171.617 125.994 170.921 126.283 170.407 126.797C169.893 127.31 169.604 128.007 169.603 128.734C169.602 129.46 169.89 130.158 170.403 130.673L174.283 134.553L170.403 138.433C170.147 138.687 169.943 138.99 169.804 139.323C169.665 139.656 169.593 140.014 169.593 140.375C169.592 140.736 169.663 141.093 169.801 141.427C169.939 141.761 170.141 142.064 170.396 142.319C170.652 142.575 170.955 142.777 171.288 142.915C171.622 143.053 171.98 143.123 172.341 143.123C172.702 143.122 173.059 143.05 173.393 142.911C173.726 142.772 174.028 142.569 174.283 142.313L178.163 138.433L182.043 142.313C182.297 142.569 182.6 142.772 182.933 142.911C183.266 143.05 183.624 143.122 183.985 143.123C184.346 143.123 184.704 143.053 185.037 142.915C185.371 142.777 185.674 142.575 185.93 142.319C186.185 142.064 186.387 141.761 186.525 141.427C186.663 141.093 186.734 140.736 186.733 140.375C186.733 140.014 186.661 139.656 186.522 139.323C186.383 138.99 186.179 138.687 185.923 138.433L182.043 134.553Z" fill="white"/>
</svg>
