<svg width="243" height="259" viewBox="0 0 243 259" fill="none" xmlns="http://www.w3.org/2000/svg">
<path d="M176.036 209.761H72.3812C69.9195 209.759 67.5594 208.779 65.819 207.038C64.0786 205.297 63.1001 202.937 63.0982 200.475V160.631C62.8836 160.876 62.659 161.117 62.4277 161.352V200.475C62.4301 203.114 63.4795 205.645 65.3455 207.512C67.2115 209.378 69.7418 210.429 72.3812 210.432H176.328C176.227 210.211 176.13 209.986 176.036 209.761ZM63.0982 62.4873C63.1001 60.0256 64.0786 57.6652 65.819 55.9241C67.5594 54.1831 69.9195 53.2037 72.3812 53.201H106.918C106.855 52.9763 106.794 52.7551 106.737 52.5305H72.3812C69.7418 52.5338 67.2115 53.5839 65.3455 55.4506C63.4795 57.3172 62.4301 59.8479 62.4277 62.4873V123.569C62.659 123.804 62.8803 124.045 63.0982 124.29V62.4873ZM202.279 70.3187L180.622 53.1641C180.105 52.7542 179.465 52.5309 178.805 52.5305H159.532C159.478 52.7551 159.418 52.9797 159.354 53.201H178.805C179.314 53.2022 179.807 53.3733 180.207 53.6871L201.864 70.845C202.069 71.0071 202.235 71.2139 202.349 71.4498C202.463 71.6856 202.522 71.9442 202.521 72.2061V172.053C202.745 172.059 202.97 172.076 203.191 172.093V72.2061C203.192 71.8429 203.111 71.4842 202.953 71.1572C202.795 70.8302 202.565 70.5434 202.279 70.3187Z" fill="#6854C2"/>
<path d="M201.993 71.2043H184.518C183.887 71.2043 183.261 71.0799 182.678 70.8381C182.094 70.5964 181.564 70.2421 181.117 69.7954C180.67 69.3488 180.316 68.8185 180.074 68.2349C179.833 67.6513 179.708 67.0258 179.708 66.3942V53.4874C179.708 53.4309 179.724 53.3755 179.754 53.3277C179.784 53.2798 179.827 53.2413 179.878 53.2167C179.929 53.1921 179.986 53.1824 180.042 53.1886C180.098 53.1948 180.151 53.2167 180.196 53.2518L202.18 70.668C202.229 70.7068 202.265 70.7598 202.282 70.8197C202.299 70.8797 202.298 70.9435 202.277 71.0025C202.257 71.0614 202.218 71.1125 202.168 71.1487C202.117 71.1849 202.056 71.2043 201.993 71.2043Z" fill="#E6E6E6"/>
<path d="M201.993 71.5395H184.518C183.154 71.538 181.846 70.9954 180.882 70.0307C179.917 69.0661 179.374 67.7583 179.373 66.3941V53.4874C179.373 53.3679 179.407 53.2508 179.47 53.1496C179.534 53.0483 179.624 52.967 179.732 52.9149C179.84 52.8629 179.96 52.8422 180.078 52.8553C180.197 52.8683 180.31 52.9146 180.404 52.9888L202.388 70.4053C202.492 70.4872 202.567 70.5994 202.604 70.7262C202.641 70.853 202.637 70.9881 202.594 71.1128C202.55 71.2375 202.469 71.3455 202.362 71.422C202.254 71.4985 202.125 71.5396 201.993 71.5395ZM180.043 53.5589V66.3941C180.045 67.5805 180.517 68.7179 181.356 69.5569C182.194 70.3958 183.332 70.8677 184.518 70.869H201.894L180.043 53.5589Z" fill="#6854C2"/>
<path d="M167.305 93.4511H115.897C115.259 93.4511 114.647 93.1977 114.196 92.7467C113.745 92.2957 113.491 91.6839 113.491 91.0461C113.491 90.4082 113.745 89.7965 114.196 89.3454C114.647 88.8944 115.259 88.641 115.897 88.641H167.305C167.943 88.641 168.554 88.8944 169.005 89.3454C169.456 89.7965 169.71 90.4082 169.71 91.0461C169.71 91.6839 169.456 92.2957 169.005 92.7467C168.554 93.1977 167.943 93.4511 167.305 93.4511Z" fill="#CCCCCC"/>
<path d="M177.226 101.568H115.897C115.259 101.568 114.647 101.315 114.196 100.864C113.745 100.413 113.491 99.801 113.491 99.1631C113.491 98.5253 113.745 97.9135 114.196 97.4625C114.647 97.0115 115.259 96.7581 115.897 96.7581H177.226C177.863 96.7581 178.475 97.0115 178.926 97.4625C179.377 97.9135 179.631 98.5253 179.631 99.1631C179.631 99.801 179.377 100.413 178.926 100.864C178.475 101.315 177.863 101.568 177.226 101.568Z" fill="#CCCCCC"/>
<path d="M167.305 129.828H115.897C115.259 129.828 114.647 129.574 114.196 129.123C113.745 128.672 113.491 128.06 113.491 127.423C113.491 126.785 113.745 126.173 114.196 125.722C114.647 125.271 115.259 125.018 115.897 125.018H167.305C167.943 125.018 168.554 125.271 169.005 125.722C169.456 126.173 169.71 126.785 169.71 127.423C169.71 128.06 169.456 128.672 169.005 129.123C168.554 129.574 167.943 129.828 167.305 129.828Z" fill="#CCCCCC"/>
<path d="M177.226 137.945H115.897C115.259 137.945 114.647 137.691 114.196 137.24C113.745 136.789 113.491 136.178 113.491 135.54C113.491 134.902 113.745 134.29 114.196 133.839C114.647 133.388 115.259 133.135 115.897 133.135H177.226C177.863 133.135 178.475 133.388 178.926 133.839C179.377 134.29 179.631 134.902 179.631 135.54C179.631 136.178 179.377 136.789 178.926 137.24C178.475 137.691 177.863 137.945 177.226 137.945Z" fill="#CCCCCC"/>
<path d="M167.305 166.204H115.897C115.581 166.204 115.268 166.142 114.976 166.021C114.684 165.9 114.419 165.723 114.196 165.5C113.973 165.276 113.795 165.011 113.675 164.72C113.554 164.428 113.491 164.115 113.491 163.799C113.491 163.483 113.554 163.171 113.675 162.879C113.795 162.587 113.973 162.322 114.196 162.099C114.419 161.875 114.684 161.698 114.976 161.577C115.268 161.456 115.581 161.394 115.897 161.394H167.305C167.943 161.394 168.554 161.647 169.005 162.099C169.456 162.55 169.71 163.161 169.71 163.799C169.71 164.437 169.456 165.049 169.005 165.5C168.554 165.951 167.943 166.204 167.305 166.204Z" fill="#CCCCCC"/>
<path d="M177.226 174.321H115.897C115.581 174.321 115.268 174.259 114.976 174.138C114.684 174.017 114.419 173.84 114.196 173.617C113.973 173.394 113.795 173.128 113.675 172.837C113.554 172.545 113.491 172.232 113.491 171.916C113.491 171.6 113.554 171.288 113.675 170.996C113.795 170.704 113.973 170.439 114.196 170.216C114.419 169.992 114.684 169.815 114.976 169.694C115.268 169.573 115.581 169.511 115.897 169.511H177.226C177.541 169.511 177.854 169.573 178.146 169.694C178.438 169.815 178.703 169.992 178.926 170.216C179.15 170.439 179.327 170.704 179.448 170.996C179.568 171.288 179.631 171.6 179.631 171.916C179.631 172.232 179.568 172.545 179.448 172.837C179.327 173.128 179.15 173.394 178.926 173.617C178.703 173.84 178.438 174.017 178.146 174.138C177.854 174.259 177.541 174.321 177.226 174.321Z" fill="#CCCCCC"/>
<path d="M94.4889 103.605C99.1836 103.605 102.989 99.7993 102.989 95.1046C102.989 90.4098 99.1836 86.604 94.4889 86.604C89.7942 86.604 85.9883 90.4098 85.9883 95.1046C85.9883 99.7993 89.7942 103.605 94.4889 103.605Z" fill="#6C63FF"/>
<path d="M93.6465 98.3473C93.4553 98.3476 93.2692 98.2858 93.1161 98.171L93.1067 98.1639L91.1089 96.6357C91.0162 96.5648 90.9384 96.4764 90.8798 96.3754C90.8213 96.2744 90.7833 96.1629 90.7679 96.0472C90.7526 95.9316 90.7601 95.814 90.7903 95.7012C90.8204 95.5885 90.8724 95.4828 90.9434 95.3902C91.0144 95.2975 91.103 95.2198 91.2041 95.1615C91.3051 95.1031 91.4167 95.0653 91.5324 95.0501C91.6481 95.0349 91.7657 95.0427 91.8784 95.0729C91.9911 95.1032 92.0967 95.1554 92.1892 95.2266L93.4832 96.2189L96.5409 92.2297C96.6118 92.1372 96.7003 92.0596 96.8012 92.0013C96.9021 91.943 97.0135 91.9051 97.129 91.8898C97.2445 91.8746 97.3619 91.8822 97.4745 91.9123C97.5871 91.9425 97.6926 91.9945 97.7851 92.0654L97.7664 92.0919L97.7859 92.0656C97.9725 92.209 98.0946 92.4205 98.1253 92.6538C98.1561 92.8871 98.0931 93.1231 97.95 93.31L94.3535 98C94.2703 98.1081 94.1633 98.1955 94.0408 98.2556C93.9184 98.3156 93.7837 98.3466 93.6473 98.3462L93.6465 98.3473Z" fill="white"/>
<path d="M94.4889 139.982C99.1836 139.982 102.989 136.176 102.989 131.481C102.989 126.786 99.1836 122.981 94.4889 122.981C89.7942 122.981 85.9883 126.786 85.9883 131.481C85.9883 136.176 89.7942 139.982 94.4889 139.982Z" fill="#E6E6E6"/>
<path d="M93.6466 134.724C93.4553 134.724 93.2692 134.662 93.1162 134.548L93.1067 134.54L91.1089 133.012C90.9221 132.869 90.7998 132.657 90.7689 132.424C90.7381 132.191 90.8013 131.954 90.9445 131.768C91.0878 131.581 91.2994 131.458 91.5328 131.428C91.7663 131.397 92.0024 131.46 92.1892 131.603L93.4832 132.595L96.5409 128.606C96.6118 128.514 96.7003 128.436 96.8012 128.378C96.9021 128.319 97.0135 128.282 97.129 128.266C97.2445 128.251 97.3619 128.259 97.4745 128.289C97.5871 128.319 97.6927 128.371 97.7851 128.442L97.7664 128.468L97.7859 128.442C97.9725 128.585 98.0946 128.797 98.1253 129.03C98.1561 129.264 98.0931 129.5 97.9501 129.687L94.3535 134.377C94.2703 134.485 94.1633 134.572 94.0408 134.632C93.9184 134.692 93.7837 134.723 93.6473 134.723L93.6466 134.724Z" fill="white"/>
<path d="M94.4889 176.358C99.1836 176.358 102.989 172.552 102.989 167.858C102.989 163.163 99.1836 159.357 94.4889 159.357C89.7942 159.357 85.9883 163.163 85.9883 167.858C85.9883 172.552 89.7942 176.358 94.4889 176.358Z" fill="#E6E6E6"/>
<path d="M93.6465 171.1C93.4553 171.101 93.2692 171.039 93.1161 170.924L93.1067 170.917L91.1089 169.389C91.0162 169.318 90.9384 169.229 90.8798 169.129C90.8213 169.028 90.7833 168.916 90.7679 168.8C90.7526 168.685 90.7601 168.567 90.7903 168.454C90.8204 168.342 90.8724 168.236 90.9434 168.143C91.0144 168.051 91.103 167.973 91.2041 167.915C91.3051 167.856 91.4167 167.818 91.5324 167.803C91.6481 167.788 91.7657 167.796 91.8784 167.826C91.9911 167.856 92.0967 167.909 92.1892 167.98L93.4832 168.972L96.5409 164.983C96.6118 164.89 96.7003 164.813 96.8012 164.754C96.9021 164.696 97.0135 164.658 97.129 164.643C97.2445 164.628 97.3619 164.635 97.4745 164.665C97.5871 164.696 97.6926 164.748 97.7851 164.818L97.7664 164.845L97.7859 164.819C97.9725 164.962 98.0946 165.174 98.1253 165.407C98.1561 165.64 98.0931 165.876 97.95 166.063L94.3535 170.753C94.2703 170.861 94.1633 170.949 94.0408 171.009C93.9184 171.069 93.7837 171.1 93.6473 171.099L93.6465 171.1Z" fill="white"/>
<path d="M214.005 223.95C213.525 224.201 213.038 224.438 212.541 224.662C212.09 224.866 211.631 225.058 211.164 225.238C210.994 225.303 210.821 225.368 210.648 225.433C209.278 225.93 207.87 226.318 206.439 226.593C205.731 226.732 205.013 226.842 204.285 226.921C203.685 226.989 203.079 227.038 202.466 227.067C202.03 227.088 201.593 227.098 201.154 227.098C199.414 227.098 197.677 226.936 195.968 226.612C195.522 226.531 195.086 226.435 194.649 226.33C192.539 225.824 190.496 225.07 188.563 224.084C188.389 223.997 188.216 223.904 188.043 223.814C187.786 223.678 187.535 223.536 187.285 223.387C187.405 223.22 187.535 223.056 187.668 222.895C189.116 221.101 190.926 219.632 192.98 218.584C195.034 217.535 197.285 216.932 199.588 216.812C201.891 216.692 204.193 217.059 206.344 217.889C208.495 218.718 210.448 219.992 212.074 221.627C212.639 222.193 213.162 222.799 213.64 223.44C213.767 223.607 213.888 223.777 214.005 223.95Z" fill="#6C63FF"/>
<path d="M201.771 210.357C209.276 210.357 215.359 204.274 215.359 196.77C215.359 189.265 209.276 183.182 201.771 183.182C194.267 183.182 188.184 189.265 188.184 196.77C188.184 204.274 194.267 210.357 201.771 210.357Z" fill="#2F2E41"/>
<path d="M205.385 210.377C210.286 207.698 212.087 201.553 209.408 196.652C206.729 191.751 200.585 189.95 195.684 192.629C190.783 195.308 188.982 201.453 191.661 206.354C194.34 211.254 200.485 213.056 205.385 210.377Z" fill="#A0616A"/>
<path d="M211.161 195.142C208.85 196.735 206.107 197.582 203.3 197.571C204.302 198.265 205.441 198.734 206.641 198.946C202.91 199.746 199.053 199.768 195.312 199.009C194.481 198.876 193.679 198.6 192.941 198.195C192.573 197.989 192.253 197.709 192.001 197.372C191.748 197.034 191.57 196.648 191.477 196.237C191.228 194.817 192.335 193.527 193.485 192.658C195.245 191.347 197.275 190.444 199.427 190.014C201.58 189.583 203.801 189.637 205.93 190.171C207.32 190.53 208.712 191.137 209.615 192.254C210.518 193.37 210.786 195.091 209.925 196.241L211.161 195.142Z" fill="#2F2E41"/>
<path d="M203.191 171.469C202.97 171.453 202.745 171.439 202.521 171.429C202.068 171.406 201.612 171.396 201.153 171.396C196.586 171.396 192.089 172.519 188.059 174.666C184.028 176.814 180.588 179.919 178.04 183.71C175.492 187.5 173.916 191.858 173.45 196.401C172.983 200.945 173.641 205.533 175.366 209.761C175.456 209.986 175.55 210.211 175.651 210.432C177.955 215.651 181.795 220.044 186.66 223.024L186.838 223.128C186.989 223.218 187.136 223.305 187.284 223.386C187.535 223.537 187.787 223.677 188.042 223.815C188.216 223.905 188.39 223.996 188.561 224.083C190.494 225.07 192.538 225.824 194.649 226.329C195.085 226.436 195.521 226.53 195.967 226.611C197.677 226.935 199.413 227.097 201.153 227.097C201.592 227.097 202.028 227.087 202.467 227.067C203.077 227.04 203.684 226.99 204.284 226.923C205.012 226.842 205.73 226.733 206.44 226.594C207.87 226.318 209.277 225.93 210.647 225.434C210.822 225.367 210.996 225.303 211.164 225.236C211.633 225.059 212.089 224.868 212.541 224.663C213.038 224.438 213.526 224.2 214.006 223.949C218.823 221.425 222.804 217.559 225.469 212.819C225.481 212.793 225.494 212.769 225.509 212.745C227.777 208.657 228.979 204.064 229.005 199.389C229.03 194.714 227.878 190.107 225.655 185.995C223.431 181.882 220.208 178.396 216.282 175.857C212.356 173.319 207.854 171.81 203.191 171.469ZM227.906 204.357C227.367 207.169 226.386 209.878 224.999 212.383C224.976 212.427 224.952 212.47 224.929 212.51C222.319 217.181 218.394 220.982 213.641 223.439C213.165 223.687 212.683 223.92 212.196 224.137C211.79 224.318 211.375 224.492 210.956 224.653C210.781 224.72 210.6 224.79 210.423 224.851C209.239 225.283 208.025 225.63 206.792 225.89C205.877 226.085 204.953 226.231 204.023 226.326C203.449 226.39 202.869 226.433 202.283 226.453C201.907 226.47 201.532 226.48 201.153 226.48C199.469 226.481 197.789 226.324 196.134 226.011C195.127 225.826 194.132 225.582 193.154 225.28C191.664 224.821 190.216 224.234 188.826 223.527C188.665 223.443 188.504 223.359 188.347 223.272C188.119 223.151 187.891 223.027 187.669 222.896C187.502 222.802 187.334 222.702 187.17 222.605C187.073 222.548 186.979 222.491 186.882 222.43C182.25 219.568 178.576 215.391 176.328 210.432C176.227 210.211 176.13 209.986 176.036 209.761C174.304 205.623 173.621 201.12 174.048 196.654C174.475 192.188 175.999 187.896 178.485 184.161C180.97 180.426 184.34 177.363 188.295 175.244C192.249 173.125 196.666 172.016 201.153 172.016C201.612 172.016 202.068 172.026 202.521 172.053C202.745 172.059 202.97 172.076 203.191 172.093C207.017 172.383 210.738 173.477 214.111 175.304C217.485 177.131 220.434 179.65 222.767 182.696C225.1 185.741 226.764 189.245 227.649 192.978C228.535 196.711 228.622 200.588 227.906 204.357Z" fill="#3F3D56"/>
<path d="M194.891 183.37C194.744 181.832 192.861 180.886 191.388 181.35C189.916 181.815 188.949 183.297 188.656 184.814C188.516 185.452 188.502 186.112 188.617 186.756C188.732 187.4 188.973 188.015 189.326 188.565C190.071 189.636 191.439 190.305 192.715 190.033C194.171 189.723 195.181 188.3 195.469 186.839C195.758 185.378 195.471 183.872 195.185 182.41L194.891 183.37Z" fill="#2F2E41"/>
<path d="M215.618 185.566C215.472 184.028 213.588 183.082 212.116 183.546C210.643 184.011 209.676 185.494 209.384 187.01C209.243 187.649 209.23 188.309 209.345 188.952C209.46 189.596 209.701 190.211 210.054 190.761C210.798 191.833 212.166 192.501 213.442 192.229C214.899 191.919 215.908 190.496 216.197 189.035C216.485 187.574 216.199 186.068 215.912 184.607L215.618 185.566Z" fill="#2F2E41"/>
<path d="M147.99 69.04C143.678 71.8005 138.684 73.3058 133.565 73.3873C128.447 73.4687 123.407 72.123 119.01 69.501C119.783 68.0613 120.763 66.7425 121.919 65.5866C123.702 63.7953 125.871 62.4365 128.261 61.6146C130.651 60.7928 133.197 60.5296 135.705 60.8455C138.212 61.1614 140.614 62.0478 142.725 63.4367C144.837 64.8256 146.601 66.6799 147.884 68.8574C147.918 68.9162 147.955 68.9781 147.99 69.04Z" fill="#6C63FF"/>
<path d="M132.29 54.2422C139.844 54.2422 145.968 48.1183 145.968 40.5642C145.968 33.01 139.844 26.8862 132.29 26.8862C124.736 26.8862 118.612 33.01 118.612 40.5642C118.612 48.1183 124.736 54.2422 132.29 54.2422Z" fill="#2F2E41"/>
<path d="M141.126 50.2118C143.823 45.2785 142.01 39.093 137.077 36.3962C132.143 33.6994 125.958 35.5124 123.261 40.4458C120.564 45.3791 122.377 51.5646 127.311 54.2614C132.244 56.9583 138.43 55.1452 141.126 50.2118Z" fill="#FFB8B8"/>
<path d="M122.838 38.9255C125.164 40.5289 127.925 41.3822 130.751 41.3709C129.743 42.0697 128.596 42.5418 127.388 42.7545C131.144 43.5603 135.027 43.5821 138.792 42.8186C139.629 42.6844 140.436 42.407 141.179 41.9986C141.549 41.7919 141.872 41.5096 142.126 41.1701C142.38 40.8305 142.559 40.4414 142.653 40.0279C142.903 38.5985 141.789 37.2999 140.632 36.4247C138.86 35.1052 136.816 34.1961 134.65 33.7631C132.483 33.3302 130.247 33.3842 128.104 33.9214C126.705 34.2831 125.303 34.8943 124.394 36.0181C123.485 37.142 123.216 38.8745 124.082 40.0318L122.838 38.9255Z" fill="#2F2E41"/>
<path d="M133.128 18C125.744 18.0082 118.665 20.9448 113.444 26.1656C108.222 31.3865 105.285 38.4652 105.276 45.849C105.277 48.1014 105.554 50.3453 106.1 52.5305C106.157 52.7551 106.214 52.9797 106.275 53.2009C107.881 59.091 111.381 64.2891 116.233 67.9938C121.086 71.6985 127.023 73.7041 133.128 73.7013C139.235 73.7011 145.172 71.6948 150.027 67.9908C154.881 64.2868 158.385 59.0905 159.998 53.2009C160.059 52.9763 160.116 52.7551 160.169 52.5305C161.179 48.4279 161.243 44.1495 160.356 40.0186C159.469 35.8877 157.655 32.0126 155.05 28.6861C152.445 25.3597 149.118 22.6691 145.32 20.8178C141.522 18.9665 137.353 18.003 133.128 18ZM159.532 52.5305C159.478 52.7551 159.418 52.9797 159.354 53.2009C158.223 57.2294 156.18 60.9431 153.382 64.0543C150.584 67.1654 147.107 69.5903 143.221 71.141C139.334 72.6917 135.143 73.3264 130.972 72.996C126.801 72.6656 122.762 71.379 119.168 69.2358C113.196 65.6417 108.816 59.9084 106.918 53.2009C106.855 52.9763 106.794 52.7551 106.737 52.5305C106.179 50.3472 105.896 48.1025 105.896 45.849C105.9 41.9914 106.724 38.1788 108.313 34.6637C109.902 31.1486 112.22 28.0111 115.112 25.4592C118.005 22.9073 121.407 20.9991 125.093 19.8611C128.779 18.723 132.665 18.3811 136.493 18.858C140.32 19.3348 144.003 20.6196 147.297 22.6271C150.591 24.6346 153.421 27.3191 155.6 30.5027C157.778 33.6864 159.255 37.2965 159.933 41.094C160.611 44.8915 160.474 48.7897 159.532 52.5305Z" fill="#3F3D56"/>
<path d="M57.6841 165.636C53.3733 168.397 48.3788 169.902 43.2604 169.984C38.142 170.066 33.102 168.72 28.7053 166.099C28.7521 166.008 28.8024 165.918 28.8561 165.831C30.2664 163.288 32.3217 161.163 34.815 159.667C37.3084 158.172 40.1516 157.361 43.0585 157.314C45.9654 157.267 48.8332 157.988 51.3731 159.402C53.913 160.817 56.0354 162.875 57.5264 165.371C57.5465 165.398 57.5632 165.428 57.5801 165.455C57.6137 165.512 57.6505 165.576 57.6841 165.636Z" fill="#6C63FF"/>
<path d="M55.6624 137.16C55.6624 139.865 54.8601 142.51 53.3572 144.759C51.8542 147.009 49.718 148.762 47.2187 149.797C44.7193 150.832 41.9691 151.103 39.3159 150.575C36.6626 150.048 34.2254 148.745 32.3125 146.832C30.3996 144.919 29.0969 142.482 28.5692 139.829C28.0414 137.175 28.3123 134.425 29.3475 131.926C30.3828 129.426 32.1359 127.29 34.3853 125.787C36.6346 124.284 39.2791 123.482 41.9844 123.482C43.783 123.474 45.5655 123.821 47.2289 124.506C48.8923 125.19 50.4035 126.197 51.6754 127.469C52.9472 128.741 53.9544 130.252 54.6387 131.916C55.3231 133.579 55.671 135.362 55.6624 137.16Z" fill="#2F2E41"/>
<path d="M52.7022 145.659C52.5456 146.053 52.3654 146.437 52.1625 146.809C50.8673 149.178 48.6842 150.935 46.0933 151.695C43.5025 152.454 40.7161 152.153 38.3469 150.858C37.1729 150.218 36.1366 149.352 35.2973 148.311C34.458 147.269 33.8321 146.073 33.4555 144.789C33.0788 143.506 32.9587 142.161 33.102 140.831C33.2454 139.502 33.6493 138.213 34.2909 137.04C34.9324 135.866 35.7989 134.83 36.8408 133.992C37.8827 133.153 39.0797 132.528 40.3633 132.152C41.6469 131.777 42.992 131.657 44.3216 131.802C45.6513 131.946 46.9395 132.351 48.1126 132.993C50.2889 134.183 51.956 136.127 52.8011 138.459C53.6461 140.791 53.6109 143.351 52.7022 145.659Z" fill="#A0616A"/>
<path d="M63.0983 123.382C62.8837 123.147 62.6591 122.916 62.4278 122.691C58.7026 118.999 54.0102 116.435 48.8913 115.294C43.7724 114.153 38.4351 114.481 33.4946 116.241C28.5541 118.001 24.2113 121.12 20.9665 125.241C17.7218 129.361 15.7072 134.314 15.1548 139.53C14.6025 144.745 15.5348 150.011 17.8444 154.719C20.154 159.428 23.747 163.388 28.2093 166.144C32.6715 168.9 37.8216 170.339 43.066 170.295C48.3104 170.252 53.4358 168.727 57.8517 165.898C59.5008 164.839 61.0346 163.611 62.4278 162.233C62.6558 162.009 62.8804 161.781 63.0983 161.546C67.9625 156.383 70.6715 149.557 70.6715 142.464C70.6715 135.37 67.9625 128.545 63.0983 123.382ZM62.4278 161.352C60.9555 162.877 59.3106 164.226 57.5264 165.371C57.5231 165.375 57.5197 165.375 57.5164 165.378C53.2537 168.107 48.3152 169.595 43.2544 169.676C38.1935 169.756 33.2102 168.426 28.8628 165.834C28.8595 165.834 28.8595 165.831 28.8561 165.831C25.5218 163.842 22.6512 161.164 20.4369 157.975C18.2226 154.787 16.7157 151.161 16.0173 147.343C15.3189 143.524 15.4451 139.6 16.3875 135.834C17.33 132.068 19.0668 128.547 21.4815 125.507C23.8962 122.468 26.933 119.979 30.3882 118.209C33.8433 116.44 37.637 115.429 41.5148 115.245C45.3926 115.062 49.2648 115.71 52.8717 117.145C56.4786 118.581 59.7368 120.771 62.4278 123.569C62.6591 123.804 62.8804 124.045 63.0983 124.29C67.5753 129.284 70.0512 135.754 70.0512 142.461C70.0512 149.167 67.5753 155.638 63.0983 160.631C62.8837 160.876 62.6591 161.117 62.4278 161.352Z" fill="#3F3D56"/>
<path d="M53.0701 125.801C52.3963 124.657 51.4195 123.722 50.2476 123.099C49.0757 122.475 47.7542 122.188 46.4292 122.268C45.0384 122.372 43.7151 122.884 42.4158 123.391L35.8099 125.968C34.1005 126.635 32.2284 127.452 31.4866 129.13C30.7982 130.687 31.3118 132.486 31.8318 134.108L34.3033 141.816C34.642 140.085 34.986 138.336 35.7039 136.724C36.4218 135.113 37.5572 133.627 39.1271 132.821C40.843 131.941 42.8654 131.959 44.7917 132.052C47.5198 132.183 50.486 132.53 52.4243 134.455C53.4533 135.547 54.1509 136.91 54.436 138.383C54.7166 139.849 54.8579 141.338 54.8578 142.831C55.9766 140.908 56.9189 138.887 57.6734 136.794C58.2941 135.236 58.6477 133.584 58.7196 131.908C58.7343 130.235 58.2605 128.508 57.1445 127.261C56.0284 126.013 54.21 125.34 52.6108 125.834" fill="#2F2E41"/>
<path d="M32.2396 89.0197L31.5692 89.0118C31.5771 88.3413 31.5964 87.6608 31.6266 86.9895L32.2964 87.0197C32.2666 87.6836 32.2475 88.3565 32.2396 89.0197Z" fill="#6854C2"/>
<path d="M32.5909 83.191L31.9244 83.1183C32.0644 81.8367 32.2477 80.5442 32.4693 79.2767L33.1298 79.3923C32.9106 80.6455 32.7293 81.9237 32.5909 83.191ZM33.9125 75.636L33.2609 75.4782C33.5643 74.2261 33.9128 72.9679 34.2966 71.7384L34.9366 71.9381C34.5571 73.1539 34.2125 74.3981 33.9125 75.636ZM36.1998 68.3103L35.574 68.0693C36.0371 66.8665 36.5459 65.6629 37.0861 64.4918L37.6949 64.7727C37.1607 65.9307 36.6577 67.1209 36.1998 68.3103ZM39.4155 61.3395L38.8261 61.02C39.4399 59.8879 40.0993 58.7602 40.7858 57.6682L41.3534 58.025C40.6745 59.1049 40.0225 60.22 39.4155 61.3395ZM43.5001 54.8423L42.9566 54.4498C43.7109 53.4052 44.5091 52.3715 45.3288 51.3774L45.8461 51.804C45.0354 52.7871 44.2461 53.8092 43.5001 54.8423ZM48.3814 48.9223L47.8924 48.4636C48.7733 47.5246 49.6966 46.6016 50.6366 45.7197L51.0953 46.2089C50.1657 47.0809 49.2525 47.9938 48.3814 48.9223ZM53.9766 43.6745L53.5501 43.1573C54.544 42.3378 55.5772 41.5401 56.6211 40.7865L57.0136 41.3299C55.9813 42.0754 54.9595 42.8642 53.9766 43.6745ZM60.1941 39.1852L59.8372 38.6175C60.9278 37.932 62.0543 37.2734 63.1854 36.6601L63.505 37.2494C62.3865 37.856 61.2725 38.5072 60.1941 39.1852ZM66.9329 35.5314L66.652 34.9224C67.8205 34.3834 69.0218 33.8754 70.2227 33.4127L70.4638 34.0383C69.2762 34.4959 68.0883 34.9982 66.9329 35.5314ZM74.0826 32.777L73.8825 32.137C75.1114 31.7528 76.3695 31.4038 77.6218 31.0998L77.7799 31.7513C76.5417 32.0521 75.2977 32.3971 74.0826 32.777ZM81.5358 30.9671L81.4201 30.3067C82.6873 30.0846 83.9797 29.9008 85.2614 29.7603L85.3344 30.4269C84.0669 30.5657 82.7889 30.7476 81.5358 30.9671Z" fill="#6854C2"/>
<path d="M89.186 30.13L89.1559 29.4601C89.8275 29.43 90.5078 29.4107 91.1781 29.4026L91.1861 30.0731C90.5231 30.081 89.8502 30.1002 89.186 30.13Z" fill="#6854C2"/>
<path d="M34.7158 86.8644L34.2368 86.3947L31.9256 88.7586L29.7364 86.2808L29.2339 86.7256L31.9008 89.7429L34.7158 86.8644Z" fill="#6854C2"/>
<path d="M89.0309 32.5494L88.5612 32.0703L90.9251 29.7591L88.4473 27.57L88.8921 27.0674L91.9094 29.7343L89.0309 32.5494Z" fill="#6854C2"/>
<path d="M23.245 256.462C20.8974 257.966 18.1775 258.786 15.3902 258.83C12.6028 258.875 9.85807 258.142 7.46368 256.714C7.48918 256.665 7.51655 256.616 7.54579 256.568C8.31383 255.184 9.43312 254.026 10.7909 253.212C12.1488 252.398 13.6972 251.956 15.2802 251.93C16.8632 251.905 18.425 252.297 19.8082 253.067C21.1914 253.838 22.3472 254.959 23.1592 256.318C23.1701 256.333 23.1792 256.349 23.1884 256.364C23.2067 256.395 23.2268 256.429 23.245 256.462Z" fill="#6C63FF"/>
<path d="M22.1441 240.955C22.1441 242.428 21.7072 243.868 20.8887 245.093C20.0703 246.318 18.9069 247.273 17.5458 247.837C16.1847 248.4 14.687 248.548 13.2421 248.26C11.7971 247.973 10.4699 247.264 9.42816 246.222C8.38643 245.18 7.677 243.853 7.38959 242.408C7.10218 240.963 7.24969 239.465 7.81348 238.104C8.37726 236.743 9.33199 235.58 10.5569 234.761C11.7819 233.943 13.2221 233.506 14.6953 233.506C15.6748 233.501 16.6455 233.691 17.5514 234.063C18.4572 234.436 19.2802 234.985 19.9729 235.677C20.6655 236.37 21.214 237.193 21.5867 238.099C21.9593 239.005 22.1488 239.975 22.1441 240.955Z" fill="#2F2E41"/>
<path d="M20.532 245.583C20.4467 245.797 20.3485 246.007 20.238 246.209C19.5327 247.499 18.3438 248.456 16.9329 248.87C15.522 249.283 14.0045 249.12 12.7143 248.415C12.075 248.066 11.5106 247.594 11.0536 247.027C10.5965 246.46 10.2557 245.808 10.0505 245.109C9.84538 244.411 9.77998 243.678 9.85804 242.954C9.9361 242.23 10.1561 241.528 10.5055 240.889C10.8548 240.25 11.3267 239.686 11.8941 239.229C12.4615 238.773 13.1134 238.432 13.8124 238.228C14.5114 238.023 15.2439 237.958 15.9681 238.037C16.6922 238.115 17.3937 238.336 18.0326 238.685C19.2177 239.333 20.1256 240.392 20.5858 241.662C21.046 242.932 21.0269 244.326 20.532 245.583Z" fill="#A0616A"/>
<path d="M26.1935 233.451C26.0767 233.323 25.9544 233.197 25.8284 233.075C23.7997 231.065 21.2443 229.668 18.4567 229.047C15.669 228.425 12.7624 228.604 10.0719 229.562C7.38134 230.521 5.01631 232.22 3.24929 234.464C1.48226 236.708 0.385133 239.405 0.0843175 242.245C-0.216498 245.085 0.291237 247.953 1.54902 250.517C2.80681 253.081 4.76347 255.238 7.19355 256.739C9.62364 258.24 12.4283 259.023 15.2843 258.999C18.1403 258.976 20.9315 258.146 23.3363 256.605C24.2344 256.028 25.0697 255.36 25.8284 254.609C25.9526 254.487 26.0749 254.363 26.1935 254.235C28.8425 251.423 30.3178 247.706 30.3178 243.843C30.3178 239.98 28.8425 236.263 26.1935 233.451ZM25.8284 254.129C25.0266 254.96 24.1308 255.694 23.1592 256.318C23.1574 256.32 23.1555 256.32 23.1538 256.322C20.8323 257.808 18.1429 258.618 15.3869 258.662C12.6308 258.706 9.91698 257.982 7.54945 256.57C7.54767 256.57 7.54767 256.568 7.5458 256.568C5.73001 255.485 4.16675 254.027 2.96086 252.29C1.75497 250.554 0.934331 248.58 0.553992 246.5C0.173653 244.42 0.242401 242.283 0.755628 240.232C1.26886 238.182 2.21469 236.264 3.5297 234.609C4.84472 232.953 6.49851 231.598 8.38014 230.634C10.2618 229.671 12.3278 229.12 14.4395 229.02C16.5513 228.92 18.66 229.273 20.6243 230.055C22.5886 230.837 24.3629 232.03 25.8284 233.553C25.9544 233.681 26.0749 233.813 26.1935 233.946C28.6316 236.665 29.98 240.189 29.98 243.841C29.98 247.493 28.6316 251.017 26.1935 253.736C26.0767 253.87 25.9544 254.001 25.8284 254.129Z" fill="#3F3D56"/>
<path d="M20.7324 234.769C20.3655 234.146 19.8335 233.637 19.1953 233.297C18.5571 232.957 17.8374 232.801 17.1158 232.845C16.3584 232.901 15.6378 233.18 14.9302 233.456L11.3327 234.86C10.4019 235.223 9.38234 235.668 8.97839 236.582C8.60347 237.43 8.88319 238.409 9.16634 239.293L10.5123 243.49C10.6967 242.547 10.8841 241.595 11.275 240.717C11.666 239.84 12.2843 239.03 13.1392 238.592C14.0737 238.112 15.1751 238.122 16.2241 238.173C17.7098 238.244 19.3251 238.433 20.3807 239.481C20.9411 240.076 21.321 240.818 21.4762 241.621C21.6291 242.419 21.706 243.23 21.706 244.043C22.3152 242.995 22.8284 241.895 23.2393 240.755C23.5773 239.907 23.7699 239.007 23.809 238.095C23.817 237.183 23.559 236.243 22.9512 235.564C22.3435 234.884 21.3532 234.518 20.4823 234.787" fill="#2F2E41"/>
<path d="M9.38835 214.738L9.02325 214.734C9.0276 214.369 9.03812 213.998 9.05452 213.633L9.41929 213.649C9.40308 214.011 9.39267 214.377 9.38835 214.738Z" fill="#6854C2"/>
<path d="M9.57974 211.564L9.21674 211.524C9.29298 210.826 9.39282 210.123 9.5135 209.432L9.8732 209.495C9.75384 210.178 9.65511 210.874 9.57974 211.564ZM10.2995 207.45L9.94456 207.364C10.1098 206.682 10.2996 205.997 10.5086 205.327L10.8572 205.436C10.6505 206.098 10.4628 206.776 10.2995 207.45ZM11.545 203.46L11.2043 203.329C11.4565 202.674 11.7335 202.018 12.0277 201.381L12.3593 201.534C12.0683 202.164 11.7944 202.812 11.545 203.46ZM13.2963 199.664L12.9753 199.49C13.3096 198.873 13.6687 198.259 14.0425 197.665L14.3517 197.859C13.9819 198.447 13.6269 199.054 13.2963 199.664ZM15.5207 196.126L15.2247 195.912C15.6355 195.343 16.0702 194.78 16.5166 194.239L16.7983 194.471C16.3568 195.007 15.927 195.563 15.5207 196.126ZM18.1789 192.902L17.9127 192.652C18.3924 192.141 18.8952 191.638 19.4071 191.158L19.6569 191.424C19.1507 191.899 18.6534 192.396 18.1789 192.902ZM21.226 190.044L20.9938 189.762C21.535 189.316 22.0977 188.882 22.6662 188.471L22.8799 188.767C22.3177 189.173 21.7613 189.603 21.226 190.044ZM24.612 187.599L24.4176 187.29C25.0115 186.917 25.625 186.558 26.241 186.224L26.4151 186.545C25.8059 186.875 25.1992 187.23 24.612 187.599ZM28.2818 185.609L28.1289 185.278C28.7652 184.984 29.4194 184.708 30.0734 184.456L30.2047 184.796C29.558 185.045 28.911 185.319 28.2818 185.609ZM32.1754 184.109L32.0664 183.761C32.7357 183.552 33.4208 183.362 34.1028 183.196L34.1889 183.551C33.5146 183.715 32.8372 183.902 32.1754 184.109ZM36.2343 183.124L36.1713 182.764C36.8614 182.643 37.5652 182.543 38.2632 182.466L38.303 182.829C37.6127 182.905 36.9167 183.004 36.2343 183.124Z" fill="#6854C2"/>
<path d="M40.4005 182.668L40.3841 182.303C40.7499 182.287 41.1203 182.276 41.4854 182.272L41.4897 182.637C41.1287 182.641 40.7622 182.652 40.4005 182.668Z" fill="#6854C2"/>
<path d="M10.7369 213.564L10.476 213.309L9.21738 214.596L8.0252 213.247L7.75153 213.489L9.20387 215.132L10.7369 213.564Z" fill="#6854C2"/>
<path d="M40.316 183.985L40.0602 183.724L41.3475 182.466L39.9982 181.274L40.2404 181L41.8836 182.452L40.316 183.985Z" fill="#6854C2"/>
<path d="M189.341 36.7594C188.75 36.4488 188.156 36.1436 187.557 35.8437L187.857 35.2442C188.46 35.5459 189.059 35.8532 189.653 36.1659L189.341 36.7594Z" fill="#E6E6E6"/>
<path d="M234.902 160.508L234.282 160.254C234.786 159.023 235.271 157.767 235.724 156.522L236.354 156.75C235.899 158.005 235.41 159.269 234.902 160.508ZM237.651 152.936L237.012 152.733C237.414 151.467 237.795 150.176 238.144 148.896L238.791 149.072C238.439 150.361 238.056 151.662 237.651 152.936ZM239.771 145.164L239.118 145.014C239.414 143.719 239.688 142.4 239.93 141.096L240.59 141.219C240.345 142.532 240.07 143.859 239.771 145.164ZM241.245 137.243L240.581 137.148C240.77 135.833 240.934 134.497 241.068 133.176L241.735 133.244C241.6 134.574 241.435 135.919 241.245 137.243ZM242.06 129.227L241.391 129.187C241.471 127.862 241.524 126.516 241.55 125.188L242.22 125.201C242.194 126.538 242.141 127.893 242.06 129.227ZM242.214 121.171L241.543 121.186C241.53 120.602 241.512 120.02 241.489 119.438C241.459 118.691 241.42 117.934 241.373 117.187L242.042 117.144C242.09 117.897 242.129 118.659 242.159 119.411C242.183 119.997 242.201 120.584 242.214 121.171ZM241.039 113.2C240.901 111.879 240.734 110.543 240.542 109.23L241.206 109.133C241.399 110.456 241.567 111.8 241.706 113.13L241.039 113.2ZM239.884 105.283C239.639 103.979 239.363 102.661 239.065 101.366L239.718 101.215C240.019 102.519 240.296 103.846 240.543 105.159L239.884 105.283ZM238.087 97.4852C237.736 96.2032 237.354 94.912 236.952 93.647L237.591 93.4438C237.996 94.7174 238.38 96.0175 238.734 97.3082L238.087 97.4852ZM235.661 89.858C235.208 88.6093 234.722 87.3531 234.218 86.1241L234.838 85.8696C235.346 87.1071 235.835 88.3719 236.292 89.629L235.661 89.858ZM232.623 82.4517C232.069 81.2437 231.483 80.031 230.88 78.847L231.478 78.543C232.085 79.7349 232.675 80.9559 233.233 82.1721L232.623 82.4517ZM228.992 75.3162C228.341 74.1578 227.658 72.9968 226.96 71.8655L227.531 71.5136C228.233 72.6526 228.922 73.8216 229.576 74.9881L228.992 75.3162ZM224.789 68.5004C224.046 67.3983 223.269 66.2969 222.482 65.2268L223.022 64.8294C223.815 65.9067 224.597 67.0158 225.345 68.1256L224.789 68.5004ZM220.042 62.0503C219.209 61.0122 218.345 59.9782 217.472 58.9769L217.978 58.5363C218.856 59.5445 219.727 60.5857 220.565 61.6309L220.042 62.0503ZM214.778 56.0116C213.863 55.0453 212.916 54.0858 211.963 53.1595L212.431 52.6788C213.39 53.6114 214.344 54.5776 215.265 55.5504L214.778 56.0116ZM209.033 50.4256C208.042 49.5384 207.019 48.66 205.992 47.8148L206.418 47.2971C207.452 48.1482 208.482 49.0327 209.48 49.9261L209.033 50.4256ZM202.844 45.3314C201.787 44.5316 200.697 43.7416 199.603 42.9833L199.985 42.4323C201.086 43.1958 202.184 43.9913 203.249 44.7965L202.844 45.3314ZM196.268 40.7703C195.15 40.06 193.998 39.3619 192.846 38.6949L193.182 38.1146C194.342 38.786 195.501 39.4891 196.628 40.2042L196.268 40.7703Z" fill="#6854C2"/>
<path d="M232.438 166.036L231.834 165.744C232.125 165.141 232.409 164.536 232.687 163.93L233.297 164.209C233.017 164.82 232.731 165.429 232.438 166.036Z" fill="#6854C2"/>
<path d="M188.397 39.0176L189.029 38.7947L187.927 35.6779L191.117 34.8063L190.939 34.1592L187.055 35.2213L188.397 39.0176Z" fill="#6854C2"/>
<path d="M170.237 19.8582C170.411 19.9491 170.588 20.0352 170.768 20.1164C170.932 20.1905 171.098 20.2601 171.267 20.3253C171.329 20.3488 171.392 20.3724 171.455 20.396C171.952 20.5763 172.462 20.717 172.982 20.817C173.239 20.8675 173.499 20.9072 173.763 20.936C173.981 20.9607 174.201 20.9783 174.423 20.9888C174.581 20.9966 174.74 21 174.899 21C175.531 21.0003 176.16 20.9412 176.781 20.8237C176.943 20.7945 177.101 20.7597 177.259 20.7216C178.025 20.5381 178.766 20.2645 179.467 19.9065C179.53 19.8751 179.593 19.8414 179.656 19.8088C179.749 19.7594 179.84 19.7078 179.931 19.6539C179.887 19.5933 179.84 19.5338 179.792 19.4754C179.267 18.8243 178.61 18.2913 177.865 17.911C177.12 17.5307 176.303 17.3117 175.467 17.2683C174.632 17.2249 173.797 17.358 173.016 17.659C172.236 17.9599 171.527 18.422 170.937 19.0151C170.732 19.2206 170.543 19.4404 170.369 19.673C170.323 19.7336 170.279 19.7953 170.237 19.8582Z" fill="#6C63FF"/>
<path d="M174.675 14.9265C171.952 14.9265 169.745 12.7194 169.745 9.99675C169.745 7.27413 171.952 5.067 174.675 5.067C177.398 5.067 179.605 7.27413 179.605 9.99675C179.605 12.7194 177.398 14.9265 174.675 14.9265Z" fill="#2F2E41"/>
<path d="M173.364 14.9335C171.586 13.9615 170.932 11.7321 171.904 9.95409C172.876 8.17603 175.106 7.52257 176.884 8.49454C178.662 9.46651 179.315 11.6958 178.343 13.4739C177.371 15.252 175.142 15.9054 173.364 14.9335Z" fill="#A0616A"/>
<path d="M171.268 9.40616C172.107 9.98403 173.102 10.2916 174.12 10.2875C173.757 10.5394 173.344 10.7095 172.908 10.7862C174.262 11.0766 175.661 11.0844 177.018 10.8093C177.32 10.7609 177.611 10.6609 177.879 10.5137C178.012 10.4392 178.129 10.3375 178.22 10.2151C178.312 10.0927 178.376 9.95248 178.41 9.80345C178.5 9.28828 178.099 8.82025 177.682 8.50482C177.043 8.02924 176.306 7.70158 175.526 7.54554C174.745 7.3895 173.939 7.40898 173.166 7.60257C172.662 7.73295 172.157 7.95322 171.829 8.35827C171.502 8.76331 171.405 9.38777 171.717 9.80486L171.268 9.40616Z" fill="#2F2E41"/>
<path d="M174.16 0.817534C174.24 0.811453 174.322 0.806588 174.403 0.802932C174.567 0.794417 174.733 0.790771 174.899 0.790771C176.556 0.790814 178.188 1.19833 179.65 1.97741C181.113 2.75649 182.361 3.88325 183.285 5.2584C184.209 6.63355 184.781 8.2149 184.951 9.86316C185.12 11.5114 184.881 13.176 184.255 14.7102C184.222 14.7917 184.188 14.8732 184.152 14.9535C183.316 16.8471 181.923 18.4408 180.158 19.522L180.093 19.5597C180.038 19.5925 179.985 19.6241 179.931 19.6533C179.84 19.7081 179.749 19.7591 179.656 19.809C179.593 19.8418 179.53 19.8747 179.468 19.9063C178.767 20.2644 178.025 20.538 177.259 20.7212C177.101 20.7602 176.943 20.7942 176.781 20.8234C176.161 20.9409 175.531 21 174.899 20.9998C174.74 20.9998 174.582 20.9961 174.423 20.9888C174.201 20.9791 173.981 20.9609 173.763 20.9365C173.499 20.9073 173.239 20.8676 172.981 20.8173C172.462 20.7171 171.952 20.5764 171.455 20.3965C171.392 20.3722 171.328 20.349 171.268 20.3247C171.097 20.2603 170.932 20.1909 170.768 20.1167C170.588 20.0352 170.41 19.9489 170.236 19.8577C168.489 18.942 167.044 17.5393 166.078 15.8195C166.073 15.8103 166.068 15.8014 166.063 15.7928C165.24 14.3096 164.804 12.6431 164.795 10.9469C164.785 9.25075 165.203 7.57957 166.01 6.08751C166.817 4.59546 167.986 3.33059 169.411 2.40956C170.835 1.48854 172.468 0.941032 174.16 0.817534ZM165.193 12.7495C165.389 13.7698 165.745 14.7526 166.248 15.6614C166.256 15.6772 166.265 15.693 166.273 15.7076C167.22 17.4023 168.644 18.7813 170.369 19.6728C170.541 19.7628 170.716 19.8471 170.893 19.9258C171.04 19.9915 171.191 20.0547 171.343 20.1131C171.406 20.1374 171.472 20.163 171.536 20.1849C171.966 20.3417 172.406 20.4677 172.854 20.5619C173.185 20.6328 173.521 20.6856 173.858 20.72C174.066 20.7431 174.277 20.759 174.49 20.7662C174.626 20.7723 174.762 20.776 174.899 20.776C175.51 20.7762 176.12 20.7192 176.72 20.6057C177.086 20.5387 177.447 20.4502 177.802 20.3405C178.342 20.1739 178.868 19.9611 179.372 19.7044C179.43 19.674 179.489 19.6436 179.546 19.612C179.628 19.5682 179.711 19.5232 179.791 19.4757C179.852 19.4417 179.913 19.4052 179.973 19.3699C180.008 19.3492 180.042 19.3286 180.077 19.3067C181.758 18.268 183.091 16.7526 183.906 14.9535C183.943 14.8732 183.978 14.7917 184.012 14.7102C184.641 13.2087 184.888 11.5751 184.733 9.95477C184.578 8.33439 184.026 6.77741 183.124 5.42225C182.222 4.06708 180.999 2.95572 179.565 2.18698C178.13 1.41823 176.527 1.01591 174.899 1.01579C174.733 1.01579 174.567 1.01944 174.403 1.02918C174.322 1.03161 174.24 1.03769 174.16 1.04377C172.772 1.14896 171.422 1.54598 170.198 2.20887C168.974 2.87175 167.904 3.78557 167.058 4.89053C166.211 5.99549 165.608 7.26669 165.286 8.62099C164.965 9.97528 164.933 11.3821 165.193 12.7495Z" fill="#3F3D56"/>
<path d="M169.651 5.93182C169.704 5.37406 170.388 5.03069 170.922 5.19917C171.456 5.36764 171.807 5.90567 171.913 6.45581C171.964 6.6875 171.969 6.92699 171.927 7.16053C171.886 7.39408 171.798 7.61709 171.67 7.81679C171.4 8.2055 170.904 8.44808 170.441 8.34941C169.912 8.23677 169.546 7.72075 169.441 7.19067C169.337 6.66059 169.441 6.11408 169.545 5.58382L169.651 5.93182Z" fill="#2F2E41"/>
<path d="M230.56 162.718L231.197 162.509L232.229 165.65L235.287 164.392L235.541 165.013L231.817 166.544L230.56 162.718Z" fill="#6854C2"/>
</svg>
