<svg width="298" height="298" viewBox="0 0 298 298" fill="none" xmlns="http://www.w3.org/2000/svg">
<path d="M149.095 93.4631H62.2675C61.4595 93.4631 60.6846 93.7841 60.1132 94.3554C59.5419 94.9268 59.2209 95.7017 59.2209 96.5097C59.2209 97.3177 59.5419 98.0926 60.1132 98.6639C60.6846 99.2353 61.4595 99.5562 62.2675 99.5562H149.095C149.903 99.5562 150.678 99.2353 151.249 98.6639C151.82 98.0926 152.141 97.3177 152.141 96.5097C152.141 95.7017 151.82 94.9268 151.249 94.3554C150.678 93.7841 149.903 93.4631 149.095 93.4631Z" fill="#E6E6E6"/>
<path d="M105.3 80.5152H62.2675C61.4595 80.5152 60.6846 80.8361 60.1132 81.4075C59.5419 81.9788 59.2209 82.7537 59.2209 83.5617C59.2209 84.3697 59.5419 85.1446 60.1132 85.716C60.6846 86.2873 61.4595 86.6083 62.2675 86.6083H105.3C106.108 86.6083 106.883 86.2873 107.455 85.716C108.026 85.1446 108.347 84.3697 108.347 83.5617C108.347 82.7537 108.026 81.9788 107.455 81.4075C106.883 80.8361 106.108 80.5152 105.3 80.5152Z" fill="#E6E6E6"/>
<path d="M62.2675 118.978C61.4595 118.978 60.6846 119.299 60.1132 119.87C59.5419 120.442 59.2209 121.217 59.2209 122.025C59.2209 122.833 59.5419 123.608 60.1132 124.179C60.6846 124.75 61.4595 125.071 62.2675 125.071H89.481V118.978H62.2675Z" fill="#E6E6E6"/>
<path d="M62.2675 106.03C61.8674 106.03 61.4712 106.109 61.1016 106.262C60.732 106.415 60.3961 106.64 60.1132 106.923C59.8303 107.205 59.6059 107.541 59.4528 107.911C59.2997 108.281 59.2209 108.677 59.2209 109.077C59.2209 109.477 59.2997 109.873 59.4528 110.243C59.6059 110.612 59.8303 110.948 60.1132 111.231C60.3961 111.514 60.732 111.738 61.1016 111.891C61.4712 112.045 61.8674 112.123 62.2675 112.123H89.481V106.03H62.2675Z" fill="#E6E6E6"/>
<path d="M89.6714 183.527H65.2836C63.6176 183.526 62.0205 182.863 60.8425 181.685C59.6645 180.507 59.0019 178.91 59 177.244V145.255C59.0019 143.589 59.6645 141.992 60.8425 140.814C62.0205 139.636 63.6176 138.973 65.2836 138.971H89.6714V183.527Z" fill="#E6E6E6"/>
<path d="M128.995 245.792H95.7645C94.0481 245.79 92.4026 245.107 91.1889 243.893C89.9752 242.68 89.2925 241.034 89.2906 239.318V106.411C89.2925 104.695 89.9752 103.049 91.1889 101.835C92.4026 100.622 94.0481 99.939 95.7645 99.9371H185.898L202.395 114.667V139.923H201.633V115.008L185.607 100.699H95.7645C94.25 100.7 92.7981 101.303 91.7272 102.374C90.6563 103.445 90.0539 104.897 90.0522 106.411V239.318C90.0539 240.832 90.6563 242.284 91.7272 243.355C92.7981 244.426 94.25 245.028 95.7645 245.03H128.995V245.792Z" fill="#CCCCCC"/>
<path d="M202.014 115.17H191.732C190.015 115.168 188.37 114.485 187.156 113.272C185.942 112.058 185.26 110.412 185.258 108.696V100.318C185.258 100.217 185.298 100.12 185.369 100.049C185.441 99.9772 185.537 99.9371 185.638 99.9371C185.739 99.9371 185.836 99.9772 185.908 100.049C185.979 100.12 186.019 100.217 186.019 100.318V108.696C186.021 110.21 186.623 111.662 187.694 112.733C188.765 113.804 190.217 114.407 191.732 114.408H202.014C202.115 114.408 202.212 114.448 202.283 114.52C202.354 114.591 202.395 114.688 202.395 114.789C202.395 114.89 202.354 114.987 202.283 115.058C202.212 115.13 202.115 115.17 202.014 115.17Z" fill="#CCCCCC"/>
<path d="M189.271 134.401H102.444C101.636 134.401 100.861 134.722 100.29 135.294C99.7186 135.865 99.3976 136.64 99.3976 137.448C99.3976 138.256 99.7186 139.031 100.29 139.602C100.861 140.174 101.636 140.495 102.444 140.495H189.271C190.079 140.495 190.854 140.174 191.426 139.602C191.997 139.031 192.318 138.256 192.318 137.448C192.318 136.64 191.997 135.865 191.426 135.294C190.854 134.722 190.079 134.401 189.271 134.401Z" fill="#E6E6E6"/>
<path d="M145.477 121.453H102.444C101.636 121.453 100.861 121.774 100.29 122.346C99.7186 122.917 99.3976 123.692 99.3976 124.5C99.3976 125.308 99.7186 126.083 100.29 126.654C100.861 127.226 101.636 127.547 102.444 127.547H145.477C146.285 127.547 147.06 127.226 147.631 126.654C148.203 126.083 148.524 125.308 148.524 124.5C148.524 123.692 148.203 122.917 147.631 122.346C147.06 121.774 146.285 121.453 145.477 121.453Z" fill="#E6E6E6"/>
<path d="M189.271 134.401H102.444C101.636 134.401 100.861 134.722 100.29 135.294C99.7186 135.865 99.3976 136.64 99.3976 137.448C99.3976 138.256 99.7186 139.031 100.29 139.602C100.861 140.174 101.636 140.495 102.444 140.495H189.271C190.079 140.495 190.854 140.174 191.426 139.602C191.997 139.031 192.318 138.256 192.318 137.448C192.318 136.64 191.997 135.865 191.426 135.294C190.854 134.722 190.079 134.401 189.271 134.401Z" fill="#E6E6E6"/>
<path d="M145.477 121.453H102.444C101.636 121.453 100.861 121.774 100.29 122.346C99.7186 122.917 99.3976 123.692 99.3976 124.5C99.3976 125.308 99.7186 126.083 100.29 126.654C100.861 127.226 101.636 127.547 102.444 127.547H145.477C146.285 127.547 147.06 127.226 147.631 126.654C148.203 126.083 148.524 125.308 148.524 124.5C148.524 123.692 148.203 122.917 147.631 122.346C147.06 121.774 146.285 121.453 145.477 121.453Z" fill="#E6E6E6"/>
<path d="M102.444 159.916C101.636 159.916 100.861 160.237 100.29 160.809C99.7186 161.38 99.3976 162.155 99.3976 162.963C99.3976 163.771 99.7186 164.546 100.29 165.117C100.861 165.689 101.636 166.01 102.444 166.01H129.658V159.916H102.444Z" fill="#E6E6E6"/>
<path d="M102.444 146.969C101.636 146.969 100.861 147.29 100.29 147.861C99.7186 148.432 99.3976 149.207 99.3976 150.015C99.3976 150.823 99.7186 151.598 100.29 152.169C100.861 152.741 101.636 153.062 102.444 153.062H129.658V146.969H102.444Z" fill="#E6E6E6"/>
<path d="M102.444 159.916C101.636 159.916 100.861 160.237 100.29 160.809C99.7186 161.38 99.3976 162.155 99.3976 162.963C99.3976 163.771 99.7186 164.546 100.29 165.117C100.861 165.689 101.636 166.01 102.444 166.01H129.658V159.916H102.444Z" fill="#E6E6E6"/>
<path d="M102.444 146.969C101.636 146.969 100.861 147.29 100.29 147.861C99.7186 148.432 99.3976 149.207 99.3976 150.015C99.3976 150.823 99.7186 151.598 100.29 152.169C100.861 152.741 101.636 153.062 102.444 153.062H129.658V146.969H102.444Z" fill="#E6E6E6"/>
<path d="M129.848 224.466H105.46C103.794 224.464 102.197 223.801 101.019 222.623C99.8412 221.445 99.1786 219.848 99.1767 218.182V186.193C99.1786 184.527 99.8412 182.93 101.019 181.752C102.197 180.574 103.794 179.911 105.46 179.91H129.848V224.466Z" fill="#E6E6E6"/>
<path d="M131.996 141.256C131.049 141.834 130.267 142.645 129.724 143.612C129.182 144.579 128.896 145.669 128.896 146.778V147.73H129.658V146.778C129.659 145.519 130.076 144.295 130.844 143.297C131.611 142.298 132.687 141.581 133.904 141.256H131.996ZM225.503 140.304H135.37C133.654 140.306 132.008 140.989 130.794 142.203C129.581 143.416 128.898 145.062 128.896 146.778V279.685C128.898 281.401 129.581 283.046 130.795 284.26C132.008 285.474 133.654 286.156 135.37 286.159H235.526C237.242 286.156 238.888 285.474 240.101 284.26C241.315 283.046 241.998 281.401 242 279.685V155.034L225.503 140.304ZM241.238 279.685C241.237 281.199 240.634 282.651 239.563 283.722C238.492 284.793 237.04 285.395 235.526 285.397H135.37C133.856 285.395 132.404 284.793 131.333 283.722C130.262 282.651 129.659 281.199 129.658 279.685L129.658 146.778C129.659 145.519 130.076 144.295 130.844 143.297C131.611 142.298 132.687 141.581 133.904 141.256C134.382 141.129 134.875 141.065 135.37 141.066H225.213L241.238 155.373V279.685ZM131.996 141.256C131.049 141.834 130.267 142.645 129.724 143.612C129.182 144.579 128.896 145.669 128.896 146.778V147.73H129.658V146.778C129.659 145.519 130.076 144.295 130.844 143.297C131.611 142.298 132.687 141.581 133.904 141.256H131.996Z" fill="#3F3D56"/>
<path d="M241.619 155.537H231.337C229.621 155.535 227.975 154.852 226.761 153.639C225.548 152.425 224.865 150.779 224.863 149.063V140.685C224.863 140.584 224.903 140.487 224.975 140.416C225.046 140.344 225.143 140.304 225.244 140.304C225.345 140.304 225.442 140.344 225.513 140.416C225.585 140.487 225.625 140.584 225.625 140.685V149.063C225.626 150.578 226.229 152.029 227.3 153.1C228.371 154.171 229.823 154.774 231.337 154.775H241.619C241.72 154.775 241.817 154.815 241.888 154.887C241.96 154.958 242 155.055 242 155.156C242 155.257 241.96 155.354 241.888 155.425C241.817 155.497 241.72 155.537 241.619 155.537Z" fill="#3F3D56"/>
<path d="M228.877 180.862H142.05C141.242 180.862 140.467 180.541 139.896 179.969C139.325 179.398 139.004 178.623 139.004 177.815C139.004 177.007 139.325 176.232 139.896 175.661C140.467 175.089 141.242 174.769 142.05 174.769H228.877C229.685 174.769 230.46 175.089 231.032 175.661C231.603 176.232 231.924 177.007 231.924 177.815C231.924 178.623 231.603 179.398 231.032 179.969C230.46 180.541 229.685 180.862 228.877 180.862Z" fill="#CCCCCC"/>
<path d="M185.083 167.914H142.05C141.242 167.914 140.467 167.593 139.896 167.021C139.325 166.45 139.004 165.675 139.004 164.867C139.004 164.059 139.325 163.284 139.896 162.713C140.467 162.142 141.242 161.821 142.05 161.821H185.083C185.891 161.821 186.666 162.142 187.237 162.713C187.809 163.284 188.13 164.059 188.13 164.867C188.13 165.675 187.809 166.45 187.237 167.021C186.666 167.593 185.891 167.914 185.083 167.914Z" fill="#CCCCCC"/>
<path d="M228.877 206.377H142.05C141.242 206.377 140.467 206.056 139.896 205.484C139.325 204.913 139.004 204.138 139.004 203.33C139.004 202.522 139.325 201.747 139.896 201.176C140.467 200.605 141.242 200.284 142.05 200.284H228.877C229.685 200.284 230.46 200.605 231.032 201.176C231.603 201.747 231.924 202.522 231.924 203.33C231.924 204.138 231.603 204.913 231.032 205.484C230.46 206.056 229.685 206.377 228.877 206.377Z" fill="#CCCCCC"/>
<path d="M185.083 193.429H142.05C141.242 193.429 140.467 193.108 139.896 192.536C139.325 191.965 139.004 191.19 139.004 190.382C139.004 189.574 139.325 188.799 139.896 188.228C140.467 187.657 141.242 187.336 142.05 187.336H185.083C185.891 187.336 186.666 187.657 187.237 188.228C187.809 188.799 188.13 189.574 188.13 190.382C188.13 191.19 187.809 191.965 187.237 192.536C186.666 193.108 185.891 193.429 185.083 193.429Z" fill="#CCCCCC"/>
<path d="M225.799 264.833H145.065C143.399 264.831 141.802 264.168 140.624 262.99C139.446 261.812 138.784 260.215 138.782 258.549V226.56C138.784 224.894 139.446 223.297 140.624 222.119C141.802 220.941 143.399 220.279 145.065 220.277H225.799C227.465 220.279 229.062 220.941 230.24 222.119C231.418 223.297 232.081 224.894 232.083 226.56V258.549C232.081 260.215 231.418 261.812 230.24 262.99C229.062 264.168 227.465 264.831 225.799 264.833Z" fill="#6C63FF"/>
<path d="M161.782 3.27408H139.826C139.622 3.27408 139.426 3.35524 139.281 3.49971C139.137 3.64419 139.056 3.84013 139.056 4.04445C139.056 4.24876 139.137 4.44471 139.281 4.58918C139.426 4.73365 139.622 4.81482 139.826 4.81482H161.782C161.986 4.81482 162.182 4.73365 162.327 4.58918C162.471 4.44471 162.552 4.24876 162.552 4.04445C162.552 3.84013 162.471 3.64419 162.327 3.49971C162.182 3.35524 161.986 3.27408 161.782 3.27408Z" fill="#E6E6E6"/>
<path d="M150.708 0H139.826C139.622 0 139.426 0.0811632 139.281 0.225636C139.137 0.370108 139.056 0.566055 139.056 0.77037C139.056 0.974685 139.137 1.17063 139.281 1.3151C139.426 1.45958 139.622 1.54074 139.826 1.54074H150.708C150.912 1.54074 151.108 1.45958 151.252 1.3151C151.397 1.17063 151.478 0.974685 151.478 0.77037C151.478 0.566055 151.397 0.370108 151.252 0.225636C151.108 0.0811632 150.912 0 150.708 0Z" fill="#E6E6E6"/>
<path d="M139.826 9.72592C139.622 9.72592 139.426 9.80709 139.281 9.95156C139.137 10.096 139.056 10.292 139.056 10.4963C139.056 10.7006 139.137 10.8966 139.281 11.041C139.426 11.1855 139.622 11.2667 139.826 11.2667H146.708V9.72592H139.826Z" fill="#E6E6E6"/>
<path d="M139.826 6.45184C139.725 6.45184 139.625 6.47177 139.531 6.51048C139.438 6.5492 139.353 6.60594 139.281 6.67748C139.21 6.74901 139.153 6.83394 139.114 6.9274C139.076 7.02087 139.056 7.12105 139.056 7.22221C139.056 7.32338 139.076 7.42355 139.114 7.51702C139.153 7.61049 139.21 7.69541 139.281 7.76695C139.353 7.83848 139.438 7.89523 139.531 7.93394C139.625 7.97266 139.725 7.99258 139.826 7.99258H146.708V6.45184H139.826Z" fill="#E6E6E6"/>
<path d="M146.756 26.0481H140.589C140.168 26.0477 139.764 25.8801 139.466 25.5822C139.168 25.2844 139 24.8805 139 24.4592V16.3704C139 15.9491 139.168 15.5452 139.466 15.2474C139.764 14.9495 140.168 14.7819 140.589 14.7815H146.756V26.0481Z" fill="#E6E6E6"/>
<path d="M156.699 41.7926H148.296C147.862 41.7921 147.446 41.6195 147.139 41.3126C146.833 41.0057 146.66 40.5896 146.659 40.1555V6.54814C146.66 6.11412 146.833 5.69802 147.139 5.39112C147.446 5.08422 147.862 4.91159 148.296 4.9111H171.088L175.259 8.63567V15.0222H175.067V8.7219L171.014 5.10369H148.296C147.914 5.10413 147.546 5.25645 147.276 5.52724C147.005 5.79803 146.852 6.16518 146.852 6.54814V40.1555C146.852 40.5385 147.005 40.9056 147.276 41.1764C147.546 41.4472 147.914 41.5996 148.296 41.6H156.699V41.7926Z" fill="#CCCCCC"/>
<path d="M175.163 8.76295H172.563C172.129 8.76246 171.713 8.58984 171.406 8.28294C171.099 7.97604 170.927 7.55994 170.926 7.12592V5.0074C170.926 4.98186 170.936 4.95737 170.954 4.93931C170.972 4.92125 170.997 4.9111 171.022 4.9111C171.048 4.9111 171.072 4.92125 171.09 4.93931C171.109 4.95737 171.119 4.98186 171.119 5.0074V7.12592C171.119 7.50887 171.271 7.87602 171.542 8.14682C171.813 8.41761 172.18 8.56993 172.563 8.57036H175.163C175.189 8.57036 175.213 8.58051 175.231 8.59857C175.249 8.61662 175.259 8.64112 175.259 8.66666C175.259 8.6922 175.249 8.71669 175.231 8.73475C175.213 8.75281 175.189 8.76295 175.163 8.76295Z" fill="#CCCCCC"/>
<path d="M171.941 13.6259H149.985C149.781 13.6259 149.585 13.7071 149.441 13.8516C149.296 13.996 149.215 14.192 149.215 14.3963C149.215 14.6006 149.296 14.7965 149.441 14.941C149.585 15.0855 149.781 15.1667 149.985 15.1667H171.941C172.145 15.1667 172.341 15.0855 172.486 14.941C172.63 14.7965 172.711 14.6006 172.711 14.3963C172.711 14.192 172.63 13.996 172.486 13.8516C172.341 13.7071 172.145 13.6259 171.941 13.6259Z" fill="#E6E6E6"/>
<path d="M160.867 10.3518H149.985C149.781 10.3518 149.585 10.433 149.441 10.5775C149.296 10.7219 149.215 10.9179 149.215 11.1222C149.215 11.3265 149.296 11.5225 149.441 11.6669C149.585 11.8114 149.781 11.8926 149.985 11.8926H160.867C161.071 11.8926 161.267 11.8114 161.412 11.6669C161.556 11.5225 161.637 11.3265 161.637 11.1222C161.637 10.9179 161.556 10.7219 161.412 10.5775C161.267 10.433 161.071 10.3518 160.867 10.3518Z" fill="#E6E6E6"/>
<path d="M171.941 13.6259H149.985C149.781 13.6259 149.585 13.7071 149.441 13.8516C149.296 13.996 149.215 14.192 149.215 14.3963C149.215 14.6006 149.296 14.7965 149.441 14.941C149.585 15.0855 149.781 15.1667 149.985 15.1667H171.941C172.145 15.1667 172.341 15.0855 172.486 14.941C172.63 14.7965 172.711 14.6006 172.711 14.3963C172.711 14.192 172.63 13.996 172.486 13.8516C172.341 13.7071 172.145 13.6259 171.941 13.6259Z" fill="#E6E6E6"/>
<path d="M160.867 10.3518H149.985C149.781 10.3518 149.585 10.433 149.441 10.5775C149.296 10.7219 149.215 10.9179 149.215 11.1222C149.215 11.3265 149.296 11.5225 149.441 11.6669C149.585 11.8114 149.781 11.8926 149.985 11.8926H160.867C161.071 11.8926 161.267 11.8114 161.412 11.6669C161.556 11.5225 161.637 11.3265 161.637 11.1222C161.637 10.9179 161.556 10.7219 161.412 10.5775C161.267 10.433 161.071 10.3518 160.867 10.3518Z" fill="#E6E6E6"/>
<path d="M149.985 20.0778C149.781 20.0778 149.585 20.159 149.441 20.3034C149.296 20.4479 149.215 20.6438 149.215 20.8482C149.215 21.0525 149.296 21.2484 149.441 21.3929C149.585 21.5374 149.781 21.6185 149.985 21.6185H156.867V20.0778H149.985Z" fill="#E6E6E6"/>
<path d="M149.985 16.8037C149.781 16.8037 149.585 16.8849 149.441 17.0293C149.296 17.1738 149.215 17.3698 149.215 17.5741C149.215 17.7784 149.296 17.9743 149.441 18.1188C149.585 18.2633 149.781 18.3445 149.985 18.3445H156.867V16.8037H149.985Z" fill="#E6E6E6"/>
<path d="M149.985 20.0778C149.781 20.0778 149.585 20.159 149.441 20.3034C149.296 20.4479 149.215 20.6438 149.215 20.8482C149.215 21.0525 149.296 21.2484 149.441 21.3929C149.585 21.5374 149.781 21.6185 149.985 21.6185H156.867V20.0778H149.985Z" fill="#E6E6E6"/>
<path d="M149.985 16.8037C149.781 16.8037 149.585 16.8849 149.441 17.0293C149.296 17.1738 149.215 17.3698 149.215 17.5741C149.215 17.7784 149.296 17.9743 149.441 18.1188C149.585 18.2633 149.781 18.3445 149.985 18.3445H156.867V16.8037H149.985Z" fill="#E6E6E6"/>
<path d="M156.915 36.4H150.748C150.327 36.3995 149.923 36.232 149.625 35.9341C149.327 35.6362 149.16 35.2324 149.159 34.8111V26.7222C149.16 26.301 149.327 25.8971 149.625 25.5992C149.923 25.3014 150.327 25.1338 150.748 25.1333H156.915V36.4Z" fill="#E6E6E6"/>
<path d="M157.458 15.3593C157.219 15.5054 157.021 15.7105 156.884 15.955C156.746 16.1995 156.674 16.4752 156.674 16.7556V16.9963H156.867V16.7556C156.867 16.4371 156.973 16.1277 157.167 15.8752C157.361 15.6228 157.633 15.4414 157.941 15.3593H157.458ZM181.103 15.1185H158.311C157.877 15.119 157.461 15.2917 157.154 15.5986C156.847 15.9055 156.675 16.3216 156.674 16.7556V50.363C156.675 50.797 156.848 51.213 157.154 51.5199C157.461 51.8267 157.877 51.9994 158.311 52H183.637C184.071 51.9994 184.487 51.8267 184.794 51.5199C185.101 51.213 185.274 50.797 185.274 50.363V18.8433L181.103 15.1185ZM185.082 50.363C185.081 50.7459 184.929 51.1131 184.658 51.3838C184.387 51.6546 184.02 51.807 183.637 51.8074H158.311C157.928 51.807 157.561 51.6546 157.29 51.3838C157.02 51.1131 156.867 50.7459 156.867 50.363L156.867 16.7556C156.867 16.4371 156.973 16.1277 157.167 15.8752C157.361 15.6228 157.633 15.4414 157.941 15.3593C158.061 15.327 158.186 15.3109 158.311 15.3111H181.029L185.082 18.929V50.363ZM157.458 15.3593C157.219 15.5054 157.021 15.7105 156.884 15.955C156.746 16.1995 156.674 16.4752 156.674 16.7556V16.9963H156.867V16.7556C156.867 16.4371 156.973 16.1277 157.167 15.8752C157.361 15.6228 157.633 15.4414 157.941 15.3593H157.458Z" fill="#3F3D56"/>
<path d="M185.178 18.9704H182.578C182.144 18.9699 181.728 18.7973 181.421 18.4904C181.114 18.1835 180.941 17.7674 180.941 17.3333V15.2148C180.941 15.1893 180.951 15.1648 180.969 15.1467C180.987 15.1287 181.012 15.1185 181.037 15.1185C181.063 15.1185 181.087 15.1287 181.105 15.1467C181.123 15.1648 181.133 15.1893 181.133 15.2148V17.3333C181.134 17.7163 181.286 18.0835 181.557 18.3542C181.828 18.625 182.195 18.7774 182.578 18.7778H185.178C185.203 18.7778 185.228 18.7879 185.246 18.806C185.264 18.8241 185.274 18.8485 185.274 18.8741C185.274 18.8996 185.264 18.9241 185.246 18.9422C185.228 18.9602 185.203 18.9704 185.178 18.9704Z" fill="#3F3D56"/>
<path d="M181.956 25.3741H160C159.796 25.3741 159.6 25.2929 159.456 25.1484C159.311 25.004 159.23 24.808 159.23 24.6037C159.23 24.3994 159.311 24.2035 159.456 24.059C159.6 23.9145 159.796 23.8333 160 23.8333H181.956C182.16 23.8333 182.356 23.9145 182.501 24.059C182.645 24.2035 182.726 24.3994 182.726 24.6037C182.726 24.808 182.645 25.004 182.501 25.1484C182.356 25.2929 182.16 25.3741 181.956 25.3741Z" fill="#CCCCCC"/>
<path d="M170.882 22.1H160C159.796 22.1 159.6 22.0188 159.456 21.8744C159.311 21.7299 159.23 21.534 159.23 21.3296C159.23 21.1253 159.311 20.9294 159.456 20.7849C159.6 20.6404 159.796 20.5593 160 20.5593H170.882C171.086 20.5593 171.282 20.6404 171.427 20.7849C171.571 20.9294 171.652 21.1253 171.652 21.3296C171.652 21.534 171.571 21.7299 171.427 21.8744C171.282 22.0188 171.086 22.1 170.882 22.1Z" fill="#CCCCCC"/>
<path d="M181.956 31.8259H160C159.796 31.8259 159.6 31.7448 159.456 31.6003C159.311 31.4558 159.23 31.2599 159.23 31.0556C159.23 30.8512 159.311 30.6553 159.456 30.5108C159.6 30.3664 159.796 30.2852 160 30.2852H181.956C182.16 30.2852 182.356 30.3664 182.501 30.5108C182.645 30.6553 182.726 30.8512 182.726 31.0556C182.726 31.2599 182.645 31.4558 182.501 31.6003C182.356 31.7448 182.16 31.8259 181.956 31.8259Z" fill="#CCCCCC"/>
<path d="M170.882 28.5518H160C159.796 28.5518 159.6 28.4707 159.456 28.3262C159.311 28.1817 159.23 27.9858 159.23 27.7815C159.23 27.5772 159.311 27.3812 159.456 27.2367C159.6 27.0923 159.796 27.0111 160 27.0111H170.882C171.086 27.0111 171.282 27.0923 171.427 27.2367C171.571 27.3812 171.652 27.5772 171.652 27.7815C171.652 27.9858 171.571 28.1817 171.427 28.3262C171.282 28.4707 171.086 28.5518 170.882 28.5518Z" fill="#CCCCCC"/>
<path d="M181.178 46.6074H160.763C160.342 46.6069 159.938 46.4394 159.64 46.1415C159.342 45.8436 159.174 45.4398 159.174 45.0185V36.9296C159.174 36.5084 159.342 36.1045 159.64 35.8066C159.938 35.5088 160.342 35.3412 160.763 35.3407H181.178C181.599 35.3412 182.003 35.5088 182.301 35.8066C182.599 36.1045 182.766 36.5084 182.767 36.9296V45.0185C182.766 45.4398 182.599 45.8436 182.301 46.1415C182.003 46.4394 181.599 46.6069 181.178 46.6074Z" fill="#6C63FF"/>
<path d="M278.963 240.581H261.651C261.49 240.581 261.336 240.645 261.222 240.759C261.108 240.873 261.044 241.028 261.044 241.189C261.044 241.35 261.108 241.504 261.222 241.618C261.336 241.732 261.49 241.796 261.651 241.796H278.963C279.124 241.796 279.278 241.732 279.392 241.618C279.506 241.504 279.57 241.35 279.57 241.189C279.57 241.028 279.506 240.873 279.392 240.759C279.278 240.645 279.124 240.581 278.963 240.581Z" fill="#E6E6E6"/>
<path d="M270.231 238H261.651C261.49 238 261.336 238.064 261.222 238.178C261.108 238.292 261.044 238.446 261.044 238.607C261.044 238.769 261.108 238.923 261.222 239.037C261.336 239.151 261.49 239.215 261.651 239.215H270.231C270.392 239.215 270.547 239.151 270.661 239.037C270.774 238.923 270.838 238.769 270.838 238.607C270.838 238.446 270.774 238.292 270.661 238.178C270.547 238.064 270.392 238 270.231 238Z" fill="#E6E6E6"/>
<path d="M261.651 245.669C261.49 245.669 261.336 245.733 261.222 245.846C261.108 245.96 261.044 246.115 261.044 246.276C261.044 246.437 261.108 246.592 261.222 246.705C261.336 246.819 261.49 246.883 261.651 246.883H267.077V245.669H261.651Z" fill="#E6E6E6"/>
<path d="M261.651 243.087C261.572 243.087 261.493 243.103 261.419 243.133C261.345 243.164 261.278 243.209 261.222 243.265C261.166 243.321 261.121 243.388 261.09 243.462C261.06 243.536 261.044 243.615 261.044 243.694C261.044 243.774 261.06 243.853 261.09 243.927C261.121 244.001 261.166 244.068 261.222 244.124C261.278 244.18 261.345 244.225 261.419 244.256C261.493 244.286 261.572 244.302 261.651 244.302H267.077V243.087H261.651Z" fill="#E6E6E6"/>
<path d="M267.115 258.538H262.253C261.921 258.538 261.602 258.405 261.367 258.171C261.132 257.936 261 257.617 261 257.285V250.907C261 250.575 261.132 250.257 261.367 250.022C261.602 249.787 261.921 249.655 262.253 249.655H267.115V258.538Z" fill="#E6E6E6"/>
<path d="M274.955 270.952H268.33C267.988 270.951 267.66 270.815 267.418 270.573C267.176 270.331 267.04 270.003 267.039 269.661V243.163C267.04 242.821 267.176 242.493 267.418 242.251C267.66 242.009 267.988 241.873 268.33 241.872H286.3L289.589 244.809V249.844H289.437V244.877L286.242 242.024H268.33C268.028 242.024 267.738 242.145 267.525 242.358C267.311 242.572 267.191 242.861 267.191 243.163V269.661C267.191 269.963 267.311 270.253 267.525 270.466C267.738 270.68 268.028 270.8 268.33 270.8H274.955V270.952Z" fill="#CCCCCC"/>
<path d="M289.513 244.909H287.463C287.121 244.909 286.793 244.773 286.551 244.531C286.309 244.289 286.173 243.961 286.172 243.619V241.948C286.172 241.928 286.18 241.909 286.195 241.894C286.209 241.88 286.228 241.872 286.248 241.872C286.269 241.872 286.288 241.88 286.302 241.894C286.316 241.909 286.324 241.928 286.324 241.948V243.619C286.325 243.92 286.445 244.21 286.658 244.423C286.872 244.637 287.161 244.757 287.463 244.757H289.513C289.533 244.757 289.553 244.765 289.567 244.78C289.581 244.794 289.589 244.813 289.589 244.833C289.589 244.853 289.581 244.873 289.567 244.887C289.553 244.901 289.533 244.909 289.513 244.909Z" fill="#CCCCCC"/>
<path d="M286.973 248.744H269.662C269.501 248.744 269.346 248.808 269.232 248.921C269.118 249.035 269.054 249.19 269.054 249.351C269.054 249.512 269.118 249.667 269.232 249.78C269.346 249.894 269.501 249.958 269.662 249.958H286.973C287.134 249.958 287.288 249.894 287.402 249.78C287.516 249.667 287.58 249.512 287.58 249.351C287.58 249.19 287.516 249.035 287.402 248.921C287.288 248.808 287.134 248.744 286.973 248.744Z" fill="#E6E6E6"/>
<path d="M278.241 246.162H269.662C269.501 246.162 269.346 246.226 269.232 246.34C269.118 246.454 269.054 246.608 269.054 246.769C269.054 246.931 269.118 247.085 269.232 247.199C269.346 247.313 269.501 247.377 269.662 247.377H278.241C278.402 247.377 278.557 247.313 278.671 247.199C278.785 247.085 278.849 246.931 278.849 246.769C278.849 246.608 278.785 246.454 278.671 246.34C278.557 246.226 278.402 246.162 278.241 246.162Z" fill="#E6E6E6"/>
<path d="M286.973 248.744H269.662C269.501 248.744 269.346 248.808 269.232 248.921C269.118 249.035 269.054 249.19 269.054 249.351C269.054 249.512 269.118 249.667 269.232 249.78C269.346 249.894 269.501 249.958 269.662 249.958H286.973C287.134 249.958 287.288 249.894 287.402 249.78C287.516 249.667 287.58 249.512 287.58 249.351C287.58 249.19 287.516 249.035 287.402 248.921C287.288 248.808 287.134 248.744 286.973 248.744Z" fill="#E6E6E6"/>
<path d="M278.241 246.162H269.662C269.501 246.162 269.346 246.226 269.232 246.34C269.118 246.454 269.054 246.608 269.054 246.769C269.054 246.931 269.118 247.085 269.232 247.199C269.346 247.313 269.501 247.377 269.662 247.377H278.241C278.402 247.377 278.557 247.313 278.671 247.199C278.785 247.085 278.849 246.931 278.849 246.769C278.849 246.608 278.785 246.454 278.671 246.34C278.557 246.226 278.402 246.162 278.241 246.162Z" fill="#E6E6E6"/>
<path d="M269.662 253.831C269.501 253.831 269.346 253.895 269.232 254.008C269.118 254.122 269.054 254.277 269.054 254.438C269.054 254.599 269.118 254.754 269.232 254.867C269.346 254.981 269.501 255.045 269.662 255.045H275.087V253.831H269.662Z" fill="#E6E6E6"/>
<path d="M269.662 251.249C269.501 251.249 269.346 251.313 269.232 251.427C269.118 251.541 269.054 251.695 269.054 251.856C269.054 252.018 269.118 252.172 269.232 252.286C269.346 252.4 269.501 252.464 269.662 252.464H275.087V251.249H269.662Z" fill="#E6E6E6"/>
<path d="M269.662 253.831C269.501 253.831 269.346 253.895 269.232 254.008C269.118 254.122 269.054 254.277 269.054 254.438C269.054 254.599 269.118 254.754 269.232 254.867C269.346 254.981 269.501 255.045 269.662 255.045H275.087V253.831H269.662Z" fill="#E6E6E6"/>
<path d="M269.662 251.249C269.501 251.249 269.346 251.313 269.232 251.427C269.118 251.541 269.054 251.695 269.054 251.856C269.054 252.018 269.118 252.172 269.232 252.286C269.346 252.4 269.501 252.464 269.662 252.464H275.087V251.249H269.662Z" fill="#E6E6E6"/>
<path d="M275.125 266.7H270.263C269.931 266.7 269.612 266.568 269.378 266.333C269.143 266.098 269.011 265.779 269.01 265.447V259.069C269.011 258.737 269.143 258.419 269.378 258.184C269.612 257.949 269.931 257.817 270.263 257.817H275.125V266.7Z" fill="#E6E6E6"/>
<path d="M275.553 250.11C275.365 250.225 275.209 250.387 275.101 250.58C274.992 250.773 274.935 250.99 274.935 251.211V251.401H275.087V251.211C275.088 250.96 275.171 250.716 275.324 250.517C275.477 250.318 275.691 250.175 275.934 250.11H275.553ZM294.196 249.92H276.226C275.884 249.921 275.556 250.057 275.314 250.299C275.072 250.541 274.936 250.869 274.935 251.211V277.709C274.936 278.051 275.072 278.379 275.314 278.621C275.556 278.863 275.884 279 276.226 279H296.195C296.537 279 296.865 278.863 297.107 278.621C297.349 278.379 297.485 278.051 297.485 277.709V252.857L294.196 249.92ZM297.334 277.709C297.333 278.011 297.213 278.301 297 278.514C296.786 278.728 296.497 278.848 296.195 278.848H276.226C275.924 278.848 275.635 278.728 275.421 278.514C275.208 278.301 275.088 278.011 275.087 277.709L275.087 251.211C275.088 250.96 275.171 250.716 275.324 250.517C275.477 250.318 275.691 250.175 275.934 250.11C276.029 250.085 276.127 250.072 276.226 250.072H294.139L297.334 252.925V277.709ZM275.553 250.11C275.365 250.225 275.209 250.387 275.101 250.58C274.992 250.773 274.935 250.99 274.935 251.211V251.401H275.087V251.211C275.088 250.96 275.171 250.716 275.324 250.517C275.477 250.318 275.691 250.175 275.934 250.11H275.553Z" fill="#3F3D56"/>
<path d="M297.41 252.957H295.36C295.017 252.957 294.689 252.821 294.447 252.579C294.205 252.337 294.069 252.009 294.069 251.667V249.996C294.069 249.976 294.077 249.957 294.091 249.943C294.105 249.928 294.125 249.92 294.145 249.92C294.165 249.92 294.184 249.928 294.198 249.943C294.213 249.957 294.221 249.976 294.221 249.996V251.667C294.221 251.969 294.341 252.258 294.555 252.472C294.768 252.685 295.058 252.805 295.36 252.806H297.41C297.43 252.806 297.449 252.814 297.463 252.828C297.477 252.842 297.485 252.861 297.485 252.881C297.485 252.902 297.477 252.921 297.463 252.935C297.449 252.949 297.43 252.957 297.41 252.957Z" fill="#3F3D56"/>
<path d="M294.869 258.006H277.558C277.397 258.006 277.242 257.942 277.129 257.829C277.015 257.715 276.951 257.56 276.951 257.399C276.951 257.238 277.015 257.083 277.129 256.97C277.242 256.856 277.397 256.792 277.558 256.792H294.869C295.03 256.792 295.185 256.856 295.299 256.97C295.413 257.083 295.477 257.238 295.477 257.399C295.477 257.56 295.413 257.715 295.299 257.829C295.185 257.942 295.03 258.006 294.869 258.006Z" fill="#CCCCCC"/>
<path d="M286.138 255.425H277.558C277.397 255.425 277.242 255.361 277.129 255.247C277.015 255.133 276.951 254.979 276.951 254.818C276.951 254.657 277.015 254.502 277.129 254.388C277.242 254.274 277.397 254.21 277.558 254.21H286.138C286.299 254.21 286.453 254.274 286.567 254.388C286.681 254.502 286.745 254.657 286.745 254.818C286.745 254.979 286.681 255.133 286.567 255.247C286.453 255.361 286.299 255.425 286.138 255.425Z" fill="#CCCCCC"/>
<path d="M294.869 263.094H277.558C277.397 263.094 277.242 263.03 277.129 262.916C277.015 262.802 276.951 262.647 276.951 262.486C276.951 262.325 277.015 262.171 277.129 262.057C277.242 261.943 277.397 261.879 277.558 261.879H294.869C295.03 261.879 295.185 261.943 295.299 262.057C295.413 262.171 295.477 262.325 295.477 262.486C295.477 262.647 295.413 262.802 295.299 262.916C295.185 263.03 295.03 263.094 294.869 263.094Z" fill="#CCCCCC"/>
<path d="M286.138 260.512H277.558C277.397 260.512 277.242 260.448 277.129 260.334C277.015 260.22 276.951 260.066 276.951 259.905C276.951 259.744 277.015 259.589 277.129 259.475C277.242 259.361 277.397 259.297 277.558 259.297H286.138C286.299 259.297 286.453 259.361 286.567 259.475C286.681 259.589 286.745 259.744 286.745 259.905C286.745 260.066 286.681 260.22 286.567 260.334C286.453 260.448 286.299 260.512 286.138 260.512Z" fill="#CCCCCC"/>
<path d="M294.255 274.748H278.159C277.827 274.748 277.509 274.616 277.274 274.381C277.039 274.146 276.907 273.828 276.906 273.495V267.118C276.907 266.785 277.039 266.467 277.274 266.232C277.509 265.997 277.827 265.865 278.159 265.865H294.255C294.588 265.865 294.906 265.997 295.141 266.232C295.376 266.467 295.508 266.785 295.508 267.118V273.495C295.508 273.828 295.376 274.146 295.141 274.381C294.906 274.616 294.588 274.748 294.255 274.748Z" fill="#6C63FF"/>
<path d="M14.7696 112.123H0.535632C0.403173 112.123 0.276138 112.175 0.182476 112.269C0.0888127 112.363 0.0361938 112.49 0.0361938 112.622C0.0361938 112.755 0.0888127 112.882 0.182476 112.975C0.276138 113.069 0.403173 113.121 0.535632 113.121H14.7696C14.9021 113.121 15.0291 113.069 15.1228 112.975C15.2164 112.882 15.2691 112.755 15.2691 112.622C15.2691 112.49 15.2164 112.363 15.1228 112.269C15.0291 112.175 14.9021 112.123 14.7696 112.123Z" fill="#E6E6E6"/>
<path d="M7.59019 110H0.535632C0.403173 110 0.276138 110.053 0.182475 110.146C0.0888127 110.24 0.0361938 110.367 0.0361938 110.499C0.0361938 110.632 0.0888127 110.759 0.182475 110.853C0.276138 110.946 0.403173 110.999 0.535632 110.999H7.59019C7.72265 110.999 7.84969 110.946 7.94335 110.853C8.03701 110.759 8.08963 110.632 8.08963 110.499C8.08963 110.367 8.03701 110.24 7.94335 110.146C7.84969 110.053 7.72265 110 7.59019 110Z" fill="#E6E6E6"/>
<path d="M0.535632 116.305C0.403173 116.305 0.276138 116.358 0.182475 116.452C0.0888127 116.545 0.0361938 116.672 0.0361938 116.805C0.0361938 116.937 0.0888127 117.064 0.182475 117.158C0.276138 117.252 0.403173 117.304 0.535632 117.304H4.99686V116.305H0.535632Z" fill="#E6E6E6"/>
<path d="M0.535632 114.183C0.470045 114.183 0.4051 114.196 0.344506 114.221C0.283911 114.246 0.228853 114.283 0.182475 114.329C0.136098 114.375 0.0993104 114.431 0.0742113 114.491C0.0491121 114.552 0.0361938 114.617 0.0361938 114.682C0.0361938 114.748 0.0491121 114.813 0.0742113 114.873C0.0993104 114.934 0.136098 114.989 0.182475 115.035C0.228853 115.082 0.283911 115.119 0.344506 115.144C0.4051 115.169 0.470045 115.182 0.535632 115.182H4.99686V114.183H0.535632Z" fill="#E6E6E6"/>
<path d="M5.02809 126.887H1.03009C0.756989 126.887 0.49516 126.778 0.302047 126.585C0.108935 126.392 0.000308496 126.13 0 125.857V120.613C0.000308661 120.34 0.108936 120.078 0.302048 119.885C0.495161 119.692 0.756989 119.583 1.03009 119.583H5.02809V126.887Z" fill="#E6E6E6"/>
<path d="M11.4746 137.095H6.02697C5.7456 137.094 5.47583 136.982 5.27687 136.783C5.0779 136.584 4.96598 136.315 4.96567 136.033V114.245C4.96598 113.964 5.0779 113.694 5.27687 113.495C5.47583 113.296 5.7456 113.184 6.02697 113.184H20.8029L23.5073 115.599V119.739H23.3824V115.655L20.7553 113.309H6.02697C5.7787 113.309 5.54067 113.408 5.36512 113.583C5.18956 113.759 5.09081 113.997 5.09053 114.245V136.033C5.09081 136.281 5.18956 136.52 5.36512 136.695C5.54067 136.871 5.7787 136.969 6.02697 136.97H11.4746V137.095Z" fill="#CCCCCC"/>
<path d="M23.4449 115.681H21.7593C21.4779 115.681 21.2081 115.569 21.0092 115.37C20.8102 115.171 20.6983 114.901 20.698 114.62V113.246C20.698 113.23 20.7045 113.214 20.7163 113.202C20.728 113.191 20.7438 113.184 20.7604 113.184C20.777 113.184 20.7928 113.191 20.8045 113.202C20.8163 113.214 20.8228 113.23 20.8228 113.246V114.62C20.8231 114.868 20.9219 115.106 21.0974 115.282C21.273 115.457 21.511 115.556 21.7593 115.556H23.4449C23.4614 115.556 23.4773 115.563 23.489 115.575C23.5007 115.586 23.5073 115.602 23.5073 115.619C23.5073 115.635 23.5007 115.651 23.489 115.663C23.4773 115.675 23.4614 115.681 23.4449 115.681Z" fill="#CCCCCC"/>
<path d="M21.356 118.834H7.122C6.98954 118.834 6.8625 118.886 6.76884 118.98C6.67518 119.074 6.62256 119.201 6.62256 119.333C6.62256 119.466 6.67518 119.593 6.76884 119.686C6.8625 119.78 6.98954 119.833 7.122 119.833H21.356C21.4884 119.833 21.6155 119.78 21.7091 119.686C21.8028 119.593 21.8554 119.466 21.8554 119.333C21.8554 119.201 21.8028 119.074 21.7091 118.98C21.6155 118.886 21.4884 118.834 21.356 118.834Z" fill="#E6E6E6"/>
<path d="M14.1766 116.711H7.122C6.98954 116.711 6.8625 116.764 6.76884 116.857C6.67518 116.951 6.62256 117.078 6.62256 117.211C6.62256 117.343 6.67518 117.47 6.76884 117.564C6.8625 117.657 6.98954 117.71 7.122 117.71H14.1766C14.309 117.71 14.4361 117.657 14.5297 117.564C14.6234 117.47 14.676 117.343 14.676 117.211C14.676 117.078 14.6234 116.951 14.5297 116.857C14.4361 116.764 14.309 116.711 14.1766 116.711Z" fill="#E6E6E6"/>
<path d="M21.356 118.834H7.122C6.98954 118.834 6.8625 118.886 6.76884 118.98C6.67518 119.074 6.62256 119.201 6.62256 119.333C6.62256 119.466 6.67518 119.593 6.76884 119.686C6.8625 119.78 6.98954 119.833 7.122 119.833H21.356C21.4884 119.833 21.6155 119.78 21.7091 119.686C21.8028 119.593 21.8554 119.466 21.8554 119.333C21.8554 119.201 21.8028 119.074 21.7091 118.98C21.6155 118.886 21.4884 118.834 21.356 118.834Z" fill="#E6E6E6"/>
<path d="M14.1766 116.711H7.122C6.98954 116.711 6.8625 116.764 6.76884 116.857C6.67518 116.951 6.62256 117.078 6.62256 117.211C6.62256 117.343 6.67518 117.47 6.76884 117.564C6.8625 117.657 6.98954 117.71 7.122 117.71H14.1766C14.309 117.71 14.4361 117.657 14.5297 117.564C14.6234 117.47 14.676 117.343 14.676 117.211C14.676 117.078 14.6234 116.951 14.5297 116.857C14.4361 116.764 14.309 116.711 14.1766 116.711Z" fill="#E6E6E6"/>
<path d="M7.122 123.017C6.98954 123.017 6.8625 123.069 6.76884 123.163C6.67518 123.257 6.62256 123.384 6.62256 123.516C6.62256 123.648 6.67518 123.776 6.76884 123.869C6.8625 123.963 6.98954 124.015 7.122 124.015H11.5832V123.017H7.122Z" fill="#E6E6E6"/>
<path d="M7.122 120.894C6.98954 120.894 6.8625 120.947 6.76884 121.04C6.67518 121.134 6.62256 121.261 6.62256 121.393C6.62256 121.526 6.67518 121.653 6.76884 121.747C6.8625 121.84 6.98954 121.893 7.122 121.893H11.5832V120.894H7.122Z" fill="#E6E6E6"/>
<path d="M7.122 123.017C6.98954 123.017 6.8625 123.069 6.76884 123.163C6.67518 123.257 6.62256 123.384 6.62256 123.516C6.62256 123.648 6.67518 123.776 6.76884 123.869C6.8625 123.963 6.98954 124.015 7.122 124.015H11.5832V123.017H7.122Z" fill="#E6E6E6"/>
<path d="M7.122 120.894C6.98954 120.894 6.8625 120.947 6.76884 121.04C6.67518 121.134 6.62256 121.261 6.62256 121.393C6.62256 121.526 6.67518 121.653 6.76884 121.747C6.8625 121.84 6.98954 121.893 7.122 121.893H11.5832V120.894H7.122Z" fill="#E6E6E6"/>
<path d="M11.6144 133.598H7.61643C7.34332 133.598 7.08149 133.49 6.88838 133.296C6.69527 133.103 6.58664 132.841 6.58633 132.568V127.324C6.58664 127.051 6.69527 126.789 6.88838 126.596C7.08149 126.403 7.34332 126.294 7.61643 126.294H11.6144V133.598Z" fill="#E6E6E6"/>
<path d="M11.9666 119.958C11.8114 120.052 11.6832 120.185 11.5942 120.344C11.5052 120.502 11.4584 120.681 11.4584 120.863V121.019H11.5832V120.863C11.5835 120.656 11.6518 120.456 11.7777 120.292C11.9035 120.128 12.0799 120.011 12.2793 119.958H11.9666ZM27.2956 119.801H12.5197C12.2383 119.802 11.9685 119.914 11.7696 120.113C11.5706 120.312 11.4587 120.581 11.4584 120.863V142.651C11.4588 142.932 11.5707 143.202 11.7697 143.401C11.9686 143.6 12.2383 143.712 12.5197 143.712H28.9387C29.2201 143.712 29.4898 143.6 29.6887 143.401C29.8877 143.202 29.9996 142.932 30 142.651V122.216L27.2956 119.801ZM29.8752 142.651C29.8749 142.899 29.7761 143.137 29.6005 143.313C29.425 143.488 29.187 143.587 28.9387 143.587H12.5197C12.2714 143.587 12.0334 143.488 11.8578 143.313C11.6823 143.137 11.5835 142.899 11.5832 142.651L11.5832 120.863C11.5835 120.656 11.6518 120.456 11.7777 120.292C11.9035 120.128 12.0799 120.011 12.2793 119.958C12.3577 119.937 12.4385 119.926 12.5197 119.926H27.2481L29.8752 122.272V142.651ZM11.9666 119.958C11.8114 120.052 11.6832 120.185 11.5942 120.344C11.5052 120.502 11.4584 120.681 11.4584 120.863V121.019H11.5832V120.863C11.5835 120.656 11.6518 120.456 11.7777 120.292C11.9035 120.128 12.0799 120.011 12.2793 119.958H11.9666Z" fill="#3F3D56"/>
<path d="M29.9376 122.299H28.252C27.9706 122.298 27.7008 122.186 27.5019 121.987C27.3029 121.788 27.191 121.519 27.1907 121.237V119.864C27.1907 119.847 27.1973 119.831 27.209 119.82C27.2207 119.808 27.2365 119.801 27.2531 119.801C27.2697 119.801 27.2855 119.808 27.2973 119.82C27.309 119.831 27.3155 119.847 27.3155 119.864V121.237C27.3158 121.486 27.4146 121.724 27.5901 121.899C27.7657 122.075 28.0037 122.174 28.252 122.174H29.9376C29.9541 122.174 29.97 122.18 29.9817 122.192C29.9934 122.204 30 122.22 30 122.236C30 122.253 29.9934 122.269 29.9817 122.28C29.97 122.292 29.9541 122.299 29.9376 122.299Z" fill="#3F3D56"/>
<path d="M27.8487 126.45H13.6148C13.4823 126.45 13.3553 126.398 13.2616 126.304C13.1679 126.21 13.1153 126.083 13.1153 125.951C13.1153 125.818 13.1679 125.691 13.2616 125.598C13.3553 125.504 13.4823 125.451 13.6148 125.451H27.8487C27.9812 125.451 28.1082 125.504 28.2019 125.598C28.2956 125.691 28.3482 125.818 28.3482 125.951C28.3482 126.083 28.2956 126.21 28.2019 126.304C28.1082 126.398 27.9812 126.45 27.8487 126.45Z" fill="#CCCCCC"/>
<path d="M20.6693 124.328H13.6148C13.4823 124.328 13.3553 124.275 13.2616 124.181C13.1679 124.088 13.1153 123.961 13.1153 123.828C13.1153 123.696 13.1679 123.569 13.2616 123.475C13.3553 123.381 13.4823 123.329 13.6148 123.329H20.6693C20.8018 123.329 20.9288 123.381 21.0225 123.475C21.1161 123.569 21.1688 123.696 21.1688 123.828C21.1688 123.961 21.1161 124.088 21.0225 124.181C20.9288 124.275 20.8018 124.328 20.6693 124.328Z" fill="#CCCCCC"/>
<path d="M27.8487 130.633H13.6148C13.4823 130.633 13.3553 130.58 13.2616 130.487C13.1679 130.393 13.1153 130.266 13.1153 130.134C13.1153 130.001 13.1679 129.874 13.2616 129.78C13.3553 129.687 13.4823 129.634 13.6148 129.634H27.8487C27.9812 129.634 28.1082 129.687 28.2019 129.78C28.2956 129.874 28.3482 130.001 28.3482 130.134C28.3482 130.266 28.2956 130.393 28.2019 130.487C28.1082 130.58 27.9812 130.633 27.8487 130.633Z" fill="#CCCCCC"/>
<path d="M20.6693 128.51H13.6148C13.4823 128.51 13.3553 128.458 13.2616 128.364C13.1679 128.27 13.1153 128.143 13.1153 128.011C13.1153 127.879 13.1679 127.751 13.2616 127.658C13.3553 127.564 13.4823 127.512 13.6148 127.512H20.6693C20.8018 127.512 20.9288 127.564 21.0225 127.658C21.1161 127.751 21.1688 127.879 21.1688 128.011C21.1688 128.143 21.1161 128.27 21.0225 128.364C20.9288 128.458 20.8018 128.51 20.6693 128.51Z" fill="#CCCCCC"/>
<path d="M27.3441 140.216H14.109C13.8359 140.216 13.5741 140.107 13.381 139.914C13.1879 139.721 13.0793 139.459 13.0789 139.186V133.942C13.0793 133.669 13.1879 133.407 13.381 133.214C13.5741 133.021 13.8359 132.912 14.109 132.912H27.3441C27.6173 132.912 27.8791 133.021 28.0722 133.214C28.2653 133.407 28.3739 133.669 28.3742 133.942V139.186C28.3739 139.459 28.2653 139.721 28.0722 139.914C27.8791 140.107 27.6173 140.216 27.3441 140.216Z" fill="#6C63FF"/>
<path d="M56.3209 260.489H39.6282C39.4729 260.489 39.3239 260.551 39.214 260.661C39.1042 260.771 39.0425 260.92 39.0425 261.075C39.0425 261.23 39.1042 261.379 39.214 261.489C39.3239 261.599 39.4729 261.661 39.6282 261.661H56.3209C56.4763 261.661 56.6252 261.599 56.7351 261.489C56.8449 261.379 56.9066 261.23 56.9066 261.075C56.9066 260.92 56.8449 260.771 56.7351 260.661C56.6252 260.551 56.4763 260.489 56.3209 260.489Z" fill="#E6E6E6"/>
<path d="M47.9013 258H39.6282C39.4729 258 39.3239 258.062 39.214 258.172C39.1042 258.281 39.0425 258.43 39.0425 258.586C39.0425 258.741 39.1042 258.89 39.214 259C39.3239 259.11 39.4729 259.171 39.6282 259.171H47.9013C48.0567 259.171 48.2057 259.11 48.3155 259C48.4253 258.89 48.4871 258.741 48.4871 258.586C48.4871 258.43 48.4253 258.281 48.3155 258.172C48.2057 258.062 48.0567 258 47.9013 258Z" fill="#E6E6E6"/>
<path d="M39.6282 265.395C39.4729 265.395 39.3239 265.456 39.214 265.566C39.1042 265.676 39.0425 265.825 39.0425 265.98C39.0425 266.136 39.1042 266.285 39.214 266.394C39.3239 266.504 39.4729 266.566 39.6282 266.566H44.86V265.395H39.6282Z" fill="#E6E6E6"/>
<path d="M39.6282 262.905C39.5513 262.905 39.4751 262.92 39.404 262.95C39.333 262.979 39.2684 263.022 39.214 263.077C39.1596 263.131 39.1165 263.196 39.0871 263.267C39.0576 263.338 39.0425 263.414 39.0425 263.491C39.0425 263.568 39.0576 263.644 39.0871 263.715C39.1165 263.786 39.1596 263.851 39.214 263.905C39.2684 263.96 39.333 264.003 39.404 264.032C39.4751 264.062 39.5513 264.077 39.6282 264.077H44.86V262.905H39.6282Z" fill="#E6E6E6"/>
<path d="M44.8966 277.804H40.208C39.8877 277.804 39.5807 277.677 39.3542 277.45C39.1278 277.224 39.0004 276.917 39 276.596V270.446C39.0004 270.126 39.1278 269.819 39.3542 269.593C39.5807 269.366 39.8877 269.239 40.208 269.238H44.8966V277.804Z" fill="#E6E6E6"/>
<path d="M52.4567 289.775H46.0681C45.7381 289.774 45.4217 289.643 45.1884 289.41C44.955 289.176 44.8238 288.86 44.8234 288.53V262.979C44.8238 262.649 44.955 262.332 45.1884 262.099C45.4217 261.866 45.7381 261.734 46.0681 261.734H63.3964L66.5679 264.566V269.421H66.4215V264.631L63.3405 261.88H46.0681C45.7769 261.881 45.4978 261.996 45.2919 262.202C45.086 262.408 44.9702 262.687 44.9699 262.979V288.53C44.9702 288.821 45.086 289.1 45.2919 289.306C45.4978 289.512 45.7769 289.628 46.0681 289.628H52.4567V289.775Z" fill="#CCCCCC"/>
<path d="M66.4947 264.662H64.5179C64.1879 264.662 63.8716 264.531 63.6382 264.298C63.4049 264.064 63.2737 263.748 63.2733 263.418V261.807C63.2733 261.788 63.281 261.769 63.2947 261.755C63.3085 261.742 63.3271 261.734 63.3465 261.734C63.3659 261.734 63.3845 261.742 63.3983 261.755C63.412 261.769 63.4197 261.788 63.4197 261.807V263.418C63.42 263.709 63.5359 263.988 63.7417 264.194C63.9476 264.4 64.2268 264.516 64.5179 264.516H66.4947C66.5141 264.516 66.5327 264.524 66.5465 264.537C66.5602 264.551 66.5679 264.57 66.5679 264.589C66.5679 264.609 66.5602 264.627 66.5465 264.641C66.5327 264.655 66.5141 264.662 66.4947 264.662Z" fill="#CCCCCC"/>
<path d="M64.045 268.36H47.3523C47.1969 268.36 47.0479 268.421 46.9381 268.531C46.8282 268.641 46.7665 268.79 46.7665 268.945C46.7665 269.101 46.8282 269.25 46.9381 269.36C47.0479 269.469 47.1969 269.531 47.3523 269.531H64.045C64.2003 269.531 64.3493 269.469 64.4591 269.36C64.569 269.25 64.6307 269.101 64.6307 268.945C64.6307 268.79 64.569 268.641 64.4591 268.531C64.3493 268.421 64.2003 268.36 64.045 268.36Z" fill="#E6E6E6"/>
<path d="M55.6254 265.87H47.3523C47.1969 265.87 47.0479 265.932 46.9381 266.042C46.8282 266.152 46.7665 266.301 46.7665 266.456C46.7665 266.612 46.8282 266.761 46.9381 266.87C47.0479 266.98 47.1969 267.042 47.3523 267.042H55.6254C55.7807 267.042 55.9297 266.98 56.0396 266.87C56.1494 266.761 56.2111 266.612 56.2111 266.456C56.2111 266.301 56.1494 266.152 56.0396 266.042C55.9297 265.932 55.7807 265.87 55.6254 265.87Z" fill="#E6E6E6"/>
<path d="M64.045 268.36H47.3523C47.1969 268.36 47.0479 268.421 46.9381 268.531C46.8282 268.641 46.7665 268.79 46.7665 268.945C46.7665 269.101 46.8282 269.25 46.9381 269.36C47.0479 269.469 47.1969 269.531 47.3523 269.531H64.045C64.2003 269.531 64.3493 269.469 64.4591 269.36C64.569 269.25 64.6307 269.101 64.6307 268.945C64.6307 268.79 64.569 268.641 64.4591 268.531C64.3493 268.421 64.2003 268.36 64.045 268.36Z" fill="#E6E6E6"/>
<path d="M55.6254 265.87H47.3523C47.1969 265.87 47.0479 265.932 46.9381 266.042C46.8282 266.152 46.7665 266.301 46.7665 266.456C46.7665 266.612 46.8282 266.761 46.9381 266.87C47.0479 266.98 47.1969 267.042 47.3523 267.042H55.6254C55.7807 267.042 55.9297 266.98 56.0396 266.87C56.1494 266.761 56.2111 266.612 56.2111 266.456C56.2111 266.301 56.1494 266.152 56.0396 266.042C55.9297 265.932 55.7807 265.87 55.6254 265.87Z" fill="#E6E6E6"/>
<path d="M47.3523 273.265C47.1969 273.265 47.0479 273.327 46.9381 273.437C46.8282 273.546 46.7665 273.695 46.7665 273.851C46.7665 274.006 46.8282 274.155 46.9381 274.265C47.0479 274.375 47.1969 274.436 47.3523 274.436H52.5841V273.265H47.3523Z" fill="#E6E6E6"/>
<path d="M47.3523 270.776C47.1969 270.776 47.0479 270.838 46.9381 270.947C46.8282 271.057 46.7665 271.206 46.7665 271.362C46.7665 271.517 46.8282 271.666 46.9381 271.776C47.0479 271.886 47.1969 271.947 47.3523 271.947H52.5841V270.776H47.3523Z" fill="#E6E6E6"/>
<path d="M47.3523 273.265C47.1969 273.265 47.0479 273.327 46.9381 273.437C46.8282 273.546 46.7665 273.695 46.7665 273.851C46.7665 274.006 46.8282 274.155 46.9381 274.265C47.0479 274.375 47.1969 274.436 47.3523 274.436H52.5841V273.265H47.3523Z" fill="#E6E6E6"/>
<path d="M47.3523 270.776C47.1969 270.776 47.0479 270.838 46.9381 270.947C46.8282 271.057 46.7665 271.206 46.7665 271.362C46.7665 271.517 46.8282 271.666 46.9381 271.776C47.0479 271.886 47.1969 271.947 47.3523 271.947H52.5841V270.776H47.3523Z" fill="#E6E6E6"/>
<path d="M52.6207 285.675H47.9321C47.6118 285.674 47.3047 285.547 47.0783 285.321C46.8518 285.094 46.7244 284.787 46.724 284.467V278.317C46.7244 277.997 46.8518 277.689 47.0783 277.463C47.3047 277.237 47.6118 277.109 47.9321 277.109H52.6207V285.675Z" fill="#E6E6E6"/>
<path d="M53.0336 269.678C52.8516 269.789 52.7013 269.945 52.5969 270.131C52.4925 270.316 52.4377 270.526 52.4376 270.739V270.922H52.5841V270.739C52.5843 270.497 52.6645 270.262 52.8121 270.07C52.9597 269.878 53.1665 269.74 53.4004 269.678H53.0336ZM71.0105 269.495H53.6823C53.3523 269.495 53.0359 269.626 52.8026 269.86C52.5693 270.093 52.438 270.409 52.4376 270.739V296.291C52.4381 296.621 52.5694 296.937 52.8027 297.17C53.036 297.404 53.3523 297.535 53.6823 297.535H72.9375C73.2674 297.535 73.5837 297.404 73.817 297.17C74.0504 296.937 74.1816 296.621 74.1821 296.291V272.326L71.0105 269.495ZM74.0357 296.291C74.0353 296.582 73.9195 296.861 73.7136 297.067C73.5077 297.273 73.2286 297.389 72.9375 297.389H53.6823C53.3911 297.389 53.112 297.273 52.9061 297.067C52.7002 296.861 52.5844 296.582 52.584 296.291L52.5841 270.739C52.5843 270.497 52.6645 270.262 52.8121 270.07C52.9597 269.878 53.1665 269.74 53.4004 269.678C53.4923 269.653 53.5871 269.641 53.6823 269.641H70.9548L74.0357 272.392V296.291ZM53.0336 269.678C52.8516 269.789 52.7013 269.945 52.5969 270.131C52.4925 270.316 52.4377 270.526 52.4376 270.739V270.922H52.5841V270.739C52.5843 270.497 52.6645 270.262 52.8121 270.07C52.9597 269.878 53.1665 269.74 53.4004 269.678H53.0336Z" fill="#3F3D56"/>
<path d="M74.1089 272.423H72.1321C71.8022 272.423 71.4858 272.291 71.2525 272.058C71.0191 271.825 70.8879 271.508 70.8875 271.178V269.568C70.8875 269.548 70.8952 269.53 70.909 269.516C70.9227 269.502 70.9413 269.495 70.9607 269.495C70.9801 269.495 70.9988 269.502 71.0125 269.516C71.0262 269.53 71.0339 269.548 71.0339 269.568V271.178C71.0343 271.47 71.1501 271.749 71.356 271.955C71.5618 272.161 71.841 272.276 72.1321 272.277H74.1089C74.1283 272.277 74.147 272.284 74.1607 272.298C74.1744 272.312 74.1821 272.33 74.1821 272.35C74.1821 272.369 74.1744 272.388 74.1607 272.402C74.147 272.415 74.1283 272.423 74.1089 272.423Z" fill="#3F3D56"/>
<path d="M71.6593 277.292H54.9666C54.8113 277.292 54.6623 277.23 54.5524 277.12C54.4426 277.01 54.3809 276.861 54.3809 276.706C54.3809 276.551 54.4426 276.402 54.5524 276.292C54.6623 276.182 54.8113 276.12 54.9666 276.12H71.6593C71.8147 276.12 71.9636 276.182 72.0735 276.292C72.1833 276.402 72.245 276.551 72.245 276.706C72.245 276.861 72.1833 277.01 72.0735 277.12C71.9636 277.23 71.8147 277.292 71.6593 277.292Z" fill="#CCCCCC"/>
<path d="M63.2397 274.803H54.9666C54.8113 274.803 54.6623 274.741 54.5524 274.631C54.4426 274.521 54.3809 274.372 54.3809 274.217C54.3809 274.062 54.4426 273.913 54.5524 273.803C54.6623 273.693 54.8113 273.631 54.9666 273.631H63.2397C63.3951 273.631 63.5441 273.693 63.6539 273.803C63.7638 273.913 63.8255 274.062 63.8255 274.217C63.8255 274.372 63.7638 274.521 63.6539 274.631C63.5441 274.741 63.3951 274.803 63.2397 274.803Z" fill="#CCCCCC"/>
<path d="M71.6593 282.197H54.9666C54.8113 282.197 54.6623 282.135 54.5524 282.026C54.4426 281.916 54.3809 281.767 54.3809 281.611C54.3809 281.456 54.4426 281.307 54.5524 281.197C54.6623 281.087 54.8113 281.026 54.9666 281.026H71.6593C71.8147 281.026 71.9636 281.087 72.0735 281.197C72.1833 281.307 72.245 281.456 72.245 281.611C72.245 281.767 72.1833 281.916 72.0735 282.026C71.9636 282.135 71.8147 282.197 71.6593 282.197Z" fill="#CCCCCC"/>
<path d="M63.2397 279.708H54.9666C54.8113 279.708 54.6623 279.646 54.5524 279.536C54.4426 279.426 54.3809 279.278 54.3809 279.122C54.3809 278.967 54.4426 278.818 54.5524 278.708C54.6623 278.598 54.8113 278.536 54.9666 278.536H63.2397C63.3951 278.536 63.5441 278.598 63.6539 278.708C63.7638 278.818 63.8255 278.967 63.8255 279.122C63.8255 279.278 63.7638 279.426 63.6539 279.536C63.5441 279.646 63.3951 279.708 63.2397 279.708Z" fill="#CCCCCC"/>
<path d="M71.0675 293.435H55.5462C55.2259 293.435 54.9189 293.308 54.6924 293.081C54.4659 292.855 54.3386 292.548 54.3382 292.227V286.077C54.3386 285.757 54.4659 285.45 54.6924 285.224C54.9189 284.997 55.2259 284.87 55.5462 284.869H71.0675C71.3878 284.87 71.6949 284.997 71.9213 285.224C72.1478 285.45 72.2752 285.757 72.2756 286.077V292.227C72.2752 292.548 72.1478 292.855 71.9213 293.081C71.6949 293.308 71.3878 293.435 71.0675 293.435Z" fill="#6C63FF"/>
</svg>
