<svg width="46" height="42" viewBox="0 0 46 42" fill="none" xmlns="http://www.w3.org/2000/svg">
<path d="M12.319 32.6694C9.76827 31.7365 7.93017 30.845 6.65001 29.2857C3.60075 25.5786 3.75175 19.7345 5.25398 15.5871C6.16256 13.0787 7.98464 10.3542 10.128 8.29919C11.9703 6.53297 14.9311 4.41604 18.5749 4.36116C19.3868 4.34847 20.5369 4.60547 21.9009 5.10435C25.0302 6.24886 28.9008 8.50745 31.7618 10.8584C34.2033 12.8646 36.3318 15.4354 38.088 18.4992C39.1754 20.3942 40.095 22.116 40.3346 24.0014C40.6117 26.1812 39.8963 28.2958 38.1478 30.4653C35.841 32.6741 34.4028 33.9159 32.9555 34.5686C31.5462 35.2042 30.0633 35.3362 27.3712 35.5757L27.1838 35.5924C22.4007 36.02 20.3706 35.587 15.3848 33.7635C14.8299 33.5605 14.2875 33.3694 13.763 33.1845C13.2602 33.0073 12.7852 32.8399 12.319 32.6694Z" fill="#ED6503"/>
<path d="M21.7714 5.46108C20.4504 4.97793 19.3473 4.72888 18.581 4.74085C15.0598 4.79388 12.183 6.85455 10.3897 8.5739C8.28622 10.5906 6.49927 13.261 5.60958 15.7174C4.81413 17.9135 4.46697 20.3883 4.63204 22.6859C4.81489 25.2312 5.61346 27.4298 6.94184 29.0448C8.16725 30.5374 9.95715 31.4019 12.4479 32.3128C12.912 32.4826 13.386 32.6496 13.8877 32.8265C14.4133 33.0117 14.9567 33.2032 15.5137 33.4069C20.437 35.2076 22.4398 35.6354 27.1493 35.2144L27.3368 35.1977C29.9879 34.9617 31.4482 34.8318 32.7995 34.2224C34.1932 33.5939 35.6028 32.3759 37.8681 30.2075C38.7556 29.1025 39.3738 27.9998 39.7058 26.9293C40.0013 25.9766 40.084 25.0344 39.9588 24.0488C39.728 22.2333 38.8263 20.5471 37.7595 18.688C36.0263 15.6644 33.9277 13.1289 31.5219 11.1519C28.6912 8.82592 24.8639 6.59213 21.7714 5.46108ZM22.0298 4.74772C25.1233 5.87912 29.0341 8.12679 32.0012 10.5649C34.0442 12.2437 36.3331 14.6768 38.4159 18.3105C40.4455 21.8473 42.5002 25.6857 38.4268 30.7235C33.4795 35.462 32.801 35.4733 27.2177 35.9708C22.3828 36.403 20.2978 35.9645 15.2553 34.1203C11.4839 32.7409 8.32057 31.9179 6.35753 29.5268C3.28164 25.7874 3.30447 19.8557 4.89772 15.457C6.57089 10.8377 11.9159 4.08174 18.5683 3.98156C19.4631 3.96757 20.6672 4.24937 22.0298 4.74772Z" fill="#707070"/>
<path d="M22.9839 13.9217V14.8577H19.9549L19.7989 17.7307C20.1976 17.6701 20.5139 17.6397 20.7479 17.6397C21.7099 17.6397 22.4509 17.9344 22.9709 18.5237C23.4216 19.0351 23.6469 19.7154 23.6469 20.5647C23.6469 21.5181 23.3133 22.2374 22.6459 22.7227C22.1173 23.1127 21.4239 23.3077 20.5659 23.3077C20.0459 23.3077 19.5259 23.2297 19.0059 23.0737L18.5899 22.5667V22.1637C19.1879 22.2851 19.7123 22.3457 20.1629 22.3457C20.9689 22.3457 21.5583 22.2157 21.9309 21.9557C22.3469 21.6697 22.5549 21.1974 22.5549 20.5387C22.5549 19.2214 21.7793 18.5627 20.2279 18.5627C19.8639 18.5627 19.3353 18.6017 18.6419 18.6797L18.9019 13.9217H22.9839Z" fill="black"/>
</svg>
