<svg width="47" height="47" viewBox="0 0 47 47" fill="none" xmlns="http://www.w3.org/2000/svg">
<path d="M22.7426 46.4675C20.0274 46.4675 18.0031 46.0606 15.9736 45.1071C13.9424 44.1528 11.901 42.6279 9.44334 40.7335C8.22491 39.7943 7.0797 38.5312 6.0395 36.9791C5.0728 35.5368 4.21674 33.8776 3.49508 32.0477C2.14324 28.6197 1.36792 24.8309 1.36792 21.6526C1.36792 18.8946 2.26172 16.1881 4.02449 13.6084C5.6463 11.2349 7.92932 9.06046 10.8101 7.14543C13.4958 5.36018 16.6217 3.87754 19.85 2.8578C23.0525 1.84621 26.2846 1.31152 29.197 1.31152C30.7375 1.31152 34.6041 1.50816 37.2293 3.32949C39.361 4.80652 40.5713 7.30169 41.153 8.50081C41.218 8.6348 41.2742 8.75052 41.325 8.85173C41.9811 10.1511 42.4109 12.5118 42.8264 14.7948C43.1555 16.6022 43.4662 18.3093 43.8904 19.6021C44.8016 22.379 45.9126 27.1313 46.0178 27.5841C46.0296 27.8835 46.1027 30.1298 45.7663 32.6147C45.3025 36.0404 44.2804 38.3722 42.8097 39.3608C42.2723 39.6278 41.7376 39.896 41.172 40.1796C35.2954 43.1269 28.6347 46.4675 22.7426 46.4675Z" fill="#ED6503"/>
<path d="M29.1969 1.69905C26.3241 1.69905 23.1329 2.22744 19.9681 3.22709C16.7743 4.23593 13.6826 5.70223 11.0271 7.46748C8.18816 9.35465 5.94076 11.4939 4.34727 13.8259C2.62921 16.3402 1.75808 18.9734 1.75808 21.6524C1.75808 24.7841 2.5236 28.5214 3.85834 31.906C4.56986 33.7102 5.41295 35.3447 6.36423 36.764C7.38101 38.2811 8.49742 39.5135 9.68246 40.4269C12.121 42.3066 14.1449 43.8189 16.1404 44.7564C18.1143 45.6838 20.0887 46.0795 22.7425 46.0795C28.5416 46.0795 35.1582 42.7611 40.996 39.8333C41.5537 39.5536 42.0813 39.289 42.6114 39.0255C43.9748 38.0935 44.9309 35.8645 45.3779 32.5739C45.7007 30.1968 45.6435 28.0367 45.6291 27.6352C45.4845 27.0147 44.4057 22.4234 43.5193 19.7221C43.0868 18.4041 42.7737 16.6844 42.4423 14.8637C42.0316 12.6076 41.607 10.2748 40.9758 9.02479C40.9237 8.92112 40.867 8.80425 40.8013 8.66893C40.2341 7.49953 39.0537 5.0662 37.0058 3.64717C34.4714 1.88888 30.7005 1.69905 29.1969 1.69905ZM29.1969 0.923584C31.1567 0.923584 34.8688 1.21876 37.4526 3.01138C39.9027 4.70903 41.1556 7.64715 41.6741 8.67826C42.8671 11.0411 43.2923 16.5284 44.2614 19.4817C45.2305 22.4351 46.4061 27.5318 46.4061 27.5318C46.4061 27.5318 46.8683 37.1385 43.0064 39.6963C36.7539 42.8022 29.2981 46.855 22.7425 46.855C17.0738 46.855 14.4285 45.0667 9.204 41.0396C3.97954 37.0125 0.977539 27.9272 0.977539 21.6524C0.977539 9.74571 17.2123 0.923584 29.1969 0.923584Z" fill="#707070"/>
<path d="M18.2555 17.4833C18.9141 17.2753 19.4558 17.1713 19.8805 17.1713C20.7905 17.1713 21.5141 17.4096 22.0515 17.8863C22.5715 18.3456 22.8315 18.9566 22.8315 19.7193C22.8315 20.8373 22.2941 21.5436 21.2195 21.8383C21.8521 21.9683 22.3375 22.2369 22.6755 22.6443C23.0308 23.0776 23.2085 23.5629 23.2085 24.1003C23.2085 24.9929 22.8358 25.6819 22.0905 26.1673C21.5185 26.5399 20.8295 26.7263 20.0235 26.7263C19.4601 26.7263 18.9055 26.6569 18.3595 26.5183L17.8525 25.8943V25.2963C18.4591 25.4089 18.9791 25.4653 19.4125 25.4653C20.8858 25.4653 21.6225 25.0146 21.6225 24.1133C21.6225 23.6453 21.4188 23.2509 21.0115 22.9303C20.7515 22.7309 20.4741 22.5966 20.1795 22.5273C19.8935 22.4579 19.4471 22.4146 18.8405 22.3973V21.1883H20.1535C20.4828 21.1883 20.7558 21.0756 20.9725 20.8503C21.1891 20.6163 21.2975 20.3259 21.2975 19.9793C21.2975 19.5373 21.1458 19.1949 20.8425 18.9523C20.5478 18.7009 20.1405 18.5753 19.6205 18.5753C19.2911 18.5753 18.8361 18.6489 18.2555 18.7963V17.4833ZM27.8888 17.2753V25.8813L27.0828 26.5833H26.3028V19.0823L24.7948 20.3563L24.0408 19.4073L26.5628 17.2753H27.8888Z" fill="black"/>
</svg>
