<svg width="45" height="47" viewBox="0 0 45 47" fill="none" xmlns="http://www.w3.org/2000/svg">
<path d="M1.85644 32.4413C2.65742 35.6005 8.15905 38.5158 12.8158 40.7139C13.6115 41.09 24.1998 45.5894 24.1998 45.5894C24.1998 45.5894 28.4015 46.7352 29.9785 45.5894C30.4108 45.2756 33.6306 43.5707 34.0553 42.7281C34.866 40.888 35.518 38.9816 36.004 37.0297C40.7092 33.2391 42.1204 31.949 42.7904 29.5777C44.1432 25.1891 43.832 20.4536 41.9167 16.2814C40.9825 14.407 39.1247 13.5195 36.0033 10.7197C34.0864 8.99956 31.202 7.44427 28.6135 5.96724C25.8434 4.38612 24.0636 3.06332 21.4214 2.14094C18.5267 1.15282 15.4468 0.83465 12.4122 1.21022C7.75325 1.94873 5.12245 5.1763 3.06852 8.06046C2.10931 9.40757 2.97996 11.282 2.60446 17.0389C2.40913 20.0385 1.58012 23.6582 1.14632 26.4831C0.813969 28.6477 1.60661 31.4566 1.85644 32.4413Z" fill="#ED6503" stroke="#707070"/>
<path d="M17.999 16.9681C18.8137 16.4394 19.637 16.1751 20.469 16.1751C21.2837 16.1751 21.8947 16.4134 22.302 16.8901C22.6573 17.3061 22.835 17.8608 22.835 18.5541C22.835 19.1001 22.6963 19.6331 22.419 20.1531C22.1677 20.5951 21.7257 21.1931 21.093 21.9471L19.26 24.0271L18.727 24.6771H22.991V25.0411L22.536 25.6001H17.557V24.6641L18.545 23.4811L20.547 21.1541C20.9457 20.6774 21.2273 20.2788 21.392 19.9581C21.6173 19.5248 21.73 19.1044 21.73 18.6971C21.73 18.2464 21.5957 17.8824 21.327 17.6051C21.0583 17.3278 20.6987 17.1891 20.248 17.1891C19.7193 17.1891 19.169 17.3928 18.597 17.8001L17.999 16.9681Z" fill="black"/>
</svg>
