<svg width="33" height="32" viewBox="0 0 33 32" fill="none" xmlns="http://www.w3.org/2000/svg">
<path d="M15.9209 31.5592C13.9199 31.5592 11.9788 31.1599 10.1517 30.3725C8.38603 29.6115 6.80005 28.5218 5.43782 27.1337C4.07492 25.745 3.00485 24.1277 2.25732 22.3268C1.48321 20.4618 1.0907 18.4805 1.0907 16.4377C1.0907 14.529 1.49705 12.6641 2.29844 10.8948C3.0288 9.28226 4.11137 7.69616 5.51609 6.1805C8.4186 3.0436 12.1137 1.31616 15.9209 1.31616C18.1061 1.31616 20.6669 1.37669 23.0917 1.82566C25.8272 2.33216 27.8404 3.25751 29.0753 4.57603C29.2152 4.72508 29.3595 4.87607 29.4992 5.02208C30.6622 6.23848 31.8648 7.49629 32.3507 9.50803C32.9121 11.8325 32.42 14.851 30.8464 18.7358L30.8292 18.7782L30.8224 18.8234C30.4287 21.4497 29.8225 23.5685 28.9693 25.3009C28.1638 26.9364 27.152 28.1946 25.8762 29.1475C23.6429 30.8154 20.5726 31.5592 15.9209 31.5592Z" fill="#ED6503"/>
<path d="M15.9206 1.70369C12.2239 1.70369 8.6309 3.38662 5.80297 6.44294C4.42667 7.92792 3.36725 9.47919 2.65411 11.0537C1.87551 12.7727 1.48073 14.5841 1.48073 16.4375C1.48073 18.4293 1.86333 20.3609 2.61788 22.1788C3.34634 23.9337 4.38904 25.5097 5.71703 26.8628C8.44363 29.6412 12.0673 31.1713 15.9206 31.1713C20.4822 31.1713 23.4802 30.4515 25.6415 28.8373C26.8669 27.9221 27.8407 26.7095 28.6185 25.1302C29.4539 23.4341 30.0484 21.3524 30.4362 18.7661L30.4497 18.6756L30.4841 18.5908C32.0264 14.7833 32.5128 11.8418 31.971 9.59828C31.5095 7.68769 30.3436 6.46822 29.216 5.2889C29.0757 5.14225 28.9308 4.9906 28.7894 4.83995C27.6126 3.58355 25.6715 2.69756 23.02 2.20662C20.6264 1.76343 18.088 1.70369 15.9206 1.70369ZM15.9206 0.928223C20.2497 0.928223 26.4244 1.17656 29.3608 4.31169C31.8058 6.9171 35.0185 9.4738 31.2082 18.8803C29.5917 29.6634 24.3267 31.9468 15.9206 31.9468C7.51463 31.9468 0.700195 25.003 0.700195 16.4375C0.700195 12.3175 2.50301 8.85868 5.22877 5.91766C7.85012 3.08461 11.5579 0.928223 15.9206 0.928223Z" fill="#707070"/>
<path d="M9.806 11.394C10.6293 10.8567 11.4613 10.588 12.302 10.588C13.1427 10.588 13.784 10.835 14.226 11.329C14.616 11.7537 14.811 12.3213 14.811 13.032C14.811 13.5607 14.6853 14.0807 14.434 14.592C14.1827 15.1033 13.745 15.7403 13.121 16.503C12.419 17.3523 12.029 17.816 11.951 17.894L11.184 18.674H14.993V19.194L14.343 20H9.416V18.674L10.378 17.686L11.314 16.62C12.0333 15.8227 12.497 15.2723 12.705 14.969C13.147 14.3363 13.368 13.7773 13.368 13.292C13.368 12.9107 13.2423 12.603 12.991 12.369C12.7483 12.1263 12.4277 12.005 12.029 12.005C11.561 12.005 11.0843 12.174 10.599 12.512L9.806 11.394ZM17.9591 15.203C16.8758 14.553 16.3341 13.7383 16.3341 12.759C16.3341 11.9617 16.6331 11.368 17.2311 10.978C17.6905 10.6747 18.2798 10.523 18.9991 10.523C19.7965 10.523 20.4378 10.7353 20.9231 11.16C21.3911 11.5673 21.6251 12.1047 21.6251 12.772C21.6251 13.6993 21.0791 14.5053 19.9871 15.19C20.6371 15.5107 21.1051 15.827 21.3911 16.139C21.7898 16.581 21.9891 17.1097 21.9891 17.725C21.9891 18.3923 21.7465 18.947 21.2611 19.389C20.6891 19.909 19.9221 20.169 18.9601 20.169C18.0675 20.169 17.3395 19.9393 16.7761 19.48C16.2301 19.038 15.9571 18.4443 15.9571 17.699C15.9571 16.737 16.6245 15.905 17.9591 15.203ZM19.0251 14.579C19.7011 14.1197 20.0391 13.5087 20.0391 12.746C20.0391 12.018 19.6881 11.654 18.9861 11.654C18.6655 11.6627 18.4098 11.758 18.2191 11.94C18.0198 12.148 17.9201 12.4253 17.9201 12.772C17.9201 13.11 18.0068 13.4307 18.1801 13.734C18.3535 14.046 18.6351 14.3277 19.0251 14.579ZM18.9861 15.762C18.4575 16.0393 18.0848 16.3123 17.8681 16.581C17.6601 16.8497 17.5561 17.1833 17.5561 17.582C17.5561 18.4573 18.0328 18.895 18.9861 18.895C19.9568 18.895 20.4421 18.4617 20.4421 17.595C20.4421 16.8757 19.9568 16.2647 18.9861 15.762Z" fill="black"/>
</svg>
