<svg width="46" height="42" viewBox="0 0 46 42" fill="none" xmlns="http://www.w3.org/2000/svg">
<path d="M23.9427 5.10451C23.9425 5.10458 23.9429 5.10444 23.9427 5.10451C25.3068 4.60562 26.457 4.34857 27.2686 4.36125C30.9127 4.41613 33.8735 6.53307 35.7157 8.29929C37.8592 10.3543 39.6812 13.0788 40.5898 15.5872C42.0921 19.7346 42.2431 25.5787 39.194 29.2856C37.9136 30.8451 36.0756 31.7366 33.5248 32.6695C33.0586 32.84 32.5836 33.0074 32.0808 33.1846C31.5563 33.3695 31.0139 33.5606 30.459 33.7636C25.4732 35.5871 23.4431 36.0201 18.6601 35.5926L18.4726 35.5759C15.7805 35.3363 14.2976 35.2043 12.8882 34.5687C11.441 33.916 10.0027 32.6742 7.69592 30.4654C5.94747 28.2959 5.23207 26.1813 5.50912 24.0015C5.74874 22.1161 6.66832 20.3943 7.75568 18.4994C9.51197 15.4355 11.6404 12.8647 14.0819 10.8585C16.9428 8.50765 20.8136 6.24897 23.9427 5.10451Z" fill="#ED6503"/>
<path d="M24.072 5.46118C20.9795 6.59221 17.1523 8.82598 14.3217 11.152C11.9158 13.1289 9.81718 15.6644 8.08382 18.6884C7.01718 20.5471 6.11549 22.2334 5.88474 24.0489C5.75947 25.0345 5.84221 25.9767 6.13769 26.9294C6.46972 27.9999 7.0879 29.1026 7.97539 30.2076C10.2407 32.376 11.6503 33.5939 13.0441 34.2225C14.3953 34.8318 15.8557 34.9618 18.5068 35.1978L18.6944 35.2145C23.4038 35.6354 25.4066 35.2076 30.3298 33.407C30.8869 33.2033 31.4303 33.0117 31.9559 32.8265C32.4576 32.6497 32.9316 32.4826 33.3957 32.3129C35.8864 31.4019 37.6763 30.5375 38.9022 29.0443C40.2301 27.4299 41.0287 25.2312 41.2115 22.686C41.3766 20.3883 41.0294 17.9135 40.234 15.7174C39.3443 13.2611 37.5574 10.5906 35.4539 8.57395C33.6606 6.8546 30.7838 4.79393 27.2621 4.74089C26.4963 4.72892 25.393 4.97803 24.072 5.46118ZM23.8137 4.74778C25.1763 4.24943 26.3805 3.96762 27.2753 3.9816C33.9276 4.08179 39.2727 10.8377 40.9459 15.457C42.5391 19.8558 42.5619 25.7874 39.4861 29.5269C37.523 31.918 34.3597 32.741 30.5882 34.1204C25.5457 35.9646 23.4607 36.403 18.6259 35.9708C13.0425 35.4734 12.364 35.4621 7.41667 30.7235C3.34334 25.6858 5.39797 21.8474 7.4276 18.3105C9.51046 14.6768 11.7993 12.2438 13.8423 10.565C16.8094 8.12684 20.7203 5.87916 23.8137 4.74778Z" fill="#707070"/>
<path d="M21.5418 13.9217V22.5277L20.7358 23.2297H19.9558V15.7287L18.4478 17.0027L17.6938 16.0537L20.2158 13.9217H21.5418ZM23.2508 14.6237C24.0742 14.0864 24.9062 13.8177 25.7468 13.8177C26.5875 13.8177 27.2288 14.0647 27.6708 14.5587C28.0608 14.9834 28.2558 15.5511 28.2558 16.2617C28.2558 16.7904 28.1302 17.3104 27.8788 17.8217C27.6275 18.3331 27.1898 18.9701 26.5658 19.7327C25.8638 20.5821 25.4738 21.0457 25.3958 21.1237L24.6288 21.9037H28.4378V22.4237L27.7878 23.2297H22.8608V21.9037L23.8228 20.9157L24.7588 19.8497C25.4782 19.0524 25.9418 18.5021 26.1498 18.1987C26.5918 17.5661 26.8128 17.0071 26.8128 16.5217C26.8128 16.1404 26.6872 15.8327 26.4358 15.5987C26.1932 15.3561 25.8725 15.2347 25.4738 15.2347C25.0058 15.2347 24.5292 15.4037 24.0438 15.7417L23.2508 14.6237Z" fill="black"/>
</svg>
