<svg width="41" height="43" viewBox="0 0 41 43" fill="none" xmlns="http://www.w3.org/2000/svg">
<path d="M13.6651 36.6897C10.8206 35.2501 8.41091 32.3767 7.21912 29.0032C6.57836 27.1894 6.30296 25.3115 6.40057 23.4215C6.50698 21.3612 7.05813 19.3473 8.03868 17.4359C8.75932 16.0312 10.1606 14.5139 12.2036 12.9262C13.9376 11.5787 15.8529 10.3839 17.6644 9.29352C22.0081 6.67579 25.5691 5.27067 28.8307 6.92135C30.3605 7.69557 31.344 9.01007 31.926 11.0582C32.418 12.7894 32.6226 14.9846 32.6101 18.3985C32.6091 18.7205 32.6098 18.9864 32.6103 19.2123C32.6132 20.4543 32.6132 20.4543 32.3 22.0909C32.0612 23.339 31.6178 25.6565 30.8482 30.2676C30.81 30.3557 30.7671 30.4818 30.7031 30.6697C30.4566 31.3941 29.9436 32.9014 29.1918 34.4538C28.2752 36.3464 27.3284 37.6375 26.3779 38.2913C24.9158 39.2988 22.7921 39.5332 20.0655 38.9883C17.3929 38.4542 14.9083 37.3189 13.6651 36.6897Z" fill="#ED6503"/>
<path d="M28.6534 7.2664C27.1933 6.52747 25.6515 6.40061 23.801 6.86716C22.1851 7.27457 20.3549 8.12494 17.8664 9.62466C16.0652 10.7088 14.1617 11.8961 12.4438 13.2311C10.446 14.7837 9.08084 16.2574 8.38625 17.6114C7.43078 19.4739 6.8938 21.4352 6.79022 23.4407C6.69522 25.2801 6.96339 27.1081 7.58726 28.8741C8.74666 32.1558 11.085 34.9482 13.8423 36.3437C17.933 38.414 23.3158 39.9291 26.1559 37.972C27.0375 37.3657 27.9657 36.0908 28.8401 34.2854C29.5816 32.7545 30.0894 31.2623 30.3335 30.5452C30.3844 30.3956 30.4266 30.2714 30.4693 30.1671C31.2358 25.5763 31.6782 23.2645 31.9167 22.0182C32.2229 20.4179 32.2229 20.4179 32.22 19.213C32.2195 18.9864 32.2189 18.7199 32.2199 18.3969C32.2322 15.0211 32.032 12.8578 31.5504 11.1633C31.0001 9.22642 30.0795 7.98817 28.6534 7.2664ZM29.0079 6.57531C32.4464 8.31555 33.0215 12.5652 33.0003 18.3992C32.9891 21.9493 33.1787 18.6645 31.2211 30.4019C31.2212 30.1371 29.4476 36.651 26.5998 38.6096C23.0882 41.0294 16.8514 38.7372 13.4878 37.0348C7.72814 34.1199 3.48128 25.4656 7.691 17.2595C9.39173 13.9443 14.1259 10.9697 17.4623 8.96142C21.8933 6.29104 25.5752 4.83799 29.0079 6.57531Z" fill="#707070"/>
<path d="M14.806 17.394C15.6293 16.8567 16.4613 16.588 17.302 16.588C18.1427 16.588 18.784 16.835 19.226 17.329C19.616 17.7537 19.811 18.3213 19.811 19.032C19.811 19.5607 19.6853 20.0807 19.434 20.592C19.1827 21.1033 18.745 21.7403 18.121 22.503C17.419 23.3523 17.029 23.816 16.951 23.894L16.184 24.674H19.993V25.194L19.343 26H14.416V24.674L15.378 23.686L16.314 22.62C17.0333 21.8227 17.497 21.2723 17.705 20.969C18.147 20.3363 18.368 19.7773 18.368 19.292C18.368 18.9107 18.2423 18.603 17.991 18.369C17.7483 18.1263 17.4277 18.005 17.029 18.005C16.561 18.005 16.0843 18.174 15.599 18.512L14.806 17.394ZM26.7031 16.692V17.81L23.7521 25.298L22.8941 26H21.7761L24.9871 18.096H20.8011V16.692H26.7031Z" fill="black"/>
</svg>
