<svg width="49" height="43" viewBox="0 0 49 43" fill="none" xmlns="http://www.w3.org/2000/svg">
<path d="M21.5569 7.06931L21.5579 7.06895C25.1911 5.74025 29.3027 4.97658 31.1786 5.00589C32.6968 5.02875 34.1733 5.38268 35.5675 6.05783C36.8173 6.66311 38.0088 7.52873 39.1088 8.63065C40.9428 10.4677 42.5353 13.014 43.478 15.6167C44.2313 17.6963 44.4042 20.2531 43.9649 22.8161C43.5215 25.4031 42.4858 27.7901 41.0486 29.5374C39.4685 31.4619 37.7835 32.1754 35.1961 33.1217C34.9221 33.2219 34.6382 33.3244 34.3435 33.4309C34.0245 33.5461 33.6928 33.6659 33.3475 33.7922C28.3204 35.6308 21.07 35.7945 16.3887 35.3761C10.8181 34.8797 7.52273 33.0165 6.31416 29.6799C5.72151 28.0436 5.58772 26.0816 5.92727 24.0058C6.24437 22.0672 6.95313 20.0995 7.97689 18.3155C9.9537 14.8669 13.3691 12.0645 15.4097 10.3901L15.6252 10.2132C17.0233 9.06441 19.0746 7.97716 21.5569 7.06931Z" fill="#ED6503"/>
<path d="M21.6863 7.42619C19.2436 8.31961 17.2306 9.38492 15.8652 10.507L15.6495 10.684C13.629 12.3418 10.2474 15.1165 8.30525 18.5047C7.30397 20.2495 6.61096 22.1729 6.30115 24.0669C5.97208 26.0787 6.09973 27.9747 6.67032 29.55C7.82365 32.7341 11.0138 34.5163 16.4233 34.9982C21.0658 35.4132 28.2502 35.2531 33.2187 33.4359C33.5645 33.3094 33.8966 33.1894 34.216 33.074C34.5103 32.9678 34.7937 32.8654 35.0672 32.7654C37.5942 31.8412 39.2381 31.1465 40.757 29.2964C42.1529 27.5994 43.1597 25.2755 43.5921 22.7528C44.0204 20.2537 43.8536 17.7657 43.1225 15.7471C42.198 13.1948 40.6376 10.699 38.8414 8.89973C37.7713 7.82782 36.6143 6.98679 35.4026 6.39999C34.0584 5.74901 32.6353 5.40777 31.1724 5.38574C29.3308 5.35697 25.279 6.11234 21.6863 7.42619ZM21.429 6.71251C25.267 5.30892 29.3468 4.59776 31.1855 4.62648C37.8376 4.72666 42.1612 10.8677 43.8343 15.4868C45.4275 19.8853 44.4166 26.0397 41.3408 29.779C39.3779 32.17 37.2484 32.7699 33.4771 34.1492C28.4348 35.9934 21.1894 36.1868 16.3547 35.7546C10.7716 35.2571 7.24704 33.3678 5.9585 29.8104C4.65498 26.2116 5.6195 21.6635 7.64905 18.1268C9.73184 14.4933 13.3429 11.5987 15.3858 9.91996C16.9742 8.61478 19.159 7.54266 21.429 6.71251Z" fill="#707070"/>
<path d="M22.8663 14.0338V22.8478L22.3073 23.3418H21.7613V15.3598L20.1493 16.7118L19.5643 15.9838L21.8783 14.0338H22.8663ZM24.9394 14.1768C25.5027 14.0035 25.9621 13.9168 26.3174 13.9168C27.1841 13.9168 27.8774 14.1421 28.3974 14.5928C28.8914 15.0261 29.1384 15.6068 29.1384 16.3348C29.1384 17.5568 28.5967 18.2891 27.5134 18.5318C28.1374 18.6358 28.6271 18.9001 28.9824 19.3248C29.3464 19.7495 29.5284 20.2738 29.5284 20.8978C29.5284 21.7991 29.1774 22.4838 28.4754 22.9518C27.9381 23.3071 27.2664 23.4848 26.4604 23.4848C25.9404 23.4848 25.4204 23.4111 24.9004 23.2638L24.4844 22.7438V22.3408C25.0824 22.4708 25.6067 22.5358 26.0574 22.5358C27.6261 22.5358 28.4104 22.0071 28.4104 20.9498C28.4104 20.3778 28.1721 19.8968 27.6954 19.5068C27.4267 19.2901 27.1407 19.1428 26.8374 19.0648C26.5427 18.9781 26.1051 18.9305 25.5244 18.9218V18.0768H26.6294C27.0454 18.0768 27.3834 17.9425 27.6434 17.6738C27.9121 17.3965 28.0464 17.0411 28.0464 16.6078C28.0464 16.0965 27.8774 15.6935 27.5394 15.3988C27.2014 15.0955 26.7421 14.9438 26.1614 14.9438C25.8754 14.9438 25.4681 15.0001 24.9394 15.1128V14.1768Z" fill="black"/>
</svg>
