<svg width="26" height="35" viewBox="0 0 26 35" fill="none" xmlns="http://www.w3.org/2000/svg">
<path d="M17.5039 33.9308C13.6044 33.9308 9.40894 33.3748 6.28095 32.4435C4.52091 31.9195 3.12815 31.2949 2.14137 30.5869C1.10471 29.8431 0.548106 29.025 0.487037 28.1553C0.30639 25.5827 1.19508 20.5718 2.69844 15.6863C3.51257 13.0406 4.47615 10.5324 5.48498 8.43288C6.62623 6.05779 7.81368 4.20502 9.01433 2.92605C10.2626 1.59634 11.4975 0.922119 12.6848 0.922119C12.7189 0.922119 12.752 0.922646 12.7862 0.92374C15.7455 1.01859 17.6172 2.11539 19.0445 4.59115C20.4583 7.04342 21.3988 10.7077 22.7006 15.7793C22.9883 16.9001 23.2856 18.0587 23.6112 19.2943C23.6187 19.3597 23.6366 19.4297 23.6566 19.508C23.6853 19.6206 23.7283 19.7802 23.7827 19.9822C24.1 21.1601 24.7602 23.6112 25.1558 26.1531C25.6303 29.202 25.5523 31.3841 24.9303 32.4634C24.5101 33.1939 22.051 33.9308 17.5039 33.9308Z" fill="#ED6503"/>
<path d="M12.6852 1.30989C11.6106 1.30989 10.4717 1.94264 9.30019 3.19055C8.1267 4.44058 6.96173 6.26057 5.83763 8.59997C4.83699 10.6824 3.88069 13.1721 3.07211 15.7997C1.5814 20.6442 0.699174 25.5986 0.876817 28.1283C0.983251 29.6441 2.94243 31.0447 6.39343 32.0722C9.4871 32.9932 13.6407 33.5431 17.5043 33.5431C19.4473 33.5431 21.1632 33.4031 22.4664 33.1384C24.2566 32.7748 24.5627 32.3219 24.592 32.2708C24.9949 31.5719 25.3528 29.9535 24.7706 26.2124C24.3782 23.6912 23.7217 21.2538 23.4062 20.0824C23.3514 19.8791 23.3081 19.7184 23.2787 19.6033C23.2612 19.5344 23.2416 19.4578 23.2297 19.3757C22.9055 18.1453 22.6094 16.9915 22.3229 15.8752C21.0287 10.8333 20.0937 7.19038 18.7063 4.7839C18.0316 3.61352 17.2625 2.77894 16.3552 2.23246C15.4036 1.65936 14.2322 1.35805 12.774 1.31131C12.7441 1.31035 12.7151 1.30989 12.6852 1.30989ZM12.6852 0.534424C12.7236 0.534424 12.7608 0.535015 12.7992 0.536249C19.958 0.765707 20.697 6.70787 23.9993 19.2346C23.9105 19.2346 27.1439 29.4037 25.2694 32.6561C24.6393 33.7517 21.4302 34.3185 17.5043 34.3185C10.193 34.3185 0.391145 32.3545 0.0981704 28.1823C-0.349711 21.8042 5.57749 0.534424 12.6852 0.534424Z" fill="#707070"/>
<path d="M6.63217 13.4775C7.45551 12.9402 8.28751 12.6715 9.12817 12.6715C9.96884 12.6715 10.6102 12.9185 11.0522 13.4125C11.4422 13.8372 11.6372 14.4048 11.6372 15.1155C11.6372 15.6442 11.5115 16.1642 11.2602 16.6755C11.0088 17.1868 10.5712 17.8238 9.94717 18.5865C9.24517 19.4358 8.85517 19.8995 8.77717 19.9775L8.01017 20.7575H11.8192V21.2775L11.1692 22.0835H6.24217V20.7575L7.20417 19.7695L8.14017 18.7035C8.85951 17.9062 9.32317 17.3558 9.53117 17.0525C9.97317 16.4198 10.1942 15.8608 10.1942 15.3755C10.1942 14.9942 10.0685 14.6865 9.81717 14.4525C9.57451 14.2098 9.25384 14.0885 8.85517 14.0885C8.38717 14.0885 7.91051 14.2575 7.42517 14.5955L6.63217 13.4775ZM16.9043 12.7755V14.1015H14.0443L13.9143 16.4285C14.2003 16.3852 14.4343 16.3635 14.6163 16.3635C15.6043 16.3635 16.367 16.6755 16.9043 17.2995C17.3636 17.8368 17.5933 18.5432 17.5933 19.4185C17.5933 20.3545 17.2423 21.0738 16.5403 21.5765C15.977 21.9752 15.2663 22.1745 14.4083 22.1745C13.845 22.1745 13.2903 22.1052 12.7443 21.9665L12.2373 21.3555V20.7445C12.8353 20.8658 13.3553 20.9265 13.7973 20.9265C14.5686 20.9265 15.1146 20.8225 15.4353 20.6145C15.8166 20.3718 16.0073 19.9472 16.0073 19.3405C16.0073 18.7252 15.847 18.2832 15.5263 18.0145C15.2056 17.7458 14.6813 17.6115 13.9533 17.6115C13.65 17.6115 13.1733 17.6462 12.5233 17.7155C12.4366 17.7242 12.363 17.7328 12.3023 17.7415L12.5753 12.7755H16.9043Z" fill="black"/>
</svg>
