<svg width="50" height="46" viewBox="0 0 50 46" fill="none" xmlns="http://www.w3.org/2000/svg">
<path d="M7.14706 29.8847C6.34617 28.0982 6.21339 26.0312 6.7524 23.7412C7.24497 21.6485 8.31929 19.3705 9.8592 17.1535C11.3232 15.0459 13.1961 13.0018 15.2756 11.2421C17.3509 9.48594 19.5793 8.05737 21.7199 7.11082C23.8271 6.17903 25.9617 5.67439 28.0645 5.61091C30.0648 5.55052 31.999 5.88874 33.8135 6.61616C37.3836 8.04744 40.287 10.9264 41.9888 14.7226C43.6586 18.4473 43.727 22.9303 42.1765 27.022C41.3969 29.0795 40.2584 30.9325 38.7928 32.5295C37.246 34.2149 35.3992 35.5392 33.3037 36.4658C29.1034 38.3232 23.461 38.6941 18.2102 37.4581C15.6348 36.8519 13.2831 35.8746 11.4092 34.6319C9.39408 33.2956 7.96011 31.6984 7.14706 29.8847Z" fill="#ED6503"/>
<path d="M41.6325 14.8804C39.9721 11.1766 37.1435 8.36941 33.6678 6.97598C31.9038 6.26878 30.0227 5.93998 28.0767 5.99874C26.0248 6.06068 23.9396 6.55411 21.8789 7.46534C17.5917 9.36106 13.1092 13.1579 10.1805 17.3742C8.66809 19.5516 7.61411 21.784 7.13254 23.8299C6.61336 26.0357 6.73822 28.0198 7.50366 29.7273C8.28619 31.4729 9.67307 33.0146 11.6258 34.3096C13.4615 35.5269 15.7694 36.4853 18.3 37.0809C23.4706 38.298 29.0201 37.9357 33.145 36.1117C35.1911 35.207 36.9942 33.9139 38.5045 32.2683C39.9367 30.7078 41.0493 28.8967 41.8115 26.8854C43.326 22.8883 43.2608 18.5127 41.6325 14.8804ZM42.3454 14.5652C45.8543 22.3926 42.3213 32.9032 33.4627 36.8203C24.6041 40.7375 10.2997 37.8699 6.79078 30.0425C3.28184 22.2151 12.7026 10.6739 21.5612 6.7567C30.4198 2.83954 38.8365 6.73782 42.3454 14.5652Z" fill="#707070"/>
<path d="M19.806 17.394C20.6293 16.8567 21.4613 16.588 22.302 16.588C23.1427 16.588 23.784 16.835 24.226 17.329C24.616 17.7537 24.811 18.3213 24.811 19.032C24.811 19.5607 24.6853 20.0807 24.434 20.592C24.1827 21.1033 23.745 21.7403 23.121 22.503C22.419 23.3523 22.029 23.816 21.951 23.894L21.184 24.674H24.993V25.194L24.343 26H19.416V24.674L20.378 23.686L21.314 22.62C22.0333 21.8227 22.497 21.2723 22.705 20.969C23.147 20.3363 23.368 19.7773 23.368 19.292C23.368 18.9107 23.2423 18.603 22.991 18.369C22.7483 18.1263 22.4277 18.005 22.029 18.005C21.561 18.005 21.0843 18.174 20.599 18.512L19.806 17.394ZM30.3121 21.658C30.1041 21.918 29.8831 22.1217 29.6491 22.269C29.3025 22.4857 28.8995 22.594 28.4401 22.594C27.5735 22.594 26.9105 22.2777 26.4511 21.645C26.0785 21.1337 25.8921 20.488 25.8921 19.708C25.8921 18.7027 26.1608 17.9183 26.6981 17.355C27.1921 16.835 27.8681 16.575 28.7261 16.575C30.7108 16.575 31.7031 18.0267 31.7031 20.93C31.7031 22.0047 31.6078 22.867 31.4171 23.517C31.2351 24.167 30.9275 24.713 30.4941 25.155C29.8788 25.779 29.0728 26.091 28.0761 26.091C27.8421 26.091 27.5345 26.0563 27.1531 25.987L26.6461 25.363V24.752C26.9755 24.8213 27.3048 24.856 27.6341 24.856C28.6048 24.856 29.2808 24.6263 29.6621 24.167C30.0521 23.7077 30.2688 22.8713 30.3121 21.658ZM30.1171 19.773C30.1171 18.5337 29.6795 17.914 28.8041 17.914C28.3968 17.914 28.0675 18.0743 27.8161 18.395C27.5735 18.7157 27.4521 19.1403 27.4521 19.669C27.4521 20.1543 27.5735 20.553 27.8161 20.865C28.0588 21.177 28.3665 21.333 28.7391 21.333C29.1378 21.333 29.4671 21.1857 29.7271 20.891C29.9871 20.5963 30.1171 20.2237 30.1171 19.773Z" fill="black"/>
</svg>
