<svg width="32" height="37" viewBox="0 0 32 37" fill="none" xmlns="http://www.w3.org/2000/svg">
<path d="M19.531 35.9593C17.9215 35.9593 15.9674 35.5561 13.8799 34.7934C11.7559 34.0174 9.64342 32.9216 7.77078 31.6245C5.75549 30.2285 4.07934 28.6322 2.92352 27.0081C1.63156 25.1928 0.976494 23.3582 0.976494 21.5555C0.976494 21.1823 0.961073 20.9249 0.947468 20.6978C0.903762 19.9682 0.883813 19.6353 1.61583 16.5797C1.74029 16.0602 1.8619 15.5331 1.97952 15.0234C2.77858 11.5606 3.53333 8.28979 5.36618 6.15692C7.50568 3.6672 9.0547 2.54247 11.3345 1.22446C12.1654 0.743227 13.2758 0.519165 14.8293 0.519165C15.4753 0.519165 16.1076 0.555597 16.719 0.590836C17.2469 0.62125 17.7454 0.649978 18.1867 0.649978C19.7543 0.649978 24.0308 3.4851 25.9438 6.13187C26.5174 6.92512 27.1438 8.39352 27.7496 9.81358C28.4055 11.3511 28.9752 12.6866 29.5033 13.2839C29.6482 13.6926 29.7817 14.0604 29.911 14.4168C30.8411 16.9794 31.2655 18.149 31.2655 21.9032C31.2655 25.6698 30.0371 29.2081 27.8067 31.8663C25.592 34.5057 22.6529 35.9593 19.531 35.9593Z" fill="#ED6503"/>
<path d="M14.8293 0.898949C13.345 0.898949 12.2947 1.10685 11.5235 1.55353C9.28063 2.85018 7.75686 3.9565 5.65287 6.40492C3.88105 8.46677 3.13655 11.6932 2.34832 15.109C2.23054 15.6195 2.10874 16.1473 1.98391 16.6684C1.26509 19.6689 1.28398 19.9841 1.32536 20.6749C1.33859 20.8959 1.35507 21.1708 1.35507 21.5553C1.35507 23.2773 1.98641 25.0376 3.23158 26.7872C4.36222 28.3759 6.00621 29.9405 7.98583 31.3117C9.83235 32.5907 11.9153 33.6712 14.0094 34.4363C16.0559 35.1841 17.9652 35.5793 19.531 35.5793C25.7927 35.5793 30.887 29.4442 30.887 21.9031C30.887 18.2159 30.4697 17.0661 29.5554 14.5467C29.4328 14.2089 29.3065 13.8609 29.1702 13.4772C28.6154 12.8084 28.0497 11.4822 27.4016 9.96298C26.8041 8.56217 26.1862 7.11368 25.6374 6.35482C24.7805 5.16928 23.3102 3.80112 21.7043 2.69497C20.0343 1.54466 18.7343 1.02976 18.1868 1.02976C17.7346 1.02976 17.2308 1.00073 16.6974 0.969996C16.0912 0.935068 15.4644 0.898949 14.8293 0.898949ZM14.8293 0.13916C16.0567 0.13916 17.2607 0.269972 18.1868 0.269972C19.9255 0.269972 24.2827 3.18656 26.2502 5.9087C27.4725 7.59895 28.8626 12.0824 29.834 13.083C31.0659 16.5673 31.6441 17.534 31.6441 21.9031C31.6441 29.8759 26.2209 36.3391 19.531 36.3391C12.8411 36.3391 0.597997 29.5281 0.597997 21.5553C0.597997 19.9265 0.289885 20.4894 1.24782 16.4908C2.20575 12.4922 2.90384 8.44058 5.07955 5.9087C7.25527 3.37683 8.84914 2.2228 11.1456 0.895163C12.1961 0.286727 13.5259 0.13916 14.8293 0.13916Z" fill="#707070"/>
<path d="M14.5804 15.4634C15.135 14.7441 15.7894 14.3844 16.5434 14.3844C17.4187 14.3844 18.086 14.7008 18.5454 15.3334C18.9094 15.8448 19.0914 16.4904 19.0914 17.2704C19.0914 18.2238 18.8184 18.9778 18.2724 19.5324C17.7697 20.0264 17.111 20.2734 16.2964 20.2734C14.4504 20.2734 13.5274 19.0601 13.5274 16.6334V16.1394C13.5274 14.5621 13.8394 13.2794 14.4634 12.2914C15.1307 11.2254 16.0927 10.6924 17.3494 10.6924C17.5054 10.6924 17.696 10.7011 17.9214 10.7184L18.3634 11.2644V11.6674C18.0167 11.6154 17.7307 11.5894 17.5054 11.5894C15.8327 11.5894 14.8577 12.8808 14.5804 15.4634ZM17.9734 17.2184C17.9734 16.6724 17.826 16.2218 17.5314 15.8664C17.2454 15.5024 16.877 15.3204 16.4264 15.3204C15.941 15.3204 15.4947 15.5241 15.0874 15.9314C14.732 16.2868 14.5544 16.6724 14.5544 17.0884C14.5544 17.7298 14.719 18.2584 15.0484 18.6744C15.369 19.0731 15.7937 19.2724 16.3224 19.2724C16.8077 19.2724 17.202 19.0861 17.5054 18.7134C17.8174 18.3321 17.9734 17.8338 17.9734 17.2184Z" fill="black"/>
</svg>
