<svg width="50" height="52" viewBox="0 0 50 52" fill="none" xmlns="http://www.w3.org/2000/svg">
<path d="M29.0835 51.1585C26.2033 51.1585 23.4358 49.5482 19.932 47.5096C18.5426 46.7012 17.1059 45.8653 15.4828 45.0195L15.4695 45.0126L15.4558 45.0068C9.8355 42.6204 3.81411 39.5491 1.76796 34.8638C0.952349 32.9983 1.1103 30.0019 1.24966 27.3583C1.30143 26.3762 1.35037 25.4478 1.35178 24.6008C2.0417 21.0848 2.26222 18.8211 2.43953 17.0008C2.69106 14.4189 2.84287 12.8604 4.11871 9.99478C5.06849 7.85742 7.13677 5.33156 9.14851 3.8521C9.25426 3.77583 10.6323 3.00274 12.8454 2.23138C14.7393 1.57129 17.6451 0.784424 20.7332 0.784424C21.7712 0.784424 22.7782 0.873395 23.7263 1.04887C25.9642 1.46286 28.0146 2.22272 30.3748 3.51266C32.5768 4.71614 34.8388 6.25976 37.7026 8.21405C38.6056 8.83027 39.5392 9.46738 40.5463 10.1451C44.1547 13.1175 46.4758 15.867 47.6425 18.5508C48.6414 20.8485 48.6405 22.7461 48.6397 24.4203L48.6396 24.5636C48.6396 29.2943 47.8462 34.7622 46.6183 38.4938C46.0233 40.3037 45.1456 42.0087 44.0094 43.5615C42.8874 45.0949 41.5398 46.4444 40.0041 47.5725C38.4503 48.7138 36.7406 49.6011 34.9226 50.2097C33.0416 50.8392 31.077 51.1585 29.0835 51.1585Z" fill="#ED6503"/>
<path d="M20.7332 1.16433C17.7262 1.16433 14.8903 1.92633 13.0407 2.56556C10.8813 3.31191 9.51406 4.06576 9.36629 4.16288C7.4041 5.60781 5.38914 8.06841 4.46424 10.1498C3.21355 12.9589 3.06399 14.4942 2.81621 17.0378C2.6387 18.8599 2.41802 21.125 1.73016 24.6383C1.72742 25.4849 1.67889 26.4054 1.6276 27.3784C1.49047 29.9798 1.33504 32.9283 2.11459 34.7113C4.10745 39.2746 10.0515 42.2997 15.6032 44.6569L15.6307 44.6686L15.6571 44.6823C17.2881 45.5322 18.7286 46.3704 20.1218 47.181C23.5763 49.191 26.305 50.7786 29.0834 50.7786C32.9531 50.7786 36.6521 49.5639 39.7805 47.2659C41.2849 46.1608 42.6051 44.8388 43.7042 43.3366C44.8168 41.8161 45.6763 40.1467 46.2588 38.3747C47.4751 34.6784 48.261 29.2572 48.261 24.5636L48.2611 24.4201C48.2627 21.1136 48.265 16.9996 40.3202 10.4504C39.3178 9.77579 38.3886 9.14165 37.4896 8.52819C34.6345 6.57978 32.3793 5.04082 30.1937 3.84629C27.8702 2.5764 25.8544 1.82887 23.6576 1.42247C22.7321 1.25118 21.7482 1.16433 20.7332 1.16433ZM20.7332 0.404541C21.7449 0.404541 22.7723 0.486026 23.7949 0.675277C29.4129 1.71459 33.3908 4.87311 40.7722 9.83982C49.1378 16.7259 49.0181 21.1358 49.0181 24.5636C49.0181 28.8059 48.3358 34.4856 46.9777 38.6129C44.5202 46.0886 37.3998 51.5384 29.0834 51.5384C24.9568 51.5384 21.1319 48.3913 15.3083 45.3566C9.48464 42.884 3.50303 39.7834 1.4212 35.0163C0.262654 32.3664 0.973209 27.7611 0.973209 24.5636C2.6531 16.0215 1.56086 14.8085 3.77303 9.83982C4.77882 7.57643 6.93419 5.00953 8.92469 3.54568C9.27607 3.28706 14.7183 0.404541 20.7332 0.404541Z" fill="#707070"/>
<path d="M21.9379 17.6466C22.5013 17.4733 22.9606 17.3866 23.3159 17.3866C24.1826 17.3866 24.8759 17.612 25.3959 18.0626C25.8899 18.496 26.1369 19.0766 26.1369 19.8046C26.1369 21.0266 25.5953 21.759 24.5119 22.0016C25.1359 22.1056 25.6256 22.37 25.9809 22.7946C26.3449 23.2193 26.5269 23.7436 26.5269 24.3676C26.5269 25.269 26.1759 25.9536 25.4739 26.4216C24.9366 26.777 24.2649 26.9546 23.4589 26.9546C22.9389 26.9546 22.4189 26.881 21.8989 26.7336L21.4829 26.2136V25.8106C22.0809 25.9406 22.6053 26.0056 23.0559 26.0056C24.6246 26.0056 25.4089 25.477 25.4089 24.4196C25.4089 23.8476 25.1706 23.3666 24.6939 22.9766C24.4253 22.76 24.1393 22.6126 23.8359 22.5346C23.5413 22.448 23.1036 22.4003 22.5229 22.3916V21.5466H23.6279C24.0439 21.5466 24.3819 21.4123 24.6419 21.1436C24.9106 20.8663 25.0449 20.511 25.0449 20.0776C25.0449 19.5663 24.8759 19.1633 24.5379 18.8686C24.1999 18.5653 23.7406 18.4136 23.1599 18.4136C22.8739 18.4136 22.4666 18.47 21.9379 18.5826V17.6466Z" fill="black"/>
</svg>
