<svg width="31" height="35" viewBox="0 0 31 35" fill="none" xmlns="http://www.w3.org/2000/svg">
<path d="M13.6464 34.033C9.86209 34.033 7.19526 33.2533 5.25369 31.579C3.07851 29.7034 1.78254 26.6241 1.29171 22.1651C0.912638 18.7214 1.12571 14.8889 1.89166 11.3735C2.28352 9.57505 2.80528 7.92856 3.44244 6.47978C4.11095 4.95973 4.89134 3.69435 5.76194 2.71879C7.13508 1.18009 8.69505 0.399902 10.3985 0.399902C13.9453 0.399902 16.8975 3.41154 20.9835 7.57982L21.216 7.81694C21.9523 8.56755 22.7194 9.31689 23.4611 10.0415C26.8005 13.3039 29.9548 16.3853 29.9548 19.1272C29.9548 20.8706 29.4304 22.6832 28.3962 24.5148C27.4419 26.2048 26.0622 27.8652 24.4063 29.3163C22.7934 30.7298 20.9582 31.9135 19.0992 32.7393C17.1939 33.5857 15.3083 34.033 13.6464 34.033Z" fill="#ED6503"/>
<path d="M10.3985 0.779808C8.80724 0.779808 7.34215 1.51745 6.04388 2.97225C4.39364 4.82145 3.05033 7.83391 2.26141 11.4547C1.50403 14.9308 1.29325 18.7197 1.66792 22.1234C2.14773 26.4822 3.40132 29.4809 5.50034 31.2909C7.36932 32.9025 9.95777 33.6532 13.6463 33.6532C15.256 33.6532 17.0885 33.217 18.9459 32.3919C20.7707 31.5813 22.5727 30.4189 24.1573 29.0302C25.7814 27.6069 27.1333 25.9807 28.0668 24.3275C29.0684 22.5538 29.5762 20.8041 29.5762 19.1272C29.5762 17.9997 28.9649 16.6737 27.7074 15.0737C26.5103 13.5506 24.9009 11.9783 23.197 10.3138C22.4539 9.58772 21.6854 8.83697 20.9462 8.08342L20.7136 7.84626C16.6922 3.74386 13.7866 0.779808 10.3985 0.779808ZM10.3985 0.0200195C14.1728 0.0200195 17.2238 3.20409 21.4858 7.55049C25.5441 11.6876 30.3333 15.5848 30.3333 19.1272C30.3333 26.6803 20.7543 34.4129 13.6463 34.4129C6.53833 34.4129 1.95964 31.693 0.91543 22.2068C-0.128771 12.7207 3.29048 0.0200195 10.3985 0.0200195Z" fill="#707070"/>
<path d="M10.8995 11.0159V19.8299L10.3405 20.3239H9.79452V12.3419L8.18252 13.6939L7.59752 12.9659L9.91152 11.0159H10.8995ZM15.2346 20.4929C14.0819 20.4929 13.2586 19.8905 12.7646 18.6859C12.4439 17.9145 12.2836 16.9569 12.2836 15.8129C12.2836 14.3742 12.5349 13.1869 13.0376 12.2509C13.5316 11.3149 14.2639 10.8469 15.2346 10.8469C16.1793 10.8469 16.9029 11.3019 17.4056 12.2119C17.9343 13.1392 18.1986 14.3265 18.1986 15.7739C18.1986 17.1345 17.9819 18.2265 17.5486 19.0499C17.0373 20.0119 16.2659 20.4929 15.2346 20.4929ZM17.0676 15.7999C17.0676 13.1565 16.4566 11.8349 15.2346 11.8349C14.0213 11.8349 13.4146 13.1479 13.4146 15.7739C13.4146 16.8745 13.5143 17.7022 13.7136 18.2569C13.9996 19.0802 14.5066 19.4919 15.2346 19.4919C16.4566 19.4919 17.0676 18.2612 17.0676 15.7999Z" fill="black"/>
</svg>
