<svg width="51" height="53" viewBox="0 0 51 53" fill="none" xmlns="http://www.w3.org/2000/svg">
<path d="M21.0594 52.176C17.5938 52.176 15.2042 52.0478 13.2457 51.3928C11.4118 50.7795 9.91344 49.682 8.074 47.6044C6.89456 46.2742 4.6625 43.441 2.96313 39.409C1.29362 35.4478 0.583324 31.4218 0.851977 27.4426C1.09117 23.8998 1.48683 21.3413 2.13487 19.1468C2.86943 16.6595 3.95397 14.5596 5.548 12.5383C7.04982 10.6326 8.04192 9.37377 9.78497 8.21619C11.4692 7.09768 13.9222 6.02918 18.5341 4.40519L18.5425 4.40225L18.5507 4.39893C18.8179 4.29104 19.0885 4.18109 19.3623 4.06988C23.0532 2.57063 27.2365 0.871338 30.8739 0.871338C34.4589 0.871338 37.791 2.415 40.5099 5.33544C43.1899 8.21411 45.1157 12.2354 46.079 16.9646L46.0956 17.0461L46.1443 17.1136C47.8932 19.537 48.9048 21.4057 49.5268 23.362C50.1801 25.4169 50.4589 27.7004 50.4589 30.9975C50.4589 33.3604 50.4227 35.4691 49.9782 37.3469C49.5084 39.3316 48.5946 40.9837 47.1022 42.5462C44.5068 45.2653 40.3835 47.7377 35.4917 49.5081C30.7379 51.2285 25.6124 52.176 21.0594 52.176Z" fill="#ED6503"/>
<path d="M30.8734 1.2591C27.3128 1.2591 23.1672 2.94307 19.5096 4.4288C19.2356 4.54011 18.9646 4.65016 18.6973 4.75814L18.6641 4.77069C9.66851 7.93825 8.86067 8.96331 5.85478 12.7774C4.29227 14.7588 3.2291 16.8174 2.50894 19.256C1.86923 21.4223 1.47816 23.9551 1.24095 27.4686C0.976387 31.3872 1.67679 35.3541 3.32269 39.2593C5.00052 43.2402 7.20281 46.0358 8.36661 47.3483C10.1569 49.3704 11.6064 50.4357 13.3697 51.0254C15.2776 51.6635 17.6339 51.7883 21.059 51.7883C25.5676 51.7883 30.6456 50.8491 35.3577 49.1438C40.1938 47.3936 44.264 44.9558 46.8187 42.2793C48.2615 40.7687 49.1446 39.1733 49.5979 37.2582C50.0328 35.4209 50.0682 33.3358 50.0682 30.9975C50.0682 27.7423 49.7949 25.4937 49.1542 23.4788C48.5372 21.5383 47.5732 19.7596 45.8267 17.3396L45.7293 17.2045L45.6961 17.0416C44.7469 12.3821 42.8543 8.42521 40.2229 5.59875C37.5798 2.75973 34.3468 1.2591 30.8734 1.2591ZM30.8734 0.483643C38.5128 0.483643 44.4982 7.25177 46.4611 16.8877C49.7773 21.483 50.8488 24.5426 50.8488 30.9975C50.8488 35.8765 50.694 39.3486 47.3848 42.8131C41.826 48.6372 30.3591 52.5637 21.059 52.5637C13.9395 52.5637 11.4359 51.9891 7.78054 47.8605C4.33866 43.9787 -0.145636 36.419 0.462163 27.4167C0.896131 20.989 1.89627 16.5396 5.24037 12.2992C8.35094 8.35223 9.28159 7.25177 18.4033 4.03977C22.2701 2.47797 26.884 0.483643 30.8734 0.483643Z" fill="#707070"/>
<path d="M18.6215 22.6478C19.2802 22.4398 19.8219 22.3358 20.2465 22.3358C21.1565 22.3358 21.8802 22.5741 22.4175 23.0508C22.9375 23.5101 23.1975 24.1211 23.1975 24.8838C23.1975 26.0018 22.6602 26.7081 21.5855 27.0028C22.2182 27.1328 22.7035 27.4015 23.0415 27.8088C23.3969 28.2421 23.5745 28.7275 23.5745 29.2648C23.5745 30.1575 23.2019 30.8465 22.4565 31.3318C21.8845 31.7045 21.1955 31.8908 20.3895 31.8908C19.8262 31.8908 19.2715 31.8215 18.7255 31.6828L18.2185 31.0588V30.4608C18.8252 30.5735 19.3452 30.6298 19.7785 30.6298C21.2519 30.6298 21.9885 30.1791 21.9885 29.2778C21.9885 28.8098 21.7849 28.4155 21.3775 28.0948C21.1175 27.8955 20.8402 27.7611 20.5455 27.6918C20.2595 27.6225 19.8132 27.5791 19.2065 27.5618V26.3528H20.5195C20.8489 26.3528 21.1219 26.2401 21.3385 26.0148C21.5552 25.7808 21.6635 25.4905 21.6635 25.1438C21.6635 24.7018 21.5119 24.3595 21.2085 24.1168C20.9139 23.8655 20.5065 23.7398 19.9865 23.7398C19.6572 23.7398 19.2022 23.8135 18.6215 23.9608V22.6478ZM27.5788 22.2318C28.5755 22.2405 29.3468 22.7085 29.8928 23.6358C30.4302 24.5545 30.6988 25.7331 30.6988 27.1718C30.6988 28.6278 30.4302 29.7805 29.8928 30.6298C29.3642 31.4705 28.5972 31.8908 27.5918 31.8908C26.5518 31.8908 25.7675 31.4488 25.2388 30.5648C24.7275 29.6981 24.4718 28.5715 24.4718 27.1848C24.4718 25.7635 24.7275 24.5935 25.2388 23.6748C25.7762 22.7128 26.5562 22.2318 27.5788 22.2318ZM29.1128 27.1978C29.1128 26.2705 29.0175 25.4948 28.8268 24.8708C28.5668 24.0128 28.1508 23.5795 27.5788 23.5708C27.0675 23.5708 26.6862 23.9131 26.4348 24.5978C26.1835 25.2911 26.0578 26.1535 26.0578 27.1848C26.0578 28.1121 26.1575 28.8748 26.3568 29.4728C26.5908 30.1835 26.9982 30.5388 27.5788 30.5388C28.6015 30.5388 29.1128 29.4251 29.1128 27.1978Z" fill="black"/>
</svg>
