<svg width="48" height="47" viewBox="0 0 48 47" fill="none" xmlns="http://www.w3.org/2000/svg">
<path d="M28.046 46.2525C28.0461 46.2525 28.0458 46.2525 28.046 46.2525C27.6926 46.2525 27.3164 46.2438 26.8812 46.2338C26.3323 46.2211 25.7102 46.2067 24.9744 46.2067C17.8655 46.2067 11.3409 43.2651 5.26722 40.2487C4.32703 39.6224 3.57464 38.8679 2.96763 37.9426C2.40488 37.0848 1.97952 36.0979 1.66726 34.9255C1.09414 32.7736 0.974201 30.303 0.9729 27.2586C1.4018 25.6597 1.59597 24.8865 1.94563 23.4942C2.21994 22.4019 2.5956 20.906 3.25958 18.3182L3.26869 18.2827L3.27094 18.2461C3.61952 12.5896 4.21549 10.5713 5.41954 8.18672C6.23573 6.56336 8.06843 5.11594 10.0087 3.58352C10.4461 3.23808 10.8982 2.88105 11.3462 2.51616C13.6458 1.12993 16.1538 0.938477 18.5225 0.938477C19.3053 0.938477 20.0831 0.961632 20.9066 0.986144C21.7241 1.01048 22.5695 1.03564 23.4138 1.03564C26.4875 1.03564 29.5367 1.62117 32.4769 2.77597C35.3457 3.90278 37.9489 5.50532 40.2142 7.53908C42.512 9.60217 44.3224 11.9859 45.595 14.6239C46.932 17.3957 47.61 20.325 47.61 23.3305C47.61 26.884 47.1397 30.07 46.2122 32.8002C45.1634 35.8873 43.5224 38.3992 41.334 40.2671C31.9862 45.6595 30.8608 46.2525 28.046 46.2525Z" fill="#ED6503"/>
<path d="M18.5219 1.32625C16.2183 1.32625 13.7831 1.5096 11.5716 2.83368C11.1285 3.19424 10.6827 3.54628 10.2513 3.88704C8.34574 5.39199 6.5459 6.81346 5.76803 8.36061C4.58875 10.6961 4.00454 12.6811 3.66013 18.2698L3.65563 18.343L3.6374 18.414C2.97367 21.0009 2.59814 22.4963 2.32393 23.5881C1.9774 24.968 1.78337 25.7407 1.36286 27.3093C1.36546 30.2999 1.48501 32.7268 2.04421 34.8263C2.66207 37.1462 3.74936 38.764 5.46379 39.9131C11.4895 42.9049 17.9586 45.819 24.9741 45.819C25.7143 45.819 26.3387 45.8334 26.8896 45.8462C27.3224 45.8562 27.6962 45.8648 28.0451 45.8648C29.4124 45.8648 30.3114 45.7335 32.0241 44.9556C33.8326 44.1341 36.521 42.5949 41.1063 39.9499C43.2273 38.1304 44.8203 35.6837 45.842 32.6763C46.756 29.9861 47.2193 26.8418 47.2193 23.3306C47.2193 20.3835 46.5543 17.5105 45.2427 14.7915C43.9922 12.1992 42.2122 9.85589 39.9522 7.82678C37.7217 5.82427 35.1583 4.24625 32.333 3.13658C29.4388 1.9998 26.4378 1.42341 23.4135 1.42341C22.5633 1.42341 21.7149 1.39815 20.8945 1.37373C20.074 1.34932 19.299 1.32625 18.5219 1.32625ZM18.5221 0.550781C20.1157 0.55079 21.7535 0.647942 23.4135 0.647942C36.1303 0.647942 47.9999 10.6964 47.9999 23.3306C47.9999 29.9888 46.3642 36.5042 41.5605 40.5846C29.4622 47.5638 30.9891 46.5945 24.9741 46.5945C18.018 46.5945 11.705 43.8804 5.07036 40.5846C0.972543 37.8705 0.582275 32.9312 0.582275 27.2079C1.36671 24.2854 1.38002 24.0728 2.88105 18.2224C3.22745 12.6015 3.80439 10.5201 5.07036 8.0129C6.11617 5.93284 8.64475 4.21655 11.1196 2.19916C13.4046 0.812978 15.9039 0.550764 18.5221 0.550781Z" fill="#707070"/>
<path d="M22.1477 16.5228V25.1288L21.3417 25.8308H20.5617V18.3298L19.0537 19.6038L18.2997 18.6548L20.8217 16.5228H22.1477ZM29.3427 16.5228V17.6408L26.3917 25.1288L25.5337 25.8308H24.4157L27.6267 17.9268H23.4407V16.5228H29.3427Z" fill="black"/>
</svg>
