<svg width="48" height="47" viewBox="0 0 48 47" fill="none" xmlns="http://www.w3.org/2000/svg">
<path d="M19.9548 45.702C17.1394 45.702 16.0145 45.1092 6.66626 39.7166C4.47786 37.8487 2.83683 35.3368 1.78806 32.2497C0.860547 29.5195 0.390259 26.3334 0.390259 22.78C0.390259 19.7744 1.0682 16.8451 2.40525 14.0734C3.67782 11.4353 5.48818 9.05163 7.78606 6.98854C10.0513 4.95477 12.6545 3.35223 15.5234 2.22542C18.4635 1.07063 21.5127 0.485097 24.5864 0.485097C25.4307 0.485097 26.2761 0.459933 27.0936 0.435599C27.9171 0.411087 28.6949 0.387939 29.4777 0.387939C31.8464 0.387939 34.3544 0.579397 36.654 1.96562C37.102 2.33051 37.5541 2.68752 37.9915 3.03295C39.9318 4.56538 41.7645 6.01281 42.5804 7.63559C43.7847 10.0208 44.3807 12.0391 44.7293 17.6955L44.7315 17.7321L44.7406 17.7676C45.4047 20.3557 45.7804 21.8517 46.0547 22.944C46.4043 24.3362 46.5985 25.1093 47.0273 26.7081C47.026 29.7524 46.9061 32.2231 46.333 34.3749C46.0207 35.5473 45.5953 36.5342 45.0326 37.392C44.4256 38.3173 43.6732 39.0719 42.733 39.6982C36.6593 42.7145 30.1347 45.6562 23.0258 45.6562C22.2901 45.6562 21.6681 45.6705 21.1194 45.6832C20.6841 45.6933 20.3082 45.702 19.9548 45.702Z" fill="#ED6503"/>
<path d="M29.4777 0.775466C28.7008 0.775466 27.9258 0.798537 27.1053 0.822957C26.2849 0.847376 25.4366 0.872624 24.5864 0.872624C21.5621 0.872624 18.5611 1.44902 15.6668 2.58579C12.8416 3.69548 10.2782 5.27349 8.04773 7.27601C5.78771 9.30511 4.00772 11.6484 2.75721 14.2407C1.44558 16.9598 0.780536 19.8327 0.780536 22.7798C0.780536 26.291 1.24393 29.4353 2.15784 32.1255C3.17954 35.1329 4.77257 37.5796 6.89355 39.3991C11.4789 42.0442 14.1673 43.5833 15.9758 44.4048C17.6885 45.1828 18.5875 45.314 19.9548 45.314C20.3036 45.314 20.6775 45.3054 21.1103 45.2954C21.6612 45.2827 22.2856 45.2682 23.0258 45.2682C30.0413 45.2682 36.5104 42.3541 42.5361 39.3623C44.2505 38.2132 45.3378 36.5954 45.9557 34.2755C46.5149 32.176 46.6344 29.7491 46.637 26.7585C46.2165 25.19 46.0225 24.4174 45.676 23.0376C45.4018 21.9458 45.0263 20.4504 44.3625 17.8632L44.3443 17.7922L44.3398 17.719C43.9954 12.1304 43.4111 10.1454 42.2313 7.80865C41.454 6.26268 39.6541 4.84121 37.7486 3.33626C37.3172 2.9955 36.8714 2.64346 36.4282 2.28291C34.2167 0.958822 31.7815 0.775466 29.4777 0.775466ZM29.4777 0C32.096 0 34.5953 0.262199 36.8803 1.64837C39.3551 3.66577 41.8837 5.38206 42.9295 7.46212C44.1955 9.96934 44.7724 12.0507 45.1188 17.6717C46.6199 23.522 46.6332 23.7346 47.4176 26.6571C47.4176 32.3804 47.0273 37.3197 42.9295 40.0339C36.2949 43.3296 29.9819 46.0437 23.0258 46.0437C17.0108 46.0437 18.5377 47.013 6.43942 40.0339C1.63564 35.9534 0 29.438 0 22.7798C0 10.1456 11.8696 0.0971607 24.5864 0.0971607C26.2464 0.0971607 27.8842 0 29.4777 0Z" fill="#707070"/>
<path d="M18.4499 16.18C19.1086 15.972 19.6502 15.868 20.0749 15.868C20.9849 15.868 21.7086 16.1064 22.2459 16.583C22.7659 17.0424 23.0259 17.6534 23.0259 18.416C23.0259 19.534 22.4886 20.2404 21.4139 20.535C22.0466 20.665 22.5319 20.9337 22.8699 21.341C23.2252 21.7744 23.4029 22.2597 23.4029 22.797C23.4029 23.6897 23.0302 24.3787 22.2849 24.864C21.7129 25.2367 21.0239 25.423 20.2179 25.423C19.6546 25.423 19.0999 25.3537 18.5539 25.215L18.0469 24.591V23.993C18.6536 24.1057 19.1736 24.162 19.6069 24.162C21.0802 24.162 21.8169 23.7114 21.8169 22.81C21.8169 22.342 21.6132 21.9477 21.2059 21.627C20.9459 21.4277 20.6686 21.2934 20.3739 21.224C20.0879 21.1547 19.6416 21.1114 19.0349 21.094V19.885H20.3479C20.6772 19.885 20.9502 19.7724 21.1669 19.547C21.3836 19.313 21.4919 19.0227 21.4919 18.676C21.4919 18.234 21.3402 17.8917 21.0369 17.649C20.7422 17.3977 20.3349 17.272 19.8149 17.272C19.4856 17.272 19.0306 17.3457 18.4499 17.493V16.18ZM24.6252 16.674C25.4485 16.1367 26.2805 15.868 27.1212 15.868C27.9619 15.868 28.6032 16.115 29.0452 16.609C29.4352 17.0337 29.6302 17.6014 29.6302 18.312C29.6302 18.8407 29.5045 19.3607 29.2532 19.872C29.0019 20.3834 28.5642 21.0204 27.9402 21.783C27.2382 22.6324 26.8482 23.096 26.7702 23.174L26.0032 23.954H29.8122V24.474L29.1622 25.28H24.2352V23.954L25.1972 22.966L26.1332 21.9C26.8525 21.1027 27.3162 20.5524 27.5242 20.249C27.9662 19.6164 28.1872 19.0574 28.1872 18.572C28.1872 18.1907 28.0615 17.883 27.8102 17.649C27.5675 17.4064 27.2469 17.285 26.8482 17.285C26.3802 17.285 25.9035 17.454 25.4182 17.792L24.6252 16.674Z" fill="black"/>
</svg>
