<svg width="42" height="45" viewBox="0 0 42 45" fill="none" xmlns="http://www.w3.org/2000/svg">
<path d="M13.0967 7.91082C16.5769 6.1495 20.2855 7.48402 24.7832 10.0297C26.6567 11.0887 28.6364 12.2508 30.4217 13.5719C32.5235 15.1273 33.9538 16.6268 34.673 18.0287C35.6522 19.9373 36.1787 21.9606 36.238 24.0423C36.2924 25.9537 35.9555 27.8628 35.2367 29.7166C33.8975 33.1703 31.2884 36.1481 28.2572 37.6821C26.9344 38.3516 24.2936 39.5657 21.4698 40.1749C18.5865 40.7968 16.3583 40.6125 14.8471 39.6272C13.868 38.9901 12.9092 37.7084 11.9968 35.8177C11.2478 34.2654 10.748 32.7525 10.5078 32.0254C10.4455 31.8369 10.4037 31.7102 10.3662 31.6216C9.67586 26.9725 9.26946 24.6373 9.05055 23.3793C8.76369 21.7309 8.76369 21.7309 8.79828 20.4741C8.80458 20.2452 8.81199 19.9759 8.8191 19.65C8.89279 16.1925 9.16333 13.9638 9.72372 12.1977C10.389 10.1009 11.4608 8.73875 13.0967 7.91082Z" fill="#ED6503"/>
<path d="M13.2733 8.25641C11.7369 9.03403 10.727 10.3235 10.0953 12.3146C9.54663 14.0436 9.28147 16.2399 9.2086 19.6586C9.20148 19.9855 9.19405 20.2555 9.18773 20.485C9.15421 21.7032 9.15421 21.7032 9.43443 23.3135C9.65301 24.5696 10.0583 26.8985 10.7458 31.5262C10.7874 31.6308 10.8285 31.7552 10.8779 31.9048C11.1155 32.624 11.61 34.1207 12.348 35.6503C13.2167 37.4506 14.1544 38.7135 15.0604 39.3031C18.0033 41.2219 23.7152 39.5454 28.0794 37.3367C31.0271 35.8448 33.5664 32.944 34.872 29.5771C35.5721 27.7714 35.9003 25.9129 35.8473 24.0531C35.7897 22.0294 35.2774 20.0617 34.3248 18.2047C33.6331 16.8564 32.2413 15.4023 30.1881 13.8829C28.4198 12.5743 26.4525 11.4196 24.5896 10.3666C22.0157 8.9098 20.1152 8.09396 18.4275 7.72134C16.4814 7.29167 14.8436 7.46169 13.2733 8.25641ZM12.9188 7.56531C16.5657 5.71962 20.3929 7.0991 24.9756 9.69279C28.4262 11.6433 33.3193 14.5375 35.02 17.8528C39.2298 26.059 34.5528 34.931 28.4339 38.0278C24.8604 39.8363 18.2565 42.3143 14.6325 39.9514C11.6936 38.039 9.99753 31.4851 9.99077 31.7539C8.23443 19.9145 8.34998 23.2368 8.42835 19.6414C8.55428 13.7328 9.26582 9.4141 12.9188 7.56531Z" fill="#707070"/>
<path d="M14.8061 17.394C15.6295 16.8567 16.4615 16.588 17.3021 16.588C18.1428 16.588 18.7841 16.835 19.2261 17.329C19.6161 17.7537 19.8111 18.3213 19.8111 19.032C19.8111 19.5607 19.6855 20.0807 19.4341 20.592C19.1828 21.1033 18.7451 21.7403 18.1211 22.503C17.4191 23.3523 17.0291 23.816 16.9511 23.894L16.1841 24.674H19.9931V25.194L19.3431 26H14.4161V24.674L15.3781 23.686L16.3141 22.62C17.0335 21.8227 17.4971 21.2723 17.7051 20.969C18.1471 20.3363 18.3681 19.7773 18.3681 19.292C18.3681 18.9107 18.2425 18.603 17.9911 18.369C17.7485 18.1263 17.4278 18.005 17.0291 18.005C16.5611 18.005 16.0845 18.174 15.5991 18.512L14.8061 17.394ZM21.2173 17.394C22.0406 16.8567 22.8726 16.588 23.7133 16.588C24.5539 16.588 25.1953 16.835 25.6373 17.329C26.0273 17.7537 26.2223 18.3213 26.2223 19.032C26.2223 19.5607 26.0966 20.0807 25.8453 20.592C25.5939 21.1033 25.1563 21.7403 24.5323 22.503C23.8303 23.3523 23.4403 23.816 23.3623 23.894L22.5953 24.674H26.4043V25.194L25.7543 26H20.8273V24.674L21.7893 23.686L22.7253 22.62C23.4446 21.8227 23.9083 21.2723 24.1163 20.969C24.5583 20.3363 24.7793 19.7773 24.7793 19.292C24.7793 18.9107 24.6536 18.603 24.4023 18.369C24.1596 18.1263 23.8389 18.005 23.4403 18.005C22.9723 18.005 22.4956 18.174 22.0103 18.512L21.2173 17.394Z" fill="black"/>
</svg>
