<svg width="24" height="20" viewBox="0 0 24 20" fill="none" xmlns="http://www.w3.org/2000/svg">
<path d="M6 10C6 9.76492 6 8 6 8C6.16623 7.83377 6.76492 7 7 7L15.0682 6L15.0682 3.10227C15.0682 1.32955 13.1963 0 11.5227 0H3.10227C2.27977 0.000879841 1.4912 0.328008 0.909606 0.909606C0.328008 1.4912 0.000879841 2.27977 0 3.10227V16.3977C0.000879841 17.2202 0.328008 18.0088 0.909606 18.5904C1.4912 19.172 2.27977 19.4991 3.10227 19.5H11.9659C12.7884 19.4991 13.577 19.172 14.1586 18.5904C14.7402 18.0088 15.0673 17.2202 15.0682 16.3977L15.0682 13.5L7 12.5C6.76492 12.5 6.16623 11.1662 6 11C6 11 6 10.2351 6 10Z" fill="#6854C2"/>
<path d="M22.7856 9.12358L18.3538 4.69177C18.1862 4.53256 17.9631 4.44511 17.732 4.44807C17.5008 4.45103 17.28 4.54416 17.1166 4.70761C16.9531 4.87105 16.86 5.09188 16.857 5.32301C16.8541 5.55414 16.9415 5.77729 17.1007 5.94486L20.0191 8.86377H15.0682V10.6365H20.0191L17.1007 13.5554C17.0149 13.6369 16.9464 13.7347 16.899 13.8431C16.8516 13.9516 16.8264 14.0683 16.8249 14.1866C16.8234 14.3049 16.8456 14.4224 16.8902 14.5319C16.9347 14.6415 17.0008 14.7411 17.0845 14.8248C17.1681 14.9084 17.2677 14.9745 17.3773 15.019C17.4869 15.0636 17.6043 15.0858 17.7226 15.0843C17.8409 15.0828 17.9577 15.0576 18.0661 15.0102C18.1745 14.9629 18.2723 14.8943 18.3538 14.8085L22.7856 10.3767C22.9517 10.2105 23.045 9.98511 23.045 9.75013C23.045 9.51516 22.9517 9.28979 22.7856 9.12358Z" fill="#6854C2"/>
</svg>
