<svg width="23" height="20" viewBox="0 0 23 20" fill="none" xmlns="http://www.w3.org/2000/svg">
<path d="M21.8498 8.48006L19.3769 7.8134C19.2059 7.27427 18.9708 6.75346 18.6757 6.26007L19.8862 4.21341C19.9317 4.13616 19.9483 4.04774 19.9337 3.96127C19.9191 3.8748 19.8739 3.7949 19.805 3.73342L18.0408 2.13342C17.9728 2.0712 17.8843 2.03047 17.7885 2.01726C17.6928 2.00405 17.5949 2.01907 17.5093 2.06009L15.2579 3.14675C14.7062 2.86719 14.122 2.64361 13.5159 2.48009L12.7777 0.273434C12.7465 0.192112 12.6875 0.121834 12.6092 0.0727163C12.531 0.0235984 12.4375 -0.00182615 12.3422 0.000102112H9.84716C9.75131 0.000505159 9.65809 0.028525 9.58109 0.0800838C9.50409 0.131643 9.44731 0.20405 9.41902 0.286767L8.68086 2.48676C8.06966 2.64941 7.48042 2.87301 6.92402 3.15342L4.70951 2.07343C4.62397 2.0324 4.52607 2.01738 4.43032 2.03059C4.33458 2.0438 4.24611 2.08454 4.17803 2.14676L2.38428 3.72675C2.31539 3.78823 2.27028 3.86813 2.25565 3.9546C2.24103 4.04107 2.25766 4.12949 2.30308 4.20675L3.49892 6.20674C3.18893 6.70713 2.94136 7.23703 2.76075 7.78673L0.317412 8.45339C0.225823 8.47894 0.145649 8.53021 0.0885604 8.59976C0.0314715 8.6693 0.000446277 8.75349 0 8.84006V11.0934C0.000446277 11.1799 0.0314715 11.2641 0.0885604 11.3337C0.145649 11.4032 0.225823 11.4545 0.317412 11.48L2.77551 12.1467C2.9581 12.6872 3.20562 13.2081 3.51368 13.7L2.30308 15.7934C2.25766 15.8706 2.24103 15.959 2.25565 16.0455C2.27028 16.132 2.31539 16.2119 2.38428 16.2734L4.1485 17.8667C4.21658 17.9289 4.30505 17.9696 4.4008 17.9828C4.49654 17.9961 4.59445 17.981 4.67999 17.94L6.96093 16.84C7.5005 17.103 8.06967 17.313 8.65871 17.4667L9.39688 19.7133C9.42516 19.7961 9.48194 19.8685 9.55894 19.92C9.63595 19.9716 9.72916 19.9996 9.82502 20H12.32C12.4159 19.9996 12.5091 19.9716 12.5861 19.92C12.6631 19.8685 12.7199 19.7961 12.7482 19.7133L13.4863 17.46C14.0703 17.3056 14.6345 17.0955 15.1694 16.8333L17.4651 17.94C17.5506 17.981 17.6485 17.9961 17.7442 17.9828C17.84 17.9696 17.9285 17.9289 17.9965 17.8667L19.7608 16.2734C19.8297 16.2119 19.8748 16.132 19.8894 16.0455C19.904 15.959 19.8874 15.8706 19.842 15.7934L18.6166 13.7267C18.9099 13.2418 19.145 12.73 19.3179 12.2L21.8055 11.5334C21.8971 11.5078 21.9772 11.4566 22.0343 11.387C22.0914 11.3175 22.1225 11.2333 22.1229 11.1467V8.87339C22.1273 8.79049 22.1034 8.70837 22.0546 8.63806C22.0058 8.56775 21.9343 8.51262 21.8498 8.48006ZM11.0947 13.6667C10.2917 13.6667 9.50674 13.4517 8.83909 13.0488C8.17144 12.6459 7.65107 12.0732 7.34379 11.4032C7.0365 10.7332 6.9561 9.99599 7.11275 9.28472C7.26941 8.57346 7.65608 7.92013 8.22387 7.40734C8.79166 6.89455 9.51507 6.54534 10.3026 6.40386C11.0902 6.26238 11.9065 6.33499 12.6483 6.61251C13.3902 6.89003 14.0243 7.35999 14.4704 7.96297C14.9165 8.56595 15.1546 9.27486 15.1546 10.0001C15.1546 10.9725 14.7269 11.9051 13.9655 12.5928C13.2041 13.2804 12.1714 13.6667 11.0947 13.6667Z" fill="#6854C2"/>
</svg>
