<svg width="500" height="500" viewBox="0 0 500 500" fill="none" xmlns="http://www.w3.org/2000/svg">
<g clip-path="url(#clip0_463_937)">
<path d="M550 -50H-50V550H550V-50Z" fill="white"/>
<path d="M550 -50H-50V550H550V-50Z" fill="white"/>
<mask id="mask0_463_937" style="mask-type:luminance" maskUnits="userSpaceOnUse" x="252" y="148" width="244" height="304">
<path d="M252 148.219H495.911V451.156H252V148.219Z" fill="white"/>
</mask>
<g mask="url(#mask0_463_937)">
<path d="M430.063 427.61V291.677L252.172 451.156V368L496.438 149.005V427.61H430.063Z" fill="#3A73C1"/>
</g>
<mask id="mask1_463_937" style="mask-type:luminance" maskUnits="userSpaceOnUse" x="252" y="26" width="244" height="307">
<path d="M252 26.5571H495.911V332.667H252V26.5571Z" fill="white"/>
</mask>
<g mask="url(#mask1_463_937)">
<path d="M496.438 109.724L252.172 332.031V248.865L496.438 26.5625V109.724Z" fill="#B7D6EB"/>
</g>
<mask id="mask2_463_937" style="mask-type:luminance" maskUnits="userSpaceOnUse" x="7" y="29" width="247" height="399">
<path d="M7.91162 29.3335H253.334V428H7.91162V29.3335Z" fill="white"/>
</mask>
<g mask="url(#mask2_463_937)">
<path d="M74.2814 427.61V172.542L252.172 332.032V248.865L7.91162 29.8701V427.61H74.2814Z" fill="#3A73C1"/>
</g>
<mask id="mask3_463_937" style="mask-type:luminance" maskUnits="userSpaceOnUse" x="98" y="229" width="155" height="223">
<path d="M98.1719 229.333H252.536V451.156H98.1719V229.333Z" fill="white"/>
</mask>
<g mask="url(#mask3_463_937)">
<path d="M98.5625 313.438V230.271L252.172 368V451.156L98.5625 313.438Z" fill="#B7D6EB"/>
</g>
<path d="M62.1346 452.612V453.758H59.1971V463.445H57.7804V453.758H54.8013V452.612H62.1346Z" fill="#105BA6"/>
<path d="M75.3346 452.612V463.445H73.918V458.528H68.3971V463.445H66.9805V452.612H68.3971V457.362H73.918V452.612H75.3346Z" fill="#105BA6"/>
<path d="M82.2546 453.757V457.382H86.2129V458.549H82.2546V462.278H86.6712V463.445H80.8379V452.591H86.6712V453.757H82.2546Z" fill="#105BA6"/>
<path d="M105.589 461.028H100.86L99.9845 463.445H98.5054L102.422 452.674H104.047L107.943 463.445H106.464L105.589 461.028ZM105.172 459.883L103.214 454.424L101.255 459.883H105.172Z" fill="#105BA6"/>
<path d="M118.458 463.445L115.875 459.008H114.167V463.445H112.75V452.612H116.25C117.068 452.612 117.76 452.752 118.333 453.028C118.901 453.31 119.323 453.69 119.604 454.174C119.88 454.648 120.021 455.19 120.021 455.799C120.021 456.549 119.802 457.211 119.375 457.778C118.943 458.351 118.297 458.726 117.438 458.903L120.167 463.445H118.458ZM114.167 457.883H116.25C117.01 457.883 117.589 457.695 117.979 457.32C118.365 456.935 118.563 456.424 118.563 455.799C118.563 455.164 118.365 454.669 117.979 454.32C117.604 453.961 117.026 453.778 116.25 453.778H114.167V457.883Z" fill="#105BA6"/>
<path d="M131.97 452.612V453.758H129.032V463.445H127.615V453.758H124.636V452.612H131.97Z" fill="#105BA6"/>
<path d="M148.989 463.549C147.989 463.549 147.072 463.315 146.239 462.841C145.405 462.372 144.744 461.716 144.26 460.883C143.786 460.039 143.551 459.086 143.551 458.028C143.551 456.976 143.786 456.023 144.26 455.174C144.744 454.331 145.405 453.669 146.239 453.195C147.072 452.726 147.989 452.487 148.989 452.487C149.999 452.487 150.926 452.726 151.76 453.195C152.593 453.669 153.244 454.331 153.718 455.174C154.187 456.008 154.426 456.961 154.426 458.028C154.426 459.086 154.187 460.039 153.718 460.883C153.244 461.716 152.593 462.372 151.76 462.841C150.926 463.315 149.999 463.549 148.989 463.549ZM148.989 462.32C149.749 462.32 150.431 462.148 151.03 461.799C151.64 461.456 152.119 460.956 152.468 460.299C152.812 459.648 152.989 458.893 152.989 458.028C152.989 457.153 152.812 456.398 152.468 455.758C152.119 455.107 151.64 454.607 151.03 454.258C150.431 453.898 149.749 453.716 148.989 453.716C148.223 453.716 147.536 453.898 146.926 454.258C146.327 454.607 145.853 455.107 145.51 455.758C145.161 456.398 144.989 457.153 144.989 458.028C144.989 458.893 145.161 459.648 145.51 460.299C145.853 460.956 146.333 461.456 146.947 461.799C147.556 462.148 148.239 462.32 148.989 462.32Z" fill="#105BA6"/>
<path d="M165.515 452.612V453.758H160.806V457.424H164.64V458.57H160.806V463.445H159.39V452.612H165.515Z" fill="#105BA6"/>
<path d="M177.063 458.028C177.063 456.976 177.298 456.023 177.772 455.174C178.256 454.33 178.907 453.669 179.73 453.195C180.548 452.711 181.465 452.466 182.48 452.466C183.657 452.466 184.688 452.752 185.563 453.32C186.449 453.893 187.095 454.705 187.501 455.757H185.793C185.501 455.106 185.069 454.606 184.501 454.257C183.928 453.898 183.256 453.716 182.48 453.716C181.715 453.716 181.032 453.898 180.438 454.257C179.84 454.606 179.366 455.106 179.022 455.757C178.673 456.398 178.501 457.153 178.501 458.028C178.501 458.893 178.673 459.648 179.022 460.299C179.366 460.94 179.84 461.44 180.438 461.799C181.032 462.148 181.715 462.32 182.48 462.32C183.256 462.32 183.928 462.148 184.501 461.799C185.069 461.455 185.501 460.955 185.793 460.299H187.501C187.095 461.33 186.449 462.127 185.563 462.695C184.688 463.252 183.657 463.528 182.48 463.528C181.465 463.528 180.548 463.299 179.73 462.841C178.907 462.372 178.256 461.716 177.772 460.882C177.298 460.039 177.063 459.086 177.063 458.028Z" fill="#105BA6"/>
<path d="M198.392 463.445L195.809 459.008H194.101V463.445H192.684V452.612H196.184C197.002 452.612 197.694 452.752 198.267 453.028C198.835 453.31 199.257 453.69 199.538 454.174C199.814 454.648 199.955 455.19 199.955 455.799C199.955 456.549 199.736 457.211 199.309 457.778C198.877 458.351 198.231 458.726 197.372 458.903L200.101 463.445H198.392ZM194.101 457.883H196.184C196.944 457.883 197.523 457.695 197.913 457.32C198.299 456.935 198.497 456.424 198.497 455.799C198.497 455.164 198.299 454.669 197.913 454.32C197.538 453.961 196.96 453.778 196.184 453.778H194.101V457.883Z" fill="#105BA6"/>
<path d="M211.654 461.028H206.924L206.049 463.445H204.57L208.487 452.674H210.112L214.008 463.445H212.529L211.654 461.028ZM211.237 459.883L209.279 454.424L207.32 459.883H211.237Z" fill="#105BA6"/>
<path d="M224.94 452.612V453.758H220.232V457.424H224.065V458.57H220.232V463.445H218.815V452.612H224.94Z" fill="#105BA6"/>
<path d="M236.419 452.612V453.758H233.482V463.445H232.065V453.758H229.086V452.612H236.419Z" fill="#105BA6"/>
<path d="M242.682 452.612V463.445H241.265V452.612H242.682Z" fill="#105BA6"/>
<path d="M256.717 463.445H255.3L249.612 454.82V463.445H248.196V452.591H249.612L255.3 461.216V452.591H256.717V463.445Z" fill="#105BA6"/>
<path d="M270.432 455.758C270.141 455.122 269.708 454.627 269.141 454.278C268.568 453.935 267.901 453.758 267.141 453.758C266.391 453.758 265.708 453.935 265.099 454.278C264.484 454.627 264.005 455.127 263.661 455.778C263.312 456.419 263.141 457.169 263.141 458.028C263.141 458.877 263.312 459.622 263.661 460.258C264.005 460.898 264.484 461.393 265.099 461.737C265.708 462.086 266.391 462.258 267.141 462.258C268.193 462.258 269.062 461.945 269.745 461.32C270.437 460.685 270.839 459.831 270.953 458.758H266.641V457.612H272.453V458.695C272.37 459.586 272.089 460.403 271.62 461.153C271.146 461.893 270.521 462.476 269.745 462.903C268.964 463.32 268.099 463.528 267.141 463.528C266.141 463.528 265.224 463.299 264.391 462.841C263.557 462.372 262.896 461.716 262.411 460.883C261.937 460.039 261.703 459.086 261.703 458.028C261.703 456.976 261.937 456.023 262.411 455.174C262.896 454.331 263.557 453.669 264.391 453.195C265.224 452.726 266.141 452.487 267.141 452.487C268.292 452.487 269.312 452.773 270.203 453.341C271.089 453.914 271.734 454.716 272.141 455.758H270.432Z" fill="#105BA6"/>
<path d="M288.049 452.612C289.226 452.612 290.247 452.836 291.111 453.278C291.986 453.711 292.653 454.336 293.111 455.153C293.57 455.976 293.799 456.94 293.799 458.049C293.799 459.164 293.57 460.127 293.111 460.945C292.653 461.752 291.986 462.372 291.111 462.799C290.247 463.232 289.226 463.445 288.049 463.445H284.674V452.612H288.049ZM288.049 462.278C289.45 462.278 290.518 461.914 291.257 461.174C291.992 460.424 292.361 459.383 292.361 458.049C292.361 456.706 291.986 455.653 291.236 454.903C290.497 454.143 289.434 453.758 288.049 453.758H286.09V462.278H288.049Z" fill="#105BA6"/>
<path d="M300.181 452.612V463.445H298.765V452.612H300.181Z" fill="#105BA6"/>
<path d="M313.903 455.758C313.612 455.122 313.18 454.627 312.612 454.278C312.039 453.935 311.372 453.758 310.612 453.758C309.862 453.758 309.18 453.935 308.57 454.278C307.956 454.627 307.476 455.127 307.133 455.778C306.784 456.419 306.612 457.169 306.612 458.028C306.612 458.877 306.784 459.622 307.133 460.258C307.476 460.898 307.956 461.393 308.57 461.737C309.18 462.086 309.862 462.258 310.612 462.258C311.664 462.258 312.534 461.945 313.216 461.32C313.909 460.685 314.31 459.831 314.424 458.758H310.112V457.612H315.924V458.695C315.841 459.586 315.56 460.403 315.091 461.153C314.617 461.893 313.992 462.476 313.216 462.903C312.435 463.32 311.57 463.528 310.612 463.528C309.612 463.528 308.695 463.299 307.862 462.841C307.028 462.372 306.367 461.716 305.883 460.883C305.409 460.039 305.174 459.086 305.174 458.028C305.174 456.976 305.409 456.023 305.883 455.174C306.367 454.331 307.028 453.669 307.862 453.195C308.695 452.726 309.612 452.487 310.612 452.487C311.763 452.487 312.784 452.773 313.674 453.341C314.56 453.914 315.206 454.716 315.612 455.758H313.903Z" fill="#105BA6"/>
<path d="M322.305 452.612V463.445H320.888V452.612H322.305Z" fill="#105BA6"/>
<path d="M334.486 452.612V453.758H331.548V463.445H330.132V453.758H327.152V452.612H334.486Z" fill="#105BA6"/>
<path d="M345.748 461.028H341.019L340.144 463.445H338.665L342.581 452.674H344.206L348.102 463.445H346.623L345.748 461.028ZM345.331 459.883L343.373 454.424L341.415 459.883H345.331Z" fill="#105BA6"/>
<path d="M354.326 462.299H358.118V463.445H352.909V452.612H354.326V462.299Z" fill="#105BA6"/>
<path d="M373.36 452.612C374.537 452.612 375.558 452.836 376.423 453.278C377.298 453.711 377.965 454.336 378.423 455.153C378.881 455.976 379.11 456.94 379.11 458.049C379.11 459.164 378.881 460.127 378.423 460.945C377.965 461.752 377.298 462.372 376.423 462.799C375.558 463.232 374.537 463.445 373.36 463.445H369.985V452.612H373.36ZM373.36 462.278C374.761 462.278 375.829 461.914 376.569 461.174C377.303 460.424 377.673 459.383 377.673 458.049C377.673 456.706 377.298 455.653 376.548 454.903C375.808 454.143 374.746 453.758 373.36 453.758H371.402V462.278H373.36Z" fill="#105BA6"/>
<path d="M389.785 463.445L387.201 459.008H385.493V463.445H384.076V452.612H387.576C388.394 452.612 389.087 452.752 389.66 453.028C390.227 453.31 390.649 453.69 390.93 454.174C391.206 454.648 391.347 455.19 391.347 455.799C391.347 456.549 391.128 457.211 390.701 457.778C390.269 458.351 389.623 458.726 388.764 458.903L391.493 463.445H389.785ZM385.493 457.883H387.576C388.337 457.883 388.915 457.695 389.305 457.32C389.691 456.935 389.889 456.424 389.889 455.799C389.889 455.164 389.691 454.669 389.305 454.32C388.93 453.961 388.352 453.778 387.576 453.778H385.493V457.883Z" fill="#105BA6"/>
<path d="M398.046 453.757V457.382H402.004V458.549H398.046V462.278H402.462V463.445H396.629V452.591H402.462V453.757H398.046Z" fill="#105BA6"/>
<path d="M414.123 461.028H409.394L408.519 463.445H407.04L410.956 452.674H412.581L416.477 463.445H414.998L414.123 461.028ZM413.706 459.883L411.748 454.424L409.79 459.883H413.706Z" fill="#105BA6"/>
<path d="M432.284 452.695V463.445H430.868V455.424L427.284 463.445H426.305L422.701 455.403V463.445H421.284V452.695H422.826L426.805 461.57L430.784 452.695H432.284Z" fill="#105BA6"/>
<path d="M441.204 463.549C440.496 463.549 439.855 463.424 439.288 463.174C438.73 462.924 438.288 462.58 437.954 462.132C437.631 461.674 437.475 461.148 437.475 460.549H438.975C439.027 461.065 439.236 461.497 439.6 461.841C439.975 462.19 440.506 462.362 441.204 462.362C441.881 462.362 442.418 462.195 442.808 461.862C443.194 461.518 443.392 461.08 443.392 460.549C443.392 460.132 443.272 459.799 443.038 459.549C442.814 459.289 442.527 459.091 442.183 458.966C441.85 458.83 441.392 458.685 440.808 458.528C440.084 458.336 439.506 458.148 439.079 457.966C438.663 457.773 438.298 457.481 437.996 457.091C437.689 456.69 437.538 456.148 437.538 455.466C437.538 454.882 437.683 454.362 437.975 453.903C438.277 453.445 438.704 453.091 439.246 452.841C439.788 452.591 440.413 452.466 441.121 452.466C442.131 452.466 442.959 452.726 443.6 453.237C444.251 453.737 444.621 454.414 444.704 455.257H443.163C443.105 454.841 442.881 454.481 442.496 454.174C442.121 453.856 441.611 453.695 440.975 453.695C440.392 453.695 439.913 453.851 439.538 454.153C439.163 454.461 438.975 454.882 438.975 455.424C438.975 455.815 439.084 456.132 439.308 456.382C439.527 456.632 439.798 456.83 440.121 456.966C440.454 457.091 440.913 457.237 441.496 457.403C442.215 457.601 442.793 457.794 443.225 457.987C443.668 458.185 444.043 458.481 444.35 458.882C444.652 459.273 444.808 459.81 444.808 460.487C444.808 461.018 444.668 461.518 444.392 461.987C444.111 462.445 443.694 462.82 443.142 463.112C442.6 463.403 441.954 463.549 441.204 463.549Z" fill="#105BA6"/>
<path d="M126.731 227.217L116.981 238.238L114.293 235.884L120.126 229.28L111.835 233.717L109.668 231.78L113.043 222.967L107.189 229.592L104.501 227.217L114.251 216.196L117.418 219.009L113.772 229.363L123.585 224.446L126.731 227.217Z" fill="#105BA6"/>
<path d="M143.867 242.394L134.117 253.415L131.429 251.04L141.179 240.019L143.867 242.394Z" fill="#105BA6"/>
<path d="M153.053 260.309C153.996 259.226 155.079 258.471 156.303 258.038C157.537 257.596 158.782 257.507 160.032 257.768C161.293 258.033 162.47 258.637 163.553 259.58C164.855 260.747 165.662 262.09 165.97 263.601C166.287 265.117 166.079 266.606 165.345 268.08L162.407 265.476C162.6 264.809 162.6 264.179 162.407 263.58C162.209 262.986 161.855 262.465 161.345 262.018C160.522 261.283 159.6 260.976 158.574 261.101C157.558 261.226 156.626 261.768 155.782 262.726C154.918 263.7 154.49 264.695 154.49 265.705C154.501 266.731 154.918 267.611 155.74 268.351C156.251 268.794 156.813 269.07 157.428 269.184C158.053 269.309 158.678 269.247 159.303 268.997L162.24 271.601C160.865 272.502 159.412 272.882 157.886 272.747C156.355 272.622 154.938 271.976 153.636 270.809C152.553 269.861 151.803 268.778 151.386 267.559C150.97 266.351 150.897 265.117 151.178 263.851C151.454 262.59 152.079 261.408 153.053 260.309Z" fill="#105BA6"/>
<path d="M178.703 292.865L180.078 286.677L179.432 286.115L175.765 290.261L173.078 287.886L182.828 276.865L187.348 280.865C188.208 281.63 188.807 282.438 189.14 283.281C189.484 284.13 189.578 284.948 189.411 285.74C189.255 286.531 188.89 287.25 188.307 287.906C187.666 288.641 186.89 289.115 185.973 289.323C185.057 289.531 184.078 289.396 183.036 288.927L181.723 295.531L178.703 292.865ZM181.119 284.198L182.786 285.677C183.286 286.11 183.765 286.318 184.223 286.302C184.682 286.276 185.098 286.042 185.473 285.594C185.859 285.177 186.036 284.74 185.994 284.281C185.963 283.823 185.703 283.38 185.203 282.948L183.536 281.469L181.119 284.198Z" fill="#105BA6"/>
<path d="M200.962 312.729C199.921 311.812 199.176 310.734 198.733 309.5C198.301 308.26 198.212 306.995 198.462 305.687C198.723 304.37 199.337 303.166 200.296 302.083C201.238 301.015 202.343 300.281 203.608 299.875C204.884 299.458 206.16 299.39 207.442 299.666C208.733 299.948 209.9 300.541 210.942 301.458C211.968 302.375 212.697 303.458 213.129 304.708C213.572 305.948 213.66 307.213 213.4 308.521C213.134 309.823 212.53 311.01 211.587 312.083C210.629 313.166 209.509 313.906 208.233 314.312C206.968 314.729 205.697 314.797 204.421 314.521C203.14 314.239 201.988 313.646 200.962 312.729ZM203.129 310.291C204.004 311.067 204.962 311.401 206.004 311.291C207.056 311.177 208.009 310.635 208.858 309.666C209.718 308.692 210.14 307.687 210.129 306.646C210.113 305.593 209.671 304.677 208.796 303.896C207.905 303.12 206.942 302.786 205.9 302.896C204.869 302.995 203.921 303.531 203.046 304.5C202.181 305.489 201.759 306.5 201.775 307.541C201.785 308.593 202.238 309.51 203.129 310.291Z" fill="#105BA6"/>
<path d="M307.8 310.866L305.154 313.241L294.675 310.491L300.696 317.241L298.029 319.616L288.258 308.699L290.925 306.324L301.425 309.074L295.383 302.324L298.029 299.949L307.8 310.866Z" fill="#105BA6"/>
<path d="M316.999 286.851L318.957 289.059L322.52 285.851L324.353 287.893L320.791 291.101L322.957 293.518L326.999 289.893L328.895 292.018L322.186 298.018L312.416 287.101L319.124 281.101L321.041 283.226L316.999 286.851Z" fill="#105BA6"/>
<path d="M349.768 273.356L344.56 272.022L345.56 277.106L342.56 279.814L341.081 271.106L332.706 268.96L335.789 266.189L340.956 267.522L339.935 262.501L342.935 259.814L344.393 268.397L352.851 270.606L349.768 273.356Z" fill="#105BA6"/>
<path d="M364.724 240.314L366.641 242.439L363.766 245.022L371.62 253.814L368.953 256.21L361.099 247.418L358.203 250.001L356.287 247.876L364.724 240.314Z" fill="#105BA6"/>
</g>
<defs>
<clipPath id="clip0_463_937">
<rect width="500" height="500" fill="white"/>
</clipPath>
</defs>
</svg>
