<svg width="22" height="19" viewBox="0 0 22 19" fill="none" xmlns="http://www.w3.org/2000/svg">
<path d="M10.5434 9.5C9.14522 9.5 7.80435 8.99956 6.81571 8.10876C5.82708 7.21796 5.27168 6.00978 5.27168 4.75C5.27168 3.49022 5.82708 2.28204 6.81571 1.39124C7.80435 0.500445 9.14522 0 10.5434 0C11.9415 0 13.2824 0.500445 14.271 1.39124C15.2596 2.28204 15.815 3.49022 15.815 4.75C15.815 6.00978 15.2596 7.21796 14.271 8.10876C13.2824 8.99956 11.9415 9.5 10.5434 9.5ZM10.5434 13.0625C14.7422 13.0625 18.5102 13.7406 21.0867 16.6998V19H0V16.6998C2.57653 13.7394 6.34446 13.0625 10.5434 13.0625Z" fill="#6854C2"/>
</svg>
