<svg width="30" height="25" viewBox="0 0 30 25" fill="none" xmlns="http://www.w3.org/2000/svg">
<path d="M4.25176 6.6507H25.2271C27.3452 6.6507 28.9789 8.19636 28.9789 9.99437V20.7567C28.9789 22.5547 27.3452 24.1003 25.2271 24.1003H4.25176C2.13369 24.1003 0.5 22.5547 0.5 20.7567V9.99437C0.5 8.19636 2.13369 6.6507 4.25176 6.6507Z" stroke="#6854C2"/>
<path d="M20.9844 0.557156L20.9844 0.557197L20.9907 0.55599C21.9561 0.372547 22.9437 0.647682 23.6233 1.26207C24.1253 1.71583 24.4436 2.59828 24.4436 3.29987V4.11313H4.60606C3.70841 4.11313 2.97661 4.271 2.40071 4.48152C2.44152 4.44576 2.48382 4.41028 2.52757 4.37514C3.08591 3.92663 3.78958 3.60919 4.34473 3.49651L20.9844 0.557156Z" stroke="#6854C2"/>
</svg>
