<svg width="38" height="33" viewBox="0 0 38 33" fill="none" xmlns="http://www.w3.org/2000/svg">
<path d="M8.25176 10.6507H29.2271C31.3452 10.6507 32.9789 12.1964 32.9789 13.9944V24.7567C32.9789 26.5547 31.3452 28.1003 29.2271 28.1003H8.25176C6.13369 28.1003 4.5 26.5547 4.5 24.7567V13.9944C4.5 12.1964 6.13369 10.6507 8.25176 10.6507Z" stroke="#484C52"/>
<path d="M24.9844 4.55716L24.9844 4.5572L24.9907 4.55599C25.9561 4.37255 26.9437 4.64768 27.6233 5.26207C28.1253 5.71583 28.4436 6.59828 28.4436 7.29987V8.11313H8.60606C7.70841 8.11313 6.97661 8.271 6.40071 8.48152C6.44152 8.44576 6.48382 8.41028 6.52757 8.37514C7.08591 7.92663 7.78958 7.60919 8.34473 7.49651L24.9844 4.55716Z" stroke="#484C52"/>
</svg>
