<svg width="23" height="19" viewBox="0 0 23 19" fill="none" xmlns="http://www.w3.org/2000/svg">
<path d="M19.4848 4.75073H3.28395C1.47231 4.75073 0 6.08173 0 7.71949V16.032C0 17.6698 1.47231 19.0008 3.28395 19.0008H19.4848C21.2964 19.0008 22.7688 17.6698 22.7688 16.032V7.71949C22.7688 6.08173 21.2964 4.75073 19.4848 4.75073Z" fill="#6854C2"/>
<path d="M16.1406 0.050034L3.2839 2.32114C2.29872 2.51905 0.875671 3.41463 0.875671 4.50318C0.875671 4.50318 1.69666 3.56307 3.55757 3.56307H19.2658V2.54874C19.2658 1.9253 18.9922 1.12868 18.505 0.688318C17.8866 0.129201 16.9999 -0.113248 16.1406 0.050034Z" fill="#6854C2"/>
</svg>
