<svg width="23" height="20" viewBox="0 0 23 20" fill="none" xmlns="http://www.w3.org/2000/svg">
<path d="M22.9583 10.1396C22.9503 9.27842 22.6033 8.45507 21.9925 7.84794L14.9702 0.809252C14.6635 0.504377 14.2486 0.333252 13.8162 0.333252C13.3837 0.333252 12.9689 0.504377 12.6622 0.809252C12.5087 0.961424 12.387 1.14247 12.3039 1.34194C12.2208 1.54141 12.178 1.75536 12.178 1.97145C12.178 2.18755 12.2208 2.4015 12.3039 2.60097C12.387 2.80044 12.5087 2.98148 12.6622 3.13366L18.0476 8.5027H1.67853C1.2444 8.5027 0.828044 8.67516 0.521065 8.98214C0.214085 9.28912 0.041626 9.70547 0.041626 10.1396C0.041626 10.5737 0.214085 10.9901 0.521065 11.2971C0.828044 11.6041 1.2444 11.7765 1.67853 11.7765H18.0476L12.6622 17.1619C12.3539 17.468 12.1799 17.884 12.1784 18.3183C12.1768 18.7527 12.3479 19.1699 12.654 19.4781C12.96 19.7864 13.376 19.9604 13.8104 19.9619C14.2448 19.9635 14.662 19.7924 14.9702 19.4863L21.9925 12.4476C22.6073 11.8365 22.9546 11.0065 22.9583 10.1396V10.1396Z" fill="white"/>
</svg>
